<?xml version="1.0" encoding="utf-8"?>
<!-- Generator: Adobe Illustrator 15.0.0, SVG Export Plug-In  -->
<!DOCTYPE svg PUBLIC "-//W3C//DTD SVG 1.1//EN" "http://www.w3.org/Graphics/SVG/1.1/DTD/svg11.dtd" [
	<!ENTITY ns_flows "http://ns.adobe.com/Flows/1.0/">
]>
<svg version="1.1"
	 xmlns="http://www.w3.org/2000/svg" xmlns:xlink="http://www.w3.org/1999/xlink" xmlns:a="http://ns.adobe.com/AdobeSVGViewerExtensions/3.0/"
	 x="0px" y="0px" width="447px" height="586px" viewBox="-0.811 -0.056 447 586" enable-background="new -0.811 -0.056 447 586"
	 xml:space="preserve">
<defs>
</defs>
<path fill="#FFFFFF" d="M100.933,0C45.421,0,0,45.418,0,100.931v484.281h445.668V0H100.933z"/>
<path fill="#3C3C3B" d="M108.249,33.52c-40.856,0-74.292,33.427-74.292,74.292v305.092h378.41V33.52H108.249z"/>
<path marker-end="none" marker-start="none" fill="#01A8E0" d="M148.502,177.292l0.079,0.092l-17.353-17.37
	c-2.382,17.713,0.215,35.969,7.788,52.495C139.593,201.5,142.898,189.471,148.502,177.292z M178.711,133.44l0.153,0.164
	l-24.259-24.262c-10.131,11.305-17.091,24.451-20.872,38.29l19.873,19.87l-0.079-0.077
	C160.045,155.751,168.58,144.165,178.711,133.44z M200.523,275.461c-18.217-4.416-35.501-13.736-49.728-27.961
	c-26.619-26.623-36.057-63.94-28.313-98.141c-0.056-1.009,0.182-2.022,0.712-2.923c4.531-17.728,13.736-34.495,27.602-48.352
	c39.987-39.992,104.139-41.207,145.592-3.651l-7.713,7.75c-11.521-7.492-30.086-6.909-50.573,1.569l24.499,24.502l-7.454,7.452
	l-27.188-27.194c-11.398,6.003-23.133,14.314-34.369,24.911l31.921,31.918l-7.458,7.441l-31.912-31.903
	c-10.61,11.224-18.917,22.895-24.928,34.231l27.269,27.258l-7.457,7.452l-24.595-24.607
	C130.643,246.103,184.276,268.871,200.523,275.461z M186.313,126.154l-0.154-0.155L186.313,126.154z M220.266,100.828l0.092,0.079
	l-19.914-19.903c-13.873,3.769-27.058,10.737-38.39,20.88l24.105,24.114C196.884,115.865,208.525,107.341,220.266,100.828z
	 M265.431,86.406c-16.547-7.63-34.838-10.272-52.587-7.902l17.407,17.398l-0.091-0.074C242.35,90.252,254.417,86.961,265.431,86.406
	z"/>
<path fill="#01A8E0" d="M326.458,71.835H279.66c9.907,5.335,18.94,12.088,26.83,19.978
	C309.157,89.144,326.458,71.835,326.458,71.835z"/>
<path fill="#FFFFFF" d="M124.555,273.745h46.81c-9.906-5.33-18.935-12.075-26.832-19.97
	C133.038,265.272,124.555,273.745,124.555,273.745z"/>
<path fill="#FFFFFF" d="M238.278,267.066l-0.049-0.043l-17.307-17.294c-10.714,4.908-21.333,8.041-31.223,9.12
	C195.075,261.866,213.284,270.157,238.278,267.066z"/>
<path fill="#FFFFFF" d="M288.961,243.692l-24.108-24.103c-10.707,10.103-22.316,18.62-34.04,25.129l19.755,19.748l0.106,0.097
	C264.499,260.789,277.661,253.834,288.961,243.692z"/>
<path fill="#FFFFFF" d="M317.295,197.856l-0.102-0.1l-19.664-19.668c-6.524,11.689-15.066,23.31-25.226,34.052l24.105,24.106
	C306.563,224.917,313.537,211.724,317.295,197.856z"/>
<path fill="#FFFFFF" d="M311.992,133.084c-0.563,10.988-3.859,22.985-9.435,35.129l17.178,17.181l0.063,0.062
	C322.158,167.778,319.547,149.582,311.992,133.084z"/>
<path fill="#FFFFFF" d="M174.588,247.976c10.701,1.832,24.084-0.235,38.41-6.174l-0.139-0.146l-24.379-24.377l-21.637,21.621
	C169.078,242.272,171.726,245.284,174.588,247.976z"/>
<path fill="#FFFFFF" d="M296.123,109.621l-26.081,26.086l24.436,24.428l0.147,0.153C303.178,139.75,303.718,121.2,296.123,109.621z"
	/>
<path fill="#FFFFFF" d="M289.833,170.404l-0.146-0.164L262.6,143.146l-29.637,29.638l31.861,31.875l0.044,0.048
	C275.496,193.457,283.835,181.758,289.833,170.404z"/>
<path fill="#FFFFFF" d="M257.426,212.161l-0.044-0.051l-31.873-31.875l-29.585,29.587l27.044,27.045l0.162,0.158
	C234.511,231.033,246.21,222.732,257.426,212.161z"/>
<path fill="#FFFFFF" d="M113.506,373.214c-15.874,0-28.576-12.695-28.576-28.578c0-15.111,12.703-27.807,28.576-27.807
	c8.756,0,16.462,3.844,21.654,9.914h8.754c-6.252-10.011-17.509-16.938-30.408-16.938c-19.725,0-35.893,15.97-35.893,34.83
	c0,19.637,16.167,35.603,35.893,35.603c12.988,0,24.346-6.925,30.602-17.314h-8.759
	C130.246,369.265,122.359,373.214,113.506,373.214z"/>
<path fill="#FFFFFF" d="M198.885,331.931c0-12.787-8.851-21.353-21.938-21.353h-22.516v68.697h7.024v-25.978h12.795l20.497,25.978
	h9.336l-20.976-26.654C192.817,350.32,198.885,342.619,198.885,331.931z M161.455,346.563v-29.252h15.492
	c8.852,0,14.625,5.865,14.625,14.62c0,8.764-5.869,14.632-14.625,14.632H161.455z"/>
<rect x="285.959" y="310.579" fill="#FFFFFF" width="7.032" height="68.697"/>
<path fill="#FFFFFF" d="M361.681,344.546v15.481c-5.1,7.892-13.949,13.09-24.055,13.09c-15.876,0-28.576-12.703-28.576-28.571
	c0-15.105,12.7-27.813,28.576-27.813c9.238,0,17.606,4.327,22.803,10.968h7.897c-6.161-10.587-17.319-17.997-30.7-17.997
	c-19.725,0-35.889,15.979-35.889,34.843c0,19.619,16.164,35.595,35.889,35.595c9.238,0,17.705-3.457,24.055-9.238v8.373h7.031
	v-34.729H361.681z"/>
<path fill="#FFFFFF" d="M208.889,379.276h7.61l7.887-17.498c-2.176-0.667-4.358-1.471-6.539-2.425L208.889,379.276z"/>
<path fill="#FFFFFF" d="M247.38,310.579h-7.603l-18.417,40.969c0.158,0.062,0.311,0.131,0.471,0.189
	c0.56,0.251,1.112,0.466,1.662,0.681c0.174,0.069,0.345,0.146,0.521,0.204c0.713,0.274,1.43,0.525,2.13,0.761
	c0.167,0.051,0.331,0.097,0.503,0.15c0.421,0.144,0.839,0.282,1.261,0.402c0.107,0.023,0.213,0.06,0.32,0.093
	c0.242,0.073,0.482,0.127,0.716,0.196c0.443,0.12,0.891,0.248,1.32,0.353c0.256,0.057,0.502,0.116,0.75,0.175
	c0.426,0.093,0.842,0.177,1.259,0.267c0.238,0.046,0.472,0.094,0.708,0.133c0.446,0.095,0.883,0.158,1.31,0.232
	c0.191,0.028,0.394,0.062,0.586,0.09c0.611,0.097,1.222,0.174,1.816,0.238h0.007c0.592,0.063,1.176,0.109,1.756,0.15
	c0.186,0.013,0.36,0.013,0.548,0.028c0.395,0.016,0.773,0.038,1.151,0.044c0.212,0.007,0.417,0.01,0.627,0.01
	c0.185,0,0.375,0.013,0.559,0.013c0.117,0,0.231-0.013,0.348-0.013c0.387,0,0.772-0.01,1.149-0.022
	c0.228-0.008,0.458-0.016,0.677-0.023c0.408-0.023,0.801-0.054,1.196-0.077c0.177-0.022,0.363-0.035,0.54-0.046
	c1.117-0.112,2.175-0.256,3.165-0.43c0.146-0.036,0.29-0.062,0.439-0.093c0.341-0.059,0.674-0.128,0.993-0.196
	c0.174-0.023,0.336-0.069,0.494-0.112c0.294-0.069,0.573-0.131,0.85-0.205c0.163-0.044,0.323-0.085,0.473-0.123
	c0.267-0.066,0.531-0.144,0.775-0.218c0.139-0.046,0.293-0.084,0.415-0.123c0.266-0.084,0.509-0.163,0.749-0.247
	c0.111-0.033,0.229-0.069,0.336-0.115c0.278-0.093,0.537-0.19,0.796-0.274c0.054-0.023,0.112-0.054,0.172-0.066
	c0.3-0.115,0.588-0.235,0.86-0.343c0.043-0.016,0.082-0.044,0.127-0.066c0.212-0.077,0.42-0.177,0.606-0.259
	c0.074-0.038,0.136-0.066,0.205-0.093c0.144-0.074,0.286-0.136,0.412-0.202c0.066-0.022,0.127-0.068,0.187-0.092
	c0.112-0.046,0.22-0.112,0.311-0.163c0.054-0.019,0.104-0.057,0.149-0.069c0.085-0.049,0.161-0.092,0.224-0.128
	c0.035-0.018,0.073-0.041,0.102-0.049c0.063-0.046,0.107-0.068,0.148-0.089c0.016-0.016,0.036-0.031,0.047-0.031
	c0.033-0.023,0.059-0.03,0.059-0.03l12.316,27.318h7.605L247.38,310.579z M255.304,345.257c-0.026,0.023-0.032,0.023-0.061,0.033
	c-0.038,0.049-0.104,0.082-0.171,0.133c-0.034,0.019-0.057,0.031-0.092,0.054c-0.116,0.083-0.241,0.159-0.405,0.267
	c-0.028,0.006-0.06,0.036-0.089,0.052c-0.132,0.087-0.287,0.174-0.448,0.266c-0.066,0.038-0.128,0.082-0.202,0.12
	c-0.175,0.1-0.367,0.2-0.567,0.313c-0.054,0.038-0.106,0.062-0.161,0.09c-0.26,0.136-0.544,0.281-0.848,0.427
	c-0.076,0.044-0.167,0.095-0.251,0.125c-0.243,0.107-0.493,0.236-0.765,0.356c-0.107,0.049-0.213,0.092-0.333,0.148
	c-0.348,0.144-0.717,0.31-1.11,0.473c-0.028,0.008-0.06,0.019-0.088,0.023c-0.394,0.159-0.807,0.313-1.235,0.464
	c-0.139,0.054-0.279,0.104-0.417,0.143c-0.351,0.128-0.706,0.238-1.085,0.358c-0.136,0.046-0.271,0.082-0.41,0.128
	c-0.501,0.144-1.021,0.295-1.566,0.43c-0.107,0.039-0.228,0.054-0.332,0.085c-0.45,0.112-0.911,0.222-1.381,0.325
	c-0.186,0.038-0.369,0.068-0.554,0.107c-0.49,0.098-0.987,0.185-1.499,0.273c-0.136,0.013-0.256,0.044-0.39,0.059
	c-0.626,0.1-1.284,0.182-1.955,0.251c-0.18,0.025-0.367,0.038-0.544,0.056c-0.525,0.057-1.061,0.088-1.601,0.126
	c-0.218,0.008-0.438,0.018-0.649,0.033c-0.728,0.036-1.469,0.064-2.229,0.064c-0.029,0-0.066,0-0.097,0
	c-0.683,0-1.388-0.021-2.094-0.06c-0.243-0.015-0.486-0.03-0.724-0.038c-0.525-0.038-1.049-0.069-1.586-0.115
	c-0.016-0.005-0.037-0.005-0.054-0.005l14.309-31.777l11.746,26.168C255.367,345.211,255.333,345.242,255.304,345.257z"/>
<path fill="#3C3C3B" d="M81.777,477.755h17.222l2.81,6.688h8.575l-15.786-37.806l-0.13-0.322h-8.202L70.64,483.722l-0.304,0.722
	h8.636L81.777,477.755z M90.39,457.158l5.745,13.719H84.643L90.39,457.158z"/>
<path fill="#3C3C3B" d="M140.108,467.893c0,5.919-3.753,10.049-9.131,10.049c-5.348,0-9.089-4.13-9.089-10.049v-21.577h-7.794
	v21.792c0,10.004,6.945,16.991,16.883,16.991c9.935,0,16.872-6.987,16.872-16.991v-21.792h-7.741V467.893z"/>
<polygon fill="#3C3C3B" points="171.548,473.603 160.132,446.316 151.549,446.316 167.341,484.122 167.479,484.444 175.678,484.444 
	191.61,446.316 182.971,446.316 "/>
<polygon fill="#3C3C3B" points="195.195,484.444 224.149,484.444 224.149,477.242 202.988,477.242 202.988,468.63 222.156,468.63 
	222.156,461.426 202.988,461.426 202.988,453.519 224.149,453.519 224.149,446.316 195.195,446.316 "/>
<path fill="#3C3C3B" d="M237.365,471.98h6.382l8.744,12.464h8.951l-9.469-13.421c5.358-1.94,8.655-6.431,8.655-11.871
	c0-7.439-6.061-12.836-14.398-12.836h-16.662v38.128h7.797V471.98z M237.365,453.568h8.114c4.401,0,7.252,2.194,7.252,5.584
	c0,3.382-2.851,5.568-7.252,5.568h-8.114V453.568z"/>
<path fill="#3C3C3B" d="M299.647,478.739v-15.746h-16.864v6.555h9.226v5.948c-2.176,1.503-5.008,2.396-7.625,2.396
	c-6.621,0-12.215-5.742-12.215-12.539c0-6.765,5.594-12.48,12.215-12.48c3.579,0,7.407,1.661,9.536,4.134l0.356,0.412l5.589-5.215
	l-0.367-0.385c-3.584-3.738-9.517-6.151-15.114-6.151c-10.902,0-20.113,9.015-20.113,19.686c0,10.704,9.211,19.747,20.113,19.747
	c5.568,0,11.504-2.437,15.114-6.208L299.647,478.739z"/>
<polygon fill="#3C3C3B" points="332.855,484.444 340.329,484.444 340.329,446.316 332.593,446.316 332.593,471.342 313.947,446.528 
	313.789,446.316 306.252,446.316 306.252,484.444 314.048,484.444 314.048,459.417 332.696,484.241 "/>
<polygon fill="#3C3C3B" points="376.38,477.242 355.223,477.242 355.223,468.63 374.381,468.63 374.381,461.426 355.223,461.426 
	355.223,453.519 376.38,453.519 376.38,446.316 347.425,446.316 347.425,484.444 376.38,484.444 "/>
<path fill="#3C3C3B" d="M64.775,526.815c0-7.389-6.013-12.758-14.299-12.758H33.955v37.76h7.977v-12.248h6.021l8.583,12.248h9.169
	l-9.34-13.261C61.569,536.585,64.775,532.127,64.775,526.815z M49.736,532.127h-7.804v-10.624h7.804
	c4.225,0,6.956,2.084,6.956,5.312C56.691,530.04,53.961,532.127,49.736,532.127z"/>
<polygon fill="#3C3C3B" points="94.201,528.899 77.373,528.899 77.373,514.057 69.401,514.057 69.401,551.817 77.373,551.817 
	77.373,536.29 94.201,536.29 94.201,551.817 102.177,551.817 102.177,514.057 94.201,514.057 "/>
<polygon fill="#3C3C3B" points="130.569,512.337 136.41,512.337 129.863,503.351 123.659,503.351 117.239,512.337 123.025,512.337 
	126.766,508.448 "/>
<path fill="#3C3C3B" d="M126.766,513.428c-10.737,0-19.809,8.92-19.809,19.483c0,10.589,9.072,19.534,19.809,19.534
	c10.709,0,19.755-8.945,19.755-19.534C146.521,522.348,137.476,513.428,126.766,513.428z M126.766,545.061
	c-6.359,0-11.729-5.568-11.729-12.149c0-6.562,5.369-12.099,11.729-12.099c6.295,0,11.621,5.537,11.621,12.099
	C138.387,539.493,133.062,545.061,126.766,545.061z"/>
<polygon fill="#3C3C3B" points="177.595,538.306 159.525,514.267 159.37,514.057 151.729,514.057 151.729,551.817 159.703,551.817 
	159.703,527.564 177.771,551.607 177.927,551.817 185.51,551.817 185.51,514.057 177.595,514.057 "/>
<polygon fill="#3C3C3B" points="192.158,551.817 220.902,551.817 220.902,544.421 200.128,544.421 200.128,536.29 218.94,536.29 
	218.94,528.899 200.128,528.899 200.128,521.447 220.902,521.447 220.902,514.057 192.158,514.057 "/>
<rect x="224.737" y="533.085" fill="#3C3C3B" width="15.605" height="7.018"/>
<path fill="#3C3C3B" d="M266.286,514.057h-8.252l-15.787,37.76h8.826l2.767-6.571h16.687l2.765,6.571h8.771l-15.646-37.437
	L266.286,514.057z M256.785,538.173l5.398-12.898l5.4,12.898H256.785z"/>
<polygon fill="#3C3C3B" points="292.784,514.057 284.869,514.057 284.869,551.817 311.498,551.817 311.498,544.421 292.784,544.421 
	"/>
<path fill="#3C3C3B" d="M332.016,514.057h-16.527v37.76h7.977v-12.248h8.551c8.274,0,14.288-5.357,14.288-12.754
	C346.304,519.426,340.291,514.057,332.016,514.057z M331.27,532.127h-7.805v-10.624h7.805c4.228,0,6.956,2.084,6.956,5.312
	C338.226,530.04,335.498,532.127,331.27,532.127z"/>
<polygon fill="#3C3C3B" points="350.146,551.817 378.884,551.817 378.884,544.421 358.112,544.421 358.112,536.29 376.931,536.29 
	376.931,528.899 358.112,528.899 358.112,521.447 378.884,521.447 378.884,514.057 350.146,514.057 "/>
<path fill="#3C3C3B" d="M399.183,529.181c-6.249-1.439-7.961-2.448-7.961-4.694c0-2.298,2.405-4.099,5.476-4.099
	c3.375,0,6.931,1.463,10,4.124l0.554,0.486l4.395-5.961l-0.469-0.421c-4.134-3.531-8.788-5.245-14.215-5.245
	c-7.973,0-13.763,4.923-13.763,11.699c0,7.671,6.29,9.78,13.291,11.413c6.281,1.483,7.907,2.462,7.907,4.755
	c0,2.063-1.901,4.146-6.161,4.146c-4.218,0-7.985-1.557-11.529-4.76l-0.53-0.48l-4.664,5.771l0.465,0.415
	c4.253,3.971,9.802,6.07,16.045,6.07c8.711,0,14.346-4.638,14.346-11.808C412.369,533.577,407.095,530.957,399.183,529.181z"/>
</svg>
