<svg xmlns="http://www.w3.org/2000/svg" viewBox="0 0 101 119">
  <defs>
    <style>
      .cls-1 {
        fill: #227ee6;
      }

      .cls-2 {
        fill: #fff;
      }
    </style>
  </defs>
  <g id="Groupe_2007" data-name="Groupe 2007" transform="translate(-80)">
    <rect id="Rectangle_16" data-name="Rectangle 16" class="cls-1" width="101" height="119" transform="translate(80)"/>
    <g id="Symbole_42_35" data-name="Symbole 42 – 35" transform="translate(68 -3)">
      <path id="Tracé_4" data-name="Tracé 4" class="cls-2" d="M3.17,38.887a2.938,2.938,0,0,0,4.132,0l10.3-10.3,10.3,10.3a2.8,2.8,0,0,0,4.019,0l10.3-10.3,10.3,10.3a2.938,2.938,0,0,0,4.132,0l2.321-2.321a2.938,2.938,0,0,0,0-4.132L46.528,19.981a18.607,18.607,0,0,0,.283-3.057,16.9,16.9,0,1,0-33.792,0,18.608,18.608,0,0,0,.283,3.057L.849,32.434a2.938,2.938,0,0,0,0,4.132ZM29.943,9.17a7.767,7.767,0,0,1,7.811,7.7,7.026,7.026,0,0,1-.17,1.528,8.015,8.015,0,0,1-2.151,3.962h0l-4.585,4.528a1.333,1.333,0,0,1-1.868,0L24.4,22.358h0A7.6,7.6,0,0,1,22.245,18.4a7.026,7.026,0,0,1-.17-1.528A7.89,7.89,0,0,1,29.943,9.17Z" transform="translate(33 35)"/>
      <path id="Tracé_5" data-name="Tracé 5" class="cls-2" d="M12.326,83.3a1.066,1.066,0,0,0-.453.113,1.5,1.5,0,0,0-.283.34L9.5,90.545,7.458,83.923a.88.88,0,0,0-.34-.453,1.028,1.028,0,0,0-1.132,0,.88.88,0,0,0-.34.453L3.723,90.6,1.628,83.809c-.057-.17-.113-.283-.283-.34a.61.61,0,0,0-.453-.113.727.727,0,0,0-.566.226.727.727,0,0,0-.226.566.51.51,0,0,0,.057.283l2.491,7.358a.9.9,0,0,0,.4.509,1.187,1.187,0,0,0,.623.226.851.851,0,0,0,.623-.226,1.038,1.038,0,0,0,.4-.566L6.553,85.9l1.981,5.83a1.294,1.294,0,0,0,.4.566,1.187,1.187,0,0,0,.623.226.851.851,0,0,0,.623-.226,1.141,1.141,0,0,0,.4-.509l2.491-7.358a.615.615,0,0,0,.057-.283.727.727,0,0,0-.226-.566A.575.575,0,0,0,12.326,83.3Z" transform="translate(32.957 -1.149)"/>
      <path id="Tracé_6" data-name="Tracé 6" class="cls-2" d="M31.909,83.723a4.235,4.235,0,0,0-2.264-.623,4.185,4.185,0,0,0-2.377.679,4.088,4.088,0,0,0-1.415,1.7A6.057,6.057,0,0,0,25.4,87.8a4.736,4.736,0,0,0,1.189,3.453,4.62,4.62,0,0,0,3.4,1.245,7.331,7.331,0,0,0,1.755-.17A6.925,6.925,0,0,0,33.1,91.76a.8.8,0,0,0,.453-.679.615.615,0,0,0-.226-.509.79.79,0,0,0-.509-.17.718.718,0,0,0-.34.057,4.14,4.14,0,0,1-1.075.4,4.055,4.055,0,0,1-1.245.113A3.162,3.162,0,0,1,28,90.289a2.707,2.707,0,0,1-.906-1.925h6a.656.656,0,0,0,.566-.226.727.727,0,0,0,.226-.566,4.867,4.867,0,0,0-.509-2.208A4.129,4.129,0,0,0,31.909,83.723Zm-4.868,3.34a3.011,3.011,0,0,1,.453-1.472,2.286,2.286,0,0,1,.962-.849,2.638,2.638,0,0,1,2.377,0,2,2,0,0,1,.962.849,2.832,2.832,0,0,1,.453,1.472Z" transform="translate(21.977 -1.062)"/>
      <path id="Tracé_7" data-name="Tracé 7" class="cls-2" d="M56.47,83.523a2.96,2.96,0,0,0-1.7-.623,3.485,3.485,0,0,0-3.226,1.3,3.4,3.4,0,0,0-3.057-1.3,3.45,3.45,0,0,0-2.6,1.3v-.283a.793.793,0,1,0-1.585,0V91.5a.793.793,0,1,0,1.585,0V86.183a4.623,4.623,0,0,1,1.075-1.245,2.179,2.179,0,0,1,1.472-.453,1.584,1.584,0,0,1,1.415.566,2.682,2.682,0,0,1,.4,1.7V91.5a.793.793,0,1,0,1.585,0s-.057-4.7,0-5.321a2.749,2.749,0,0,1,2.547-1.7c1.528,0,1.811,1.472,1.811,2.208v4.755a.793.793,0,1,0,1.585,0V86.353a4.06,4.06,0,0,0-.34-1.642A2.727,2.727,0,0,0,56.47,83.523Z" transform="translate(13.775 -0.976)"/>
      <path id="Tracé_8" data-name="Tracé 8" class="cls-2" d="M77.726,83.609a3.889,3.889,0,0,0-2.038-.509,8.424,8.424,0,0,0-3.057.623.683.683,0,0,0-.453.679.584.584,0,0,0,.623.623.428.428,0,0,0,.226-.057c.453-.17.792-.226,1.132-.34a7.065,7.065,0,0,1,1.189-.113,2.765,2.765,0,0,1,1.811.509,1.7,1.7,0,0,1,.566,1.472v.113H75.575a5.178,5.178,0,0,0-3.057.792A2.85,2.85,0,0,0,71.5,89.666a2.431,2.431,0,0,0,.4,1.415,2.385,2.385,0,0,0,1.075.906,3.069,3.069,0,0,0,1.415.34,4.253,4.253,0,0,0,3.34-1.019v.113a.793.793,0,1,0,1.585,0V86.44a3.419,3.419,0,0,0-.4-1.7A3.283,3.283,0,0,0,77.726,83.609Zm.057,6a.294.294,0,0,1-.113.226,4.241,4.241,0,0,1-1.132.849,3.6,3.6,0,0,1-1.528.4,2.815,2.815,0,0,1-1.585-.4,1.3,1.3,0,0,1-.453-.962c0-.906,1.132-1.528,2.887-1.528h1.358c.453,0,.453,0,.453.453v.962Z" transform="translate(1.972 -1.062)"/>
      <path id="Tracé_9" data-name="Tracé 9" class="cls-2" d="M98.564,85.308a4.423,4.423,0,0,0-1.585-1.642,4.023,4.023,0,0,0-2.094-.566,3.9,3.9,0,0,0-3,1.245v-.34a.793.793,0,1,0-1.585,0v11.66a.774.774,0,0,0,.792.792.656.656,0,0,0,.566-.226.727.727,0,0,0,.226-.566V91.251a3.9,3.9,0,0,0,3,1.245,4.18,4.18,0,0,0,3.679-2.208,5.293,5.293,0,0,0,0-4.981Zm-1.811,4.868a3.039,3.039,0,0,1-2.094.792,2.515,2.515,0,0,1-1.472-.509,7.394,7.394,0,0,1-1.3-1.132l.057-3.113a5.61,5.61,0,0,1,2.774-1.585,2.286,2.286,0,0,1,2.094.849,3.439,3.439,0,0,1,.792,2.377A3.078,3.078,0,0,1,96.753,90.175Z" transform="translate(-6.187 -1.062)"/>
    </g>
  </g>
</svg>
