<?xml version="1.0" encoding="UTF-8" standalone="no"?>
<!-- Created with Inkscape (http://www.inkscape.org/) -->

<svg
   version="1.1"
   id="svg1"
   width="817.49335"
   height="307.98666"
   viewBox="0 0 817.49335 307.98666"
   xmlns="http://www.w3.org/2000/svg"
   xmlns:svg="http://www.w3.org/2000/svg">
  <defs
     id="defs1" />
  <g
     id="g1">
    <g
       id="group-R5">
      <path
         id="path2"
         d="m 2151.8,979.121 v 433.149 c 490.93,0 890.34,399.39 890.34,890.31 h 433.14 c 0,-729.75 -593.72,-1323.459 -1323.48,-1323.459"
         style="fill:#1d1c1b;fill-opacity:1;fill-rule:nonzero;stroke:none"
         transform="matrix(0.13333333,0,0,-0.13333333,0,307.98667)" />
      <path
         id="path3"
         d="m 4958.88,986.359 h -433.11 c 0,490.931 -399.37,890.321 -890.28,890.321 v 433.13 c 729.73,0 1323.39,-593.7 1323.39,-1323.451"
         style="fill:#1d1c1b;fill-opacity:1;fill-rule:nonzero;stroke:none"
         transform="matrix(0.13333333,0,0,-0.13333333,0,307.98667)" />
      <path
         id="path4"
         d="M 6131.21,986.359 H 5698.1 c 0,490.931 -399.4,890.321 -890.33,890.321 v 433.13 c 729.74,0 1323.44,-593.7 1323.44,-1323.451"
         style="fill:#1d1c1b;fill-opacity:1;fill-rule:nonzero;stroke:none"
         transform="matrix(0.13333333,0,0,-0.13333333,0,307.98667)" />
      <path
         id="path5"
         d="m 2289.79,685.211 c 0,-51.891 -27.6,-78.789 -68.87,-78.789 -40.81,0 -68.62,26.898 -68.62,77.25 v 103.5 h 18.62 V 684.941 c 0,-38.359 18.87,-59.98 50.48,-59.98 30.41,0 49.76,19.82 49.76,58.711 v 103.5 h 18.63 V 685.211"
         style="fill:#1d1c1b;fill-opacity:1;fill-rule:nonzero;stroke:none"
         transform="matrix(0.13333333,0,0,-0.13333333,0,307.98667)" />
      <path
         id="path6"
         d="m 2535.28,787.172 h 18.16 V 609.199 h -14.86 L 2432,755.148 V 609.199 h -18.17 v 177.973 h 17.47 l 103.98,-142.621 v 142.621"
         style="fill:#1d1c1b;fill-opacity:1;fill-rule:nonzero;stroke:none"
         transform="matrix(0.13333333,0,0,-0.13333333,0,307.98667)" />
      <path
         id="path7"
         d="m 2700.38,609.199 h -18.63 v 177.973 h 18.63 V 609.199"
         style="fill:#1d1c1b;fill-opacity:1;fill-rule:nonzero;stroke:none"
         transform="matrix(0.13333333,0,0,-0.13333333,0,307.98667)" />
      <path
         id="path8"
         d="m 2953.06,787.172 h 20.04 l -71,-179.262 h -16.51 l -70.99,179.262 h 20.76 l 58.73,-153.32 58.97,153.32"
         style="fill:#1d1c1b;fill-opacity:1;fill-rule:nonzero;stroke:none"
         transform="matrix(0.13333333,0,0,-0.13333333,0,307.98667)" />
      <path
         id="path9"
         d="m 3204.93,768.859 h -100.69 v -60.757 h 90.1 v -18.301 h -90.1 v -62.262 h 101.87 v -18.32 h -120.53 v 177.953 h 119.35 v -18.313"
         style="fill:#1d1c1b;fill-opacity:1;fill-rule:nonzero;stroke:none"
         transform="matrix(0.13333333,0,0,-0.13333333,0,307.98667)" />
      <path
         id="path10"
         d="m 3437.26,609.199 -47.89,69.121 h -47.16 v -69.121 h -18.63 v 177.973 h 70.98 c 36.31,0 59.67,-21.121 59.67,-53.152 0,-29.731 -18.86,-47.051 -44.82,-52.11 l 50.7,-72.711 z m -44.12,159.41 h -50.93 v -72.211 h 50.7 c 24.77,0 42.46,13.75 42.46,36.84 0,22.153 -15.58,35.371 -42.23,35.371"
         style="fill:#1d1c1b;fill-opacity:1;fill-rule:nonzero;stroke:none"
         transform="matrix(0.13333333,0,0,-0.13333333,0,307.98667)" />
      <path
         id="path11"
         d="m 3633.23,707.852 c 36.79,-8.653 53.79,-23.161 53.79,-50.633 0,-30.719 -23.59,-50.578 -56.38,-50.578 -26.18,0 -47.64,9.429 -67.44,28.468 l 11.56,14.789 c 17.2,-16.796 33.72,-25.199 56.59,-25.199 22.17,0 36.79,12.449 36.79,30.512 0,16.801 -8.26,26.168 -42.92,34.078 -37.96,8.91 -55.42,22.07 -55.42,51.609 0,28.454 22.9,48.821 54.26,48.821 24.05,0 41.27,-7.379 58,-21.91 l -10.85,-15.489 c -15.34,13.5 -30.66,19.321 -47.64,19.321 -21.47,0 -35.14,-12.7 -35.14,-28.95 0,-17.07 8.49,-26.461 44.8,-34.839"
         style="fill:#1d1c1b;fill-opacity:1;fill-rule:nonzero;stroke:none"
         transform="matrix(0.13333333,0,0,-0.13333333,0,307.98667)" />
      <path
         id="path12"
         d="m 3825.23,609.199 h -18.62 v 177.973 h 18.62 V 609.199"
         style="fill:#1d1c1b;fill-opacity:1;fill-rule:nonzero;stroke:none"
         transform="matrix(0.13333333,0,0,-0.13333333,0,307.98667)" />
      <path
         id="path13"
         d="m 4016.12,609.199 h -18.86 v 159.41 h -55.42 v 18.563 h 129.7 v -18.563 h -55.42 v -159.41"
         style="fill:#1d1c1b;fill-opacity:1;fill-rule:nonzero;stroke:none"
         transform="matrix(0.13333333,0,0,-0.13333333,0,307.98667)" />
      <path
         id="path14"
         d="m 4305.77,768.859 h -100.71 v -60.757 h 90.07 v -18.301 h -90.07 v -62.262 h 101.88 v -18.32 h -120.51 v 177.953 h 119.34 z m -72.64,34.071 22.41,36.871 18.86,-9.391 -26.63,-27.48 h -14.64"
         style="fill:#1d1c1b;fill-opacity:1;fill-rule:nonzero;stroke:none"
         transform="matrix(0.13333333,0,0,-0.13333333,0,307.98667)" />
      <path
         id="path15"
         d="m 4683.58,787.172 h 18.67 V 627.73 h 92.91 v -18.531 h -111.58 v 177.973"
         style="fill:#1d1c1b;fill-opacity:1;fill-rule:nonzero;stroke:none"
         transform="matrix(0.13333333,0,0,-0.13333333,0,307.98667)" />
      <path
         id="path16"
         d="m 4949.43,609.199 h -18.89 v 70.43 l -68.6,107.543 h 22.65 l 55.64,-88.973 56.13,88.973 h 21.71 l -68.64,-107.313 v -70.66"
         style="fill:#1d1c1b;fill-opacity:1;fill-rule:nonzero;stroke:none"
         transform="matrix(0.13333333,0,0,-0.13333333,0,307.98667)" />
      <path
         id="path17"
         d="m 5190.24,606.148 c -50.2,0 -83.95,42.422 -83.95,91.762 0,49.328 34.21,92.281 84.43,92.281 50.25,0 83.96,-42.461 83.96,-91.75 0,-49.339 -34.19,-92.293 -84.44,-92.293 m 0,165.493 c -37.71,0 -64.61,-32.539 -64.61,-73.2 0,-40.691 27.34,-73.742 65.09,-73.742 37.75,0 64.62,32.52 64.62,73.211 0,40.68 -27.35,73.731 -65.1,73.731"
         style="fill:#1d1c1b;fill-opacity:1;fill-rule:nonzero;stroke:none"
         transform="matrix(0.13333333,0,0,-0.13333333,0,307.98667)" />
      <path
         id="path18"
         d="m 5515.44,787.172 h 18.19 V 609.199 h -14.87 L 5412.19,755.148 V 609.199 h -18.18 v 177.973 h 17.44 l 103.99,-142.621 v 142.621"
         style="fill:#1d1c1b;fill-opacity:1;fill-rule:nonzero;stroke:none"
         transform="matrix(0.13333333,0,0,-0.13333333,0,307.98667)" />
      <path
         id="path19"
         d="m 5831.34,609.199 h -18.65 v 177.973 h 18.65 V 609.199"
         style="fill:#1d1c1b;fill-opacity:1;fill-rule:nonzero;stroke:none"
         transform="matrix(0.13333333,0,0,-0.13333333,0,307.98667)" />
      <path
         id="path20"
         d="m 5979.97,609.199 h -18.6 v 177.973 h 18.6 V 609.199"
         style="fill:#1d1c1b;fill-opacity:1;fill-rule:nonzero;stroke:none"
         transform="matrix(0.13333333,0,0,-0.13333333,0,307.98667)" />
      <path
         id="path21"
         d="m 6128.68,609.199 h -18.61 v 177.973 h 18.61 V 609.199"
         style="fill:#1d1c1b;fill-opacity:1;fill-rule:nonzero;stroke:none"
         transform="matrix(0.13333333,0,0,-0.13333333,0,307.98667)" />
      <path
         id="path22"
         d="m 2152.2,69.2891 67.15,68.1519 c 18.25,-23.691 35.43,-37.5816 58.55,-37.5816 26.3,0 42.95,19.0816 42.95,56.6206 v 255.801 h 103.69 V 155.898 c 0,-50.796 -11.83,-86.6089 -37.08,-113.7496 -24.71,-26.5898 -60.16,-40.99996 -103.12,-40.99996 -65.53,0 -105.84,29.45316 -132.14,68.14066"
         style="fill:#1d1c1b;fill-opacity:1;fill-rule:nonzero;stroke:none"
         transform="matrix(0.13333333,0,0,-0.13333333,0,307.98667)" />
      <path
         id="path23"
         d="m 2497.02,412.281 h 302.41 v -95.293 h -199.29 v -61.187 h 180.51 v -88.34 h -180.51 v -64.082 h 201.99 V 8.08203 H 2497.02 V 412.281"
         style="fill:#1d1c1b;fill-opacity:1;fill-rule:nonzero;stroke:none"
         transform="matrix(0.13333333,0,0,-0.13333333,0,307.98667)" />
      <path
         id="path24"
         d="m 2996.04,415.172 h 100.45 L 3256.55,8.08203 H 3144.82 L 3117.44,80.25 H 2972.39 L 2945.56,8.08203 h -109.58 z m 91.3,-247.731 -41.89,114.918 -42.42,-114.918 z"
         style="fill:#1d1c1b;fill-opacity:1;fill-rule:nonzero;stroke:none"
         transform="matrix(0.13333333,0,0,-0.13333333,0,307.98667)" />
      <path
         id="path25"
         d="m 3303.78,412.281 h 97.26 l 154.7,-213.633 v 213.633 h 103.11 V 8.08203 h -91.32 L 3406.93,229.82 V 8.08203 H 3303.78 V 412.281"
         style="fill:#1d1c1b;fill-opacity:1;fill-rule:nonzero;stroke:none"
         transform="matrix(0.13333333,0,0,-0.13333333,0,307.98667)" />
      <path
         id="path26"
         d="m 3895.71,412.281 h 110.13 l 89.7,-156.48 89.68,156.48 h 110.14 V 8.08203 H 4191.69 V 240.23 L 4095.54,81.9922 h -2.15 L 3997.78,239.039 V 8.08203 H 3895.71 V 412.281"
         style="fill:#1d1c1b;fill-opacity:1;fill-rule:nonzero;stroke:none"
         transform="matrix(0.13333333,0,0,-0.13333333,0,307.98667)" />
      <path
         id="path27"
         d="m 4359.8,209 v 1.148 c 0,116.082 87.03,210.223 203.04,210.223 116.01,0 201.94,-92.992 201.94,-209.019 v -1.204 C 4764.78,94.1016 4677.79,0 4561.75,0 4445.71,0 4359.8,92.9688 4359.8,209 m 298.65,0 v 1.148 c 0,58.34 -39.19,109.141 -96.7,109.141 -56.92,0 -95.04,-49.641 -95.04,-107.937 v -1.204 c 0,-58.296 39.18,-109.078 96.13,-109.078 57.45,0 95.61,49.649 95.61,107.93"
         style="fill:#1d1c1b;fill-opacity:1;fill-rule:nonzero;stroke:none"
         transform="matrix(0.13333333,0,0,-0.13333333,0,307.98667)" />
      <path
         id="path28"
         d="m 4824.93,185.371 v 226.91 h 105.85 v -224.59 c 0,-58.339 27.38,-86.05 69.26,-86.05 41.95,0 69.32,26.519 69.32,83.121 v 227.519 h 105.82 V 188.219 c 0,-130.4885 -69.28,-187.660406 -176.21,-187.660406 -106.85,0 -174.04,58.320306 -174.04,184.812406"
         style="fill:#1d1c1b;fill-opacity:1;fill-rule:nonzero;stroke:none"
         transform="matrix(0.13333333,0,0,-0.13333333,0,307.98667)" />
      <path
         id="path29"
         d="m 5247.67,412.281 h 104.19 v -306.07 h 182.1 V 8.08203 H 5247.67 V 412.281"
         style="fill:#1d1c1b;fill-opacity:1;fill-rule:nonzero;stroke:none"
         transform="matrix(0.13333333,0,0,-0.13333333,0,307.98667)" />
      <path
         id="path30"
         d="m 5591.44,412.301 h 104.74 V 8.08203 H 5591.44 V 412.301"
         style="fill:#1d1c1b;fill-opacity:1;fill-rule:nonzero;stroke:none"
         transform="matrix(0.13333333,0,0,-0.13333333,0,307.98667)" />
      <path
         id="path31"
         d="m 5775.65,412.281 h 97.21 l 154.71,-213.633 v 213.633 h 103.14 V 8.08203 H 6039.4 L 5878.78,229.82 V 8.08203 H 5775.65 V 412.281"
         style="fill:#1d1c1b;fill-opacity:1;fill-rule:nonzero;stroke:none"
         transform="matrix(0.13333333,0,0,-0.13333333,0,307.98667)" />
      <path
         id="path32"
         d="m 205.441,2164.56 c 0,-9.89 -1.828,-16.98 -5.48,-21.25 -3.652,-4.27 -7.238,-6.4 -14.203,-6.4 -6.762,0 -10.555,2.24 -14.274,6.72 -3.722,4.49 -5.582,11.46 -5.582,20.93 v 105.83 h -28.808 v -105.83 c 0,-16.51 4.617,-29.29 13.847,-38.33 9.231,-9.05 19.868,-13.57 34.817,-13.57 14.945,0 25.312,4.51 34.543,13.51 9.23,9.01 13.847,21.8 13.847,38.39 v 105.83 h -28.707 v -105.83"
         style="fill:#1d1c1b;fill-opacity:1;fill-rule:nonzero;stroke:none"
         transform="matrix(0.13333333,0,0,-0.13333333,0,307.98667)" />
      <path
         id="path33"
         d="m 333.652,2171.29 -0.605,-0.21 -45.149,99.31 h -28.914 v -155.48 h 28.914 v 99.2 l 0.61,0.21 45.144,-99.41 h 28.707 v 155.48 h -28.707 v -99.1"
         style="fill:#1d1c1b;fill-opacity:1;fill-rule:nonzero;stroke:none"
         transform="matrix(0.13333333,0,0,-0.13333333,0,307.98667)" />
      <path
         id="path34"
         d="m 420.09,2270.39 h -28.711 v -155.48 h 28.711 v 155.48"
         style="fill:#1d1c1b;fill-opacity:1;fill-rule:nonzero;stroke:none"
         transform="matrix(0.13333333,0,0,-0.13333333,0,307.98667)" />
      <path
         id="path35"
         d="m 510.301,2114.91 41.289,155.48 h -30.336 l -24.649,-116.08 -1.117,-5.66 h -0.609 l -1.113,5.98 -24.45,115.76 H 438.98 l 41.29,-155.48 h 30.031"
         style="fill:#1d1c1b;fill-opacity:1;fill-rule:nonzero;stroke:none"
         transform="matrix(0.13333333,0,0,-0.13333333,0,307.98667)" />
      <path
         id="path36"
         d="m 656.199,2139.15 h -58.332 v 43.99 h 49.61 v 24.24 h -49.61 v 38.77 h 58.129 v 24.24 h -87.043 v -155.48 h 87.246 v 24.24"
         style="fill:#1d1c1b;fill-opacity:1;fill-rule:nonzero;stroke:none"
         transform="matrix(0.13333333,0,0,-0.13333333,0,307.98667)" />
      <path
         id="path37"
         d="M 726.504,2200.98 H 707.23 v 45.06 h 19.375 c 5.817,0 10.247,-2.1 13.29,-6.3 3.043,-4.2 4.566,-9.86 4.566,-16.98 0,-6.97 -1.523,-12.35 -4.566,-16.12 -3.043,-3.78 -7.504,-5.66 -13.391,-5.66 z m 14.559,-30.65 c 3.007,-4.27 4.511,-10.29 4.511,-18.05 v -10.57 c 0,-5.34 0.309,-10.57 0.918,-15.7 0.606,-5.12 2.094,-8.83 4.461,-11.1 h 29.824 v 2.24 c -2.367,2.21 -4.023,5.75 -4.968,10.62 -0.95,4.88 -1.422,9.46 -1.422,13.73 v 11 c 0,9.39 -1.672,17.22 -5.02,23.49 -3.351,6.26 -8.812,10.75 -16.387,13.46 6.629,3.48 11.668,8.16 15.118,14.03 3.449,5.88 5.175,12.88 5.175,20.99 0,14.38 -4.144,25.61 -12.425,33.69 -8.289,8.08 -19.7,12.12 -34.243,12.12 h -48.187 v -155.37 h 28.812 v 61.83 h 20.899 c 5.613,0 9.922,-2.14 12.934,-6.41"
         style="fill:#1d1c1b;fill-opacity:1;fill-rule:nonzero;stroke:none"
         transform="matrix(0.13333333,0,0,-0.13333333,0,307.98667)" />
      <path
         id="path38"
         d="m 851.73,2205.68 c -8.859,4.05 -15.078,7.74 -18.664,11.05 -3.586,3.31 -5.375,7.53 -5.375,12.65 0,5.55 1.606,10.16 4.817,13.83 3.211,3.67 7.691,5.5 13.441,5.5 6.153,0 10.922,-2.21 14.309,-6.62 3.379,-4.41 5.07,-10.18 5.07,-17.3 h 28 l 0.203,0.64 c 0.27,13.6 -3.996,24.86 -12.785,33.8 -8.793,8.93 -20.223,13.4 -34.289,13.4 -13.863,0 -25.262,-4 -34.187,-12.01 -8.926,-8.01 -13.391,-18.39 -13.391,-31.13 0,-12.88 3.84,-22.91 11.512,-30.06 7.679,-7.16 19.191,-13.55 34.543,-19.17 7.511,-3.42 12.75,-6.88 15.726,-10.41 2.977,-3.53 4.465,-8.31 4.465,-14.37 0,-5.83 -1.473,-10.46 -4.414,-13.87 -2.941,-3.42 -7.457,-5.13 -13.543,-5.13 -7.777,0 -13.594,2.1 -17.449,6.3 -3.856,4.2 -5.781,11.1 -5.781,20.72 h -28.102 l -0.203,-0.64 c -0.34,-16.17 4.648,-28.57 14.961,-37.22 10.316,-8.65 22.504,-12.98 36.574,-12.98 14.133,0 25.461,3.81 33.984,11.43 8.524,7.62 12.782,18.16 12.782,31.61 0,13.03 -3.536,23.37 -10.598,31.02 -7.07,7.66 -17.602,13.97 -31.606,18.96"
         style="fill:#1d1c1b;fill-opacity:1;fill-rule:nonzero;stroke:none"
         transform="matrix(0.13333333,0,0,-0.13333333,0,307.98667)" />
      <path
         id="path39"
         d="m 918.707,2114.91 h 28.711 v 155.48 h -28.711 v -155.48"
         style="fill:#1d1c1b;fill-opacity:1;fill-rule:nonzero;stroke:none"
         transform="matrix(0.13333333,0,0,-0.13333333,0,307.98667)" />
      <path
         id="path40"
         d="m 965.395,2246.15 h 33.074 v -131.24 h 28.811 v 131.24 h 33.27 v 24.24 h -95.155 v -24.24"
         style="fill:#1d1c1b;fill-opacity:1;fill-rule:nonzero;stroke:none"
         transform="matrix(0.13333333,0,0,-0.13333333,0,307.98667)" />
      <path
         id="path41"
         d="m 1154.41,2309.26 -0.3,0.64 h -30.34 l -17.85,-28.35 23.23,-0.05 25.26,27.76"
         style="fill:#1d1c1b;fill-opacity:1;fill-rule:nonzero;stroke:none"
         transform="matrix(0.13333333,0,0,-0.13333333,0,307.98667)" />
      <path
         id="path42"
         d="m 1108.56,2139.15 v 43.99 h 49.6 v 24.24 h -49.6 v 38.77 h 58.12 v 24.24 h -87.04 v -155.48 h 87.25 v 24.24 h -58.33"
         style="fill:#1d1c1b;fill-opacity:1;fill-rule:nonzero;stroke:none"
         transform="matrix(0.13333333,0,0,-0.13333333,0,307.98667)" />
      <path
         id="path43"
         d="m 205.168,1993.23 c 0,-12.19 -2.184,-21.97 -6.543,-29.34 -4.367,-7.38 -10.57,-11.07 -18.617,-11.07 h -14.102 v 107 h 14.102 c 8.047,0 14.25,-3.67 18.617,-11.01 4.359,-7.34 6.543,-17.06 6.543,-29.18 z m -23.539,90.84 h -44.637 v -155.49 h 44.637 c 15.152,0 27.664,6.02 37.535,18.05 9.875,12.03 14.813,27.55 14.813,46.56 v 26.16 c 0,19.01 -4.938,34.55 -14.813,46.61 -9.871,12.07 -22.383,18.11 -37.535,18.11"
         style="fill:#1d1c1b;fill-opacity:1;fill-rule:nonzero;stroke:none"
         transform="matrix(0.13333333,0,0,-0.13333333,0,307.98667)" />
      <path
         id="path44"
         d="m 287.867,1996.82 h 49.606 v 24.24 h -49.606 v 38.76 h 58.129 v 24.25 h -87.043 v -155.49 h 87.246 v 24.24 h -58.332 v 44"
         style="fill:#1d1c1b;fill-opacity:1;fill-rule:nonzero;stroke:none"
         transform="matrix(0.13333333,0,0,-0.13333333,0,307.98667)" />
      <path
         id="path45"
         d="m 444.363,2084.07 h -28.914 v -155.49 h 79.254 v 24.24 h -50.34 v 131.25"
         style="fill:#1d1c1b;fill-opacity:1;fill-rule:nonzero;stroke:none"
         transform="matrix(0.13333333,0,0,-0.13333333,0,307.98667)" />
      <path
         id="path46"
         d="m 536.93,2017.43 h -0.614 l -24.347,66.64 h -31.547 l 41.492,-98.25 v -57.24 h 28.809 v 55.32 l 42.203,100.17 h -31.348 l -24.648,-66.64"
         style="fill:#1d1c1b;fill-opacity:1;fill-rule:nonzero;stroke:none"
         transform="matrix(0.13333333,0,0,-0.13333333,0,307.98667)" />
      <path
         id="path47"
         d="m 675.059,1984.42 c 0,-11.28 -1.961,-19.74 -5.883,-25.38 -3.926,-5.64 -9.606,-8.46 -17.047,-8.46 -7.504,0 -13.188,2.82 -17.039,8.46 -3.86,5.64 -5.785,14.1 -5.785,25.38 v 43.91 c 0,11.21 1.89,19.63 5.683,25.28 3.785,5.64 9.465,8.46 17.043,8.46 7.504,0 13.219,-2.84 17.145,-8.52 3.922,-5.67 5.883,-14.08 5.883,-25.22 z m -23.028,101.89 c -15.558,0 -28.004,-5.18 -37.336,-15.54 -9.332,-10.36 -14,-24.61 -14,-42.77 v -43.57 c 0,-18.22 4.668,-32.46 14,-42.71 9.332,-10.26 21.813,-15.38 37.434,-15.38 15.625,0 28.137,5.12 37.539,15.38 9.398,10.25 14.102,24.49 14.102,42.71 V 2028 c 0,18.16 -4.739,32.41 -14.207,42.77 -9.465,10.36 -21.977,15.54 -37.532,15.54"
         style="fill:#1d1c1b;fill-opacity:1;fill-rule:nonzero;stroke:none"
         transform="matrix(0.13333333,0,0,-0.13333333,0,307.98667)" />
      <path
         id="path48"
         d="m 803.48,1984.97 -0.605,-0.22 -45.148,99.32 h -28.911 v -155.49 h 28.911 v 99.21 l 0.609,0.21 45.144,-99.42 h 28.711 v 155.49 H 803.48 v -99.1"
         style="fill:#1d1c1b;fill-opacity:1;fill-rule:nonzero;stroke:none"
         transform="matrix(0.13333333,0,0,-0.13333333,0,307.98667)" />
      <path
         id="path49"
         d="M 1087.43,856.512 C 1087.32,711.84 1087.2,524.48 1087.2,522.781 1087.2,283.16 892.23,88.1914 652.34,88.1484 c -0.832,0 -1.652,0.0508 -2.481,0.0625 v 0.0079 c -0.027,0 -0.05,-0.0079 -0.101,-0.0079 0,0 -0.028,0.0079 -0.051,0.0079 v -0.0079 c -0.828,-0.0117 -1.648,-0.0625 -2.48,-0.0625 -239.895,0.043 -434.868,195.0116 -434.868,434.6326 0,1.719 -0.113,189.188 -0.23,333.731 h -80.063 c 0.114,-144.422 0.223,-331.782 0.223,-333.782 0,-283.769 230.918,-514.64797 514.762,-514.64797 0.914,0 1.816,0.06641 2.73,0.06641 0.918,0 1.817,-0.06641 2.735,-0.06641 283.839,0 514.764,230.87897 514.764,514.64797 0,1.969 0.1,189.231 0.21,333.782 h -80.06"
         style="fill:#1d1c1b;fill-opacity:1;fill-rule:nonzero;stroke:none"
         transform="matrix(0.13333333,0,0,-0.13333333,0,307.98667)" />
      <path
         id="path50"
         d="m 926.852,856.512 c -0.122,-145.453 -0.227,-332.961 -0.227,-333.492 0,-151.168 -122.977,-274.168 -274.121,-274.211 -0.895,0 -1.758,0.121 -2.645,0.14 v 0 c -0.027,0 -0.05,0 -0.101,0 0,0 -0.028,0 -0.051,0 v 0 c -0.887,-0.019 -1.754,-0.14 -2.644,-0.14 -151.149,0.043 -274.122,123.043 -274.122,274.211 0,0.531 -0.113,188.128 -0.234,333.492 h -80.621 l 0.168,-249.141 c 0.047,-49.992 0.074,-83.769 0.074,-84.371 0,-195.641 159.215,-354.801 354.91,-354.801 0.856,0 1.696,0.063 2.543,0.063 0.852,0 1.692,-0.063 2.543,-0.063 195.699,0 354.916,159.16 354.916,354.801 0,0.602 0.02,34.379 0.07,84.371 l 0.16,249.141 h -80.618"
         style="fill:#1d1c1b;fill-opacity:1;fill-rule:nonzero;stroke:none"
         transform="matrix(0.13333333,0,0,-0.13333333,0,307.98667)" />
      <path
         id="path51"
         d="m 765.293,856.512 c -0.117,-147.891 -0.234,-330.352 -0.234,-330.91 0,-63.411 -51.364,-115.09 -114.676,-115.551 v 0.008 h -0.602 -0.601 v -0.008 c -63.313,0.461 -114.676,52.14 -114.676,115.551 0,0.57 -0.117,182.968 -0.234,330.91 h -80.805 c 0.121,-147.93 0.238,-330.34 0.238,-330.91 0,-108.153 87.895,-196.153 196.004,-196.34 v 0 c 0.023,0 0.074,0 0.074,0 0.028,0 0.051,0 0.078,0 v 0 c 108.106,0.187 196.004,88.187 196.004,196.34 0,0.558 0.114,183.019 0.231,330.91 h -80.801"
         style="fill:#1d1c1b;fill-opacity:1;fill-rule:nonzero;stroke:none"
         transform="matrix(0.13333333,0,0,-0.13333333,0,307.98667)" />
      <path
         id="path52"
         d="M 134.113,1015.83 H 1167.62 V 936.172 H 134.113 v 79.658"
         style="fill:#1d1c1b;fill-opacity:1;fill-rule:nonzero;stroke:none"
         transform="matrix(0.13333333,0,0,-0.13333333,0,307.98667)" />
      <path
         id="path53"
         d="M 134.113,1175.17 H 1167.62 v -79.65 H 134.113 v 79.65"
         style="fill:#1d1c1b;fill-opacity:1;fill-rule:nonzero;stroke:none"
         transform="matrix(0.13333333,0,0,-0.13333333,0,307.98667)" />
      <path
         id="path54"
         d="m 989.859,1399.42 c 0,0 33.291,-12.65 41.261,-23.85 5.19,-7.31 35.37,-15.87 35.37,-15.87 0,0 9.21,-0.65 21.2,-11.65 9.17,-8.39 12.1,-11.84 17.86,-13.47 H 799.77 c 0.953,4.97 1.242,13.26 -6.168,17.49 -4.872,2.72 -9.09,8.08 -14.567,10.72 -21.097,10.06 -23.402,6.37 -32.219,13.42 -4.957,3.65 -8.261,19.84 -8.261,19.84 0,0 38.574,38.02 45.957,47.64 9.277,12.01 12.914,16.79 17.078,22.72 29.012,2.72 59.461,7.95 69.93,13.91 2.968,1.79 5.671,3.37 8.234,4.88 3.297,-1.87 6.219,-3.58 8.758,-5.12 15.476,-9.17 54.445,-25.6 68.191,-36.51 13.774,-11.08 33.156,-44.15 33.156,-44.15 z m -818.3,31 c 10.5,4.34 33.644,-4.54 56.761,-0.32 35.332,6.41 85.743,24.06 102.719,31.69 15.43,6.73 42.981,33.18 51.508,40.2 8.387,7.1 17.215,9.13 17.215,9.13 0,0 10.234,-10.99 30.812,-29.21 20.653,-18.3 27.621,-26.78 34.813,-32.71 7.043,-5.96 15.66,-18.05 17.093,-22.88 5.668,-18.21 3.661,-48.48 3.661,-48.48 0,0 32.156,-11.4 42.461,-20.57 7.273,-6.47 13.359,-17.02 16.332,-22.69 h -329.2 c 0.829,5.47 1.2,17.6 -10.66,21.8 -8.656,3.64 -6.898,6.81 -25.183,13.14 -7.356,2.64 -11.481,5.68 -15.258,15.25 -3.645,9.62 -3.703,25.57 -3.703,25.57 0,0 1.644,16.43 10.629,20.08 z m 482.129,68.97 c 7.234,-3.32 25.281,-11.12 44.863,-18.54 1.945,-5.11 3.375,-12.49 2.765,-22.76 -1.785,-25.68 -27.234,-57.57 -27.234,-57.57 0,0 12.871,-31.81 16.563,-36.43 3.621,-4.55 15.398,-14.04 19.371,-21.71 1.132,-2.27 2.558,-5.34 3.683,-7.8 h -69.933 c 1.152,9.55 -5.11,13.53 -6.793,15.18 -3.825,3.78 -7.145,11.24 -16.485,14.53 -32.668,11.64 -32.144,6.93 -41.578,14.48 -6.422,5.11 -22.629,15.87 -26.293,22.48 -3.652,6.61 -10.273,36.64 -10.394,62.28 0.062,15.49 -1.075,30.22 -2.149,39.43 30.114,5.2 77.574,12.67 113.614,-3.57 z m 538.282,263.4 c 0,0 -1.66,3.01 -5,6.66 -3.3,3.73 -11.64,8.76 -15.66,12.69 -3.97,4.11 -8.75,10.47 -11.08,12.1 -2.26,1.7 -7.03,9.25 -9.23,10.99 -2.47,1.66 -5.14,14 -5.45,15.38 -0.25,1.3 -1.24,5.07 -4.93,7.02 -2.07,0.89 -7.78,4.67 -11.5,7.63 -3.6,3.04 -12.87,12.05 -12.87,12.05 0,0 -2.44,15.01 -6.03,22.96 -3.63,8.08 -5.09,11.08 -6.81,14.08 -1.59,3.04 -2.65,3.65 -3.53,8.36 0,0 -5.07,0.36 -9.75,-2.64 0,0 -9.64,7.34 -19.27,12.98 -9.71,5.73 -21.13,11.69 -25.83,12.62 -4.56,1.06 -10.82,4.67 -13.23,7.02 0,0 -6.83,0.33 -12.38,-0.6 -4.01,-0.53 -17.2,-1.87 -24.205,-2.93 -6.977,-0.93 -24.192,-3.81 -28.137,-4.09 -8.297,-0.57 -10.023,-1.22 -22.523,-3.57 0,0 -9.895,-1.75 -13.262,-3.05 -3.379,-1.34 -14.051,-5.48 -21.461,-6.41 -8.105,-0.97 -16.594,-1.01 -26.355,-2.6 -4.399,-0.77 -20.946,-7.38 -28.754,-9.21 -3.5,-0.85 -8.227,-1.42 -8.227,-1.42 0,0 1.582,-5.51 5.895,-6.53 0,0 -2.305,-4.95 -7.649,-7.58 -5.355,-2.77 -10.957,-5.04 -18.281,-7.75 -7.422,-2.56 -19.059,-7.23 -22.07,-9.62 0,0 2.324,-4.63 6.894,-7.1 0,0 1.11,-0.65 -5.187,-3.85 -6.414,-3.41 -20.868,-9.42 -27.418,-12.42 -6.778,-3.04 -15.914,-8.44 -20.422,-10.67 -6.36,-3.33 -6.996,-3.49 -13.09,-7.27 -5.969,-3.64 -2.914,-3.44 -2.914,-3.44 0,0 2.984,-0.65 7.223,-0.98 4.371,-0.32 6.714,-2.03 6.714,-2.03 0,0 0.461,-2.31 -2.597,-5.03 -2.981,-2.63 -7.364,-8.6 -17.656,-15.66 -5.125,-3.49 -9.579,-7.46 -15.208,-11.4 -5.671,-3.93 -11.39,-10.67 -13.429,-12.05 l 6.066,-5.31 -0.914,-4.18 c -2.617,-1.63 -5.894,-3.45 -10.043,-5.07 -4.695,-2.07 -44.801,-7.47 -91.183,-6.9 -77.442,1.05 -98.774,11.03 -138.211,12.82 -39.52,1.87 -68.825,-6.9 -104.891,-17.9 -7.078,-2.14 -12.648,-4.29 -16.859,-6.44 -15.161,-3.17 -30.469,-7.39 -44.481,-12.79 -50.176,-19.23 -137.75,-91.73 -162.262,-102.03 -24.179,-10.23 -37.796,-10.72 -54.9722,-8.57 -17.1445,2.11 -23.8906,6.45 -23.8906,6.45 0,0 -8.7813,18.59 -18.8321,26.17 -13.1289,9.66 -45.44138,21.1 -45.44138,21.1 0,0 -5.64063,-21.22 5.83203,-41.67 13.77345,-24.42 40.71095,-22.88 50.43355,-26.86 17.1875,-6.89 58.1607,-15.21 92.7067,-1.34 31.016,12.46 62.461,33.11 84.86,45.69 22.293,12.5 58.051,23.37 88.164,26.74 -1.391,-5.24 -2.914,-10.35 -4.535,-14.89 -8.43,-25.65 -39.551,-79.97 -45.899,-89.02 -7.336,-10.63 -36.433,-45.89 -41.586,-50.19 -5.019,-4.38 -17.343,-9.25 -32.804,-12.09 -17.012,-3.17 -65.797,-8.07 -65.797,-8.07 0,0 -8.621,-43.62 -19.418,-70.24 -4.414,-10.83 -14.8479,-32.37 -14.8479,-32.37 0,0 18.3169,-17.04 24.1209,-38.42 2.863,-5.5 7.664,-14.49 11.418,-17.29 v -75.72 h 0.078 v -2.18 H 1167.62 v 79.66 h -0.03 c 1.93,6.05 4.72,19.75 -7.2,25.46 -15.43,7.35 -3.01,13.19 -38.83,26.79 -10.24,3.89 -27.33,9.37 -33.13,14.15 -5.77,4.67 -36.75,48 -52.15,66.26 -15.5,18.38 -47.096,60.33 -47.096,60.33 l -6.969,16.56 1.265,12.53 c 1.938,2.03 4.047,4.06 5.895,6.41 5.609,6.01 14.135,14.94 16.565,19.92 5.87,11.89 3.79,0.29 7.42,6.74 2.73,4.91 13.33,10.79 17.76,13.59 4.35,2.64 10.84,10.67 10.84,10.67 0,0 0.15,-4.79 1.96,-9.41 0,0 3.09,2.55 8.02,8.56 4.92,6.01 3.24,6.57 9.27,12.66 6.02,5.96 10.31,17.89 14.13,25.64 3.88,7.63 6.16,9.86 7.17,11.52 0,0 2.56,-6.12 4.24,-10.42 0,0 3.96,3.81 5.6,7.62 1.63,3.82 2.77,8.77 5.49,13.11 2.72,4.42 4.79,10.1 7.42,11.24 2.78,1.14 7.98,4.34 13.54,4.62 4.06,0.2 9.64,-2.11 14.69,-3.16 4.8,-1.18 7.07,1.05 10.37,-3.29 3.24,-4.38 7.68,-6.65 7.68,-6.65 0,0 0.07,0.69 4.06,2.67 4.05,2.07 4.28,2 8.04,4.67 3.7,2.72 3.11,4.06 5.93,6.74 3.07,2.63 4.8,5.64 6.03,10.71 1.39,4.91 -0.89,7.87 1.52,10.22 2.37,2.27 7.17,2.4 9.6,8.2 2.29,5.6 1.61,6.61 2.62,7.59 0.97,1.01 1.59,5.03 1.59,5.03 0,0 6.78,5.63 7.75,10.3 0.94,4.67 1.95,6.37 4.05,8.4 0,0 -1.76,6.73 -10.76,12.29"
         style="fill:#1d1c1b;fill-opacity:1;fill-rule:nonzero;stroke:none"
         transform="matrix(0.13333333,0,0,-0.13333333,0,307.98667)" />
      <path
         id="path55"
         d="m 1697.52,8.08203 h -40 V 2309.9 h 40 V 8.08203"
         style="fill:#1d1c1b;fill-opacity:1;fill-rule:nonzero;stroke:none"
         transform="matrix(0.13333333,0,0,-0.13333333,0,307.98667)" />
    </g>
  </g>
</svg>
