<?xml version="1.0" encoding="UTF-8"?>
<!-- Created with Inkscape (http://www.inkscape.org/) -->
<svg width="908.41" height="337.27" version="1.1" viewBox="0 0 908.41 337.27" xml:space="preserve" xmlns="http://www.w3.org/2000/svg"><g transform="matrix(1.3333 0 0 -1.3333 0 337.27)"><g transform="scale(.1)"><path d="m1457.3 1076.6v46.78h293.84v-46.78c0-331.51-258.68-591.44-591.44-591.44-331.51 0-590.19 259.93-590.19 591.44v46.78l293.84 0.04v-46.82c0-180.82 125.57-311.42 296.35-311.42 172.03 0 297.6 130.6 297.6 311.42"/><path d="m2293 1806.4v-446.07h-96.76v598.59h118.91l259.93-436.24 25.42-54.93-3.27 59.04v432.13h96.75v-598.59h-111.52l-268.96 453.46-26.24 49.2 5.74-56.59"/><path d="m2973.6 1426.8c20.22 0 39.08 4.09 56.58 12.3 17.5 8.19 32.66 19.12 45.51 32.79 12.84 13.66 22.96 29.65 30.34 47.98 7.38 18.3 11.07 37.03 11.07 56.17v32.8c-7.11-9.3-18.73-17.22-34.84-23.79-16.14-6.55-39.24-13.12-69.3-19.67-41-8.75-71.48-18.73-91.43-29.93-19.96-11.22-29.92-28.58-29.92-52.08 0-18.03 6.96-31.97 20.9-41.81 13.94-9.85 34.3-14.76 61.09-14.76zm-37.72-74.62c-45.91 0-81.46 10.37-106.6 31.15s-37.72 48.66-37.72 83.65c0 26.24 5.33 47.56 15.99 63.96 10.66 16.39 24.73 30.06 42.23 40.99 16.41 10.38 36.35 18.99 59.86 25.83 23.5 6.83 54.94 14.35 94.3 22.56 41.01 8.73 69.56 17.63 85.69 26.65 16.12 9.01 24.19 22 24.19 38.95 0 16.94-7.11 31.83-21.32 44.69-14.22 12.83-38.54 19.27-72.97 19.27-33.36 0-60.42-8.21-81.19-24.6-20.78-16.4-36.36-39.36-46.73-68.88l-89.38 28.7c19.12 47.56 48.09 83.35 86.91 107.41 38.81 24.06 83.64 36.08 134.48 36.08 56.85 0 101.95-13.93 135.31-41.81 33.33-27.88 50.01-68.62 50.01-122.19v-173.83c0-23.51 3.82-39.51 11.48-47.97 7.65-8.49 19.14-12.71 34.44-12.71 6.01 0 11.75 0.53 17.22 1.63 5.46 1.09 10.66 2.73 15.59 4.93v-66.43c-7.67-4.38-17.51-8.34-29.53-11.89-12.03-3.55-25.15-5.32-39.36-5.32-36.63 0-63.14 9.28-79.54 27.87-16.39 18.58-24.6 48.66-24.6 90.2-14.22-37.17-37.31-66.29-69.28-87.33-31.99-21.05-68.48-31.56-109.48-31.56"/><path d="m3357.3 1360.4v459.19h99.22v-109.05c15.29 39.36 36.9 68.88 64.79 88.55 27.87 19.68 60.68 29.52 98.4 29.52 53 0 94.29-17.36 123.82-52.06 29.52-34.73 44.28-79.96 44.28-135.71v-280.44h-100.04v255.02c0 39.35-8.34 70.93-25.02 94.71s-45.23 35.67-85.68 35.67c-36.64 0-65.88-13.94-87.76-41.83-21.85-27.88-32.79-66.96-32.79-117.25v-226.32h-99.22"/><path d="m4175.7 1450.6v-80.37c-12.03-5.46-24.74-9.83-38.13-13.12-13.4-3.27-28.58-4.91-45.51-4.91-49.2 0-84.75 12.98-106.6 38.95-21.88 25.95-32.8 64.37-32.8 115.21v231.24h-104.97v81.99h105.79v117.27l92.66 55.76v-173.03h129.56v-81.99h-129.56v-219.76c0-29.52 5.87-50.31 17.63-62.32 11.75-12.03 28.83-18.04 51.25-18.04 12.02 0 22.55 1.08 31.57 3.28 9.01 2.17 18.72 5.46 29.11 9.84"/><path d="m4461.8 1746.6c-38.81 0-69.98-10.8-93.47-32.39-23.51-21.6-38-51.25-43.46-88.97h259.94c-2.2 34.99-13 63.97-32.39 86.93-19.41 22.96-49.61 34.43-90.62 34.43zm209.11-284.54c-19.15-31.16-45.39-57.27-78.73-78.31-33.34-21.05-75.43-31.56-126.27-31.56-39.36 0-74.09 6.02-104.15 18.03-30.06 12.03-54.94 28.42-74.61 49.2-19.68 20.77-34.58 45.64-44.69 74.63-10.13 28.96-15.17 60.12-15.17 93.47 0 32.26 5.45 63.14 16.4 92.67 10.93 29.52 26.37 55.2 46.33 77.07 19.95 21.87 44.55 39.22 73.8 52.07 29.23 12.84 62.17 19.27 98.8 19.27 37.17 0 69.56-6.28 97.18-18.86 27.6-12.58 50.43-29.25 68.47-50.01 18.04-20.79 31.57-45.25 40.58-73.39 9.03-28.17 13.54-57.81 13.54-88.97v-34.45h-358.34c3.82-39.36 17.49-70.51 41-93.48 23.49-22.96 56.58-34.44 99.21-34.44 30.62 0 55.48 6.28 74.62 18.87 19.13 12.57 35.54 30.6 49.2 54.11l82.83-45.92"/><path d="m4741.4 1442.4 72.17 68.05c18.58-25.15 40.18-44.15 64.78-56.98 24.6-12.85 53.83-19.28 87.74-19.28 32.25 0 55.62 6.57 70.11 19.69 14.47 13.12 21.73 27.88 21.73 44.27 0 12.03-4.1 21.45-12.31 28.3-8.19 6.82-19.4 12.42-33.61 16.81-14.23 4.37-30.75 8.05-49.61 11.07-18.87 3-38.68 6.14-59.45 9.42-41.56 6.57-75.99 18.46-103.32 35.67-27.35 17.23-41 46.34-41 87.34 0 39.89 16.11 73.8 48.38 101.68 32.24 27.87 76.8 41.81 133.66 41.81 46.46 0 86.91-7.51 121.36-22.55 34.43-15.03 65.31-38.95 92.65-71.74l-76.26-64.78c-17.5 25.13-37.86 44-61.08 56.57-23.24 12.57-50.71 18.86-82.41 18.86-31.71 0-54.53-6.14-68.48-18.44-13.93-12.31-20.91-26.39-20.91-42.23 0-20.79 12.16-34.86 36.5-42.23 24.31-7.39 55.89-13.82 94.71-19.28 22.41-3.27 43.86-7.37 64.37-12.3 20.5-4.91 38.54-12.03 54.12-21.32 15.58-9.3 28.01-21.31 37.31-36.07 9.28-14.77 13.94-33.63 13.94-56.59 0-42.1-16.28-77.22-48.8-105.37-32.53-28.16-77.21-42.22-134.06-42.22-51.94 0-96.36 8.34-133.25 25.01-36.91 16.67-66.56 38.95-88.98 66.83"/><path d="m2579.1 1123h99.22v-348.5c0-43.199-5.88-81.051-17.62-113.57-11.77-32.527-28.3-59.449-49.61-80.77-21.33-21.32-47.16-37.308-77.49-47.968-30.35-10.661-63.84-15.993-100.45-15.993-77.64 0-137.5 20.911-179.58 62.731-42.11 41.82-63.15 107.01-63.15 195.57v348.5h100.05v-341.12c0-56.867 11.6-99.906 34.84-129.15 23.23-29.25 59.17-43.871 107.84-43.871 51.37 0 88.56 14.621 111.52 43.871 22.95 29.242 34.43 72.281 34.43 129.15v341.12"/><path d="m2798.1 524.35v459.2h99.22v-109.06c15.31 39.364 36.91 68.883 64.78 88.563 27.88 19.679 60.69 29.519 98.41 29.519 53.01 0 94.29-17.359 123.81-52.07 29.53-34.719 44.29-79.949 44.29-135.71v-280.44h-100.05v255.02c0 39.359-8.34 70.93-25.01 94.711-16.68 23.777-45.24 35.668-85.69 35.668-36.63 0-65.88-13.941-87.73-41.82-21.87-27.879-32.81-66.969-32.81-117.26v-226.32h-99.22"/><path d="m3448.4 983.55v-459.2h-100.05v459.2zm-112.35 133.66c0 19.13 5.6 34.85 16.82 47.15 11.19 12.3 27.18 18.45 47.96 18.45 20.22 0 36.08-6.15 47.57-18.45 11.47-12.3 17.21-28.02 17.21-47.15 0-18.59-5.74-33.91-17.21-45.92-11.49-12.03-27.35-18.04-47.57-18.04-20.78 0-36.77 6.01-47.96 18.04-11.22 12.01-16.82 27.33-16.82 45.92"/><path d="m3810 524.35h-104.13l-185.32 459.2h103.32l113.97-300.12 22.14-69.7 22.15 69.7 118.07 300.12h100.04l-190.24-459.2"/><path d="m4267.5 910.57c-38.82 0-69.98-10.8-93.48-32.39-23.5-21.598-38-51.25-43.46-88.969h259.95c-2.2 34.969-13 63.961-32.4 86.918-19.41 22.961-49.61 34.441-90.61 34.441zm209.1-284.54c-19.14-31.16-45.38-57.281-78.72-78.312-33.35-21.059-75.44-31.571-126.28-31.571-39.36 0-74.08 6.024-104.14 18.043-30.07 12.008-54.94 28.418-74.62 49.2-19.68 20.757-34.58 45.64-44.69 74.621-10.12 28.968-15.16 60.129-15.16 93.476 0 32.242 5.45 63.141 16.39 92.66 10.93 29.524 26.37 55.211 46.33 77.082 19.95 21.86 44.55 39.219 73.8 52.059 29.24 12.852 62.18 19.281 98.81 19.281 37.17 0 69.56-6.289 97.18-18.871 27.59-12.57 50.43-29.238 68.46-50.008 18.04-20.793 31.57-45.242 40.59-73.39 9.02-28.16 13.53-57.813 13.53-88.973v-34.437h-358.34c3.82-39.36 17.49-70.52 41-93.481 23.5-22.961 56.58-34.441 99.22-34.441 30.61 0 55.48 6.281 74.62 18.863 19.13 12.559 35.53 30.609 49.2 54.117l82.82-45.918"/><path d="m4809.5 990.11c16.93 0 31.84-1.64 44.69-4.918 12.84-3.281 24.46-7.671 34.85-13.121l-27.88-91.019c-10.95 7.097-22.83 12.301-35.67 15.57-12.86 3.289-26.94 4.93-42.23 4.93-28.44 0-52.35-12.031-71.75-36.082-19.41-24.059-29.11-60.137-29.11-108.24v-232.88h-99.22v459.2h99.22v-110.7c10.37 39.898 25.83 69.418 46.33 88.558 20.5 19.129 47.42 28.699 80.77 28.699"/><path d="m4919.4 606.35 72.17 68.058c18.57-25.148 40.18-44.148 64.78-56.988 24.6-12.863 53.83-19.274 87.74-19.274 32.25 0 55.62 6.563 70.11 19.684 14.47 13.117 21.73 27.879 21.73 44.277 0 12.012-4.11 21.45-12.31 28.289-8.19 6.832-19.4 12.434-33.61 16.813-14.23 4.371-30.75 8.059-49.61 11.07-18.87 2.989-38.68 6.149-59.45 9.43-41.56 6.559-75.99 18.449-103.32 35.668-27.35 17.223-41 46.332-41 87.332 0 39.898 16.11 73.801 48.38 101.68 32.24 27.879 76.79 41.82 133.66 41.82 46.46 0 86.91-7.52 121.36-22.551 34.43-15.051 65.31-38.949 92.65-71.75l-76.26-64.781c-17.5 25.141-37.86 43.992-61.08 56.582-23.24 12.57-50.71 18.859-82.41 18.859-31.71 0-54.53-6.148-68.48-18.449-13.93-12.301-20.91-26.383-20.91-42.23 0-20.782 12.16-34.852 36.5-42.231 24.31-7.379 55.89-13.808 94.7-19.269 22.42-3.282 43.87-7.379 64.38-12.301 20.5-4.918 38.53-12.031 54.12-21.32 15.58-9.309 28.01-21.321 37.31-36.079 9.28-14.761 13.94-33.621 13.94-56.582 0-42.109-16.28-77.218-48.8-105.37-32.53-28.16-77.22-42.226-134.06-42.226-51.94 0-96.36 8.34-133.25 25.008-36.91 16.671-66.57 38.949-88.98 66.832"/><path d="m5523.8 983.55v-459.2h-100.04v459.2zm-112.35 133.66c0 19.13 5.6 34.85 16.81 47.15 11.2 12.3 27.19 18.45 47.98 18.45 20.21 0 36.07-6.15 47.56-18.45 11.47-12.3 17.21-28.02 17.21-47.15 0-18.59-5.74-33.91-17.21-45.92-11.49-12.03-27.35-18.04-47.56-18.04-20.79 0-36.78 6.01-47.98 18.04-11.21 12.01-16.81 27.33-16.81 45.92"/><path d="m5937.8 614.54v-80.348c-12.03-5.48-24.75-9.839-38.13-13.121-13.4-3.281-28.58-4.922-45.51-4.922-49.2 0-84.75 12.973-106.6 38.954-21.88 25.957-32.81 64.367-32.81 115.21v231.24h-104.96v82h105.78v117.26l92.67 55.76v-173.02h129.56v-82h-129.56v-219.76c0-29.519 5.87-50.301 17.63-62.32 11.74-12.028 28.82-18.039 51.25-18.039 12.02 0 22.55 1.09 31.57 3.281 9.01 2.18 18.72 5.461 29.11 9.828"/><path d="m6210.9 1026.2-37.73 36.9 135.3 148.42 49.2-45.92zm13.11-115.62c-38.82 0-69.98-10.8-93.47-32.39-23.51-21.598-38-51.25-43.46-88.969h259.94c-2.2 34.969-13 63.961-32.39 86.918-19.42 22.961-49.61 34.441-90.62 34.441zm209.1-284.54c-19.14-31.16-45.38-57.281-78.72-78.312-33.35-21.059-75.44-31.571-126.28-31.571-39.35 0-74.08 6.024-104.14 18.043-30.07 12.008-54.94 28.418-74.62 49.2-19.67 20.757-34.58 45.64-44.68 74.621-10.13 28.968-15.17 60.129-15.17 93.476 0 32.242 5.45 63.141 16.4 92.66 10.92 29.524 26.36 55.211 46.32 77.082 19.96 21.86 44.56 39.219 73.8 52.059 29.24 12.852 62.18 19.281 98.81 19.281 37.17 0 69.56-6.289 97.18-18.871 27.6-12.57 50.43-29.238 68.47-50.008 18.03-20.793 31.57-45.242 40.58-73.39 9.03-28.16 13.54-57.813 13.54-88.973v-34.437h-358.34c3.82-39.36 17.49-70.52 40.99-93.481s56.59-34.441 99.22-34.441c30.62 0 55.48 6.281 74.62 18.863 19.13 12.559 35.54 30.609 49.2 54.117l82.82-45.918"/><path d="m1751.1 1359.8v600.22h-276.26v-408.11l-205.29 408.11h-307.04l310.29-600.22h478.3"/><path d="m857.05 1359.8h-287.56v600.22h287.56v-600.22"/></g></g></svg>
