<svg version="1.1" xmlns="http://www.w3.org/2000/svg" xmlns:xlink="http://www.w3.org/1999/xlink" x="0px" y="0px" width="90px"
	 height="90px" viewBox="0 0 90 90" style="enable-background:new 0 0 90 90;" xml:space="preserve">
<g>
	<path style="fill:#000000;" d="M45,89C20.7,89,1,69.3,1,45S20.7,1,45,1s44,19.7,44,44S69.3,89,45,89z"/>
	<path style="fill:#FFFFFF;" d="M45,2c23.7,0,43,19.3,43,43S68.7,88,45,88S2,68.7,2,45S21.3,2,45,2 M45,0
		C20.1,0,0,20.1,0,45s20.1,45,45,45s45-20.1,45-45S69.9,0,45,0L45,0z"/>
</g>
<path style="fill:#FFFFFF;" d="M37,23.6l26.8,18.6c1.9,1.4,1.9,4.2,0,5.6L37,66.4c-2.3,1.6-5.3,0-5.3-2.8V26.4
	C31.6,23.7,34.7,22,37,23.6z"/>
</svg>
