<?xml version="1.0" encoding="UTF-8" standalone="no"?>
<svg
   xmlns:dc="http://purl.org/dc/elements/1.1/"
   xmlns:cc="http://creativecommons.org/ns#"
   xmlns:rdf="http://www.w3.org/1999/02/22-rdf-syntax-ns#"
   xmlns:svg="http://www.w3.org/2000/svg"
   xmlns="http://www.w3.org/2000/svg"
   xmlns:sodipodi="http://sodipodi.sourceforge.net/DTD/sodipodi-0.dtd"
   xmlns:inkscape="http://www.inkscape.org/namespaces/inkscape"
   width="120.27563"
   height="179.20534"
   viewBox="0 0 31.822925 47.414747"
   version="1.1"
   id="svg1468"
   sodipodi:docname="logo_vert_deg.svg"
   inkscape:version="0.92.5 (2060ec1f9f, 2020-04-08)">
  <sodipodi:namedview
     pagecolor="#ffffff"
     bordercolor="#666666"
     borderopacity="1"
     objecttolerance="10"
     gridtolerance="10"
     guidetolerance="10"
     inkscape:pageopacity="1"
     inkscape:pageshadow="2"
     inkscape:window-width="2079"
     inkscape:window-height="1260"
     id="namedview28"
     showgrid="false"
     inkscape:pagecheckerboard="true"
     inkscape:zoom="1"
     inkscape:cx="70.996268"
     inkscape:cy="84.609332"
     inkscape:window-x="72"
     inkscape:window-y="24"
     inkscape:window-maximized="0"
     inkscape:current-layer="layer1"
     fit-margin-top="0"
     fit-margin-left="0"
     fit-margin-right="0"
     fit-margin-bottom="0"
     units="px" />
  <defs
     id="defs1462">
    <linearGradient
       x1="0"
       y1="0"
       x2="1"
       y2="0"
       gradientUnits="userSpaceOnUse"
       gradientTransform="matrix(-28.53896,28.53896,28.53896,28.53896,579.48328,199.38229)"
       spreadMethod="pad"
       id="linearGradient178-8">
      <stop
         style="stop-opacity:1;stop-color:#80cc28"
         offset="0"
         id="stop174-6" />
      <stop
         style="stop-opacity:1;stop-color:#007a38"
         offset="1"
         id="stop176-0" />
    </linearGradient>
  </defs>
  <metadata
     id="metadata1465">
    <rdf:RDF>
      <cc:Work
         rdf:about="">
        <dc:format>image/svg+xml</dc:format>
        <dc:type
           rdf:resource="http://purl.org/dc/dcmitype/StillImage" />
        <dc:title></dc:title>
      </cc:Work>
    </rdf:RDF>
  </metadata>
  <g
     id="layer1"
     transform="translate(-55.760819,-35.58339)">
    <g
       id="g1430"
       transform="matrix(0,-0.51225501,-0.51225501,0,185.34269,336.80245)">
      <path
         d="M 525.90168,190.84039 H 588.0256 V 252.9636 H 525.90168 Z"
         style="fill:url(#linearGradient178-8);stroke:none;stroke-width:0.99999797"
         id="path180-4"
         inkscape:connector-curvature="0" />
      <path
         d="m 561.31378,241.41969 c -0.051,-0.1357 -0.0757,-0.2771 -0.0757,-0.4164 0,-0.3352 0.1421,-0.6626 0.4044,-0.8931 l 16.3652,-14.3224 c 0.35,-0.3061 0.8471,-0.3797 1.2699,-0.1873 0.4235,0.1916 0.6957,0.6137 0.6957,1.0789 v 14.3232 c 0,0.6547 -0.5303,1.185 -1.185,1.185 h -16.3651 c -0.4936,0 -0.9355,-0.3061 -1.1094,-0.7679"
         style="fill:#ffffff;fill-opacity:1;fill-rule:nonzero;stroke:none;stroke-width:0.99999797"
         id="path202-8"
         inkscape:connector-curvature="0" />
      <path
         d="m 535.70868,201.76159 18.9721,10.3968 c 0.3359,0.1838 0.5614,0.519 0.6074,0.898 0.0459,0.3825 -0.0948,0.7587 -0.3776,1.016 l -15.6058,14.2574 -3.3663,3.0751 c -0.3472,0.3167 -0.8478,0.3988 -1.277,0.21 -0.4299,-0.1902 -0.7071,-0.6152 -0.7071,-1.0847 v -27.7292 c 0,-0.4186 0.2206,-0.806 0.5805,-1.0203 0.3607,-0.2121 0.8061,-0.2199 1.1738,-0.0191"
         style="fill:#ffffff;fill-opacity:1;fill-rule:nonzero;stroke:none;stroke-width:0.99999797"
         id="path204-8"
         inkscape:connector-curvature="0" />
      <path
         d="m 556.28308,220.92229 21.7247,-19.0138 c 0.35,-0.3055 0.8464,-0.379 1.2699,-0.1867 0.4236,0.1916 0.6951,0.6145 0.6951,1.079 v 13.4167 c 0,0.3415 -0.1471,0.666 -0.4038,0.8909 l -28.3202,24.7863 c -0.2164,0.1895 -0.4936,0.2928 -0.7807,0.2928 h -15.3285 c -0.6548,0 -1.1851,-0.5402 -1.1851,-1.1943 0,-0.3422 0.1471,-0.6674 0.4045,-0.8923 l 21.8187,-19.0965 c 0.034,-0.029 0.0693,-0.0566 0.1054,-0.0821"
         style="fill:#ffffff;fill-opacity:1;fill-rule:nonzero;stroke:none;stroke-width:0.99999797"
         id="path206-8"
         inkscape:connector-curvature="0" />
      <path
         d="m 514.32258,251.80209 c -0.3621,-0.0573 -0.7092,-0.0856 -1.0423,-0.0856 h -3.5806 v 1.2416 h 9.8446 v -1.2416 h -3.0814 c -0.3811,0 -0.7566,0.0283 -1.1271,0.0856 v -1.1985 l 4.2085,-2.9966 v -1.3696 l -4.0805,2.8686 c -0.1711,0.1139 -0.3804,0.2949 -0.6279,0.5416 h -0.0283 c -0.2574,-0.2665 -0.485,-0.4709 -0.6851,-0.6137 l -4.4228,-2.9959 v 1.4121 l 4.6229,3.1386 z"
         style="fill:#181817;fill-opacity:1;fill-rule:nonzero;stroke:none;stroke-width:0.99999797"
         id="path238-9"
         inkscape:connector-curvature="0" />
      <path
         d="m 516.64748,244.59749 v -1.1978 h -6.9483 v 1.1978 z m 2.9542,-0.8845 c 0,-0.2475 -0.1237,-0.3712 -0.3705,-0.3712 h -0.8139 c -0.2474,0 -0.3705,0.1237 -0.3705,0.3712 v 0.5713 c 0,0.2468 0.1231,0.3705 0.3705,0.3705 h 0.8139 c 0.2468,0 0.3705,-0.1237 0.3705,-0.3705 z"
         style="fill:#181817;fill-opacity:1;fill-rule:nonzero;stroke:none;stroke-width:0.99999797"
         id="path240-7"
         inkscape:connector-curvature="0" />
      <path
         d="m 515.54948,240.00349 c 0.8464,-1.1221 1.2699,-2.1593 1.2699,-3.1096 0,-1.2565 -0.637,-1.8837 -1.9119,-1.8837 h -5.2076 v 1.2126 h 4.8647 c 0.4568,0 0.7756,0.0757 0.9567,0.2284 0.1803,0.152 0.2708,0.4087 0.2708,0.77 0,0.3811 -0.0856,0.7637 -0.2574,1.149 -0.1704,0.3847 -0.4518,0.8966 -0.8414,1.5337 h -4.9934 v 1.2126 h 6.9477 v -1.0267 z"
         style="fill:#181817;fill-opacity:1;fill-rule:nonzero;stroke:none;stroke-width:0.99999797"
         id="path242-7"
         inkscape:connector-curvature="0" />
      <path
         d="m 511.61128,231.08649 c -0.3323,0 -0.5706,-0.0714 -0.7127,-0.2143 -0.1429,-0.1421 -0.2143,-0.3846 -0.2143,-0.7268 v -1.0557 l -0.9276,-0.1428 c -0.1238,0.4377 -0.186,0.9602 -0.186,1.569 0,0.5805 0.1619,1.0231 0.485,1.3271 0.3239,0.3041 0.7898,0.4568 1.3986,0.4568 h 4.2375 v 1.2551 h 0.8853 l 0.0572,-1.2551 h 2.0682 v -1.2133 h -2.0547 v -2.211 h -0.956 v 2.211 z"
         style="fill:#181817;fill-opacity:1;fill-rule:nonzero;stroke:none;stroke-width:0.99999797"
         id="path244-6"
         inkscape:connector-curvature="0" />
      <path
         d="m 518.07508,225.45129 2.0971,-2.4684 -0.9277,-0.6851 -1.7259,2.7258 z m -4.5515,-1.926 c 0,-0.5049 0.3423,-0.7566 1.0267,-0.7566 0.4476,0.01 0.7665,0.1428 0.9567,0.3995 0.1902,0.2574 0.2849,0.6943 0.2849,1.313 0,0.7318 -0.1591,1.2409 -0.478,1.5266 -0.3181,0.2849 -0.9156,0.437 -1.7903,0.4568 z m -0.9425,2.9244 c -0.7983,-0.0665 -1.3356,-0.2609 -1.6121,-0.5847 -0.2751,-0.3232 -0.4129,-0.8605 -0.4129,-1.6122 0,-0.7898 0.0565,-1.593 0.1704,-2.4111 l -0.8125,-0.1287 c -0.2573,0.618 -0.3853,1.5174 -0.3853,2.6968 0,1.1985 0.2779,2.0526 0.8343,2.561 0.5565,0.5091 1.5004,0.7637 2.8326,0.7637 1.3413,0 2.2803,-0.2475 2.8176,-0.7425 0.5374,-0.4949 0.8061,-1.3123 0.8061,-2.4542 0,-1.0366 -0.1881,-1.7924 -0.5635,-2.2683 -0.3755,-0.4758 -0.944,-0.7134 -1.7055,-0.7134 -1.3123,-0.0184 -1.9692,0.5324 -1.9692,1.6552 z"
         style="fill:#181817;fill-opacity:1;fill-rule:nonzero;stroke:none;stroke-width:0.99999797"
         id="path246-4"
         inkscape:connector-curvature="0" />
      <path
         d="m 512.96678,218.56079 c 0.1329,0.5706 0.3471,0.975 0.642,1.2126 0.2948,0.2383 0.7275,0.3571 1.2989,0.3571 0.77,0 1.2861,-0.2022 1.5477,-0.6067 0.2617,-0.4044 0.3833,-1.1058 0.3642,-2.1042 -0.0191,-1.113 -0.0912,-2.088 -0.2143,-2.9252 l -0.8845,0.0997 c 0.0474,1.446 0.0714,2.3263 0.0714,2.6395 0.009,0.7043 -0.0339,1.1653 -0.1287,1.3838 -0.0954,0.2191 -0.3472,0.3287 -0.7558,0.3287 -0.3338,0 -0.5615,-0.0742 -0.6852,-0.222 -0.123,-0.1471 -0.2284,-0.4108 -0.3139,-0.7912 l -0.4568,-2.0265 c -0.1428,-0.5706 -0.3542,-0.9821 -0.6342,-1.2338 -0.2815,-0.2517 -0.7064,-0.3783 -1.277,-0.3783 -0.8096,0 -1.3434,0.2235 -1.6058,0.671 -0.2616,0.4469 -0.3924,1.2127 -0.3924,2.2973 0,0.9701 0.0665,1.878 0.2001,2.7251 l 0.8846,-0.0863 c -0.0474,-0.8082 -0.0665,-1.6072 -0.0573,-2.3963 0,-0.8089 0.0622,-1.3512 0.1859,-1.6269 0.1231,-0.2758 0.3847,-0.4137 0.7849,-0.4137 0.3132,0 0.5296,0.0835 0.6484,0.2496 0.1195,0.1662 0.2262,0.4497 0.321,0.8492 z"
         style="fill:#181817;fill-opacity:1;fill-rule:nonzero;stroke:none;stroke-width:0.99999797"
         id="path248-3"
         inkscape:connector-curvature="0" />
      <path
         d="m 513.52328,208.61629 c 0,-0.5042 0.3422,-0.7566 1.0274,-0.7566 0.4468,0.01 0.7657,0.1428 0.9559,0.3995 0.1902,0.2567 0.2857,0.695 0.2857,1.313 0,0.7325 -0.1598,1.2409 -0.478,1.5266 -0.3189,0.2856 -0.9157,0.4377 -1.791,0.4568 z m -0.9418,2.9251 c -0.799,-0.0672 -1.3364,-0.2616 -1.6122,-0.5847 -0.2757,-0.3239 -0.4136,-0.8612 -0.4136,-1.6129 0,-0.7898 0.0573,-1.5937 0.1711,-2.4118 l -0.8131,-0.128 c -0.2574,0.6187 -0.3854,1.5174 -0.3854,2.6968 0,1.1985 0.2786,2.0519 0.8351,2.561 0.5557,0.5091 1.4997,0.7629 2.8318,0.7629 1.3413,0 2.2803,-0.2467 2.8177,-0.7417 0.5381,-0.4942 0.8068,-1.3123 0.8068,-2.4535 0,-1.0366 -0.1881,-1.7938 -0.5636,-2.269 -0.3761,-0.4759 -0.9446,-0.7134 -1.7054,-0.7134 -1.3124,-0.0191 -1.9692,0.5331 -1.9692,1.6552 z"
         style="fill:#181817;fill-opacity:1;fill-rule:nonzero;stroke:none;stroke-width:0.99999797"
         id="path250-0"
         inkscape:connector-curvature="0" />
      <path
         d="m 515.54948,203.70889 c 0.8464,-1.1228 1.2699,-2.1594 1.2699,-3.1104 0,-1.2557 -0.637,-1.8836 -1.9119,-1.8836 h -5.2076 v 1.2126 h 4.8647 c 0.4568,0 0.7756,0.0764 0.9567,0.2291 0.1803,0.1513 0.2708,0.4087 0.2708,0.77 0,0.3811 -0.0856,0.7636 -0.2574,1.1483 -0.1704,0.3853 -0.4518,0.8972 -0.8414,1.5336 h -4.9934 v 1.2133 h 6.9477 v -1.0273 z"
         style="fill:#181817;fill-opacity:1;fill-rule:nonzero;stroke:none;stroke-width:0.99999797"
         id="path252-3"
         inkscape:connector-curvature="0" />
      <path
         d="m 512.96678,195.36279 c 0.1329,0.5706 0.3471,0.975 0.642,1.2126 0.2948,0.2383 0.7275,0.3564 1.2989,0.3564 0.77,0 1.2861,-0.2015 1.5477,-0.606 0.2617,-0.4044 0.3833,-1.1058 0.3642,-2.1049 -0.0191,-1.1122 -0.0912,-2.0873 -0.2143,-2.9245 l -0.8845,0.0997 c 0.0474,1.446 0.0714,2.3256 0.0714,2.6395 0.009,0.7043 -0.0339,1.1653 -0.1287,1.3838 -0.0954,0.2192 -0.3472,0.328 -0.7558,0.328 -0.3338,0 -0.5615,-0.0735 -0.6852,-0.2213 -0.123,-0.147 -0.2284,-0.4108 -0.3139,-0.7912 l -0.4568,-2.0264 c -0.1428,-0.5707 -0.3542,-0.9822 -0.6342,-1.2339 -0.2815,-0.2517 -0.7064,-0.3783 -1.277,-0.3783 -0.8096,0 -1.3434,0.2235 -1.6058,0.6703 -0.2616,0.4476 -0.3924,1.2134 -0.3924,2.298 0,0.9701 0.0665,1.878 0.2001,2.7251 l 0.8846,-0.0863 c -0.0474,-0.8082 -0.0665,-1.6072 -0.0573,-2.3963 0,-0.8089 0.0622,-1.3512 0.1859,-1.6269 0.1231,-0.2765 0.3847,-0.4137 0.7849,-0.4137 0.3132,0 0.5296,0.0828 0.6484,0.2496 0.1195,0.1662 0.2262,0.449 0.321,0.8492 z"
         style="fill:#181817;fill-opacity:1;fill-rule:nonzero;stroke:none;stroke-width:0.99999797"
         id="path254-0"
         inkscape:connector-curvature="0" />
      <path
         d="m 499.64568,236.65119 c -0.2857,-0.9701 -0.4278,-1.7125 -0.4278,-2.2259 0,-0.6286 0.1754,-1.0655 0.5282,-1.313 0.3514,-0.2468 1.0267,-0.3712 2.0257,-0.3712 0.9701,0 1.6496,0.1167 2.0407,0.35 0.3895,0.2326 0.5847,0.63 0.5847,1.1907 0,0.362 -0.0827,0.7205 -0.2503,1.0783 -0.1662,0.3563 -0.4391,0.7862 -0.8195,1.2911 z m 4.5231,0.1138 c 0.3995,-0.3712 0.7135,-0.8181 0.9418,-1.3413 0.2284,-0.5239 0.3423,-1.0373 0.3423,-1.5407 0,-0.828 -0.3041,-1.4318 -0.9136,-1.8129 -0.6081,-0.3804 -1.5308,-0.5699 -2.7675,-0.5699 -1.313,0 -2.2428,0.2093 -2.7893,0.6279 -0.5473,0.4178 -0.821,1.0846 -0.821,1.9974 0,0.9136 0.2376,1.7691 0.7135,2.5681 -0.3232,-0.0283 -0.7891,-0.0424 -1.3979,-0.0424 h -2.0123 v 1.2126 h 9.8169 v -0.9984 z"
         style="fill:#181817;fill-opacity:1;fill-rule:nonzero;stroke:none;stroke-width:0.99999797"
         id="path256-9"
         inkscape:connector-curvature="0" />
      <path
         d="m 504.31168,225.37949 v 0.3995 c 0,0.3521 -0.0693,0.7162 -0.2072,1.0917 -0.1378,0.3762 -0.3641,0.8775 -0.6773,1.5054 h -5.0945 v 1.2126 h 6.9491 v -0.9411 l -1.0988,-0.1294 c 0.8464,-1.0741 1.2699,-2.0633 1.2699,-2.9669 v -0.3139 z"
         style="fill:#181817;fill-opacity:1;fill-rule:nonzero;stroke:none;stroke-width:0.99999797"
         id="path258-2"
         inkscape:connector-curvature="0" />
      <path
         d="m 503.86908,222.68379 c -0.3712,0.2849 -1.0606,0.4278 -2.0689,0.4278 -1.0083,0 -1.6977,-0.1429 -2.0689,-0.4278 -0.3712,-0.2857 -0.5565,-0.8096 -0.5565,-1.5704 0,-0.7608 0.1853,-1.2862 0.5565,-1.5761 0.3712,-0.2899 1.0606,-0.4348 2.0689,-0.4348 1.0083,0 1.6977,0.1449 2.0689,0.4348 0.3712,0.2899 0.5565,0.8153 0.5565,1.5761 0,0.7608 -0.1853,1.2847 -0.5565,1.5704 m 0.7558,-4.1024 c -0.5508,-0.49 -1.4926,-0.7354 -2.8247,-0.7354 -1.3314,0 -2.2739,0.2454 -2.8247,0.7354 -0.5523,0.49 -0.828,1.3335 -0.828,2.532 0,1.1893 0.2757,2.0314 0.828,2.5263 0.5508,0.495 1.4933,0.7418 2.8247,0.7418 1.3321,0 2.2739,-0.2468 2.8247,-0.7418 0.5523,-0.4949 0.828,-1.337 0.828,-2.5263 0,-1.1985 -0.2757,-2.042 -0.828,-2.532"
         style="fill:#181817;fill-opacity:1;fill-rule:nonzero;stroke:none;stroke-width:0.99999797"
         id="path260-5"
         inkscape:connector-curvature="0" />
      <path
         d="m 504.01168,211.22709 c 0.2567,0.9128 0.3854,1.6213 0.3854,2.1261 0,0.618 -0.1761,1.0507 -0.5282,1.2982 -0.3514,0.2468 -1.0267,0.3705 -2.0258,0.3705 -0.9984,0 -1.6863,-0.1209 -2.0618,-0.3634 -0.3762,-0.2426 -0.5635,-0.6541 -0.5635,-1.2346 0,-0.3613 0.0686,-0.6894 0.2071,-0.9842 0.1379,-0.2949 0.3875,-0.6986 0.7488,-1.2126 z m -5.6785,-1.2134 v 0.9418 l 0.9984,0.1139 c -0.7799,0.8852 -1.1695,1.803 -1.1695,2.754 0,0.8563 0.3019,1.4771 0.9058,1.8624 0.6038,0.3854 1.5244,0.5777 2.7611,0.5777 1.3215,0 2.2562,-0.21 2.8035,-0.6279 0.5466,-0.4185 0.8202,-1.0846 0.8202,-1.9981 0,-0.903 -0.2142,-1.726 -0.642,-2.4677 0.4186,0.0382 0.8753,0.0573 1.3696,0.0573 h 1.301 v -1.2134 z"
         style="fill:#181817;fill-opacity:1;fill-rule:nonzero;stroke:none;stroke-width:0.99999797"
         id="path262-4"
         inkscape:connector-curvature="0" />
      <path
         d="m 500.01678,207.06129 c 0,-0.1711 -0.0332,-0.2906 -0.1004,-0.3571 -0.0664,-0.0672 -0.1852,-0.0997 -0.3563,-0.0997 h -0.7707 c -0.1712,0 -0.2899,0.0325 -0.3564,0.0997 -0.0665,0.0665 -0.0997,0.186 -0.0997,0.3571 v 0.3988 c 0,0.1619 0.0332,0.2785 0.0997,0.3507 0.0665,0.0707 0.1852,0.1067 0.3564,0.1067 h 0.7707 c 0.1711,0 0.2899,-0.036 0.3563,-0.1067 0.0672,-0.0722 0.1004,-0.1888 0.1004,-0.3507 z"
         style="fill:#181817;fill-opacity:1;fill-rule:nonzero;stroke:none;stroke-width:0.99999797"
         id="path264-0"
         inkscape:connector-curvature="0" />
    </g>
  </g>
</svg>
