<svg viewBox="0 0 125 24" fill="none" xmlns="http://www.w3.org/2000/svg" aria-describedby="title" width="300">
<path d="M121.444 22.13H125l.001-9.041a6.152 6.152 0 0 0-.206-1.603c-.702-2.578-3.217-4.363-5.983-4.25-1.283.055-2.49.53-3.586 1.413l-.14.113-.14-.113c-1.096-.882-2.303-1.358-3.586-1.412-2.769-.116-5.281 1.67-5.983 4.25a6.143 6.143 0 0 0-.206 1.602v9.04h3.556v-8.887a2.29 2.29 0 1 1 4.578 0v8.887h3.562l.001-8.908a2.29 2.29 0 0 1 3.914-1.601 2.3 2.3 0 0 1 .663 1.621v8.888l-.001.001Zm-26.271-3.55a3.896 3.896 0 0 1-3.897-3.886 3.896 3.896 0 0 1 6.649-2.749 3.896 3.896 0 0 1 1.145 2.749 3.896 3.896 0 0 1-3.897 3.887m0-11.321c-4.11 0-7.455 3.335-7.455 7.434 0 4.1 3.344 7.435 7.455 7.435 4.111 0 7.455-3.335 7.455-7.435S99.284 7.26 95.173 7.26ZM82.906 22.132h4.611l-2.063-3.551-2.429-.003c-1.147 0-2.145-.827-2.226-1.843-.01-.133-.02-.297-.028-.478V10.9h4.682l1.83-3.21H80.77V1.867l-3.56 2.458V7.52h-2.248v3.552h2.247l.004 4.85c0 .002-.003.226 0 .29l.014.27c.122 2.356 1.285 4.09 3.456 5.154.582.284 1.224.441 2.024.493h.199v.003Zm-14.041-.002h3.555v-9.041a6.182 6.182 0 0 0-.206-1.603c-.701-2.578-3.216-4.363-5.983-4.25-1.282.055-2.489.53-3.586 1.413l-.14.113-.14-.113c-1.096-.882-2.302-1.358-3.586-1.412-2.768-.116-5.28 1.67-5.982 4.25a6.122 6.122 0 0 0-.206 1.602v9.04h3.556v-8.887a2.289 2.289 0 0 1 4.577 0v8.887h3.563v-8.908a2.289 2.289 0 0 1 4.577.02v8.888l.001.001Zm-26.271-3.55a3.896 3.896 0 0 1-3.897-3.886 3.896 3.896 0 0 1 6.649-2.749 3.896 3.896 0 0 1 1.145 2.749 3.896 3.896 0 0 1-3.897 3.887m0-11.321c-4.111 0-7.456 3.335-7.456 7.434 0 4.1 3.345 7.435 7.456 7.435 4.11 0 7.455-3.335 7.455-7.435S46.705 7.26 42.594 7.26ZM30.326 22.132h4.612l-2.064-3.551-2.428-.003c-1.147 0-2.146-.827-2.227-1.843-.01-.133-.02-.297-.027-.478V10.9h4.682l1.83-3.21h-6.512V1.867L24.63 4.325V7.52h-2.247v3.552h2.247l.003 4.85c0 .002-.002.226.001.29l.014.27c.122 2.356 1.285 4.09 3.456 5.154.581.284 1.224.441 2.023.493h.2v.003h-.001Z" fill="#000"></path>
<path d="m8.287 24 3.176-5.486H5.111L8.287 24Zm0-11.416a4.33 4.33 0 0 1-4.332-4.32 4.33 4.33 0 0 1 4.332-4.32 4.33 4.33 0 0 1 4.332 4.32 4.33 4.33 0 0 1-4.332 4.32M8.287 0C3.717 0 0 3.707 0 8.264c0 4.557 3.717 8.264 8.287 8.264s8.287-3.707 8.287-8.264C16.574 3.707 12.856 0 8.287 0Z" fill="#DF1B12"></path>
</svg>
