<?xml version="1.0" encoding="UTF-8"?>
<svg xmlns="http://www.w3.org/2000/svg" width="178" height="24" id="Layer_1" viewBox="0 0 192 25.93">
  <path d="M0,13.99v-.06c0-4.13,3.21-7.72,7.6-7.72s7.54,3.53,7.54,7.66v.06c0,4.13-3.21,7.72-7.6,7.72S0,18.12,0,13.99Zm13.61,0v-.06c0-3.56-2.66-6.39-6.07-6.39S1.53,10.4,1.53,13.87v.06c0,3.55,2.66,6.39,6.07,6.39s6.01-2.86,6.01-6.33Z"></path>
  <path d="M19.51,6.56h1.42v3.29c1.27-1.94,3.15-3.64,6.07-3.64,3.55,0,7.17,2.86,7.17,7.66v.06c0,4.8-3.61,7.72-7.17,7.72-2.95,0-4.86-1.68-6.07-3.53v7.8h-1.42V6.56Zm13.12,7.43v-.06c0-3.87-2.69-6.36-5.78-6.36s-6.01,2.57-6.01,6.33v.06c0,3.79,2.95,6.33,6.01,6.33s5.78-2.34,5.78-6.3Z"></path>
  <path d="M37.57,13.96v-.06c0-4.28,3.01-7.69,6.99-7.69s6.76,3.35,6.76,7.72c0,.26,0,.35-.03,.58h-12.23c.26,3.67,2.89,5.81,5.78,5.81,2.28,0,3.84-1.01,5.06-2.31l.98,.87c-1.5,1.62-3.27,2.77-6.1,2.77-3.87,0-7.23-3.09-7.23-7.69Zm12.23-.72c-.2-2.98-1.91-5.72-5.29-5.72-2.92,0-5.17,2.46-5.43,5.72h10.72Z"></path>
  <path d="M55.45,6.56h1.42v2.75c.98-1.73,2.63-3.09,5.32-3.09,3.73,0,5.9,2.54,5.9,6.07v9.02h-1.42V12.54c0-3.03-1.71-5.03-4.68-5.03s-5.12,2.2-5.12,5.26v8.53h-1.42V6.56Z"></path>
  <path d="M72.72,13.87v-.06c0-4.88,3.55-7.77,7.14-7.77,2.77,0,4.57,1.5,5.72,3.18V.2h2.23V21.3h-2.23v-3.01c-1.21,1.79-2.98,3.32-5.72,3.32-3.58,0-7.14-2.83-7.14-7.75Zm12.95-.03v-.06c0-3.44-2.63-5.75-5.4-5.75s-5.26,2.14-5.26,5.75v.06c0,3.53,2.43,5.78,5.26,5.78s5.4-2.34,5.4-5.78Z"></path>
  <path d="M91.64,16.97v-.06c0-3.21,2.6-4.88,6.39-4.88,1.91,0,3.24,.26,4.57,.64v-.46c0-2.66-1.62-4.05-4.42-4.05-1.76,0-3.15,.43-4.54,1.07l-.66-1.82c1.65-.75,3.24-1.27,5.43-1.27s3.76,.58,4.83,1.65c1.04,1.04,1.56,2.49,1.56,4.39v9.13h-2.2v-2.23c-1.04,1.33-2.75,2.54-5.38,2.54-2.8,0-5.58-1.59-5.58-4.65Zm10.98-1.16v-1.39c-1.1-.32-2.54-.64-4.36-.64-2.77,0-4.36,1.21-4.36,3.01v.06c0,1.88,1.73,2.98,3.76,2.98,2.75,0,4.97-1.65,4.97-4.02Z"></path>
  <path d="M110.14,17.34V8.32h-2.08v-1.97h2.08V1.85h2.23V6.36h4.74v1.97h-4.74v8.73c0,1.82,1.01,2.49,2.51,2.49,.75,0,1.39-.14,2.17-.52v1.91c-.78,.4-1.62,.64-2.69,.64-2.4,0-4.22-1.18-4.22-4.22Z"></path>
  <path d="M119.91,16.97v-.06c0-3.21,2.6-4.88,6.39-4.88,1.91,0,3.24,.26,4.57,.64v-.46c0-2.66-1.62-4.05-4.42-4.05-1.76,0-3.15,.43-4.54,1.07l-.66-1.82c1.65-.75,3.24-1.27,5.43-1.27s3.76,.58,4.83,1.65c1.04,1.04,1.56,2.49,1.56,4.39v9.13h-2.2v-2.23c-1.04,1.33-2.75,2.54-5.38,2.54-2.8,0-5.58-1.59-5.58-4.65Zm10.98-1.16v-1.39c-1.1-.32-2.54-.64-4.36-.64-2.77,0-4.36,1.21-4.36,3.01v.06c0,1.88,1.73,2.98,3.76,2.98,2.75,0,4.97-1.65,4.97-4.02Z"></path>
  <path d="M137.23,19.25l1.88-2.89c1.68,1.21,3.44,1.85,4.88,1.85,1.27,0,1.85-.46,1.85-1.16v-.06c0-.95-1.5-1.27-3.21-1.79-2.17-.64-4.62-1.65-4.62-4.65v-.06c0-3.15,2.54-4.91,5.66-4.91,1.97,0,4.1,.66,5.78,1.79l-1.68,3.03c-1.53-.9-3.06-1.45-4.19-1.45s-1.62,.46-1.62,1.07v.06c0,.87,1.47,1.27,3.15,1.85,2.17,.72,4.68,1.76,4.68,4.6v.06c0,3.44-2.57,5-5.92,5-2.17,0-4.6-.72-6.65-2.34Z"></path>
  <path d="M151.62,13.64v-.06c0-4.45,3.58-8.06,8.41-8.06s8.35,3.55,8.35,8.01v.06c0,4.45-3.58,8.06-8.41,8.06s-8.35-3.55-8.35-8.01Zm12.43,0v-.06c0-2.28-1.65-4.28-4.08-4.28s-4.02,1.94-4.02,4.22v.06c0,2.28,1.65,4.28,4.08,4.28s4.02-1.94,4.02-4.22Z"></path>
  <path d="M171.72,9.57h-1.82v-3.61h1.82v-.98c0-1.71,.43-2.95,1.24-3.76,.81-.81,1.99-1.21,3.55-1.21,1.39,0,2.31,.17,3.12,.43v3.64c-.64-.23-1.24-.38-1.99-.38-1.01,0-1.59,.52-1.59,1.68v.61h3.55v3.58h-3.5v11.73h-4.39V9.57Z"></path>
  <path d="M183.97,16.91v-7.34h-1.85v-3.76h1.85V1.85h4.39v3.96h3.64v3.76h-3.64v6.62c0,1.01,.43,1.5,1.42,1.5,.81,0,1.53-.2,2.17-.55v3.53c-.92,.55-1.99,.9-3.47,.9-2.69,0-4.51-1.07-4.51-4.65Z"></path>
</svg>
