<?xml version="1.0" encoding="UTF-8"?> <svg xmlns="http://www.w3.org/2000/svg" xmlns:xlink="http://www.w3.org/1999/xlink" version="1.0" id="Calque_1" x="0px" y="0px" viewBox="0 0 640 225" style="enable-background:new 0 0 640 225;" xml:space="preserve"> <style type="text/css"> .st0{fill:#2D7085;} .st1{fill:#BCD2D9;} .st2{fill:#FFE6B9;} .st3{fill:#F8D9D7;} .st4{fill:#95B6C3;} .st5{fill:#FDD88F;} .st6{fill:#ED998E;} .st7{fill:#6697A7;} .st8{fill:#FCC85E;} .st9{fill:#E45F51;} </style> <g> <g> <path class="st0" d="M315.4,65.9c0-9.1,2.2-16.1,6.6-21c4.4-4.9,10.9-7.3,19.5-7.3c8.6,0,15.1,2.4,19.5,7.3 c4.4,4.9,6.6,11.9,6.6,21v3.5h-16.7v-4.7c0-7.4-2.9-11.1-8.9-11.1c-5.9,0-8.9,3.7-8.9,11.1c0,4.2,1.2,8.1,3.5,11.8 c2.4,3.7,5.2,7.1,8.6,10.1c3.4,3,6.8,6.1,10.2,9.4c3.4,3.3,6.3,7.4,8.7,12.2c2.4,4.9,3.5,10.3,3.5,16.2c0,9.1-2.3,16.1-6.8,21 c-4.5,4.9-11.1,7.3-19.6,7.3c-8.6,0-15.1-2.4-19.6-7.3c-4.5-4.9-6.8-11.9-6.8-21v-6.9h16.8v8.1c0,7.3,3.1,10.9,9.2,10.9 c6.1,0,9.2-3.6,9.2-10.9c0-4.2-1.2-8.1-3.5-11.8c-2.4-3.7-5.2-7.1-8.6-10.1c-3.4-3-6.8-6.1-10.2-9.4c-3.4-3.3-6.3-7.4-8.7-12.2 C316.6,77.2,315.4,71.8,315.4,65.9z"></path> <path class="st0" d="M376.4,124.5V65.9c0-9,2.3-16,6.9-20.9c4.6-4.9,11.3-7.4,20-7.4c8.7,0,15.4,2.5,20,7.4 c4.6,4.9,6.9,11.9,6.9,20.9v58.6c0,9-2.3,16-6.9,20.9c-4.6,4.9-11.3,7.4-20,7.4c-8.7,0-15.3-2.5-20-7.4 C378.8,140.5,376.4,133.5,376.4,124.5z M394.2,64.7v60.9c0,7.4,3.1,11.1,9.2,11.1c6.1,0,9.2-3.7,9.2-11.1V64.7 c0-7.4-3.1-11.1-9.2-11.1C397.2,53.6,394.2,57.3,394.2,64.7z"></path> <path class="st0" d="M468.2,104.8V88.7H493v35.7c0,9.1-2.3,16.1-6.8,21c-4.5,4.9-11.1,7.3-19.6,7.3c-8.6,0-15.1-2.4-19.6-7.3 c-4.5-4.9-6.8-11.9-6.8-21V65.9c0-9.1,2.3-16.1,6.8-21c4.5-4.9,11.1-7.3,19.6-7.3c8.6,0,15.1,2.4,19.6,7.3 c4.5,4.9,6.8,11.9,6.8,21v11h-16.8V64.7c0-7.4-3.1-11.1-9.2-11.1s-9.2,3.7-9.2,11.1v60.9c0,7.3,3.1,10.9,9.2,10.9 s9.2-3.6,9.2-10.9v-20.8H468.2z"></path> <path class="st0" d="M522.2,54.9v31.4h24.3v16.1h-24.3v33h30.6v16.1h-48.3V38.8h48.3v16.1H522.2z"></path> <path class="st0" d="M581.5,54.9v34h22.9V105h-22.9v46.5h-17.7V38.8h46.9v16.1H581.5z"></path> <path class="st0" d="M619.1,151.5V38.8h17.7v112.7H619.1z"></path> </g> <path class="st1" d="M274.9,56.7c-5.4,2.5-10.9,4.9-16.3,7.4c-3.3,1.5-5.7,6.2-5.6,9.7c0.1,3.6,2.8,4.7,5.8,3.4 c5.4-2.5,10.9-4.9,16.3-7.4c3.3-1.5,5.7-6.2,5.6-9.7C280.7,56.5,277.9,55.3,274.9,56.7L274.9,56.7z"></path> <path class="st2" d="M274.9,101.2c-5.2,2.4-10.4,4.7-15.7,7.1c-3.3,1.5-5.7,6.2-5.6,9.7c0.1,3.6,2.8,4.7,5.8,3.4 c5.2-2.4,10.4-4.7,15.7-7.1c3.3-1.5,5.7-6.2,5.6-9.7C280.7,101,277.9,99.8,274.9,101.2L274.9,101.2z"></path> <path class="st3" d="M274.9,145.7c-5.3,2.4-10.6,4.8-15.9,7.2c-3.3,1.5-5.7,6.2-5.6,9.7c0.1,3.6,2.8,4.7,5.8,3.4 c5.3-2.4,10.6-4.8,15.9-7.2c3.3-1.5,5.7-6.2,5.6-9.7C280.7,145.4,277.9,144.3,274.9,145.7L274.9,145.7z"></path> <path class="st4" d="M236.4,73.6c-10.3,4.8-20.6,9.5-30.9,14.3c-6.1,2.8-9.2,18.8,0.2,14.4c10.3-4.8,20.6-9.5,31-14.3 C242.8,85.2,245.9,69.2,236.4,73.6L236.4,73.6z"></path> <path class="st5" d="M236.4,118.1c-10.1,4.6-20.2,9.2-30.3,13.8c-6.1,2.8-9.3,18.7,0.2,14.4c10.1-4.6,20.2-9.2,30.3-13.8 C242.8,129.7,245.9,113.7,236.4,118.1L236.4,118.1z"></path> <path class="st6" d="M236.4,162.5c-10.2,4.6-20.4,9.3-30.6,13.9c-6.1,2.8-9.3,18.7,0.2,14.4c10.2-4.6,20.4-9.3,30.6-13.9 C242.8,174.2,245.9,158.2,236.4,162.5L236.4,162.5z"></path> <path class="st7" d="M180.6,98c-14.2,6.4-28.4,12.9-42.5,19.3C98.3,100,58.4,82.8,18.6,65.5c38.9-16.2,77.9-32.4,116.8-48.5 c7-2.9,10.6-20.7-0.3-16.2C90.1,19.4,45.1,38.2,0,56.9v21.8c31.5,13.7,62.9,27.3,94.4,41c12,5.2,24,10.4,36,15.6 c2.9,1.3,6.3-1,8.9-2.2c4.9-2.2,9.8-4.5,14.8-6.7c8.8-4,17.6-8,26.3-12c0.2-0.1,0.3-0.1,0.5-0.2C187.8,111.1,191.3,93.1,180.6,98z"></path> <path class="st8" d="M181.6,142.1c-14.5,6.6-29,13.2-43.5,19.8C92.5,142.1,47,122.3,1.4,102.5c-0.5-0.2-0.9-0.3-1.4-0.4v21 c31.5,13.7,62.9,27.3,94.4,41c12,5.2,24,10.4,36,15.6c2.9,1.3,6.2-0.9,8.9-2.1c4.9-2.2,9.8-4.4,14.6-6.7c9-4.1,18.1-8.2,27.1-12.3 c0.3-0.1,0.5-0.2,0.8-0.4C188.7,155.1,192.2,137.2,181.6,142.1z"></path> <path class="st9" d="M180.7,187c-14.2,6.4-28.4,12.9-42.6,19.3C92.5,186.5,47,166.8,1.4,147c-0.5-0.2-0.9-0.3-1.4-0.4v21 c31.5,13.7,62.9,27.3,94.4,41c12,5.2,24,10.4,36,15.6c2.9,1.3,6.3-1,8.9-2.2c4.9-2.2,9.9-4.5,14.8-6.7c8.8-4,17.6-8,26.3-12 c0.2-0.1,0.3-0.1,0.5-0.2C187.8,200,191.3,182.1,180.7,187z"></path> <g> <path class="st7" d="M316.3,212.9v-49.8h4.6v49.8H316.3z"></path> <path class="st7" d="M335.6,212.9V182c0-1.1-0.2-1.9-0.6-2.3c-0.4-0.5-1-0.7-1.9-0.7c-0.6,0-1.2,0.2-1.8,0.5 c-0.6,0.4-1.1,0.9-1.4,1.8v31.6h-4.2v-37.4h3.5c0.1,0.9,0.2,1.9,0.2,2.8c0.6-1,1.3-1.9,2.3-2.5s2-0.9,3.2-0.9c1.7,0,3,0.5,3.8,1.6 c0.8,1.1,1.2,2.8,1.2,5.3v31.1H335.6z"></path> <path class="st7" d="M354.1,208.8c-0.4,0.7-1.1,1.3-1.9,1.7c-0.8,0.4-1.8,0.6-2.8,0.6c-2,0-3.4-0.5-4.2-1.6 c-0.9-1-1.3-2.8-1.3-5.3v-22.2c0-2.4,0.5-4.2,1.4-5.3c0.9-1.1,2.2-1.7,4-1.7c1.3,0,2.4,0.3,3.2,0.8c0.8,0.5,1.5,1.3,2,2.4 c0-0.5,0-1,0-1.4c0-0.5,0-0.9,0.1-1.4h3.5v39.4c0,2.3-0.6,4.1-1.7,5.3c-1.1,1.2-2.9,1.8-5.2,1.8c-1.3,0-2.4-0.2-3.3-0.5 c-0.9-0.3-1.6-0.8-2.1-1.4c-0.5-0.6-0.9-1.3-1.1-2.2c-0.2-0.9-0.3-1.9-0.3-3v-1.5h3.8v1.7c0,2.2,1,3.3,3.1,3.3 c2,0,2.9-1.1,2.9-3.3V208.8z M354.1,182c-0.3-0.8-0.8-1.4-1.4-1.8c-0.6-0.4-1.3-0.6-2-0.6c-1.1,0-1.8,0.3-2.1,0.8 c-0.4,0.5-0.5,1.2-0.5,2.1v21.8c0,1,0.2,1.8,0.6,2.3c0.4,0.5,1.1,0.7,2.1,0.7c0.7,0,1.4-0.2,2-0.6c0.6-0.4,1.1-1,1.4-1.8V182z"></path> <path class="st7" d="M371.4,197.7h4v8.2c0,5-2.3,7.6-6.8,7.6c-4.4,0-6.5-2.5-6.5-7.6v-23.3c0-2.5,0.6-4.4,1.7-5.7 c1.1-1.3,2.7-1.9,4.9-1.9c4.5,0,6.8,2.6,6.8,7.7v12h-9.4v11.3c0,2.2,0.9,3.3,2.6,3.3c1.9,0,2.8-1.1,2.8-3.3V197.7z M365.1,173.3 l6.8-9.7h5.4l-8.2,9.7H365.1z M371.4,182.6c0-2.2-0.9-3.3-2.8-3.3c-1.8,0-2.6,1.1-2.6,3.3v9h5.4V182.6z"></path> <path class="st7" d="M389.4,212.9V182c0-1.1-0.2-1.9-0.6-2.3c-0.4-0.5-1-0.7-1.9-0.7c-0.6,0-1.2,0.2-1.8,0.5 c-0.6,0.4-1.1,0.9-1.4,1.8v31.6h-4.2v-37.4h3.5c0.1,0.9,0.2,1.9,0.2,2.8c0.6-1,1.3-1.9,2.3-2.5s2-0.9,3.2-0.9c1.7,0,3,0.5,3.8,1.6 c0.8,1.1,1.2,2.8,1.2,5.3v31.1H389.4z"></path> <path class="st7" d="M398.1,170.7v-7.6h4.2v7.6H398.1z M398.1,212.9v-37.4h4.2v37.4H398.1z"></path> <path class="st7" d="M416,197.7h4v8.2c0,5-2.3,7.6-6.8,7.6c-4.4,0-6.5-2.5-6.5-7.6v-23.3c0-2.5,0.6-4.4,1.7-5.7 c1.1-1.3,2.7-1.9,4.9-1.9c4.5,0,6.8,2.6,6.8,7.7v12h-9.4v11.3c0,2.2,0.9,3.3,2.6,3.3c1.9,0,2.8-1.1,2.8-3.3V197.7z M416,182.6 c0-2.2-0.9-3.3-2.8-3.3c-1.8,0-2.6,1.1-2.6,3.3v9h5.4V182.6z"></path> <path class="st7" d="M424.1,212.9v-37.4h3.5c0.1,0.9,0.2,1.8,0.2,2.7c0.5-1.1,1.2-1.9,1.9-2.4c0.8-0.5,1.6-0.7,2.7-0.7 c0.6,0,1,0.1,1.3,0.2v4.7c-0.2-0.2-0.5-0.3-0.9-0.3c-0.4-0.1-0.7-0.1-1-0.1c-0.7,0-1.3,0.2-1.9,0.5c-0.6,0.3-1.2,0.9-1.6,1.8v31.1 H424.1z"></path> <path class="st7" d="M436.9,170.7v-7.6h4.2v7.6H436.9z M436.9,212.9v-37.4h4.2v37.4H436.9z"></path> <path class="st7" d="M454.8,197.7h4v8.2c0,5-2.3,7.6-6.8,7.6c-4.4,0-6.5-2.5-6.5-7.6v-23.3c0-2.5,0.6-4.4,1.7-5.7 c1.1-1.3,2.7-1.9,4.9-1.9c4.5,0,6.8,2.6,6.8,7.7v12h-9.4v11.3c0,2.2,0.9,3.3,2.6,3.3c1.9,0,2.8-1.1,2.8-3.3V197.7z M454.8,182.6 c0-2.2-0.9-3.3-2.8-3.3c-1.8,0-2.6,1.1-2.6,3.3v9h5.4V182.6z"></path> <path class="st7" d="M486.1,213.2l-1.5-2.7c-0.5,1-1.3,1.7-2.4,2.2c-1.1,0.5-2.3,0.8-3.7,0.8c-1.1,0-2.1-0.1-3-0.4 c-0.9-0.3-1.7-0.8-2.4-1.4c-0.7-0.7-1.2-1.5-1.6-2.6c-0.4-1.1-0.6-2.4-0.6-4v-33.9c0-2.8,0.7-4.9,2-6.3c1.3-1.5,3.3-2.2,6-2.2 c2.7,0,4.6,0.7,5.8,2.2s1.8,3.6,1.8,6.3v8.8h-4.2v-8.8c0-1.3-0.3-2.3-0.8-2.9c-0.5-0.6-1.4-1-2.7-1c-1.2,0-2,0.3-2.5,1 c-0.5,0.6-0.8,1.6-0.8,2.9V205c0,1.3,0.3,2.3,0.9,2.9c0.6,0.7,1.4,1,2.3,1c2.2,0,3.4-1.2,3.6-3.6v-11.3h-3.8v-4.4h8.3v23.5H486.1z "></path> <path class="st7" d="M499.9,197.7h4v8.2c0,5-2.3,7.6-6.8,7.6c-4.4,0-6.5-2.5-6.5-7.6v-23.3c0-2.5,0.6-4.4,1.7-5.7 c1.1-1.3,2.7-1.9,4.9-1.9c4.5,0,6.8,2.6,6.8,7.7v12h-9.4v11.3c0,2.2,0.9,3.3,2.6,3.3c1.9,0,2.8-1.1,2.8-3.3V197.7z M493.7,173.3 l6.8-9.7h5.4l-8.2,9.7H493.7z M499.9,182.6c0-2.2-0.9-3.3-2.8-3.3c-1.8,0-2.6,1.1-2.6,3.3v9h5.4V182.6z"></path> <path class="st7" d="M507.6,182.4c0-2.4,0.6-4.3,1.7-5.6c1.1-1.3,2.9-1.9,5.3-1.9c2.3,0,4.1,0.6,5.2,1.9c1.2,1.3,1.7,3.1,1.7,5.6 V206c0,2.4-0.6,4.3-1.7,5.5c-1.2,1.3-2.9,1.9-5.2,1.9c-2.4,0-4.1-0.6-5.3-1.9c-1.1-1.3-1.7-3.1-1.7-5.5V182.4z M517.5,182.5 c0-1-0.2-1.9-0.6-2.4c-0.4-0.6-1.2-0.9-2.3-0.9s-1.9,0.3-2.3,0.9c-0.4,0.6-0.6,1.4-0.6,2.4V206c0,1,0.2,1.8,0.6,2.4 c0.4,0.5,1.2,0.8,2.3,0.8s1.9-0.3,2.3-0.8c0.4-0.6,0.6-1.4,0.6-2.5V182.5z"></path> <path class="st7" d="M544.1,212.9v-31.1c0-1.9-0.7-2.8-2.1-2.8c-0.6,0-1.1,0.2-1.6,0.5c-0.5,0.4-0.9,0.9-1.2,1.8v31.6h-4.2v-31.1 c0-1.9-0.7-2.8-2.1-2.8c-0.5,0-1,0.2-1.5,0.5c-0.5,0.4-0.9,0.9-1.2,1.8v31.6h-4.2v-37.4h3.5c0.1,0.9,0.2,1.9,0.2,2.8 c0.5-1,1.2-1.9,2.1-2.5c0.9-0.6,1.8-0.9,2.9-0.9c2.2,0,3.5,1.1,4.1,3.3c0.5-1,1.2-1.8,2.1-2.4c0.9-0.6,1.9-0.9,3-0.9 c1.6,0,2.8,0.6,3.5,1.7c0.7,1.1,1.1,2.8,1.1,5.1v31.2H544.1z"></path> <path class="st7" d="M562,212.9c-0.2-0.5-0.2-1.2-0.2-2.2c-1,1.9-2.5,2.8-4.5,2.8c-1.7,0-3-0.5-4-1.4c-1-0.9-1.4-2.4-1.4-4.5V202 c0-1.8,0.3-3.3,0.8-4.6c0.5-1.2,1.2-2.3,2.1-3.1c0.9-0.8,1.9-1.6,3.1-2.1c1.2-0.6,2.4-1.2,3.8-1.7v-8.2c0-1-0.2-1.9-0.6-2.4 c-0.4-0.6-1.1-0.8-2.2-0.8c-1.1,0-1.8,0.3-2.2,0.8c-0.4,0.6-0.5,1.4-0.5,2.4v7.9h-3.7v-7.9c0-2.5,0.5-4.3,1.6-5.5 c1-1.2,2.7-1.8,5-1.8c4.4,0,6.7,2.5,6.7,7.4v26.4c0,0.9,0,1.7,0.1,2.5c0,0.8,0.1,1.4,0.2,1.8H562z M561.5,193.8 c-1.2,0.4-2.2,0.9-3,1.5c-0.8,0.5-1.3,1.1-1.7,1.8s-0.6,1.4-0.8,2.3c-0.1,0.9-0.2,1.9-0.2,3v4c0,2.1,1,3.1,2.9,3.1 c0.6,0,1.2-0.2,1.7-0.5c0.5-0.4,0.9-1,1.1-1.8V193.8z"></path> <path class="st7" d="M578.2,213.2c-0.2,0.1-0.5,0.2-0.9,0.2c-0.4,0.1-0.7,0.1-1.1,0.1c-2.2,0-3.9-0.7-5-2.1 c-1.1-1.4-1.7-3.3-1.7-5.7v-26.5h-1.8v-3.7h1.8v-11.8h4.2v11.8h4.3v3.7h-4.3v26.5c0,1.5,0.3,2.6,0.8,3.2c0.5,0.6,1.5,0.9,2.8,0.9 c0.1,0,0.3,0,0.4,0s0.3,0,0.4-0.1V213.2z"></path> <path class="st7" d="M581.3,170.7v-7.6h4.2v7.6H581.3z M581.3,212.9v-37.4h4.2v37.4H581.3z"></path> <path class="st7" d="M599.9,221.3v-10.2c-0.5,0.7-1.1,1.2-1.9,1.7c-0.8,0.4-1.7,0.6-2.7,0.6c-2,0-3.4-0.5-4.2-1.5 c-0.9-1-1.3-2.8-1.3-5.3v-24.5c0-2.4,0.5-4.2,1.4-5.3c0.9-1.1,2.3-1.7,4-1.7c1.3,0,2.4,0.3,3.3,0.9c0.9,0.6,1.5,1.4,2,2.3 c0-1,0.1-1.9,0.2-2.8h3.5v45.8H599.9z M599.9,181.9c-0.7-1.7-1.8-2.5-3.3-2.5c-0.9,0-1.6,0.2-2,0.7c-0.4,0.5-0.6,1.3-0.6,2.4v23.7 c0,1.1,0.2,1.9,0.6,2.3c0.4,0.5,1.1,0.7,2,0.7c0.7,0,1.3-0.2,1.9-0.6c0.6-0.4,1-1,1.4-1.8V181.9z"></path> <path class="st7" d="M618.9,212.9c0-0.4-0.1-0.9-0.1-1.3c0-0.4,0-0.9,0-1.4c-0.6,1-1.3,1.8-2.2,2.3c-0.9,0.5-2,0.8-3.1,0.8 c-3.3,0-4.9-2.2-4.9-6.5v-31.4h4.2v30.7c0,1.1,0.2,1.9,0.5,2.4c0.4,0.4,1,0.7,1.8,0.7c0.6,0,1.3-0.2,1.9-0.5s1-0.9,1.4-1.7v-31.5 h4.2v37.4H618.9z"></path> <path class="st7" d="M636,197.7h4v8.2c0,5-2.3,7.6-6.8,7.6c-4.4,0-6.5-2.5-6.5-7.6v-23.3c0-2.5,0.6-4.4,1.7-5.7 c1.1-1.3,2.7-1.9,4.9-1.9c4.5,0,6.8,2.6,6.8,7.7v12h-9.4v11.3c0,2.2,0.9,3.3,2.6,3.3c1.9,0,2.8-1.1,2.8-3.3V197.7z M636,182.6 c0-2.2-0.9-3.3-2.8-3.3c-1.8,0-2.6,1.1-2.6,3.3v9h5.4V182.6z"></path> </g> </g> </svg> 