<svg xmlns="http://www.w3.org/2000/svg" height="133.01" width="342.79" viewBox="0 0 342.79016 133.00999" data-name="Layer 1" id="Layer_1"><defs id="defs4"><style id="style2">.cls-1{fill:#2a407a}.cls-2{fill:#55bbd1}</style></defs><title id="title6">Artboard 1 copy 3</title><path id="path8" d="M1.21 114.1l44.17-40.9c11.3-10.85 17.3-17.63 17.3-27.51 0-10.91-8.12-17.69-19-17.69-11.33 0-18.85 7.27-18.79 19.15H0C-.06 22.79 17.81 7.22 43.87 7.22c26.6 0 44.17 15.2 44.17 36.71 0 14.12-6.85 25.76-32.36 49l-18.11 17.78v.85h52.11v21.45H1.21z" class="cls-1"/><path id="path10" d="M109.44 39.93h25.81V133h-25.81z" class="cls-1"/><path id="path12" d="M155.13 114.1l44.17-40.9c11.27-10.85 17.38-17.63 17.38-27.51 0-10.91-8.12-17.69-19-17.69-11.33 0-18.84 7.27-18.78 19.15H154c-.06-24.36 17.81-39.93 43.87-39.93 26.6 0 44.17 15.2 44.17 36.71 0 14.12-6.85 25.76-32.36 49l-18.2 17.78v.85h52.11v21.45h-88.46z" class="cls-1"/><path id="path14" d="M263.36 8.93h26.23v102.44h53.2v21.64h-79.43z" class="cls-1"/><circle id="circle16" r="13.97" cy="13.97" cx="122.34" class="cls-2"/></svg>
