<?xml version="1.0" encoding="utf-8"?>
<!-- Generator: Adobe Illustrator 19.1.0, SVG Export Plug-In . SVG Version: 6.00 Build 0)  -->
<svg version="1.1" id="Layer_1" xmlns="http://www.w3.org/2000/svg" xmlns:xlink="http://www.w3.org/1999/xlink" x="0px" y="0px"
	 viewBox="0 0 256 256" style="enable-background:new 0 0 256 256;" xml:space="preserve">
<style type="text/css">
	.st0{fill:#6DB24B;stroke:#649E48;}
</style>
<g>
	<path class="st0" d="M14.2,200.8c0,8.3,4.2,13.8,11.9,13.8c3.9,0,7.6-2.3,10.3-5.6l-0.6,4.7c-1.2,9-6.1,10.4-10.9,10.4
		c-3.8,0-7.7-1.6-9.9-2.9l-2.4,4.9c3.5,2.2,8.3,3.5,12.7,3.5c8.6,0,15-4,16.8-15.9l5.1-33.5c-4.9-2.4-8.7-3.1-13.1-3.1
		C19.7,177,14.2,189.9,14.2,200.8z M40.3,183.3l-3,19.3c-2.9,3.8-6,6.9-10,6.9c-3.8,0-6.3-2.6-6.3-8.6c0-8.9,3.8-18.7,13.1-18.7
		C36.6,182.1,38.2,182.4,40.3,183.3z M105.7,177.1c-11.8,0-17.1,12.8-18.5,18.1h0c-3.6,12.6-16.9,14.9-22.2,14.9
		c-4.7,0-7.8-2.5-7.9-9.1c12.8-1.4,23.8-4.3,23.8-14.5c0-4.9-3.8-9.3-11.6-9.3c-13.9,0-18.9,13.4-18.9,23.4c0,9.3,5,14.9,14,14.9
		c8.3,0,18.2-3,23-10c1.6,6.2,6.2,10,13.4,10c14.4,0,18.9-14.3,18.9-23.2C119.7,182.9,114.8,177.1,105.7,177.1z M69.1,182.1
		c4,0,5,2.7,5,4.5c0,6.3-6.3,8.3-16.8,9.5C58.3,189.4,61.5,182.1,69.1,182.1z M101,210.2c-4.9,0-7.6-2.9-7.6-9.3
		c0-7,2.6-18.7,12.1-18.7c4.9,0,7.5,2.9,7.5,9.3C113,198.6,110.5,210.2,101,210.2z M149.7,177.3l-13.6,30.9l-5-30.9h-6.9l7.4,39h7.6
		l17.5-39H149.7z M230.1,177c-14.3,0-19,14.1-19,23.2c0,1.1,0.1,2.2,0.2,3.2l0,0c0,0-2,6.7-9,6.7c-3.5,0-2.5-3.3-2.3-5.3l7-45.6
		l-6.4,0.8l-5.1,33.1c-2,12.7-15.5,17-24.3,17c-4.7,0-7.8-2.4-7.9-9.1c12.8-1.4,23.8-4.3,23.8-14.5c0-4.9-3.8-9.3-11.6-9.3
		c-13.9,0-18.8,13.4-18.8,23.4c0,9.3,5,14.9,14,14.9c7.4,0,16.5-2.2,22.7-7.8c-0.2,5.2,3.3,7.8,7.8,7.8c6.3,0,10.1-3.2,12.3-5.9
		c2.3,3.7,6.3,5.9,11.7,5.9c14.4,0,18.9-14.3,18.9-23.2C244,182.9,239.2,177,230.1,177z M175.4,182.1c4,0,5,2.7,5,4.5
		c0,6.3-6.3,8.3-16.8,9.5C164.5,189.4,167.7,182.1,175.4,182.1z M225.3,210.2c-4.9,0-7.6-2.9-7.6-9.3c0-7,2.6-18.7,12.1-18.7
		c4.9,0,7.5,2.9,7.5,9.3C237.4,198.6,234.9,210.2,225.3,210.2z M147.9,90.1c-0.2,1.6,0.9,3,2.4,3.2c1.6,0.2,3-0.9,3.2-2.4
		c2.2-15.7,15.9-27.5,31.7-27.5c17.7,0,32,14.4,32,32c0,17.7-14.4,32-32,32c-10.4,0-20.3-5.1-26.3-13.7c-0.9-1.3-2.7-1.6-4-0.7
		c-1.3,0.9-1.6,2.7-0.7,4c7.1,10.1,18.6,16.1,30.9,16.1c20.8,0,37.8-16.9,37.8-37.8c0-20.8-16.9-37.8-37.8-37.8
		C166.7,57.8,150.6,71.7,147.9,90.1z M45.6,123.1c7.2,6.7,16.4,10,25.6,10c10.2,0,20.3-4.1,27.7-12.1c12.7-13.7,13.4-35,1.6-49.4
		c-1-1.2-2.8-1.4-4-0.4c-1.2,1-1.4,2.8-0.4,4c10,12.3,9.4,30.3-1.4,41.9c-12,13-32.3,13.8-45.3,1.8c-6.3-5.8-9.9-13.7-10.3-22.3
		c-0.3-8.6,2.7-16.7,8.5-23c7.1-7.7,17.5-11.4,27.9-10c1.5,0.2,3-0.9,3.2-2.5c0.2-1.6-0.9-3-2.5-3.2c-12.2-1.7-24.5,2.7-32.8,11.8
		c-6.8,7.4-10.4,17-10,27.1C33.9,107,38.2,116.3,45.6,123.1z M81.6,37.3c2.4-0.5,9.8-1.2,12.2,2.2c1.5,2.1,2.5,8.1-7.7,23.7
		c-0.1,0.1-0.1,0.2-0.2,0.3c-7.6,8.7-13.5,19.1-17.4,30.9c-0.5,1.5,0.3,3.1,1.8,3.6c1.5,0.5,3.1-0.3,3.6-1.8
		C77.7,85,83.3,75.1,90.4,67c0.1-0.1,0.3-0.3,0.4-0.4c12-13.5,28.3-22.1,47.5-24.6c12.2-1.6,14.6,1,15,1.8c0.9,1.8-0.5,6.7-7.8,14.5
		c-12.8,13.9-17.2,28.3-11.7,38.6c3.9,7.2,10.5,10.8,19.8,10.8c8.4,0,19-3,31.8-8.9l-4.9,11c-0.6,1.4,0,3.1,1.4,3.8
		c0.4,0.2,0.8,0.3,1.2,0.3c1.1,0,2.1-0.6,2.6-1.7l8.9-19.8l-18.8-8.4c-1.4-0.7-3.1,0-3.8,1.4c-0.7,1.4,0,3.1,1.4,3.8l9.8,4.4
		c-23.7,11.1-38.7,11.4-44.4,0.7c-6.4-11.8,6.7-27.5,10.9-32c8.3-9,11.2-16.1,8.6-21.1c-2.5-4.8-9.3-6.4-20.8-4.9
		c-14.6,1.9-27.8,7.3-38.9,15.6c2.5-6.8,2.5-11.9-0.1-15.6c-5-7.2-16.8-4.9-18.1-4.6c-1.5,0.3-2.5,1.9-2.2,3.4
		C78.5,36.7,80,37.6,81.6,37.3z"/>
</g>
</svg>
