<?xml version="1.0" encoding="utf-8"?>
<!-- Generator: Adobe Illustrator 22.0.1, SVG Export Plug-In . SVG Version: 6.00 Build 0)  -->
<svg version="1.1" id="Layer_1" xmlns="http://www.w3.org/2000/svg" xmlns:xlink="http://www.w3.org/1999/xlink" x="0px" y="0px"
	 viewBox="0 0 522.9 306.7" style="enable-background:new 0 0 522.9 306.7;" xml:space="preserve">
<style type="text/css">
	.st0{fill:#27509B;}
	.st1{fill:#FFFFFF;}
</style>
<path class="st0" d="M444.4,267.9h2l-1.6-4.1c1.7-0.2,3.2-0.9,3.9-2.7c0.9-2.5-0.1-4.3-4.1-4.3h-4.4l-4,11.1h2l1.4-3.9h3.4
	L444.4,267.9z M444.1,258.2c2.8,0,3.3,0.7,2.6,2.5c-0.5,1.5-1.5,1.8-4,1.8h-2.7l1.6-4.4H444.1z M424.9,267.9h9.2l0.5-1.4h-7.3
	l1.2-3.4h6.5l0.5-1.4h-6.5l1.2-3.4h7.3l0.5-1.4h-9.2L424.9,267.9z M425.4,258.8l0.5-1.5c-1.1-0.4-2.5-0.7-4-0.7
	c-3.3,0-6.1,1.2-7.5,5.1c-1.4,3.9,0.5,6.4,4.7,6.4c1.2,0,2.4-0.1,3.5-0.4l0.6-1.5c-1.2,0.4-2.3,0.4-3.5,0.4c-3.1,0-4.4-1.5-3.4-4.5
	c1-3.1,3.3-4,5.6-4C423.3,258.1,424.5,258.4,425.4,258.8 M407.1,267.9h2.7l4-11.1h-1.9l-3.5,9.7l-3-8.9c-0.1-0.6-0.5-0.7-1.1-0.7
	h-1.7l-4,11.1h1.8l3.5-9.6L407.1,267.9z M395.5,267.9h1.9l-0.7-11.1h-2.1c-0.6,0-1,0.2-1.3,0.7l-7.9,10.4h2.1l2-2.8h5.9L395.5,267.9
	z M395.2,263.7h-4.7l4.4-5.9L395.2,263.7z M379.1,267.9h2.1c0.4,0,0.8-0.2,1.2-0.7l7.9-10.4h-2.3l-7.2,9.8l-0.6-9.8h-1.9
	L379.1,267.9z M374.3,267.9h1.9l-0.7-11.1h-2.1c-0.6,0-1,0.2-1.3,0.7l-7.9,10.4h2.1l2-2.8h5.9L374.3,267.9z M374,263.7h-4.7l4.4-5.9
	L374,263.7z M365.3,260.7l3.1-3.9h-2.1l-2.5,3.9H365.3z M348.9,267.9h5.5c4,0,6.1-1.6,7.3-5.1c1.2-3.2,0-6-4.2-6h-4.6L348.9,267.9z
	 M357.4,258.3c2.5,0,3.4,1.7,2.5,4.2c-1,2.9-2.5,3.9-5.4,3.9h-3.1l3-8.2H357.4z M338.8,267.9h2.7l4-11.1h-1.9l-3.5,9.7l-3-8.9
	c-0.1-0.6-0.5-0.7-1.1-0.7h-1.7l-4,11.1h1.8l3.5-9.6L338.8,267.9z M322.8,266.6c-3.2,0-4-1.7-3-4.4c1.1-3.1,2.7-4,5.3-4
	c3.2,0,4,1.7,3,4.4C327,265.6,325.4,266.6,322.8,266.6 M322.7,268.1c3.8,0,6-1.7,7.3-5.3c1.2-3.3,0.2-6.2-4.7-6.2
	c-3.8,0-6,1.7-7.3,5.3C316.7,265.2,317.8,268.1,322.7,268.1 M309.4,271.3c1.2,0,1.9-0.4,2.1-1.1c0.3-0.8,0.1-1.3-0.4-2.1h0.1
	c1.2,0,2.4-0.1,3.5-0.4l0.6-1.5c-1.2,0.4-2.3,0.4-3.5,0.4c-3.1,0-4.4-1.5-3.4-4.5c1-3.1,3.3-4,5.6-4c1.4,0,2.6,0.3,3.5,0.7l0.5-1.5
	c-1.1-0.4-2.5-0.7-4-0.7c-3.3,0-6.1,1.2-7.5,5.1c-1.2,3.3,0,5.7,3.1,6.3c0.6,0.8,0.8,1.3,0.6,1.7c-0.1,0.4-0.4,0.5-1,0.5
	c-0.5,0-1.1-0.2-1.5-0.3l-0.3,1C307.8,271.1,308.6,271.3,309.4,271.3 M302.5,267.9h1.9l-0.7-11.1h-2.1c-0.6,0-1,0.2-1.3,0.7
	l-7.9,10.4h2.1l2-2.8h5.9L302.5,267.9z M302.2,263.7h-4.7l4.4-5.9L302.2,263.7z M293.5,263.7l0.5-1.5h-6.6l1.4-4h7.3l0.5-1.5h-9.2
	l-4,11.1h2l1.5-4.2H293.5z M268,267.9h9.2l0.5-1.4h-7.3l1.2-3.4h6.5l0.5-1.4h-6.5l1.2-3.4h7.3l0.5-1.4h-9.2L268,267.9z M263.7,267.9
	h2l-1.6-4.1c1.7-0.2,3.2-0.9,3.9-2.7c0.9-2.5-0.1-4.3-4.1-4.3h-4.4l-4,11.1h2l1.4-3.9h3.4L263.7,267.9z M263.5,258.2
	c2.8,0,3.3,0.7,2.6,2.5c-0.5,1.5-1.5,1.8-4,1.8h-2.7l1.6-4.4H263.5z M256.8,256.8h-2l-2.4,6.6c-1,2.7-2.3,3.2-4.2,3.2
	c-2.5,0-3.3-0.9-2.5-3.2l2.4-6.6h-2l-2.4,6.6c-1,2.6,0.1,4.7,4.1,4.7c3.3,0,5.1-1,6.5-4.6L256.8,256.8z M231.1,267.9h9.2l0.5-1.4
	h-7.3l1.2-3.4h6.5l0.5-1.4h-6.5l1.2-3.4h7.3l0.5-1.4h-9.2L231.1,267.9z M220.3,267.9h9.1l0.5-1.5h-7.1l3.5-9.6h-2L220.3,267.9z
	 M209.6,267.9h9.1l0.5-1.5h-7.1l3.5-9.6h-2L209.6,267.9z M206.5,267.9l4-11.1h-2l-4,11.1H206.5z M193.2,267.9h9.2l0.5-1.4h-7.3
	l1.2-3.4h6.5l0.5-1.4h-6.5l1.2-3.4h7.3l0.5-1.4h-9.2L193.2,267.9z M181.8,267.9h2.1l7.8-9.6l-3.5,9.6h2l4-11.1h-3.2l-7.5,9.4
	l-0.8-8.3c-0.1-0.8-0.4-1.1-1.2-1.1h-1.8l-4,11.1h1.8l3.5-9.7L181.8,267.9z M160.2,267.9h9.2l0.5-1.4h-7.3l1.2-3.4h6.5l0.5-1.4h-6.5
	l1.2-3.4h7.3l0.5-1.4h-9.2L160.2,267.9z M154.2,267.9h2.7l4-11.1h-1.9l-3.5,9.7l-3-8.9c-0.1-0.6-0.5-0.7-1.1-0.7h-1.7l-4,11.1h1.8
	l3.5-9.6L154.2,267.9z M146.9,256.8h-2l-2.4,6.6c-1,2.7-2.3,3.2-4.2,3.2c-2.5,0-3.3-0.9-2.5-3.2l2.4-6.6h-2l-2.4,6.6
	c-1,2.6,0.1,4.7,4.1,4.7c3.3,0,5.1-1,6.5-4.6L146.9,256.8z"/>
<path class="st0" d="M199.4,232.4c-0.9,0.2-7.9,1.5-15.2,1.7c-13.1,0.4-24.6-4.9-24.7-14.4c-0.2-16.4,16.4-25.4,28.7-27.9
	c5.5-1.1,16.1-2.4,26.6,0.2l-6.1,14.7c-1.8-4-6.3-4.1-8.1-4.1c-4.5-0.1-8.2,1.1-10.9,2.3c-6.2,2.8-11.6,11.9-2.8,15.4
	c4.9,1.9,11,0.4,17.5-0.6L199.4,232.4z"/>
<path class="st0" d="M455.3,191.4l-10.5,28.6c0.1-2.9,0.7-14.3,1.1-20.8c0.1-2.7-0.4-4.8-1.7-6.1c-1.6-1.7-3.6-1.7-3.7-1.7h-23.5
	l-15.3,41.7h17.1l10.9-29.6l-1.3,29.6h28.6l15.4-41.7H455.3z"/>
<polygon class="st0" points="367.3,219.3 347.5,219.3 357.8,191.4 338.1,191.4 322.7,233.2 362.2,233.2 "/>
<polygon class="st0" points="323.1,202.3 327.2,191.4 285,191.4 269.6,233.2 312.3,233.2 316.4,221.9 292.9,221.9 294.6,217.3 
	316.6,217.3 320.3,207 298.4,207 300,202.3 "/>
<polygon class="st0" points="258.2,233.2 273.6,191.4 254.4,191.4 248.8,206.4 238.6,206.4 244.2,191.4 224.9,191.4 209.6,233.2 
	228.8,233.2 234,219 244.2,219 239,233.2 "/>
<polygon class="st0" points="144.8,233.2 160.2,191.4 139.9,191.4 124.6,233.2 "/>
<path class="st0" d="M113.2,233.2l15.4-41.7H100l-14.8,22.4c0,0,0.9-11.7,1.2-14.6c0.2-2.1-0.1-7.9-5.3-7.9H57.7l-15.4,41.7h18.3
	L71.7,203l-2.3,30.2h16.3l20-29.7l-10.9,29.7H113.2z"/>
<polygon class="st0" points="390.1,233.2 405.5,191.4 385.3,191.4 369.9,233.2 "/>
<polygon class="st0" points="66.6,167.1 62.8,177.5 477.3,177.5 481.1,167.1 "/>
<path d="M264,167.1c0.3-0.1,0.6-0.2,0.9-0.3c0,0,0.5-0.2,0.7-0.2c3-1,9.7-4.5,12.2-9.4c5.1-1.9,8.8-4.5,11.1-7.6
	c4.4-0.8,7.8-2.7,9.7-3.7c4.4-2.5,7.5-4.9,9.4-7.5c1.6-2.1,2.6-3.7,3.4-5.4c1.5-0.8,3.2-1.8,5.4-3.3c7.7-5.1,9.3-14.5,9.5-15.6
	c0-0.2,0.1-0.5,0.1-0.7c0.4,0,0.8,0,1.2,0c7.7,0,17.8-4.8,23.2-7.5l0.1,0c0.8-0.4,1.6-0.8,1.9-0.9c1.8-0.8,5.5-2.8,9.3-5.3
	c4.9-3.3,8.2-6.3,10-9.1c0.3-0.4,0.5-0.9,0.7-1.4l3.2-2c0.9-0.6,1.7-1.4,2.2-2.4c0.9-0.5,1.6-0.9,1.8-1.1c2.5-1.6,3.6-4.4,2.7-7.1
	l0-0.1c-0.8-2.4-3-5.3-6.7-6.2c-1.3-2.8-4.1-4.4-7.2-4.4c-0.7,0-1.3,0.1-1.7,0.2c-0.2,0-1,0.2-7,1.7l-8.9,2.1
	c0.8-2.2,0.7-4.6-0.3-6.6c-1.2-2.5-3.7-4.1-6.3-4.1c-0.9,0-1.8,0.2-2.6,0.6l-0.1,0c-0.3,0.2-1,0.5-16.9,10.8
	c-0.2,0.1-0.4,0.3-0.6,0.4c-7.7,6.7-10.5,10.7-11.2,11.7c-0.4,0.5-1,1.5-1.6,2.8c-0.4-0.2-0.8-0.4-1.2-0.6c-3.2-1.4-6.5-2.1-9.9-2.1
	c-6.1,0-10.4,2.4-11.5,3.1c-0.6,0.3-2.9,1.7-6.3,4.4c-1.4,1.1-2.6,2.3-3.7,3.7c-2.3,0.5-4.2,1.2-5.6,1.9c-1.8,0.9-3.5,2.3-5.4,3.8
	l-0.1,0.1c-0.3,0.3-0.6,0.5-1,0.8c-0.8,0.6-2.9,2.3-4.9,5.1l-0.2,0c-0.3,0.1-2.8,0.6-6,2.1c-0.8,0.4-1.6,0.8-2.3,1.3
	c-1.8,0.1-4.6,0.4-8.3,1.5l-0.2,0c-0.3-0.1-3.1-0.6-6.5-0.6c-1.5,0-2.9,0.1-4.1,0.3c-0.8,0.1-3.7,0.6-6.1,1.3
	c-1.2,0.3-4.1,1.3-7.5,3.5c-7.3-1.7-14.6-2.2-19.2-2.4c4.4-5.9,6.5-12.7,5.8-18.5c-1.4-11-8.8-17.5-11.5-19.4
	c-4.6-19.2-18-27.4-29-28.6c-2.2-2.5-6.3-4.1-11-4.1c-1.9,0-3.7,0.2-5.5,0.7c-5.9,1.6-10.6,6.1-11.5,11
	c-5.9,4.9-15.1,15.9-12.5,35.6c-2.2,3-6.5,10.6-3.6,22.2c2,7.9,6.9,13.6,14.3,16.6c-5.7,2.8-10.7,6.1-14.9,10
	c-0.3,0.2-0.5,0.5-0.7,0.7c-9.9,0.5-18.9,4.6-26,11.9c-5.1,5.2-8.6,11.2-10.8,16.5H264z"/>
<path class="st1" d="M263.7,160.7c-2.1,0.7-5.7,2.1-10.7,2.1c-0.2,0-0.3,0-0.5,0c-5.2-0.1-11.4-2.8-15.8-7.7
	c-4.5-4.9-6.9-12.3-6.2-19.6c0.7-7.3,5.1-13.4,10.4-16.7c1.2-0.8,2.5-1.4,3.8-1.8c0.5-0.2,1.1-0.4,1.6-0.5c-0.1,0.1-0.2,0.3-0.3,0.4
	c-5.4,8-5,18.3-2.4,24.4c1.4,3.2,3,5.8,4.9,8.1c2.5,3,5.5,5.3,8.9,6.8c3.2,1.4,6.5,2.1,9.9,2.1c0.4,0,0.7,0,1.1,0
	C266.7,159.4,264.9,160.3,263.7,160.7"/>
<path class="st1" d="M274.5,151.8c-2,0.7-4.5,1.3-7.3,1.3c-2.4,0-5.1-0.5-7.8-1.7c-5.9-2.6-9.1-7.7-11.1-12.2
	c-2-4.6-2.4-12.8,1.9-19.3c2.4-3.5,5.8-5.6,8.5-6.8c-1.7,5.1-2.5,13,3.1,22.5l0,0.1l0,0.1c2.8,4.5,6.5,7.9,10.9,10.2
	c2.6,1.4,5.4,2.3,8.3,2.8C279,150,276.6,151.1,274.5,151.8"/>
<path class="st1" d="M295.6,140.4c-2.4,1.4-5.7,3.1-9.9,3.3c-0.2,0-0.4,0-0.6,0c-6.3,0-13.9-3-18.8-10.9c-8.8-14.8,0.8-25,4-27.5
	c1.9-1.5,3.8-3,5.3-3.9c-0.7,2-1,3.5-1,4c-0.7,3.7-0.1,8.5,1.6,12.8c2.2,5.7,6,10.3,11,13.2c4.1,2.4,8.3,3.6,12.6,3.6
	c1.2,0,2.3-0.1,3.2-0.2C300.9,137.3,297.6,139.3,295.6,140.4"/>
<path class="st1" d="M107.4,167.1c0.4-3.3,1.3-7.3,3.1-11.6c1.5-3.6,3.3-7,5.6-10.1c-6.4,1.3-12.1,4.5-16.9,9.4
	c-3.3,3.3-6.1,7.5-8.4,12.2H107.4z"/>
<path class="st1" d="M218.4,167.1c-1.1-1-2-1.9-2.8-2.7c-3.8-3.9-6.8-10.8-7.7-15.6c-1.6-7.8-0.5-15.4,3.2-22.5
	c1.2-2.2,2.6-4.3,4.3-6.1c-8.3-1.5-16.2-1.6-18.8-1.6c-0.3,0.6-0.7,1.1-1.2,1.6c-3,2.6-5.5,3.2-3.7,1.3c1.7-2,1.6-4.1,1.1-4.6
	c-0.4-0.4-1.1-0.1-1.5,0c-4.9,1.8-5.8,1-4.8,0.4c4.4-2.7,6.9-5.1,8.4-6.6c3.7-4.2,6.7-10.3,6-15.9c-0.8-6.5-4.5-11.6-8.3-14.7
	c-0.4-0.3-0.7-0.6-0.9-0.7c-0.1-0.1-0.2-0.2-0.3-0.2c0,0,0,0,0,0c0,0,0,0,0,0c-0.6-0.4-1.4-0.9-2-1.1c-1-0.3-0.7-1,0.4-1.3
	c-0.1-0.5-0.2-1.1-0.3-1.6c-0.1-0.5-0.3-1-0.4-1.5c-4.4-14.6-14.8-20.8-23.4-21.7c-0.1,0-0.2,0-0.3,0c-2-0.2-3.4-0.2-3.7-0.2
	c-1.4-0.2-0.8-0.8,0-1.1c0.3-0.1,0.4-0.4,0.3-0.6c-1-1.5-5.6-2.9-10.4-1.5c-2.5,0.7-4.7,2.3-6,3.9c-0.2,0.3-0.4,0.7-0.6,1
	c0,0.1-0.1,0.2-0.1,0.3c-0.2,0.6,0.5,0.4,0.5,0.4c2.3-0.5,3.3,0.1,1.5,1.1c-1.1,0.6-2.7,1.7-3.8,2.5c-2.6,2-6,5.3-8.4,10.3
	c-2.2,4.6-3.3,10-3.1,15.8c0.1,0.8,0.1,2.4,0.2,2.9c0.1,0.6,0.5,1.2,1.9,1c1.9-0.2,3.1-0.6,1.4,0.8c-0.7,0.5-2.9,2.6-4.2,4.2
	c-2.6,3.3-4.6,9.4-2.6,17.1c1.7,6.6,5.8,11,12.3,13.1c3.9,1.1,12.8,2.6,19.7,2.2c0.7,0,0.9,0.1,0.8,0.4c-0.1,0.3-0.6,0.5-1.3,0.6
	c-1.1,0.2-3.5,0.6-7.6,1c-0.9,0.1-1.6,0.7-1.7,1.1c0,0,0,0.1,0,0.1c-0.5,1.8,3.2,3.3,3.6,3.5c1.4,0.4,0.8,1.2,0.2,1.3
	c-2.6,0.5-7.3-0.6-9.8-0.8c-1.7-0.1-3,0.2-3.5,0.5c-5.9,2.6-10.9,5.9-15,9.7c-4.6,4.3-8.1,9.4-10.4,15c-1.4,3.5-2.2,6.8-2.6,9.6
	H218.4z"/>
<path class="st1" d="M219.4,160.7c2.2,2.3,4.7,4.7,8.7,6.4h18c-1.3-0.4-2.7-0.9-4-1.5c-3.5-1.6-6.7-4-9.2-6.8
	c-2.7-3-4.8-6.7-6.2-10.9c-1.3-4.1-1.8-8.6-1.4-12.8c0.4-4.3,1.9-8.5,4.3-12.2c1.6-2.6,3.7-4.8,6-6.7c-0.2,0-0.5,0.1-0.7,0.1
	c0,0-3.1,0.4-5.3,1.1c-2.2,0.7-9.8,3.5-13.8,11.3c-4.1,7.8-3.6,14.6-2.7,19C213.9,152.1,216.6,157.9,219.4,160.7"/>
<path class="st1" d="M377.1,79.3c-0.5,0.3-1.2,0.7-1.8,1.1c0,0,0-0.1,0-0.1c-0.9-1.5-2.1-2.5-3.6-2.8c-2.3-0.5-5.2,0.4-9,2.9
	c-5.6,3.6-14.3,5.7-14.4,5.7c-0.6,0.1-1,0.7-0.8,1.3c0.1,0.5,0.6,0.9,1.1,0.9c0.1,0,0.2,0,0.3,0c0.4-0.1,9.2-2.2,15.1-6
	c3.2-2.1,5.7-3,7.3-2.6c0.8,0.2,1.4,0.6,1.9,1.5c0,0,0,0,0,0c0.7,1.1,0.1,1.7,0,1.7c-0.1,0-2.8,1.8-4,2.5c-0.6-0.6-1.8-1.6-3.6-1.8
	c-2-0.2-4.1,0.7-6.2,2.7c-5.1,4.8-10.6,6.3-10.7,6.4c-0.6,0.2-0.9,0.8-0.8,1.4c0.1,0.5,0.6,0.8,1.1,0.8c0.1,0,0.2,0,0.3,0
	c0.2-0.1,6.1-1.7,11.6-6.9c1.6-1.5,3.1-2.2,4.4-2.1c1.3,0.1,2.1,1,2.3,1.2c0.1,0.1,0.3,0.5,0,0.9c-3.1,4.9-13.9,11.1-17,12.4
	c-2.3,1-11.5,5.9-19,7.5c-0.8,0.2-1.7,0.3-2.5,0.4c-0.1,0-0.2,0-0.3,0c-1.1,0-6.2,0.1-7.7-1.4c-2.2-2.2-3-0.6-2.3,2.2
	c-2.4,1.4-6,3.6-6.9,4.2c-2.5,1.5-5.7-0.2-6.3-0.2c-1.3,0,1.8,3.9,4.4,4.3c2.8,0.4,8-2.9,8-2.9l2-1.3c0,0,0,0,0,0
	c0,0-1.2,7.6-6.8,11.4c-3.5,2.3-5,3.1-6.3,3.7c-0.9,0.4-3.5,1.8-7.4,1.8c-2.8,0-6.1-0.7-9.9-2.9c-9.1-5.4-10.9-16-10.1-20.7
	c0,0,1-7,6.4-11.1c3.6-2.8,5.7-4,5.7-4s3.4-2.2,8.4-2.2c2.2,0,4.7,0.4,7.3,1.6c-0.8,0.6-1.5,1.2-1.9,1.7c-1,1.6-2.5,5.1-1.5,5.1
	c0.7,0,1.2-1.8,3.6-3c1.2-0.6,6.8-3.9,6.8-3.9s0.2-0.9,0.5-1.4c0,0,0.7-1.5,2.1-3.6c0.1-0.1,0.3-0.4,0.6-0.9
	c0.8-1.1,1.9-2.4,3.2-3.6c0,0,0,0,0,0c1.5-1.6,3.6-3.6,6.4-6.1c0,0,15.6-10.1,16.3-10.5c0.1-0.1,0.3-0.1,0.4-0.1
	c1.3,0,3.2,2.3,0.9,5.4c-1.9,2.5-4.1,4.2-5.8,5.5c-0.5,0.4-1.2,0.8-1.7,1c-2.4,0.8-5.5,2.7-6,3.1c-0.5,0.4-0.5,1.1,0.1,0.8
	c2.1-0.9,5.4-1.7,6-1.9c3.6-0.8,29.7-7.1,30.1-7.2c0.1,0,0.4-0.1,0.6-0.1c0.9,0,2.4,0.3,2.8,2.2c0,0.1,0,0.1,0,0.2l-23.9,7.1
	c-0.6,0.2-0.9,0.8-0.7,1.4c0.1,0.4,0.5,0.7,0.9,0.8c0.2,0,0.4,0,0.5,0l21.3-6.3c0.4-0.1,1.2-0.3,2.8-0.8l0.2-0.1
	c0.5-0.1,0.9-0.2,1.3-0.2c2.2,0,3.5,1.8,3.9,2.9C377.7,78.7,377.5,79,377.1,79.3"/>
<path d="M156.7,99.2c-1.4,1-1.7,1.7-1.9,2.2c-0.2,0.5-0.2,1-0.1,1.2c0.1,0.2,0,0.5-0.2,0.6h0h0c0,0,0,0,0,0c-0.2,0.1-0.4,0-0.5,0
	c-0.1-0.1-0.2-0.2-0.3-0.3c-0.4-0.9,0-2.9,1-3.8c0.4-0.4,0.9-0.7,1.4-0.9c0.2-0.1,0.7-0.3,1,0.1C157.2,98.7,156.9,99.1,156.7,99.2
	 M189.5,92.8c-0.3,0.1-0.4-0.3-0.6-0.8c-0.9,1.2-2.9,3.1-3.2,3.5c-0.4,0.6-0.8,1.2-1.2,1.8c-0.6,1.1-1.1,2.1-1.9,3.1
	c-1,1.3-2.2,2.5-3.6,3.3c-2.7,1.6-6,2.4-9.1,1.9c-1.6-0.3-3.2-0.9-4.7-1.6c-1.2-0.6-2.5-1.3-3.8-1.4c-1.5,0-3.1,0.1-4.6-0.1
	c-0.5-0.1-1-0.3-1.1-0.8c-0.2-0.7,0.3-1.5,1-1.5l0,0c0.2,0,0.5,0.1,0.7,0.1c0.5,0,1,0.1,1.5,0.1c5.4,0.2,11-0.7,16.1-2.3
	c3.2-1,6.3-2.3,9-4.2c1.1-0.8,2.2-1.7,3.1-2.7c0.1-0.2,0.3-0.4,0.4-0.5c-0.1-0.1-0.2-0.1-0.3-0.1c-0.3-0.1-0.3-0.6,0.2-0.7
	c0.5-0.1,1.2,0.1,1.5,0.4c0.3,0.3,0.5,0.7,0.6,1.3C189.9,92,189.8,92.7,189.5,92.8 M182.2,97.4c-4.8,2.6-10.3,4-15.7,4.7
	c1.5,0.7,3,1.2,4.6,1.4c1.5,0.1,2.9-0.1,4.3-0.5c1.4-0.4,2.8-1.1,4-2C180.6,100,181.5,98.7,182.2,97.4 M151.7,85.8
	c-0.9-1.6-1.4-3.4-1.7-5.2c-0.3-1.8-0.4-3.7,0-5.5c0.3-1.8,1.1-3.4,2.6-4.4c1.2-0.9,2.7-1.4,4.2-1.4c0.4,0,0.8,0,1.2,0.1
	c3.8,0.8,5.6,3.9,7.1,8.3c1.7,4.8,0.5,10.8-2.6,12.1c-0.8,0.3-2,0.7-2,0.7c-0.8,0.2-1.6,0.4-2.4,0.4c-0.9,0-1.8-0.2-2.6-0.7
	C153.9,89.1,152.6,87.5,151.7,85.8 M153.1,85.1c0.9,1.7,2,3,3.2,3.7c0.6,0.3,1.2,0.5,1.9,0.5c0.6,0,1.2-0.1,2-0.3l0,0
	c0.3-0.1,1.3-0.4,1.8-0.6c1-0.4,1.8-1.8,2.2-3.6c0.1-0.7,0.2-1.4,0.2-2.1c-0.2,2.3-1.4,4.1-3,4.4c-2.4,0.6-5.1-2-6-5.8
	c-0.2-1-0.3-2-0.3-2.9c0.5,0.6,1.1,0.9,1.8,0.7c0.9-0.2,1.4-1.4,1.1-2.6c-0.3-0.9-1-1.6-1.7-1.7c0.5-0.7,1.2-1.2,1.9-1.4
	c1.8-0.4,3.7,0.8,4.9,3c0-0.1-0.1-0.2-0.1-0.3c-1.2-2.4-3.3-4.9-7.3-3.8c-5.3,1.4-4.1,8.3-3.5,10.4
	C152.3,83.5,152.7,84.3,153.1,85.1 M177.8,84.1C177.8,84.1,177.9,84.1,177.8,84.1C177.9,84.1,177.8,84.1,177.8,84.1
	C177.7,84.1,177.8,84.1,177.8,84.1 M171.6,77.7c-0.4-1.6-1-4-0.8-6.3c0.2-3.3,1.9-5.2,3.9-5.9c2.5-0.8,5.2,0.5,6.7,2.4
	c0.9,1.1,1.7,2.7,2.4,4.3c0.2,0.5,0.5,1.1,0.7,1.7c0.6,1.8,0.9,3.6,0.8,5.3c-0.1,1-0.2,2-0.6,2.8c-0.3,0.9-0.9,2.1-1.9,2.7
	c-0.7,0.4-1.5,0.5-2.1,0.7l0,0c-0.6,0.1-1.2,0.2-1.9,0.2c-0.4,0-0.8,0-1.2-0.1c-0.1,0-0.1,0-0.2,0l0,0c0,0,0,0,0,0l0,0
	c0,0-0.1,0-0.1,0l0,0l0,0c-1.7-0.5-2.7-1.8-3.6-2.9c-0.7-1-1.2-2.1-1.6-3.1l0,0c0,0-0.1-0.2-0.2-0.6c-0.1-0.2-0.2-0.5-0.2-0.7l0,0
	l0,0C171.6,77.9,171.6,77.8,171.6,77.7 M172.4,73.2c0,1.4,0.2,3,0.6,4.4c0.4,1.4,1,2.8,1.8,4c0.7,1,1.6,2,2.9,2.4c0,0,0,0,0,0
	c0,0,0,0,0.1,0c0.1,0,0.1,0,0.1,0c0,0,0,0,0,0c0.3,0.1,0.6,0.1,0.9,0.1c0.5,0,1-0.1,1.6-0.2c0.6-0.1,1.2-0.3,1.8-0.6
	c0.7-0.4,1-1.2,1.3-1.9c0.3-0.8,0.4-1.6,0.5-2.4c0.1-1.4-0.1-2.9-0.6-4.3c0,0.1,0,0.1,0,0.2c0.8,3.7-0.3,7-2.5,7.5
	c-2.2,0.5-4.6-2.1-5.4-5.7c-0.2-1-0.3-1.9-0.3-2.8c0.4,0.6,1.1,1,1.8,0.8c0.9-0.2,1.4-1.4,1.1-2.5c-0.3-1-1.1-1.7-1.9-1.7
	c0.4-0.6,1-1.1,1.7-1.2c1.4-0.3,2.9,0.6,4,2.4c-0.3-0.5-0.6-1-0.9-1.5c-0.8-1.1-2-2.2-3.4-2.5c-0.2,0-0.5-0.1-0.7-0.1
	c-1.3,0-2.6,0.6-3.3,1.6C172.7,70.3,172.4,71.8,172.4,73.2"/>
</svg>
