<?xml version="1.0" encoding="utf-8"?>
<!-- Generator: Adobe Illustrator 21.0.0, SVG Export Plug-In . SVG Version: 6.00 Build 0)  -->
<svg version="1.1" id="Calque_1" xmlns="http://www.w3.org/2000/svg" xmlns:xlink="http://www.w3.org/1999/xlink" x="0px" y="0px"
	 viewBox="0 0 145 40" style="enable-background:new 0 0 145 40;" xml:space="preserve">
<style type="text/css">
	.st0{fill:#1D1D1B;}
</style>
<g>
	<g>
		<path class="st0" d="M44.3,34.8c-2.3,1.1-4.8,1.8-7.4,1.8l0,0h-9.2l0,0H1.1v3.1H26h10.8c3.2,0,6.2-0.7,8.9-2.1
			c1.7-0.9,3.2-1.9,4.6-3.1L48,32.4C46.9,33.4,45.7,34.2,44.3,34.8z"/>
		<path class="st0" d="M43.1,32.3c0.7-0.3,1.4-0.7,2-1.2c0.3-0.2,0.6-0.4,0.9-0.7l-2.3-2.2c-0.6,0.4-1.2,0.8-1.9,1.2
			c-1.5,0.7-3.1,1.1-4.8,1.1c-1.5,0-2.9-0.3-4.3-0.8c-1.3-0.6-2.5-1.3-3.5-2.3s-1.8-2.1-2.4-3.4s-0.9-2.7-0.9-4.1
			c0-1.5,0.3-2.8,0.9-4.1s1.4-2.4,2.4-3.4s2.2-1.7,3.5-2.3s2.8-0.8,4.3-0.8c1.7,0,3.4,0.4,4.8,1.1c0.7,0.3,1.3,0.7,1.9,1.2L46,9.4
			c-0.8-0.6-1.8-1.3-2.8-1.8c-1.9-0.9-4-1.4-6.3-1.4c-2,0-3.8,0.4-5.5,1.1s-3.2,1.7-4.5,3c-1.3,1.2-2.3,2.7-3,4.4s-1.1,3.5-1.1,5.3
			c0,1.9,0.4,3.7,1.1,5.3c0.7,1.7,1.7,3.1,3,4.4c0.3,0.3,0.6,0.6,1,0.9h-4.1c-1.1-1.2-1.9-2.6-2.6-4.2c-0.9-2-1.3-4.2-1.3-6.4
			c0-2.3,0.4-4.4,1.3-6.4s2.1-3.8,3.7-5.3s3.4-2.7,5.5-3.6s4.3-1.3,6.7-1.3c2.7,0,5.2,0.6,7.5,1.7c1.2,0.6,2.3,1.3,3.3,2.1L48,7.4
			l2.3-2.2c-1.1-1.1-3.1-2.2-4.5-2.9c-2.7-1.4-5.7-2-9-2c-2.8,0-5.4,0.5-7.9,1.6c-2.5,1-4.6,2.5-6.4,4.3s-3.3,3.9-4.4,6.3
			s-1.6,5-1.6,7.7s0.5,5.3,1.6,7.7c0.5,1,1,2,1.6,2.9h-9.5v-5.2v-2V0.2h-3v23.2v2v5.2h-3v-5.2v-2V0.2H1.1v23.2v2v8.3h35.7
			C39.1,33.7,41.1,33.3,43.1,32.3z"/>
	</g>
	<g>
		<path class="st0" d="M62.9,20.1h2.3v6.2h4v2H63v-8.2H62.9z"/>
		<path class="st0" d="M73.8,20.1H76l3.5,8.2H77l-0.6-1.5h-3.2l-0.6,1.5h-2.4L73.8,20.1z M75.8,25.1l-0.9-2.3L74,25.1H75.8z"/>
		<path class="st0" d="M82,22.1h-2.5v-2h7.2v2h-2.5v6.2H82V22.1z"/>
		<path class="st0" d="M88.6,20.1h2.3v8.2h-2.3V20.1z"/>
		<path class="st0" d="M95.3,22.1h-2.5v-2h7.2v2h-2.5v6.2h-2.3v-6.2H95.3z"/>
		<path class="st0" d="M101.7,24.7v-4.6h2.3v4.5c0,1.2,0.6,1.7,1.5,1.7s1.5-0.5,1.5-1.7V20h2.3v4.5c0,2.6-1.5,3.8-3.8,3.8
			C103.2,28.5,101.7,27.3,101.7,24.7z"/>
		<path class="st0" d="M111.5,20.1h3.2c2.9,0,4.6,1.7,4.6,4l0,0c0,2.4-1.7,4.1-4.7,4.1h-3.1V20.1z M114.7,26.3
			c1.4,0,2.3-0.7,2.3-2.1l0,0c0-1.3-0.9-2.1-2.3-2.1h-0.9v4.2H114.7z"/>
		<path class="st0" d="M121.3,20.1h6.6V22h-4.3v1.2h3.9V25h-3.9v1.3h4.4v1.9h-6.6L121.3,20.1L121.3,20.1z"/>
		<path class="st0" d="M62.6,35.5L62.6,35.5c0-2.4,1.8-4.3,4.3-4.3c1.7,0,2.7,0.7,3.5,1.7l-1.7,1.3c-0.5-0.6-1-1-1.8-1
			c-1.1,0-2,1-2,2.2l0,0c0,1.2,0.8,2.2,2,2.2c0.9,0,1.4-0.4,1.8-1l1.7,1.2c-0.8,1.1-1.8,1.8-3.6,1.8C64.5,39.8,62.6,38,62.6,35.5z"
			/>
		<path class="st0" d="M75,31.4h2.2l3.5,8.2h-2.4l-0.6-1.5h-3.2l-0.6,1.5h-2.4L75,31.4z M77,36.4L76.1,34l-0.9,2.3H77V36.4z"/>
		<path class="st0" d="M82.3,31.4h3.9c1.3,0,2.1,0.3,2.7,0.9c0.5,0.5,0.7,1.1,0.7,1.9l0,0c0,1.3-0.7,2.1-1.7,2.5l2,2.9h-2.6
			l-1.6-2.5h-1v2.5h-2.3L82.3,31.4L82.3,31.4z M86.1,35.3c0.8,0,1.2-0.4,1.2-1l0,0c0-0.6-0.5-1-1.2-1h-1.5v2H86.1z"/>
		<path class="st0" d="M93.6,33.4h-2.5v-2h7.2v2h-2.5v6.2h-2.3v-6.2H93.6z"/>
		<path class="st0" d="M101.9,31.4h2.2l3.5,8.2h-2.4l-0.6-1.5h-3.2l-0.6,1.5h-2.4L101.9,31.4z M103.9,36.4L103,34l-0.9,2.3h1.8V36.4
			z"/>
		<path class="st0" d="M108.4,35.5L108.4,35.5c0-2.4,1.9-4.3,4.4-4.3c1.4,0,2.5,0.4,3.3,1.2l-1.3,1.6c-0.6-0.5-1.2-0.8-2-0.8
			c-1.2,0-2.1,1-2.1,2.2l0,0c0,1.3,0.9,2.3,2.2,2.3c0.5,0,1-0.1,1.3-0.3v-1h-1.6v-1.7h3.8v3.7c-0.9,0.7-2.1,1.3-3.6,1.3
			C110.3,39.8,108.4,38,108.4,35.5z"/>
		<path class="st0" d="M118.5,31.4h6.6v1.9h-4.3v1.2h3.9v1.8h-3.9v1.3h4.4v1.9h-6.6L118.5,31.4L118.5,31.4z M123.9,32h-3.1l-1.7-1.5
			h3.1L123.9,32z"/>
		<path class="st0" d="M127.2,31.4h2.1l3.4,4.3v-4.3h2.2v8.2h-2l-3.5-4.5v4.5h-2.2V31.4z"/>
		<path class="st0" d="M137.2,31.4h6.6v1.9h-4.3v1.2h3.9v1.8h-3.9v1.3h4.4v1.9h-6.6L137.2,31.4L137.2,31.4z"/>
	</g>
	<rect x="54.6" y="36.5" class="st0" width="3.2" height="3.1"/>
</g>
</svg>
