<?xml version="1.0" encoding="UTF-8" standalone="no"?>
<!-- Created with Inkscape (http://www.inkscape.org/) -->

<svg
   xmlns:dc="http://purl.org/dc/elements/1.1/"
   xmlns:cc="http://creativecommons.org/ns#"
   xmlns:rdf="http://www.w3.org/1999/02/22-rdf-syntax-ns#"
   xmlns:svg="http://www.w3.org/2000/svg"
   xmlns="http://www.w3.org/2000/svg"
   xmlns:sodipodi="http://sodipodi.sourceforge.net/DTD/sodipodi-0.dtd"
   xmlns:inkscape="http://www.inkscape.org/namespaces/inkscape"
   width="31.813074mm"
   height="7.3485093mm"
   viewBox="0 0 31.813074 7.3485093"
   version="1.1"
   id="svg127306"
   inkscape:version="0.92.2 (5c3e80d, 2017-08-06)"
   sodipodi:docname="Veremes.svg">
  <defs
     id="defs127300" />
  <sodipodi:namedview
     id="base"
     pagecolor="#ffffff"
     bordercolor="#666666"
     borderopacity="1.0"
     inkscape:pageopacity="0.0"
     inkscape:pageshadow="2"
     inkscape:zoom="0.78886719"
     inkscape:cx="-34.2606"
     inkscape:cy="-76.412636"
     inkscape:document-units="mm"
     inkscape:current-layer="layer1"
     showgrid="false"
     fit-margin-top="0"
     fit-margin-left="0"
     fit-margin-right="0"
     fit-margin-bottom="0"
     inkscape:window-width="1360"
     inkscape:window-height="723"
     inkscape:window-x="-6"
     inkscape:window-y="-6"
     inkscape:window-maximized="1" />
  <metadata
     id="metadata127303">
    <rdf:RDF>
      <cc:Work
         rdf:about="">
        <dc:format>image/svg+xml</dc:format>
        <dc:type
           rdf:resource="http://purl.org/dc/dcmitype/StillImage" />
        <dc:title></dc:title>
      </cc:Work>
    </rdf:RDF>
  </metadata>
  <g
     inkscape:label="Calque 1"
     inkscape:groupmode="layer"
     id="layer1"
     transform="translate(-41.781669,-121.26731)">
    <g
       id="g10161-1-3"
       transform="matrix(0.21255025,0,0,0.21255025,-53.494489,195.67567)">
      <g
         inkscape:export-ydpi="200"
         inkscape:export-xdpi="200"
         id="g7-7-3-5"
         transform="matrix(0.50353306,0,0,0.50353306,441.70042,-358.70391)">
        <path
           d="m 308.774,60.788 c -0.99,-1.493 -2.537,-2.688 -4.64,-3.589 -0.533,-0.224 -1.577,-0.57 -3.142,-1.042 -1.563,-0.47 -2.75,-0.959 -3.567,-1.472 -0.893,-0.547 -1.532,-1.161 -1.916,-1.841 -0.386,-0.682 -0.577,-1.517 -0.577,-2.511 0,-1.4 0.466,-2.572 1.398,-3.516 0.933,-0.944 2.098,-1.417 3.498,-1.417 1.561,0 2.793,0.437 3.695,1.308 0.901,0.873 1.402,2.1 1.505,3.681 h 4.622 c -0.12,-2.909 -1.026,-5.178 -2.72,-6.806 -1.69,-1.626 -3.972,-2.439 -6.845,-2.439 -2.71,0 -5.016,0.916 -6.921,2.744 -1.904,1.831 -2.856,4.057 -2.856,6.678 0,2.319 0.569,4.168 1.714,5.551 1.143,1.383 3.582,2.734 7.318,4.056 2.334,0.858 3.947,1.775 4.838,2.754 0.891,0.98 1.336,2.274 1.336,3.884 0,1.612 -0.561,2.947 -1.682,4.007 -1.121,1.063 -2.526,1.592 -4.219,1.592 -1.772,0 -3.262,-0.69 -4.463,-2.071 -1.202,-1.379 -1.802,-3.12 -1.802,-5.228 v -0.122 h -4.502 c 0.103,3.535 1.114,6.344 3.039,8.431 1.922,2.085 4.466,3.127 7.637,3.127 3.108,0 5.674,-0.952 7.698,-2.853 2.025,-1.899 3.038,-4.301 3.038,-7.205 0.003,-2.307 -0.494,-4.21 -1.484,-5.701 z M 118.462,41.021 c -5.17,0 -9.417,1.679 -12.739,5.035 -3.32,3.357 -4.979,7.607 -4.979,12.742 0,4.912 1.693,9.118 5.084,12.617 3.389,3.502 7.535,5.252 12.438,5.252 3.694,0 6.947,-0.998 9.756,-2.988 2.808,-1.994 4.988,-4.849 6.542,-8.569 h -4.866 c -1.103,2.332 -2.666,4.151 -4.688,5.459 -2.023,1.308 -4.302,1.962 -6.834,1.962 -3.575,0 -6.558,-1.131 -8.947,-3.394 -2.391,-2.263 -3.718,-5.226 -3.983,-8.894 h 30.413 v -0.318 c 0,-5.604 -1.601,-10.154 -4.797,-13.655 -3.2,-3.499 -7.333,-5.249 -12.4,-5.249 z m -13.096,15.451 c 0.509,-3.468 1.901,-6.219 4.17,-8.258 2.27,-2.037 5.04,-3.056 8.313,-3.056 3.517,0 6.368,0.948 8.556,2.844 2.188,1.897 3.692,4.719 4.509,8.47 z M 99.054,31.046 84.898,69.101 72.402,35.38 72.409,35.333 72.33,35.116 c -0.401,-1.095 -0.841,-2.3 -1.34,-3.546 L 70.796,31.047 H 70.775 C 68.667,25.904 65.526,20.168 59.958,18.09 54.417,16.021 47.196,17.415 42.789,21.404 39.367,24.5 37.318,29.247 36.7,35.515 c 0,-0.002 -0.117,1.154 -0.117,1.154 -0.239,2.31 -0.481,4.665 -0.354,7.034 l 0.047,0.874 0.875,-0.048 2.31,-0.124 0.876,-0.046 -0.049,-0.876 c -0.113,-2.069 0.115,-4.268 0.335,-6.396 0,-0.001 0.12,-1.172 0.12,-1.172 0.517,-5.235 2.121,-9.103 4.771,-11.499 3.349,-3.03 8.825,-4.09 13.024,-2.522 4.294,1.604 6.994,6.964 8.88,11.717 l 1.387,3.688 0.208,0.57 0.005,-0.004 14.222,37.827 h 3.407 l 16.788,-44.646 z m 169.701,9.975 c -5.171,0 -9.418,1.679 -12.738,5.035 -3.32,3.357 -4.979,7.607 -4.979,12.742 0,4.912 1.692,9.118 5.084,12.617 3.389,3.502 7.535,5.252 12.438,5.252 3.695,0 6.947,-0.998 9.758,-2.988 2.807,-1.994 4.986,-4.849 6.54,-8.569 h -4.866 c -1.102,2.332 -2.666,4.151 -4.688,5.459 -2.022,1.308 -4.302,1.962 -6.835,1.962 -3.574,0 -6.557,-1.131 -8.945,-3.394 -2.392,-2.263 -3.72,-5.226 -3.984,-8.894 h 30.415 v -0.318 c 0,-5.604 -1.603,-10.154 -4.8,-13.655 -3.2,-3.499 -7.334,-5.249 -12.4,-5.249 z m -13.097,15.451 c 0.51,-3.468 1.901,-6.219 4.171,-8.258 2.27,-2.037 5.039,-3.056 8.314,-3.056 3.516,0 6.367,0.948 8.555,2.844 2.187,1.897 3.692,4.719 4.509,8.47 z M 148.164,42.625 c -1.253,0.705 -2.409,1.808 -3.465,3.315 v -3.946 h -4.074 v 33.698 h 4.379 V 55.395 c 0,-3.099 0.583,-5.334 1.754,-6.711 1.17,-1.376 3.11,-2.187 5.821,-2.431 l -0.032,-4.744 c -1.669,0.04 -3.13,0.413 -4.383,1.116 z m 24.056,-1.604 c -5.171,0 -9.418,1.679 -12.738,5.035 -3.321,3.357 -4.981,7.607 -4.981,12.742 0,4.912 1.694,9.118 5.085,12.617 3.389,3.502 7.535,5.252 12.438,5.252 3.695,0 6.947,-0.998 9.757,-2.988 2.808,-1.994 4.988,-4.849 6.541,-8.569 h -4.866 c -1.102,2.332 -2.665,4.151 -4.688,5.459 -2.023,1.308 -4.303,1.962 -6.834,1.962 -3.574,0 -6.557,-1.131 -8.947,-3.394 -2.391,-2.263 -3.718,-5.226 -3.984,-8.894 h 30.414 v -0.318 c 0,-5.604 -1.6,-10.154 -4.799,-13.655 -3.199,-3.499 -7.332,-5.249 -12.398,-5.249 z m -13.096,15.451 c 0.51,-3.468 1.901,-6.219 4.17,-8.258 2.271,-2.037 5.04,-3.056 8.313,-3.056 3.517,0 6.369,0.948 8.556,2.844 2.188,1.897 3.692,4.719 4.51,8.47 z m 73.74,-15.208 c -2.51,0 -4.779,0.509 -6.809,1.518 -2.03,1.012 -3.73,2.49 -5.097,4.43 -1.106,-1.818 -2.712,-3.264 -4.82,-4.338 -2.108,-1.072 -4.441,-1.61 -7,-1.61 -2.212,0 -4.191,0.379 -5.941,1.134 -1.748,0.756 -3.27,1.88 -4.558,3.372 v -3.776 h -4.258 v 33.698 h 4.258 V 59.274 c 0,-2.927 0.105,-4.978 0.321,-6.154 0.215,-1.177 0.586,-2.227 1.119,-3.147 0.856,-1.473 2.026,-2.604 3.509,-3.391 1.481,-0.787 3.203,-1.182 5.165,-1.182 3.248,0 5.66,0.926 7.233,2.777 1.573,1.852 2.36,4.722 2.36,8.61 v 18.905 h 4.136 V 59.274 c 0,-2.927 0.112,-4.978 0.338,-6.154 0.223,-1.177 0.59,-2.227 1.1,-3.147 0.854,-1.473 2.012,-2.604 3.467,-3.391 1.457,-0.787 3.143,-1.182 5.06,-1.182 3.318,0 5.711,0.947 7.178,2.84 1.469,1.894 2.202,5.07 2.202,9.529 v 17.923 h 4.137 V 58.658 c 0,-6.093 -1.043,-10.516 -3.122,-13.268 -2.082,-2.75 -5.406,-4.126 -9.978,-4.126 z"
           id="path9-6-2-2"
           inkscape:connector-curvature="0"
           style="fill:#1a171b" />
        <g
           id="g11-6-8-0">
          <path
             d="m 36.791,43.727 c 4.5,3.508 3.856,-8.518 5.095,-10.445 -0.251,0.39 1.045,-0.227 1.359,-0.68 0.714,-1.033 0.78,-1.304 1.783,-0.467 0.685,0.57 4.073,-2.156 5.011,-2.76 -0.206,-0.223 0.68,1.338 0.68,0.764 0,4.354 -0.253,0.671 2.42,1.401 1.206,0.329 2.179,-0.847 3.269,0.893 -0.283,0.31 -0.566,0.621 -0.849,0.933 4.111,1.071 3.139,4.072 7.134,6.029 -1.239,0.545 -2.304,1.363 -2.463,2.803 1.169,0.267 2.366,0.422 3.566,0.424 -0.34,0.311 -0.679,0.622 -1.02,0.934 2.158,0.346 2.307,2.235 4.671,1.699 -0.891,1.669 -4.83,4.51 -1.274,5.094 -0.198,0.085 -0.396,0.171 -0.594,0.255 0.745,0.477 1.172,1.362 1.868,1.868 -0.946,0.11 -1.794,0.679 -2.802,0.68 0.04,1.611 1.581,1.87 2.717,2.124 -2.577,1.72 0.311,0.894 0.722,2.122 -0.165,-0.493 1.154,1.254 0.807,0.977 -0.173,-0.139 -1.318,0.596 -0.807,1.062 0.174,0.158 4.875,0.583 1.98,1.482 -1.714,0.534 -4.447,0.456 -3.679,2.763 -1.174,-0.126 -1.886,0.235 -2.845,-0.083 0.154,0.687 -0.067,0.846 0.213,1.442 -1.335,0.382 -2.595,-0.269 -3.695,-1.061 -0.042,0.268 -0.084,0.537 -0.127,0.806 -0.368,-0.325 -0.736,-0.649 -1.104,-0.976 0.016,0.536 -0.255,1.096 -0.212,1.656 -0.877,-0.677 -5.258,-4.209 -2.972,-1.189 0.905,1.195 1.842,1.439 2.93,2.463 -1.363,0.366 -0.2,5.027 1.91,4.627 -1.045,1.709 -3.151,-0.414 -4.289,1.828 1.419,0.304 0.683,0.515 1.826,1.146 -0.596,-0.139 -1.35,0.109 -1.996,-0.043 0.058,0.606 1.302,2.911 1.104,3.185 -0.761,1.05 -2.778,-1.146 -3.949,-1.146 -0.209,0.18 -0.252,0.392 -0.126,0.636 1.264,0.254 0.742,0.52 0.976,1.698 -2.448,-0.878 -0.467,0.231 -0.467,1.104 0,3.686 -2.677,-0.092 -2.548,2.505 -0.269,-0.014 -0.537,-0.027 -0.806,-0.041 0.263,2.893 -2.243,-0.257 -2.845,3.056 0.048,0.018 -3.298,-0.522 -3.333,-0.488 -1.136,1.135 -1.402,-0.027 -2.174,0.598 -1.87,1.514 -1.024,-1.807 -1.552,-1.998 -0.694,-0.253 -2.246,1.984 -2.455,0.573 -0.207,-1.396 -0.55,-3.131 -1.463,-1.656 -0.954,-0.37 -3.546,0.314 -3.842,-0.572 -0.223,-0.67 -2.252,-3.619 -0.871,-4.078 -0.407,0.137 -1.347,0.543 -1.719,0.765 0.857,-2.833 -1.515,-2.188 -3.185,-1.146 0.104,-1.69 0.899,-3.521 -1.083,-3.247 0.293,-0.662 0.337,-1.645 0.828,-2.356 -0.382,0.084 -0.764,0.17 -1.146,0.254 0.059,-0.477 4.984,-10.382 5.223,-10.382 -0.199,-0.062 -0.369,-0.169 -0.51,-0.318 -1.236,3.129 -3.048,5.804 -5.095,8.534 0.046,-0.52 -0.061,-1.008 -0.318,-1.464 -0.23,0 -1.983,2.339 -2.548,2.61 0,-0.253 0,-0.509 0,-0.763 -0.231,0.366 -1.444,2.675 -1.783,2.675 -0.329,0 0.481,-1.796 -0.51,-1.467 -0.944,0.315 -1.458,0.54 -2.292,0.701 0.99,-1.181 1.719,-2.432 -0.446,-1.783 0.204,-0.955 -0.191,-1.231 -0.191,-1.974 -0.159,0.41 -0.393,0.771 -0.7,1.084 -0.23,-1.254 -0.242,-6.138 -0.383,-6.138 -1.46,0 0.123,-2.937 0.341,-3.312 -0.17,-0.142 -0.341,-0.282 -0.51,-0.425 0.05,1.16 -0.433,1.305 -0.764,2.293 -1.08,-1.767 1.521,-3.314 -0.764,-3.99 0.311,-0.256 0.623,-0.51 0.934,-0.765 -0.199,-0.198 -0.396,-0.396 -0.595,-0.595 -0.269,0.61 -0.729,1.216 -1.02,1.783 -0.154,-0.479 0.034,-2.888 0.51,-2.888 -0.313,-0.017 -0.624,-0.044 -0.935,-0.084 0.723,-0.973 0.495,-1.264 1.444,-1.699 -0.17,-0.51 -0.339,-1.019 -0.509,-1.529 0.17,0.058 0.339,0.114 0.509,0.171 0.149,0.083 -0.41,-0.829 -0.68,-0.424 0.503,-0.754 1.123,-1.223 1.868,-1.614 -0.283,-0.17 -0.566,-0.34 -0.849,-0.51 0.664,-0.432 1.176,-1.357 2.038,-1.698 -0.566,-1.104 -0.674,-1.464 -1.868,-1.784 -0.033,-2.104 1.163,-9.234 2.717,-8.407 -0.049,-0.578 -0.062,-0.699 0.509,-0.765 -0.087,-1.145 -0.637,-0.797 0.595,-1.104 -0.979,-4.102 1.847,-2.083 3.651,-1.104 0,-0.341 0,-0.68 0,-1.02 0.534,0.116 1.853,0.641 2.177,0.085 0.109,-0.188 -0.92,-0.513 -1.073,-0.594 1.126,-0.569 0.975,-1.844 0.17,-3.143 1.503,0.075 3.008,0.738 3.482,-0.594 0.613,0.591 1.188,0.584 1.697,1.358 0.284,-0.481 0.566,-0.963 0.85,-1.443 0.53,0.646 1.549,2.504 2.59,1.983 0.223,-0.111 1.486,0.661 1.486,0.394 0,-1.159 0.588,-2.121 1.529,-2.717 0.239,5.598 -0.34,8.909 1.446,14.609"
             id="path13-2-9-4"
             inkscape:connector-curvature="0"
             style="fill:#1a171b" />
        </g>
      </g>
    </g>
  </g>
</svg>
