<?xml version="1.0" encoding="UTF-8" standalone="no"?>
<svg
   width="211.29933"
   height="40"
   viewBox="0 0 211.29933 40"
   version="1.1"
   id="svg11"
   xmlns="http://www.w3.org/2000/svg"
   xmlns:svg="http://www.w3.org/2000/svg"
   xmlns:rdf="http://www.w3.org/1999/02/22-rdf-syntax-ns#"
   xmlns:cc="http://creativecommons.org/ns#"
   xmlns:dc="http://purl.org/dc/elements/1.1/">
  <defs
     id="defs15" />
  <!-- Generator: Sketch 57.1 (83088) - https://sketch.com -->
  <title
     id="title2">Misc/Logo/JawgMaps/Blue@2x</title>
  <desc
     id="desc4">Created with Sketch.</desc>
  <g
     id="Misc/Logo/JawgMaps/Blue"
     stroke="none"
     stroke-width="1"
     fill="none"
     fill-rule="evenodd">
    <g
       id="logo"
       fill="#0094ff">
      <path
         d="m 23.147208,18.375634 c 0,1.738694 -1.408877,3.147209 -3.146975,3.147209 -1.738097,0 -3.147441,-1.408515 -3.147441,-3.147209 0,-1.738226 1.409344,-3.147208 3.147441,-3.147208 1.738098,0 3.146975,1.408982 3.146975,3.147208 M 31.227604,3.448115 V 7.766424 18.43785 c 0,0.517917 -0.163774,3.337999 -3.407522,7.985256 -0.300952,0.431131 -0.628499,0.877659 -0.984509,1.338185 -0.198302,0.257559 -0.418067,0.518851 -0.6285,0.778743 -0.495987,0.612168 -1.019036,1.229003 -1.581746,1.851903 -0.94205,1.041434 -1.967152,2.094532 -3.082774,3.152762 L 20.0028,35.003733 19.9972,35.009333 18.452781,33.5447 C 13.984229,29.312243 8.7663307,22.815883 8.7663307,18.43785 c 0,-0.103584 0.011665,-0.205767 0.014464,-0.309351 0.0042,-0.177305 0.012131,-0.35321 0.024729,-0.528182 0.007,-0.09845 0.012131,-0.197368 0.022396,-0.295353 0.027995,-0.290686 0.069522,-0.578107 0.1199141,-0.862262 0.007,-0.03593 0.012598,-0.07232 0.019597,-0.108249 0.4222658,-2.253173 1.5224902,-4.270717 3.0832402,-5.827734 0.176838,-0.179171 0.358809,-0.35461 0.549645,-0.5216499 0.06206,-0.053658 0.128313,-0.1007839 0.190836,-0.1525756 0.07046,-0.058791 0.142311,-0.1147817 0.2137,-0.1712393 0.212766,-0.1689063 0.429731,-0.3298805 0.652295,-0.4824561 0.0238,-0.016331 0.04806,-0.033128 0.07186,-0.048992 0.656495,-0.4423292 1.348918,-0.8216685 2.080068,-1.1151549 0.07465,-0.029862 0.151642,-0.045726 0.227696,-0.067189 1.208007,-0.4502613 2.513998,-0.6970884 3.876914,-0.6970884 1.236935,0 2.239641,1.0022396 2.239641,2.2396416 0,1.2369346 -1.002706,2.2391756 -2.239641,2.2391756 -0.914987,0 -1.786581,0.185703 -2.580721,0.521183 -0.0098,0.0037 -0.02006,0.0089 -0.03033,0.01307 -0.160508,0.06859 -0.31635,0.146043 -0.470325,0.226764 -0.05552,0.02986 -0.111516,0.05879 -0.166573,0.09005 -0.106384,0.06019 -0.2095,0.12458 -0.312617,0.190369 -0.06952,0.04433 -0.140911,0.08632 -0.208567,0.133446 -0.04479,0.03033 -0.08585,0.06532 -0.129712,0.09705 -0.201102,0.146977 -0.393804,0.302819 -0.576242,0.469859 -0.03173,0.02846 -0.06392,0.05692 -0.09565,0.08632 -0.10405,0.09938 -0.2053,0.202034 -0.302818,0.30795 -0.01446,0.0154 -0.02893,0.03173 -0.04386,0.04759 -1.097891,1.211738 -1.737588,2.808416 -1.737588,4.525008 0,0.431598 0.107782,0.923385 0.32988,1.502893 0.02706,0.07092 0.06112,0.146043 0.09612,0.221631 0.03686,0.07652 0.06906,0.154909 0.10685,0.230963 1.034434,2.308697 3.47611,5.401269 5.525849,7.62598 l 0.649963,0.705954 v 0 c 0.326614,-0.351344 0.99384,-1.018571 0.99384,-1.018571 0.279956,-0.310283 0.558511,-0.621967 0.829601,-0.935983 1.487029,-1.722658 4.944476,-5.98311 4.944476,-8.332867 V 6.6550019 1.1660134 C 24.630459,0.41340052 22.363755,0 20,0 8.9543673,0 0,8.9543673 0,20 0,31.046099 8.9543673,40 20,40 31.045633,40 40,31.046099 40,20 40,13.116835 36.521557,7.0464726 31.227604,3.448115"
         id="intermediaire" />
      <path
         d="m 62.132,8.628 h 4.488 v 15.708 c 0,2.278 -0.68,4.012 -2.074,5.27 -1.394,1.258 -3.026,1.904 -4.93,1.904 -1.802,0 -3.366,-0.578 -4.726,-1.7 -1.394,-1.122 -2.176,-2.686 -2.38,-4.726 l 4.352,-0.816 c 0.204,2.04 1.088,3.06 2.686,3.06 1.53,0 2.584,-1.054 2.584,-3.094 z M 76.665111,27.6 c 1.19,0 2.244,-0.442 3.128,-1.326 0.884,-0.85 1.326,-2.006 1.326,-3.434 0,-2.754 -1.938,-4.692 -4.352,-4.692 -1.19,0 -2.21,0.442 -3.06,1.292 -0.85,0.884 -1.258,2.04 -1.258,3.468 0,1.428 0.408,2.55 1.224,3.4 0.816,0.85 1.802,1.292 2.992,1.292 z m 11.186,-0.476 1.326,2.618 c -0.714,1.054 -1.836,1.564 -3.332,1.564 -1.938,0 -3.706,-1.326 -3.876,-3.196 -1.122,1.938 -3.196,3.23 -5.882,3.23 -2.176,0 -4.046,-0.748 -5.61,-2.244 -1.564,-1.496 -2.346,-3.536 -2.346,-6.086 0,-2.652 0.816,-4.726 2.482,-6.256 1.666,-1.53 3.604,-2.278 5.814,-2.278 2.346,0 3.944,0.748 4.828,2.278 v -1.87 h 4.318 v 11.492 c 0,0.782 0.374,1.19 1.088,1.19 0.476,0 0.884,-0.136 1.19,-0.442 z m 15.247109,-12.24 3.502,9.86 3.162,-9.86 h 4.828 L 108.60622,31 h -4.114 l -3.502,-9.418 L 97.488222,31 h -4.114 l -5.916,-16.116 h 4.794 l 3.162,9.826 3.468,-9.826 z m 19.15711,12.308 c 2.482,0 4.556,-1.734 4.556,-4.556 0,-2.822 -2.074,-4.522 -4.556,-4.522 -2.448,0 -4.216,1.632 -4.216,4.59 0,2.992 1.87,4.488 4.216,4.488 z m 4.59,-12.308 h 4.318 v 15.13 c 0,2.652 -0.884,4.726 -2.618,6.222 -1.768,1.462 -3.876,2.21 -6.324,2.21 -3.842,0 -7.174,-2.006 -8.398,-5.508 l 3.978,-1.53 c 0.646,2.176 2.55,3.332 4.692,3.332 2.55,0 4.386,-1.666 4.386,-4.42 v -2.04 c -1.054,1.7 -2.788,2.55 -5.168,2.55 -2.142,0 -4.012,-0.714 -5.61,-2.142 -1.598,-1.394 -2.38,-3.4 -2.38,-5.95 0,-2.584 0.816,-4.624 2.482,-6.086 1.632,-1.462 3.57,-2.176 5.78,-2.176 2.346,0 3.944,0.782 4.862,2.38 z"
         id="Jawg"
         fill-rule="nonzero" />
      <path
         d="M 135.06,31 V 8.628 h 2.788 l 8.228,14.212 8.228,-14.212 h 2.788 V 31 h -2.516 V 13.422 l -7.412,12.546 h -2.176 L 137.576,13.422 V 31 Z m 29.05111,-3.604 c 2.312,2.176 5.508,2.176 7.82,0 1.122,-1.054 1.7,-2.55 1.7,-4.42 0,-1.938 -0.578,-3.434 -1.768,-4.556 -1.19,-1.088 -2.55,-1.632 -4.046,-1.632 -1.462,0 -2.754,0.544 -3.808,1.598 -1.088,1.088 -1.632,2.584 -1.632,4.454 0,1.938 0.578,3.468 1.734,4.556 z m 14.552,1.394 0.816,1.666 c -0.612,0.544 -1.36,0.816 -2.21,0.816 -1.768,0 -3.332,-1.088 -3.502,-3.128 -1.088,1.87 -3.434,3.162 -5.916,3.162 -2.074,0 -3.876,-0.748 -5.474,-2.278 -1.598,-1.496 -2.414,-3.57 -2.414,-6.188 0,-2.618 0.816,-4.658 2.414,-6.154 1.598,-1.462 3.4,-2.21 5.474,-2.21 2.21,0 4.454,1.02 5.78,2.822 v -2.414 h 2.414 v 12.274 c 0,1.224 0.68,1.938 1.53,1.938 0.306,0 0.68,-0.102 1.088,-0.306 z m 10.21511,0.238 c 1.53,0 2.856,-0.544 4.046,-1.666 1.156,-1.088 1.734,-2.618 1.734,-4.556 0,-1.87 -0.544,-3.298 -1.632,-4.352 -1.088,-1.054 -2.38,-1.564 -3.876,-1.564 -1.53,0 -2.89,0.544 -4.012,1.632 -1.156,1.122 -1.734,2.618 -1.734,4.556 0,1.87 0.544,3.298 1.632,4.352 1.054,1.054 2.346,1.598 3.842,1.598 z m 0.578,-14.416 c 2.074,0 3.842,0.714 5.372,2.108 1.496,1.428 2.244,3.434 2.244,6.018 0,2.686 -0.816,4.794 -2.414,6.29 -1.632,1.53 -3.536,2.278 -5.712,2.278 -2.414,0 -4.284,-0.85 -5.542,-2.55 v 9.316 h -2.414 V 14.884 h 2.414 v 2.856 c 1.496,-2.074 3.502,-3.128 6.052,-3.128 z m 21.84311,11.866 c 0,1.53 -0.612,2.72 -1.836,3.57 -1.258,0.85 -2.754,1.292 -4.556,1.292 -2.55,0 -5.1,-0.952 -6.834,-2.72 l 1.7,-1.87 c 1.224,1.496 3.4,2.346 5.44,2.346 2.142,0 3.604,-0.918 3.604,-2.312 0,-0.85 -0.544,-1.292 -1.19,-1.7 -0.34,-0.204 -1.462,-0.476 -1.836,-0.578 -0.17,-0.034 -0.544,-0.136 -1.088,-0.272 -1.734,-0.408 -2.618,-0.714 -3.876,-1.428 -1.258,-0.714 -1.904,-1.87 -1.904,-3.502 0,-1.598 0.612,-2.788 1.802,-3.604 1.19,-0.816 2.584,-1.224 4.216,-1.224 2.04,0 3.876,0.612 5.508,1.802 l -1.224,1.802 c -1.224,-0.986 -2.686,-1.462 -4.42,-1.462 -2.04,0 -3.468,0.918 -3.468,2.55 0,1.632 1.258,2.244 3.808,2.822 2.074,0.476 3.434,0.884 4.08,1.19 1.394,0.714 2.074,1.836 2.074,3.298 z"
         id="Maps"
         fill-rule="nonzero" />
    </g>
  </g>
  <metadata
     id="metadata878">
    <rdf:RDF>
      <cc:Work
         rdf:about="">
        <dc:title>Misc/Logo/JawgMaps/Blue@2x</dc:title>
      </cc:Work>
    </rdf:RDF>
  </metadata>
</svg>
