<?xml version="1.0" encoding="UTF-8" standalone="no"?>
<!-- Generator: Adobe Illustrator 15.0.0, SVG Export Plug-In . SVG Version: 6.00 Build 0)  -->

<svg
   version="1.1"
   id="Calque_1"
   x="0px"
   y="0px"
   width="398.12701"
   height="176.9015"
   viewBox="0 0 398.12701 176.9015"
   enable-background="new 0 0 841.89 595.28"
   xml:space="preserve"
   sodipodi:docname="logo_original_verso_only.svg"
   inkscape:version="1.2.2 (b0a8486541, 2022-12-01)"
   xmlns:inkscape="http://www.inkscape.org/namespaces/inkscape"
   xmlns:sodipodi="http://sodipodi.sourceforge.net/DTD/sodipodi-0.dtd"
   xmlns="http://www.w3.org/2000/svg"
   xmlns:svg="http://www.w3.org/2000/svg"><defs
   id="defs63" /><sodipodi:namedview
   id="namedview61"
   pagecolor="#ffffff"
   bordercolor="#000000"
   borderopacity="0.25"
   inkscape:showpageshadow="2"
   inkscape:pageopacity="0.0"
   inkscape:pagecheckerboard="0"
   inkscape:deskcolor="#d1d1d1"
   showgrid="false"
   inkscape:zoom="1.4144604"
   inkscape:cx="193.71345"
   inkscape:cy="163.66665"
   inkscape:window-width="1920"
   inkscape:window-height="1011"
   inkscape:window-x="0"
   inkscape:window-y="32"
   inkscape:window-maximized="1"
   inkscape:current-layer="Calque_1" />

<path
   d="m 140.782,88.826515 c -11.378,0 -22.762,-4.325 -31.412,-12.99 -8.396,-8.385 -13.01,-19.538 -13.01,-31.412 0,-11.861 4.614,-23.02 13.01,-31.412 17.28,-17.2870002 45.445,-17.3140002 62.766,-0.055 l 10.188,10.133 c 0.588,0.592 0.588,1.543 0,2.135 -0.585,0.592 -1.537,0.592 -2.129,0.007 l -10.176,-10.14 c -16.155,-16.0890002 -42.402,-16.0630002 -58.52,0.055 -7.817,7.82 -12.122,18.218 -12.122,29.276 0,11.065 4.305,21.462 12.122,29.29 16.117,16.111 42.364,16.131 58.506,0.041 l 44.986,-44.802 c 8.505,-8.473 22.326,-8.467 30.807,0.021 4.122,4.121 6.383,9.595 6.383,15.424 0,5.821 -2.261,11.302 -6.383,15.417 -8.48,8.486 -22.31,8.493 -30.807,0.027 l -10.126,-10.064 c -0.592,-0.599 -0.599,-1.558 -0.007,-2.143 0.592,-0.592 1.544,-0.592 2.14,0 l 10.121,10.065 c 7.332,7.304 19.232,7.29 26.543,-0.021 3.554,-3.55 5.502,-8.263 5.502,-13.282 0,-5.025 -1.948,-9.731 -5.502,-13.282 -7.311,-7.317 -19.211,-7.331 -26.543,-0.027 l -44.975,44.816 c -8.655,8.611 -20.012,12.923 -31.362,12.923"
   id="path38" />
<path
   d="m 140.782,81.290515 c -9.446,0 -18.892,-3.596 -26.081,-10.778 -6.967,-6.963 -10.803,-16.233 -10.803,-26.087 0,-9.848 3.835,-19.11 10.803,-26.081 14.349,-14.3550002 37.737,-14.3760002 52.116,-0.047 l 10.164,10.12 c 0.596,0.585 0.596,1.544 0,2.135 -0.584,0.585 -1.533,0.585 -2.125,0 l -10.164,-10.119 c -13.207,-13.1590002 -34.673,-13.1320002 -47.856,0.048 -6.399,6.392 -9.922,14.9 -9.922,23.945 0,9.052 3.522,17.559 9.922,23.944 13.183,13.187 34.649,13.207 47.856,0.055 l 44.976,-44.816 c 11.442,-11.398 30.041,-11.384 41.46,0.041 5.542,5.536 8.596,12.908 8.596,20.749 0,7.841 -3.054,15.207 -8.596,20.748 -11.419,11.426 -30.018,11.433 -41.46,0.042 l -10.144,-10.1 c -0.592,-0.584 -0.592,-1.543 -0.007,-2.135 0.585,-0.584 1.544,-0.584 2.136,0 l 10.14,10.099 c 10.266,10.223 26.957,10.208 37.209,-0.041 4.965,-4.964 7.706,-11.581 7.706,-18.613 0,-7.032 -2.741,-13.642 -7.706,-18.613 -10.252,-10.255 -26.943,-10.269 -37.209,-0.041 l -44.976,44.81 c -7.187,7.151 -16.609,10.735 -26.035,10.735"
   id="path40" />
<path
   d="m 230.38,88.798515 c -11.35,0 -22.697,-4.312 -31.351,-12.934 l -10.19,-10.133 c -0.592,-0.585 -0.592,-1.544 0,-2.135 0.584,-0.585 1.546,-0.592 2.128,0 l 10.188,10.133 c 16.145,16.089 42.388,16.063 58.509,-0.048 7.822,-7.827 12.123,-18.219 12.123,-29.283 0,-11.065 -4.301,-21.463 -12.123,-29.277 -16.121,-16.1240002 -42.364,-16.1450002 -58.509,-0.061 l -44.986,44.816 c -8.5,8.466 -22.312,8.46 -30.803,-0.034 -4.114,-4.114 -6.382,-9.596 -6.382,-15.417 0,-5.821 2.269,-11.296 6.382,-15.417 8.491,-8.48 22.303,-8.494 30.803,-0.021 l 10.13,10.072 c 0.589,0.585 0.589,1.537 0.007,2.121 -0.585,0.599 -1.538,0.606 -2.136,0.014 l -10.126,-10.072 c -7.327,-7.304 -19.238,-7.29 -26.549,0.021 -3.546,3.55 -5.495,8.27 -5.495,13.282 0,5.019 1.949,9.738 5.495,13.295 7.318,7.303 19.222,7.317 26.549,0.021 l 44.986,-44.816 c 17.312,-17.2530002 45.476,-17.2330002 62.764,0.054 8.391,8.398 13.009,19.552 13.009,31.419 0,11.859 -4.618,23.027 -13.009,31.412 -8.652,8.649 -20.033,12.988 -31.414,12.988"
   id="path42" />
<path
   d="m 230.38,81.256515 c -9.426,0 -18.851,-3.577 -26.029,-10.731 l -10.17,-10.113 c -0.591,-0.592 -0.591,-1.543 0,-2.129 0.584,-0.598 1.533,-0.598 2.128,-0.014 l 10.164,10.12 c 13.21,13.159 34.676,13.131 47.853,-0.042 6.399,-6.398 9.922,-14.906 9.922,-23.951 0,-9.045 -3.522,-17.559 -9.922,-23.952 -13.177,-13.1790002 -34.643,-13.2000002 -47.853,-0.041 l -44.979,44.81 c -11.443,11.397 -30.039,11.384 -41.45,-0.034 -5.553,-5.55 -8.606,-12.914 -8.606,-20.755 0,-7.835 3.053,-15.207 8.606,-20.749 11.411,-11.418 30.007,-11.432 41.45,-0.041 l 10.143,10.099 c 0.592,0.592 0.598,1.544 0.006,2.136 -0.585,0.591 -1.543,0.591 -2.135,0.006 l -10.14,-10.092 c -10.266,-10.235 -26.958,-10.221 -37.21,0.027 -4.964,4.971 -7.705,11.582 -7.705,18.614 0,7.039 2.741,13.642 7.705,18.626 10.252,10.243 26.944,10.256 37.21,0.028 l 44.982,-44.809 c 14.377,-14.3290002 37.76,-14.3150002 52.112,0.041 6.965,6.971 10.804,16.232 10.804,26.087 0,9.854 -3.839,19.11 -10.804,26.08 -7.185,7.189 -16.636,10.779 -26.082,10.779"
   id="path44" />
<g
   id="g58"
   transform="translate(-226.991,-135.93749)">
	<path
   d="m 268.937,281.664 15.648,-34.928 h 26.295 l -34.428,64.225 h -15.03 l -34.431,-64.225 h 26.291 z"
   id="path46" />
	<path
   d="m 333.913,281.915 c 0,9.895 8.263,13.275 13.901,13.275 7.13,0 10.265,-1.38 15.645,-7.14 l 16.025,8.018 c -7.266,12.138 -19.028,16.771 -33.303,16.771 -19.409,0 -35.302,-15.268 -35.302,-33.922 0,-18.777 15.893,-34.058 35.302,-34.058 19.528,0 34.432,11.521 34.432,34.058 0,0.87 0,2.25 -0.126,2.998 z m 25.037,-12.268 c -1.003,-6.759 -5.635,-10.391 -12.143,-10.391 -7.641,0 -11.894,4.509 -12.272,10.391 z"
   id="path48" />
	<path
   d="m 390.756,246.736 h 22.152 v 9.269 h 0.256 c 0,0 7.008,-11.146 19.654,-11.146 8.259,0 14.021,4.006 14.021,4.006 l -9.262,18.776 c 0,0 -4.129,-3.496 -11.521,-3.496 -11.513,0 -13.149,11.392 -13.149,13.017 v 33.799 h -22.152 v -64.225 z"
   id="path50" />
	<path
   d="m 501.552,249.872 -7.267,14.519 c 0,0 -7.504,-4.005 -14.271,-4.005 -4.879,0 -6.883,0.877 -6.883,3.882 0,3.374 4.506,4.38 10.018,6.135 8.512,2.625 19.535,7.386 19.535,20.531 0,18.905 -17.28,21.905 -30.433,21.905 -15.52,0 -24.781,-8.637 -24.781,-8.637 l 9.011,-15.146 c 0,0 8.763,7.378 15.896,7.378 3.135,0 6.889,-0.367 6.889,-4.625 0,-4.631 -7.015,-5.004 -14.271,-8.765 -6.509,-3.38 -13.021,-7.89 -13.021,-17.533 0,-13.139 11.14,-20.653 28.039,-20.653 12.395,0.001 21.539,5.014 21.539,5.014 z"
   id="path52" />
	<path
   d="m 547.745,244.859 c 21.289,0 38.313,14.023 38.313,34.058 0,19.776 -16.154,33.922 -38.313,33.922 -23.16,0 -38.687,-14.146 -38.687,-33.922 0.001,-20.035 17.034,-34.058 38.687,-34.058 z m -0.122,49.08 c 8.643,0 14.902,-6.257 14.902,-15.022 0,-8.896 -6.634,-15.152 -14.902,-15.152 -8.389,0 -15.023,6.256 -15.023,15.152 0,8.765 6.011,15.022 15.023,15.022 z"
   id="path54" />
	<path
   fill="#ffed00"
   d="m 625.118,298.563 c 0,7.889 -6.386,14.275 -14.396,14.275 -7.89,0 -14.274,-6.387 -14.274,-14.275 0,-8.004 6.385,-14.396 14.274,-14.396 8.01,0 14.396,6.392 14.396,14.396 z"
   id="path56" />
</g>
</svg>
