<?xml version="1.0" encoding="UTF-8" standalone="no"?>
<!-- Created with Inkscape (http://www.inkscape.org/) -->

<svg
   xmlns:dc="http://purl.org/dc/elements/1.1/"
   xmlns:cc="http://creativecommons.org/ns#"
   xmlns:rdf="http://www.w3.org/1999/02/22-rdf-syntax-ns#"
   xmlns:svg="http://www.w3.org/2000/svg"
   xmlns="http://www.w3.org/2000/svg"
   xmlns:sodipodi="http://sodipodi.sourceforge.net/DTD/sodipodi-0.dtd"
   xmlns:inkscape="http://www.inkscape.org/namespaces/inkscape"
   width="42.94463mm"
   height="21.136024mm"
   viewBox="0 0 152.16601 74.891425"
   id="svg4267"
   version="1.1"
   inkscape:version="0.91 r13725"
   sodipodi:docname="logo_1.svg">
  <defs
     id="defs4269" />
  <sodipodi:namedview
     id="base"
     pagecolor="#ffffff"
     bordercolor="#666666"
     borderopacity="1.0"
     inkscape:pageopacity="0.0"
     inkscape:pageshadow="2"
     inkscape:zoom="3.959798"
     inkscape:cx="83.979354"
     inkscape:cy="31.957757"
     inkscape:document-units="px"
     inkscape:current-layer="layer1"
     showgrid="false"
     fit-margin-top="0"
     fit-margin-left="0"
     fit-margin-right="0"
     fit-margin-bottom="0"
     inkscape:window-width="1920"
     inkscape:window-height="1053"
     inkscape:window-x="0"
     inkscape:window-y="53"
     inkscape:window-maximized="1" />
  <metadata
     id="metadata4272">
    <rdf:RDF>
      <cc:Work
         rdf:about="">
        <dc:format>image/svg+xml</dc:format>
        <dc:type
           rdf:resource="http://purl.org/dc/dcmitype/StillImage" />
        <dc:title></dc:title>
      </cc:Work>
    </rdf:RDF>
  </metadata>
  <g
     inkscape:label="Calque 1"
     inkscape:groupmode="layer"
     id="layer1"
     transform="translate(-181.05988,-260.63076)">
    <g
       style="font-style:normal;font-variant:normal;font-weight:600;font-stretch:normal;font-size:43.16999817px;line-height:89.99999762%;font-family:'Source Sans Pro';-inkscape-font-specification:'Source Sans Pro, Semi-Bold';text-align:end;letter-spacing:0px;word-spacing:0px;writing-mode:lr-tb;text-anchor:end;fill:#d6aa34;fill-opacity:1;stroke:none;stroke-width:1px;stroke-linecap:butt;stroke-linejoin:miter;stroke-opacity:1"
       id="text3336-3-1-0-7-7-3-6-7-7-6-0-8-6-0-6-5">
      <path
         d="m 181.05988,282.1209 q 0,-3.4536 0.99291,-6.17331 1.03608,-2.76288 2.80605,-4.66236 1.76997,-1.89948 4.14432,-2.89239 2.37435,-0.99291 5.09406,-0.99291 2.5902,0 4.61919,1.07925 2.07216,1.07925 3.41043,2.50386 l -2.80605,3.10824 q -1.07925,-1.07925 -2.33118,-1.68363 -1.20876,-0.64755 -2.84922,-0.64755 -1.76997,0 -3.23775,0.73389 -1.42461,0.69072 -2.50386,2.02899 -1.03608,1.2951 -1.64046,3.19458 -0.56121,1.89948 -0.56121,4.27383 0,4.83504 2.07216,7.59792 2.11533,2.71971 5.69844,2.71971 1.89948,0 3.28092,-0.73389 1.42461,-0.73389 2.63337,-2.07216 l 2.80605,3.06507 q -1.7268,1.98582 -3.92847,3.06507 -2.20167,1.03608 -4.87821,1.03608 -2.71971,0 -5.05089,-0.94974 -2.33118,-0.94974 -4.05798,-2.80605 -1.7268,-1.85631 -2.71971,-4.57602 -0.99291,-2.71971 -0.99291,-6.21648 z"
         style="font-style:normal;font-variant:normal;font-weight:600;font-stretch:normal;font-size:43.16999817px;line-height:89.99999762%;font-family:'Source Sans Pro';-inkscape-font-specification:'Source Sans Pro, Semi-Bold';text-align:end;letter-spacing:0px;writing-mode:lr-tb;text-anchor:end;fill:#d6aa34;fill-opacity:1"
         id="path4834" />
      <path
         d="m 206.06273,290.45271 q 0,-3.41043 2.97873,-5.26674 2.97873,-1.85631 9.4974,-2.5902 0,-0.82023 -0.21585,-1.55412 -0.21585,-0.77706 -0.69072,-1.33827 -0.4317,-0.60438 -1.16559,-0.90657 -0.69072,-0.34536 -1.76997,-0.34536 -1.59729,0 -3.10824,0.60438 -1.46778,0.60438 -2.84922,1.46778 l -1.81314,-3.32409 q 1.76997,-1.12242 3.92847,-1.94265 2.20167,-0.82023 4.7487,-0.82023 4.01481,0 5.95746,2.37435 1.94265,2.33118 1.94265,6.77769 l 0,12.56247 -4.05798,0 -0.38853,-2.33118 -0.12951,0 q -1.42461,1.20876 -3.06507,2.02899 -1.59729,0.82023 -3.49677,0.82023 -2.80605,0 -4.57602,-1.68363 -1.7268,-1.7268 -1.7268,-4.53285 z m 4.83504,-0.38853 q 0,1.42461 0.82023,2.07216 0.8634,0.64755 2.20167,0.64755 1.2951,0 2.37435,-0.60438 1.07925,-0.60438 2.24484,-1.7268 l 0,-4.7487 q -2.1585,0.25902 -3.62628,0.69072 -1.46778,0.4317 -2.37435,0.99291 -0.8634,0.51804 -1.25193,1.20876 -0.38853,0.69072 -0.38853,1.46778 z"
         style="font-style:normal;font-variant:normal;font-weight:600;font-stretch:normal;font-size:43.16999817px;line-height:89.99999762%;font-family:'Source Sans Pro';-inkscape-font-specification:'Source Sans Pro, Semi-Bold';text-align:end;letter-spacing:-2px;writing-mode:lr-tb;text-anchor:end"
         id="path4836" />
      <path
         d="m 227.56609,274.95468 4.10115,0 0.34536,3.75579 0.17268,0 q 1.12242,-2.07216 2.71971,-3.15141 1.59729,-1.12242 3.28092,-1.12242 1.51095,0 2.41752,0.4317 l -0.8634,4.317 q -0.56121,-0.17268 -1.03608,-0.25902 -0.47487,-0.0863 -1.16559,-0.0863 -1.25193,0 -2.63337,0.99291 -1.38144,0.94974 -2.37435,3.36726 l 0,12.951 -4.96455,0 0,-21.19647 z"
         style="font-style:normal;font-variant:normal;font-weight:600;font-stretch:normal;font-size:43.16999817px;line-height:89.99999762%;font-family:'Source Sans Pro';-inkscape-font-specification:'Source Sans Pro, Semi-Bold';text-align:end;letter-spacing:0px;writing-mode:lr-tb;text-anchor:end;fill:#d6aa34;fill-opacity:1"
         id="path4838" />
      <path
         d="m 244.40442,278.88315 -3.0219,0 0,-3.71262 3.28092,-0.21585 0.60438,-5.78478 4.14432,0 0,5.78478 5.39625,0 0,3.92847 -5.39625,0 0,10.10178 q 0,3.71262 2.97873,3.71262 0.56121,0 1.12242,-0.12951 0.60438,-0.12951 1.07925,-0.34536 l 0.8634,3.66945 q -0.8634,0.30219 -1.98582,0.51804 -1.07925,0.25902 -2.33118,0.25902 -1.85631,0 -3.15141,-0.56121 -1.25193,-0.56121 -2.07216,-1.55412 -0.77706,-1.03608 -1.16559,-2.41752 -0.34536,-1.42461 -0.34536,-3.15141 l 0,-10.10178 z"
         style="font-style:normal;font-variant:normal;font-weight:600;font-stretch:normal;font-size:43.16999817px;line-height:89.99999762%;font-family:'Source Sans Pro';-inkscape-font-specification:'Source Sans Pro, Semi-Bold';text-align:end;letter-spacing:0px;writing-mode:lr-tb;text-anchor:end;fill:#d6aa34;fill-opacity:1"
         id="path4840" />
      <path
         d="m 257.46604,285.5745 q 0,-2.63337 0.82023,-4.70553 0.82023,-2.07216 2.20167,-3.49677 1.42461,-1.42461 3.23775,-2.1585 1.81314,-0.77706 3.79896,-0.77706 1.98582,0 3.79896,0.77706 1.85631,0.73389 3.23775,2.1585 1.38144,1.42461 2.20167,3.49677 0.8634,2.07216 0.8634,4.70553 0,2.63337 -0.8634,4.70553 -0.82023,2.07216 -2.20167,3.49677 -1.38144,1.42461 -3.23775,2.1585 -1.81314,0.73389 -3.79896,0.73389 -1.98582,0 -3.79896,-0.73389 -1.81314,-0.73389 -3.23775,-2.1585 -1.38144,-1.42461 -2.20167,-3.49677 -0.82023,-2.07216 -0.82023,-4.70553 z m 5.09406,0 q 0,3.19458 1.2951,5.13723 1.33827,1.89948 3.66945,1.89948 2.33118,0 3.66945,-1.89948 1.33827,-1.94265 1.33827,-5.13723 0,-3.23775 -1.33827,-5.13723 -1.33827,-1.94265 -3.66945,-1.94265 -2.33118,0 -3.66945,1.94265 -1.2951,1.89948 -1.2951,5.13723 z"
         style="font-style:normal;font-variant:normal;font-weight:600;font-stretch:normal;font-size:43.16999817px;line-height:89.99999762%;font-family:'Source Sans Pro';-inkscape-font-specification:'Source Sans Pro, Semi-Bold';text-align:end;letter-spacing:0px;writing-mode:lr-tb;text-anchor:end;fill:#d6aa34;fill-opacity:1"
         id="path4842" />
      <path
         d="m 208.23335,320.9739 q 0,-3.4536 0.99291,-6.17331 1.03608,-2.76288 2.80605,-4.66236 1.76997,-1.89948 4.14432,-2.89239 2.37435,-0.99291 5.09406,-0.99291 2.5902,0 4.61919,1.07925 2.07216,1.07925 3.41043,2.50386 l -2.80605,3.10824 q -1.07925,-1.07925 -2.33118,-1.68363 -1.20876,-0.64755 -2.84922,-0.64755 -1.76997,0 -3.23775,0.73389 -1.42461,0.69072 -2.50386,2.02899 -1.03608,1.2951 -1.64046,3.19458 -0.56121,1.89948 -0.56121,4.27383 0,4.83504 2.07216,7.59792 2.11533,2.71971 5.69844,2.71971 1.89948,0 3.28092,-0.73389 1.42461,-0.73389 2.63337,-2.07216 l 2.80605,3.06507 q -1.7268,1.98582 -3.92847,3.06507 -2.20167,1.03608 -4.87821,1.03608 -2.71971,0 -5.05089,-0.94974 -2.33118,-0.94974 -4.05798,-2.80605 -1.7268,-1.85631 -2.71971,-4.57602 -0.99291,-2.71971 -0.99291,-6.21648 z"
         style="font-style:normal;font-variant:normal;font-weight:600;font-stretch:normal;font-size:43.16999817px;line-height:89.99999762%;font-family:'Source Sans Pro';-inkscape-font-specification:'Source Sans Pro, Semi-Bold';text-align:end;letter-spacing:0px;writing-mode:lr-tb;text-anchor:end;fill:#d6aa34;fill-opacity:1"
         id="path4844" />
      <path
         d="m 236.64663,310.09506 q -1.33827,0 -2.20167,-0.77706 -0.8634,-0.77706 -0.8634,-2.02899 0,-1.25193 0.8634,-2.02899 0.8634,-0.82023 2.20167,-0.82023 1.33827,0 2.20167,0.82023 0.8634,0.77706 0.8634,2.02899 0,1.25193 -0.8634,2.02899 -0.8634,0.77706 -2.20167,0.77706 z m -2.50386,3.71262 4.96455,0 0,21.19647 -4.96455,0 0,-21.19647 z"
         style="font-style:normal;font-variant:normal;font-weight:600;font-stretch:normal;font-size:43.16999817px;line-height:89.99999762%;font-family:'Source Sans Pro';-inkscape-font-specification:'Source Sans Pro, Semi-Bold';text-align:end;letter-spacing:0px;writing-mode:lr-tb;text-anchor:end;fill:#d6aa34;fill-opacity:1"
         id="path4846" />
      <path
         d="m 246.17506,317.73615 -3.0219,0 0,-3.71262 3.28092,-0.21585 0.60438,-5.78478 4.14432,0 0,5.78478 5.39625,0 0,3.92847 -5.39625,0 0,10.10178 q 0,3.71262 2.97873,3.71262 0.56121,0 1.12242,-0.12951 0.60438,-0.12951 1.07925,-0.34536 l 0.8634,3.66945 q -0.8634,0.30219 -1.98582,0.51804 -1.07925,0.25902 -2.33118,0.25902 -1.85631,0 -3.15141,-0.56121 -1.25193,-0.56121 -2.07216,-1.55412 -0.77706,-1.03608 -1.16559,-2.41752 -0.34536,-1.42461 -0.34536,-3.15141 l 0,-10.10178 z"
         style="font-style:normal;font-variant:normal;font-weight:600;font-stretch:normal;font-size:43.16999817px;line-height:89.99999762%;font-family:'Source Sans Pro';-inkscape-font-specification:'Source Sans Pro, Semi-Bold';text-align:end;letter-spacing:0px;writing-mode:lr-tb;text-anchor:end;fill:#d6aa34;fill-opacity:1"
         id="path4848" />
      <path
         d="m 259.23668,324.4275 q 0,-2.5902 0.82023,-4.66236 0.82023,-2.07216 2.1585,-3.49677 1.38144,-1.42461 3.15141,-2.20167 1.76997,-0.77706 3.62628,-0.77706 2.1585,0 3.79896,0.73389 1.64046,0.73389 2.71971,2.07216 1.12242,1.33827 1.68363,3.19458 0.56121,1.85631 0.56121,4.05798 0,1.46778 -0.21585,2.33118 l -13.46904,0 q 0.34536,2.89239 1.98582,4.44651 1.68363,1.55412 4.27383,1.55412 1.38144,0 2.54703,-0.38853 1.20876,-0.4317 2.37435,-1.16559 l 1.68363,3.10824 q -1.51095,0.99291 -3.36726,1.64046 -1.85631,0.64755 -3.8853,0.64755 -2.20167,0 -4.10115,-0.73389 -1.89948,-0.77706 -3.32409,-2.20167 -1.42461,-1.42461 -2.24484,-3.4536 -0.77706,-2.07216 -0.77706,-4.70553 z m 14.20293,-1.89948 q 0,-2.54703 -1.07925,-3.97164 -1.03608,-1.42461 -3.23775,-1.42461 -1.89948,0 -3.32409,1.38144 -1.42461,1.33827 -1.76997,4.01481 l 9.41106,0 z m -3.92847,-12.26028 -3.71262,0 3.8853,-6.30282 4.92138,0 -5.09406,6.30282 z"
         style="font-style:normal;font-variant:normal;font-weight:600;font-stretch:normal;font-size:43.16999817px;line-height:89.99999762%;font-family:'Source Sans Pro';-inkscape-font-specification:'Source Sans Pro, Semi-Bold';text-align:end;letter-spacing:0px;writing-mode:lr-tb;text-anchor:end;fill:#d6aa34;fill-opacity:1"
         id="path4850" />
    </g>
    <path
       style="color:#000000;font-style:normal;font-variant:normal;font-weight:normal;font-stretch:normal;font-size:medium;line-height:normal;font-family:sans-serif;text-indent:0;text-align:start;text-decoration:none;text-decoration-line:none;text-decoration-style:solid;text-decoration-color:#000000;letter-spacing:normal;word-spacing:normal;text-transform:none;direction:ltr;block-progression:tb;writing-mode:lr-tb;baseline-shift:baseline;text-anchor:start;white-space:normal;clip-rule:nonzero;display:inline;overflow:visible;visibility:visible;opacity:1;isolation:auto;mix-blend-mode:normal;color-interpolation:sRGB;color-interpolation-filters:linearRGB;solid-color:#000000;solid-opacity:1;fill:#d6aa34;fill-opacity:1;fill-rule:evenodd;stroke:none;stroke-width:7.27017879;stroke-linecap:butt;stroke-linejoin:miter;stroke-miterlimit:4;stroke-dasharray:none;stroke-dashoffset:0;stroke-opacity:1;color-rendering:auto;image-rendering:auto;shape-rendering:auto;text-rendering:auto;enable-background:accumulate"
       d="m 311.49805,260.73438 c -9.72886,-0.89889 -19.54949,4.0465 -23.6836,13.75976 -4.21911,9.91307 -1.06223,17.21192 0.29297,24.04102 0.77407,3.90085 1.82089,7.493 -0.0371,14.77539 l -1.47851,5.78906 5.82226,-1.34961 c 4.07035,-0.94392 10.94021,-2.86474 17.89453,-5.93555 6.95433,-3.07081 14.05567,-7.18819 18.38086,-13.26953 8.4718,-11.9117 4.61355,-28.21645 -7.70703,-34.92383 -3.0086,-1.6379 -6.24142,-2.58709 -9.48437,-2.88671 z m -4.02539,7.17578 c 3.32196,-0.32042 6.82162,0.3473 10.0332,2.0957 8.58522,4.67383 11.35201,15.75747 5.25781,24.32617 -2.95781,4.15876 -9.04143,8.02757 -15.39258,10.83203 -4.00884,1.77018 -7.81218,3.01566 -11.21289,4.01367 0.51279,-5.44104 -0.38676,-9.37969 -0.91797,-12.05664 -1.5588,-7.8551 -3.99341,-12.12852 -0.73632,-19.78125 2.38966,-5.61461 7.43214,-8.89565 12.96875,-9.42968 z"
       id="path3340-6-6-0-6-2-3-0-4-5-7-2-0-3-5-1-1-4-3-1"
       inkscape:connector-curvature="0" />
    <path
       transform="matrix(0.96573176,-0.25954223,0.2580976,0.96611885,0,0)"
       style="fill:#d6aa34;fill-opacity:1;stroke:none;stroke-width:3.023;stroke-miterlimit:4;stroke-dasharray:none"
       d="m 234.56752,354.69785 a 8.9729748,8.9962482 0 0 1 -8.97298,8.99624 8.9729748,8.9962482 0 0 1 -8.97297,-8.99624 8.9729748,8.9962482 0 0 1 8.97297,-8.99625 8.9729748,8.9962482 0 0 1 8.97298,8.99625 z"
       id="path4158-7-2-6-1-9-6-3-6-3-0-6-2-6-3-7-5-4-8-1" />
  </g>
</svg>
