<?xml version="1.0" encoding="UTF-8" standalone="no"?>
<svg
   xmlns:dc="http://purl.org/dc/elements/1.1/"
   xmlns:cc="http://creativecommons.org/ns#"
   xmlns:rdf="http://www.w3.org/1999/02/22-rdf-syntax-ns#"
   xmlns:svg="http://www.w3.org/2000/svg"
   xmlns="http://www.w3.org/2000/svg"
   version="1.1"
   id="svg2"
   xml:space="preserve"
   width="315.2998"
   height="467.05103"
   viewBox="0 0 315.2998 467.05101"><metadata
     id="metadata8"><rdf:RDF><cc:Work
         rdf:about=""><dc:format>image/svg+xml</dc:format><dc:type
           rdf:resource="http://purl.org/dc/dcmitype/StillImage" /><dc:title></dc:title></cc:Work></rdf:RDF></metadata><defs
     id="defs6"><clipPath
       clipPathUnits="userSpaceOnUse"
       id="clipPath18"><path
         d="M 6.1e-5,595.276 H 841.89006 V 0 H 6.1e-5 Z"
         id="path16" /></clipPath><clipPath
       clipPathUnits="userSpaceOnUse"
       id="clipPath24"><path
         d="M 0,595.32 H 841.92 V 0.12 H 0 Z"
         id="path22" /></clipPath><clipPath
       clipPathUnits="userSpaceOnUse"
       id="clipPath34"><path
         d="m -0.98804,478.094 h 742.428 v -837.121 h -742.428 z"
         id="path32" /></clipPath><clipPath
       clipPathUnits="userSpaceOnUse"
       id="clipPath40"><path
         d="M 741.435,478.086 H -1 v -837.113 h 742.435 z"
         id="path38" /></clipPath><clipPath
       clipPathUnits="userSpaceOnUse"
       id="clipPath46"><path
         d="m -0.99997,478.085 h 742.435 v -837.112 h -742.435 z"
         id="path44" /></clipPath><clipPath
       clipPathUnits="userSpaceOnUse"
       id="clipPath52"><path
         d="M 6.1e-5,595.276 H 841.89006 V 0 H 6.1e-5 Z"
         clip-rule="evenodd"
         id="path50" /></clipPath><clipPath
       clipPathUnits="userSpaceOnUse"
       id="clipPath58"><path
         d="M 6.1e-5,595.276 H 841.89006 V 0 H 6.1e-5 Z"
         id="path56" /></clipPath><clipPath
       clipPathUnits="userSpaceOnUse"
       id="clipPath64"><path
         d="M 0,595.32 H 841.92 V 0.12 H 0 Z"
         id="path62" /></clipPath><clipPath
       clipPathUnits="userSpaceOnUse"
       id="clipPath412"><path
         d="m -0.98804,478.094 h 742.428 v -837.121 h -742.428 z"
         id="path410" /></clipPath><clipPath
       clipPathUnits="userSpaceOnUse"
       id="clipPath418"><path
         d="M 741.435,478.086 H -1 v -837.113 h 742.435 z"
         id="path416" /></clipPath><clipPath
       clipPathUnits="userSpaceOnUse"
       id="clipPath424"><path
         d="M 566.474,349.147 H 473.236 V 477.69 h 93.238 z"
         id="path422" /></clipPath><linearGradient
       x1="0"
       y1="0"
       x2="1"
       y2="0"
       gradientUnits="userSpaceOnUse"
       gradientTransform="matrix(131.032,-149.9,-149.9,-131.032,472.773,467.28)"
       spreadMethod="pad"
       id="linearGradient444"><stop
         style="stop-opacity:1;stop-color:#5fae54"
         offset="0"
         id="stop428" /><stop
         style="stop-opacity:1;stop-color:#f6ec37"
         offset="0.182796"
         id="stop430" /><stop
         style="stop-opacity:1;stop-color:#d25443"
         offset="0.370968"
         id="stop432" /><stop
         style="stop-opacity:1;stop-color:#cb2d8c"
         offset="0.516129"
         id="stop434" /><stop
         style="stop-opacity:1;stop-color:#543b91"
         offset="0.645161"
         id="stop436" /><stop
         style="stop-opacity:1;stop-color:#4263ab"
         offset="0.725807"
         id="stop438" /><stop
         style="stop-opacity:1;stop-color:#5eb3d4"
         offset="0.83871"
         id="stop440" /><stop
         style="stop-opacity:1;stop-color:#5fae54"
         offset="1"
         id="stop442" /></linearGradient><clipPath
       clipPathUnits="userSpaceOnUse"
       id="clipPath454"><path
         d="m -0.98804,478.094 h 742.428 v -837.121 h -742.428 z"
         id="path452" /></clipPath><clipPath
       clipPathUnits="userSpaceOnUse"
       id="clipPath460"><path
         d="M 741.435,478.086 H -1 v -837.113 h 742.435 z"
         id="path458" /></clipPath><clipPath
       clipPathUnits="userSpaceOnUse"
       id="clipPath466"><path
         d="m -0.99997,478.085 h 742.435 v -837.112 h -742.435 z"
         id="path464" /></clipPath><clipPath
       clipPathUnits="userSpaceOnUse"
       id="clipPath472"><path
         d="M 6.1e-5,595.276 H 841.89006 V 0 H 6.1e-5 Z"
         clip-rule="evenodd"
         id="path470" /></clipPath><clipPath
       clipPathUnits="userSpaceOnUse"
       id="clipPath478"><path
         d="M 6.1e-5,595.276 H 841.89006 V 0 H 6.1e-5 Z"
         id="path476" /></clipPath><clipPath
       clipPathUnits="userSpaceOnUse"
       id="clipPath484"><path
         d="M 0,595.32 H 841.92 V 0.12 H 0 Z"
         id="path482" /></clipPath><clipPath
       clipPathUnits="userSpaceOnUse"
       id="clipPath558"><path
         d="m -0.98804,478.094 h 742.428 v -837.121 h -742.428 z"
         id="path556" /></clipPath><clipPath
       clipPathUnits="userSpaceOnUse"
       id="clipPath564"><path
         d="M 741.435,478.086 H -1 v -837.113 h 742.435 z"
         id="path562" /></clipPath><clipPath
       clipPathUnits="userSpaceOnUse"
       id="clipPath570"><path
         d="m 563.828,201.26 h -89.969 v 89.969 h 89.969 z"
         id="path568" /></clipPath><linearGradient
       x1="0"
       y1="0"
       x2="1"
       y2="0"
       gradientUnits="userSpaceOnUse"
       gradientTransform="matrix(127.363,-121.597,-121.597,-127.363,475.846,287.297)"
       spreadMethod="pad"
       id="linearGradient590"><stop
         style="stop-opacity:1;stop-color:#5fae54"
         offset="0"
         id="stop574" /><stop
         style="stop-opacity:1;stop-color:#f6ec37"
         offset="0.182796"
         id="stop576" /><stop
         style="stop-opacity:1;stop-color:#d25443"
         offset="0.370968"
         id="stop578" /><stop
         style="stop-opacity:1;stop-color:#cb2d8c"
         offset="0.516129"
         id="stop580" /><stop
         style="stop-opacity:1;stop-color:#543b91"
         offset="0.645161"
         id="stop582" /><stop
         style="stop-opacity:1;stop-color:#4263ab"
         offset="0.725807"
         id="stop584" /><stop
         style="stop-opacity:1;stop-color:#5eb3d4"
         offset="0.83871"
         id="stop586" /><stop
         style="stop-opacity:1;stop-color:#5fae54"
         offset="1"
         id="stop588" /></linearGradient><clipPath
       clipPathUnits="userSpaceOnUse"
       id="clipPath600"><path
         d="m -0.98804,478.094 h 742.428 v -837.121 h -742.428 z"
         id="path598" /></clipPath><clipPath
       clipPathUnits="userSpaceOnUse"
       id="clipPath606"><path
         d="M 741.435,478.086 H -1 v -837.113 h 742.435 z"
         id="path604" /></clipPath><clipPath
       clipPathUnits="userSpaceOnUse"
       id="clipPath612"><path
         d="m -0.99997,478.085 h 742.435 v -837.112 h -742.435 z"
         id="path610" /></clipPath><clipPath
       clipPathUnits="userSpaceOnUse"
       id="clipPath618"><path
         d="M 6.1e-5,595.276 H 841.89006 V 0 H 6.1e-5 Z"
         clip-rule="evenodd"
         id="path616" /></clipPath><clipPath
       clipPathUnits="userSpaceOnUse"
       id="clipPath624"><path
         d="M 6.1e-5,595.276 H 841.89006 V 0 H 6.1e-5 Z"
         id="path622" /></clipPath><clipPath
       clipPathUnits="userSpaceOnUse"
       id="clipPath630"><path
         d="M 0,595.32 H 841.92 V 0.12 H 0 Z"
         id="path628" /></clipPath><clipPath
       clipPathUnits="userSpaceOnUse"
       id="clipPath908"><path
         d="M 6.1e-5,595.276 H 841.89006 V 0 H 6.1e-5 Z"
         id="path906" /></clipPath><clipPath
       clipPathUnits="userSpaceOnUse"
       id="clipPath914"><path
         d="M 0,595.32 H 841.92 V 0.12 H 0 Z"
         id="path912" /></clipPath></defs><g
     id="g10"
     transform="matrix(1.3333333,0,0,-1.3333333,-666.21808,568.71681)"><g
       id="g28"
       transform="matrix(2.6054393,0,0,2.6054393,-613.7995,-546.06987)"><g
         id="g36"
         clip-path="url(#clipPath40)"
         transform="translate(-10.627032,0.11438169)"><g
           id="g42"
           clip-path="url(#clipPath46)"><g
             id="g2346"
             transform="translate(-4.3030961,40.911585)"><path
               d="m 443.0851,242.30388 h 89.17499 v 89.175 H 443.0851 Z m 89.96799,-0.793 H 442.2911 v 90.762 h 90.76199 z"
               style="fill:#262526;fill-opacity:1;fill-rule:nonzero;stroke:none;stroke-width:0.999998"
               id="path338-5" /><path
               d="m 444.3691,225.13688 c 0.0841,-0.5237 0.1245,-1.0267 0.1245,-1.5084 v -5.1861 h -1.798 v 14.2579 h 1.798 v -4.4625 c 0,-0.5523 -0.0404,-1.0958 -0.1245,-1.633 h 1.7369 l 4.3387,6.0955 h 1.9837 l -4.153,-5.9106 c -0.1651,-0.2468 -0.4269,-0.5507 -0.7848,-0.9085 v -0.0413 c 0.3847,-0.3721 0.6808,-0.703 0.8879,-0.9926 l 4.3395,-6.40487 h -2.0456 l -4.5458,6.6945 h -1.7575"
               style="fill:#1e2223;fill-opacity:1;fill-rule:nonzero;stroke:none;stroke-width:0.999998"
               id="path342-4" /><path
               d="m 456.5391,218.44288 h -1.7345 v 10.063 h 1.7345 z m -1.735,0 z m 1.281,14.34 c 0.358,0 0.538,-0.179 0.538,-0.537 v -1.178 c 0,-0.358 -0.18,-0.537 -0.538,-0.537 h -0.827 c -0.358,0 -0.537,0.179 -0.537,0.537 v 1.178 c 0,0.358 0.179,0.537 0.537,0.537 h 0.827"
               style="fill:#1e2223;fill-opacity:1;fill-rule:nonzero;stroke:none;stroke-width:0.999998"
               id="path344-0" /><path
               d="m 461.4571,226.91488 c 1.625,1.2252 3.127,1.83851 4.5046,1.83851 1.8178,0 2.7279,-0.92271 2.7279,-2.7684 v -7.54281 h -1.7568 v 7.0468 c 0,0.66101 -0.1103,1.1228 -0.3301,1.3847 -0.2213,0.261 -0.5927,0.3919 -1.1172,0.3919 -0.5506,0 -1.1045,-0.12379 -1.6631,-0.3721 -0.557,-0.24759 -1.2982,-0.6546 -2.221,-1.2188 v -7.2325 h -1.7567 v 10.06281 h 1.4878 l 0.1246,-1.59011"
               style="fill:#1e2223;fill-opacity:1;fill-rule:nonzero;stroke:none;stroke-width:0.999998"
               id="path348-5" /><path
               d="m 474.37009,221.21188 c 0,-0.4816 0.1039,-0.8268 0.3094,-1.03309 0.2063,-0.20711 0.5578,-0.30951 1.0538,-0.30951 h 1.529 l 0.207,-1.34409 c -0.6339,-0.1785 -1.3909,-0.26901 -2.2732,-0.26901 -0.8395,0 -1.4807,0.23421 -1.921,0.703 -0.4412,0.4682 -0.6618,1.1442 -0.6618,2.025 v 6.1367 h -1.8178 v 1.2822 l 1.8178,0.0818 v 2.99599 h 1.7568 v -2.9754 h 3.2024 v -1.3846 h -3.2024 v -5.909"
               style="fill:#1e2223;fill-opacity:1;fill-rule:nonzero;stroke:none;stroke-width:0.999998"
               id="path352-9" /><path
               d="m 482.5321,230.57288 3.5746,3.0374 0.9919,-1.3433 -3.9468,-2.5003 z m 2.7891,-6.5922 c 0.7299,0 1.0949,0.4959 1.0949,1.4878 -0.0133,0.6475 -0.2062,1.1093 -0.5775,1.3846 -0.373,0.2754 -1.0063,0.4134 -1.9021,0.4134 -1.0608,0 -1.7972,-0.2309 -2.2106,-0.6918 -0.4133,-0.4619 -0.634,-1.326 -0.6618,-2.594 z m -4.2356,-1.3632 c 0.0961,-1.1576 0.3786,-1.9352 0.8466,-2.3356 0.4682,-0.399 1.2466,-0.599 2.3345,-0.599 1.1442,0 2.3089,0.083 3.4928,0.248 l 0.1856,-1.178 c -0.8949,-0.372 -2.1971,-0.557 -3.9054,-0.557 -1.7353,0 -2.9715,0.402 -3.7095,1.209 -0.7363,0.805 -1.1045,2.1716 -1.1045,4.1013 0,1.9417 0.358,3.3025 1.0743,4.0801 0.7167,0.7792 1.9012,1.168 3.5549,1.168 1.5004,0 2.5955,-0.2722 3.2841,-0.8156 0.6895,-0.5452 1.0339,-1.368 1.0339,-2.4702 0.027,-1.9004 -0.7712,-2.851 -2.3971,-2.851 h -4.6902"
               style="fill:#1e2223;fill-opacity:1;fill-rule:nonzero;stroke:none;stroke-width:0.999998"
               id="path356-4" /><path
               d="m 492.5111,223.17388 c -0.8268,0.1928 -1.41171,0.5031 -1.7568,0.9308 -0.3435,0.42681 -0.5157,1.0537 -0.5157,1.8805 0,1.1148 0.29199,1.8623 0.87769,2.2415 0.58541,0.37851 1.60101,0.5547 3.04761,0.5269 1.61149,-0.0278 3.02379,-0.1309 4.2363,-0.3102 l -0.14441,-1.2807 c -2.09389,0.069 -3.36899,0.1031 -3.82379,0.1031 -1.0187,0.0143 -1.6868,-0.0491 -2.00351,-0.1856 -0.31729,-0.1381 -0.4752,-0.5031 -0.4752,-1.095 0,-0.48319 0.10631,-0.8133 0.3198,-0.9927 0.21341,-0.1785 0.5958,-0.33 1.14731,-0.4554 l 2.93429,-0.661 c 0.8267,-0.2055 1.42181,-0.51249 1.7877,-0.9188 0.365,-0.4063 0.5466,-1.0228 0.5466,-1.84879 0,-1.1712 -0.3229,-1.94561 -0.9703,-2.32491 -0.6483,-0.37929 -1.7568,-0.5681 -3.3279,-0.5681 -1.40439,0 -2.7208,0.0968 -3.9459,0.28961 l 0.1238,1.2807 c 1.1704,-0.0691 2.32801,-0.0968 3.4714,-0.0825 1.17041,0 1.95681,0.0896 2.35581,0.26809 0.39909,0.1794 0.59829,0.55871 0.59829,1.13711 0,0.4539 -0.11979,0.76729 -0.3611,0.93949 -0.2403,0.173 -0.65059,0.32771 -1.22899,0.465 l -2.893,0.6609"
               style="fill:#1e2223;fill-opacity:1;fill-rule:nonzero;stroke:none;stroke-width:0.999998"
               id="path360-6" /><path
               d="m 506.91209,223.97988 c 0.73,0 1.0958,0.4959 1.0958,1.4878 -0.0142,0.6474 -0.2063,1.1092 -0.5785,1.3846 -0.372,0.2753 -1.0059,0.4134 -1.9019,0.4134 -1.06,0 -1.7964,-0.2309 -2.2106,-0.692 -0.4134,-0.4618 -0.634,-1.3258 -0.661,-2.5938 z m -4.2355,-1.3632 c 0.0968,-1.1577 0.3786,-1.9353 0.8465,-2.336 0.4691,-0.3991 1.2467,-0.599 2.3354,-0.599 1.1441,0 2.3073,0.0833 3.4928,0.2483 l 0.1856,-1.1783 c -0.8958,-0.3713 -2.1971,-0.557 -3.9062,-0.557 -1.7346,0 -2.9715,0.4023 -3.7087,1.2092 -0.7363,0.8046 -1.1054,2.1718 -1.1054,4.1015 0,1.9416 0.3587,3.3024 1.0744,4.08 0.7173,0.7792 1.9012,1.168 3.5548,1.168 1.5005,0 2.5955,-0.2721 3.285,-0.8157 0.6895,-0.5451 1.0331,-1.3679 1.0331,-2.47 0.0269,-1.9004 -0.7713,-2.851 -2.3964,-2.851 h -4.6909"
               style="fill:#1e2223;fill-opacity:1;fill-rule:nonzero;stroke:none;stroke-width:0.999998"
               id="path364-9" /><path
               d="m 514.01909,226.91488 c 1.6259,1.2252 3.1271,1.83851 4.5045,1.83851 1.8178,0 2.7279,-0.92271 2.7279,-2.7684 v -7.54281 h -1.7558 v 7.0468 c 0,0.66101 -0.1112,1.1228 -0.331,1.3847 -0.2206,0.261 -0.5927,0.3919 -1.1164,0.3919 -0.5514,0 -1.1053,-0.12379 -1.6631,-0.3721 -0.5579,-0.24759 -1.299,-0.6546 -2.2208,-1.2188 v -7.2325 h -1.7577 v 10.06281 h 1.4886 l 0.1238,-1.59011"
               style="fill:#1e2223;fill-opacity:1;fill-rule:nonzero;stroke:none;stroke-width:0.999998"
               id="path368-2" /><path
               d="m 526.1061,223.17388 c -0.82601,0.1928 -1.41161,0.5031 -1.75601,0.9308 -0.3451,0.42681 -0.51649,1.0537 -0.51649,1.8805 0,1.1148 0.2928,1.8623 0.87769,2.2415 0.5855,0.37851 1.602,0.5547 3.04841,0.5269 1.61149,-0.0278 3.02299,-0.1309 4.23559,-0.3102 l -0.1444,-1.2807 c -2.0939,0.069 -3.3683,0.1031 -3.82299,0.1031 -1.01871,0.0143 -1.6869,-0.0491 -2.0043,-0.1856 -0.31671,-0.1381 -0.47441,-0.5031 -0.47441,-1.095 0,-0.48319 0.1062,-0.8133 0.3197,-0.9927 0.2134,-0.1785 0.59511,-0.33 1.1458,-0.4554 l 2.9358,-0.661 c 0.82601,-0.2055 1.422,-0.51249 1.7869,-0.9188 0.365,-0.4063 0.5475,-1.0228 0.5475,-1.84879 0,-1.1712 -0.3238,-1.94561 -0.9713,-2.32491 -0.6474,-0.37929 -1.7567,-0.5681 -3.3269,-0.5681 -1.4053,0 -2.72089,0.0968 -3.9468,0.28961 l 0.1245,1.2807 c 1.1705,-0.0691 2.3274,-0.0968 3.47081,-0.0825 1.17109,0 1.95669,0.0896 2.35579,0.26809 0.399,0.1794 0.599,0.55871 0.599,1.13711 0,0.4539 -0.1206,0.76729 -0.3618,0.93949 -0.24039,0.173 -0.6507,0.32771 -1.2299,0.465 l -2.89219,0.6609"
               style="fill:#1e2223;fill-opacity:1;fill-rule:nonzero;stroke:none;stroke-width:0.999998"
               id="path372-2" /><path
               d="m 466.31209,203.88287 c 1.4053,-0.4134 2.4797,-0.61969 3.2239,-0.61969 0.9093,0 1.5425,0.2539 1.9012,0.76489 0.3585,0.5094 0.5371,1.48781 0.5371,2.93351 0,1.406 -0.1681,2.3899 -0.5062,2.9556 -0.3372,0.565 -0.9133,0.8467 -1.725,0.8467 -0.5237,0 -1.0442,-0.1198 -1.5608,-0.3618 -0.5158,-0.2412 -1.1402,-0.6372 -1.8702,-1.1879 z m -0.165,6.55011 c 0.5372,0.5792 1.1854,1.0339 1.9432,1.364 0.7577,0.3309 1.5013,0.4959 2.2305,0.4959 1.1989,0 2.0733,-0.4404 2.6248,-1.3219 0.5506,-0.8816 0.8267,-2.2186 0.8267,-4.0094 0,-1.9004 -0.3031,-3.2469 -0.9092,-4.03961 -0.6062,-0.79189 -1.5703,-1.18779 -2.893,-1.18779 -1.3227,0 -2.563,0.3443 -3.7198,1.0331 0.042,-0.46901 0.0618,-1.14341 0.0618,-2.0258 v -2.9136 h -1.7559 v 14.2174 h 1.4465 l 0.1444,-1.6123"
               style="fill:#1e2223;fill-opacity:1;fill-rule:nonzero;stroke:none;stroke-width:0.999998"
               id="path376-4" /><path
               d="m 482.6351,210.63988 h -0.57841 c -0.5094,0 -1.0363,-0.1 -1.5814,-0.29989 -0.5436,-0.1992 -1.2704,-0.52691 -2.1797,-0.98081 v -7.3769 h -1.7567 v 10.0628 h 1.364 l 0.1864,-1.59169 c 1.5561,1.22599 2.9899,1.8393 4.2975,1.8393 h 0.4546 l -0.20629,-1.65281"
               style="fill:#1e2223;fill-opacity:1;fill-rule:nonzero;stroke:none;stroke-width:0.999998"
               id="path380-7" /><path
               d="m 486.5401,209.99888 c -0.4127,-0.5372 -0.6205,-1.5354 -0.6205,-2.9954 0,-1.46 0.2078,-2.4597 0.6205,-2.9969 0.4134,-0.5372 1.1712,-0.8054 2.2733,-0.8054 1.1021,0 1.8638,0.2682 2.2836,0.8054 0.4197,0.5372 0.6301,1.5369 0.6301,2.9969 0,1.46 -0.2104,2.4582 -0.6301,2.9954 -0.4198,0.538 -1.1815,0.807 -2.2836,0.807 -1.1021,0 -1.8599,-0.269 -2.2733,-0.807 z m 5.9409,1.0949 c 0.7092,-0.7981 1.0647,-2.1621 1.0647,-4.0903 0,-1.929 -0.3555,-3.2937 -1.0647,-4.0911 -0.7095,-0.7998 -1.9314,-1.1989 -3.6676,-1.1989 -1.7218,0 -2.9415,0.3991 -3.6579,1.1989 -0.7165,0.7974 -1.0744,2.1621 -1.0744,4.0911 0,1.9282 0.3579,3.2922 1.0744,4.0903 0.7164,0.7999 1.9361,1.199 3.6579,1.199 1.7362,0 2.9581,-0.3991 3.6676,-1.199"
               style="fill:#1e2223;fill-opacity:1;fill-rule:nonzero;stroke:none;stroke-width:0.999998"
               id="path384-7" /><path
               d="m 503.13209,210.20588 c -1.3228,0.3721 -2.3486,0.5578 -3.0795,0.5578 -0.895,0 -1.5218,-0.2547 -1.8797,-0.7649 -0.3579,-0.5086 -0.5381,-1.4878 -0.5381,-2.9335 0,-1.4465 0.1763,-2.4415 0.5277,-2.9866 0.3508,-0.5435 0.9468,-0.8157 1.787,-0.8157 0.5237,0 0.9989,0.0992 1.4258,0.3 0.427,0.1999 1.0125,0.5609 1.7568,1.0846 z m 1.756,-8.2235 h -1.364 l -0.1651,1.4457 c -1.2806,-1.1299 -2.6105,-1.6941 -3.9872,-1.6941 -1.2402,0 -2.1391,0.4372 -2.6978,1.3124 -0.5577,0.8744 -0.8363,2.2074 -0.8363,3.9983 0,1.9147 0.3031,3.2683 0.9093,4.0602 0.6062,0.7919 1.5703,1.1878 2.893,1.1878 1.3084,0 2.5003,-0.3102 3.5738,-0.9299 -0.0547,0.607 -0.0817,1.268 -0.0817,1.9837 v 3.1001 h 1.756 v -14.4642"
               style="fill:#1e2223;fill-opacity:1;fill-rule:nonzero;stroke:none;stroke-width:0.999998"
               id="path388-5" /><path
               d="m 509.1641,204.42088 c 0.2483,0 0.4213,-0.0492 0.5174,-0.1452 0.0967,-0.0968 0.1443,-0.269 0.1443,-0.5166 v -1.1156 c 0,-0.2483 -0.0476,-0.4213 -0.1443,-0.5173 -0.0961,-0.096 -0.2691,-0.1436 -0.5174,-0.1436 h -0.5776 c -0.2349,0 -0.4032,0.0476 -0.5072,0.1436 -0.1031,0.096 -0.1546,0.269 -0.1546,0.5173 v 1.1156 c 0,0.2476 0.0515,0.4198 0.1546,0.5166 0.104,0.096 0.2723,0.1452 0.5072,0.1452 h 0.5776"
               style="fill:#1e2223;fill-opacity:1;fill-rule:nonzero;stroke:none;stroke-width:0.999998"
               id="path392-4" /><path
               d="m 459.4051,293.19188 c 0.1968,-0.0746 0.4015,-0.1103 0.6038,-0.1103 0.4856,0 0.9593,0.2063 1.2918,0.5864 l 20.7434,23.6999 c 0.443,0.507 0.549,1.227 0.27,1.84 -0.277,0.613 -0.889,1.006 -1.562,1.006 h -20.7432 c -0.9474,0 -1.7155,-0.768 -1.7155,-1.716 v -23.7 c 0,-0.7149 0.4428,-1.3553 1.1117,-1.606"
               style="fill:#343839;fill-opacity:1;fill-rule:nonzero;stroke:none;stroke-width:0.999998"
               id="path396-8" /><path
               d="m 516.83909,256.10988 -15.057,27.476 c -0.266,0.486 -0.75,0.814 -1.3,0.879 -0.554,0.067 -1.099,-0.137 -1.472,-0.546 l -25.101,-27.4765 c -0.459,-0.5015 -0.578,-1.2267 -0.303,-1.8496 0.274,-0.6229 0.89,-1.0236 1.57,-1.0236 h 40.1578 c 0.6062,0 1.1672,0.3198 1.4768,0.8419 0.3094,0.5213 0.3197,1.1672 0.0284,1.6988"
               style="fill:#343839;fill-opacity:1;fill-rule:nonzero;stroke:none;stroke-width:0.999998"
               id="path400-1" /><path
               d="m 489.0901,285.90588 27.536,31.462 c 0.443,0.507 0.549,1.227 0.27,1.839 -0.277,0.614 -0.888,1.007 -1.562,1.007 h -19.4297 c -0.4951,0 -0.9649,-0.212 -1.2917,-0.585 l -35.8956,-41.0142 c -0.273,-0.3134 -0.423,-0.7149 -0.423,-1.1299 v -22.2009 c 0,-0.947 0.782,-1.715 1.73,-1.715 0.495,0 0.965,0.213 1.292,0.586 l 27.655,31.5978 c 0.0428,0.0493 0.0833,0.1008 0.119,0.1532"
               style="fill:#343839;fill-opacity:1;fill-rule:nonzero;stroke:none;stroke-width:0.999998"
               id="path404-2" /></g></g></g></g></g></svg>
