<?xml version="1.0" encoding="UTF-8" standalone="no"?>
<svg version="1.1" viewBox="0 0 198.60451 106.54969" id="svg112" sodipodi:docname="urfist_lyon_logo.svg" width="198.60451" height="106.54969" inkscape:version="1.3.2 (091e20e, 2023-11-25)" xmlns:inkscape="http://www.inkscape.org/namespaces/inkscape" xmlns:sodipodi="http://sodipodi.sourceforge.net/DTD/sodipodi-0.dtd" xmlns="http://www.w3.org/2000/svg" xmlns:svg="http://www.w3.org/2000/svg">
  <defs id="defs116">
    <inkscape:path-effect effect="fillet_chamfer" id="path-effect5" is_visible="true" lpeversion="1" nodesatellites_param="F,0,0,1,0,0.28918129,0,1 @ F,0,0,1,0,0.25004701,0,1 @ F,0,0,1,0,0,0,1 @ F,0,0,1,0,0,0,1 @ F,0,0,1,0,0,0,1 @ F,0,0,1,0,0,0,1 @ F,0,0,1,0,0.30453941,0,1 @ F,0,0,1,0,0.25952726,0,1 @ F,0,0,1,0,0,0,1 @ F,0,0,1,0,0,0,1 @ F,0,0,1,0,0,0,1 @ F,0,0,1,0,0,0,1 @ F,0,0,1,0,0.28220343,0,1 @ F,0,0,1,0,0.22174065,0,1 @ F,0,0,1,0,0,0,1" radius="0" unit="px" method="auto" mode="F" chamfer_steps="1" flexible="false" use_knot_distance="true" apply_no_radius="true" apply_with_radius="true" only_selected="false" hide_knots="false" />
  </defs>
  <sodipodi:namedview id="namedview114" pagecolor="#ffffff" bordercolor="#000000" borderopacity="0.25" inkscape:showpageshadow="2" inkscape:pageopacity="0.0" inkscape:pagecheckerboard="0" inkscape:deskcolor="#d1d1d1" showgrid="false" inkscape:zoom="4.4549908" inkscape:cx="84.960894" inkscape:cy="107.40763" inkscape:window-width="1850" inkscape:window-height="1136" inkscape:window-x="0" inkscape:window-y="0" inkscape:window-maximized="1" inkscape:current-layer="svg112" />
  <path id="path4" style="fill:#f05726;fill-opacity:1;stroke-width:0.745998" d="M 198.1543 0.01953125 C 153.56611 11.157256 107.15739 16.781119 61.181641 14.587891 C 40.763722 13.618096 19.190169 10.91932 0.15234375 3.921875 C 0.08271744 3.9019817 0.03463218 3.9236281 0.009765625 3.9882812 C -0.01510092 4.0579076 0.0056594947 4.1040397 0.0703125 4.1289062 C 25.180547 14.132717 53.812103 18.586838 80.667969 20.09375 C 109.37391 21.705102 137.97276 20.591347 166.46484 16.751953 C 174.52658 15.667772 182.52176 14.202519 190.44922 12.357422 C 193.08507 11.745704 195.65556 10.904313 198.16211 9.8300781 A 0.61917816 0.61171818 78.8 0 0 198.53516 9.2617188 L 198.53516 0.31054688 C 198.53516 0.051934824 198.40794 -0.045121755 198.1543 0.01953125 z M 151.21289 32.203125 C 148.04149 32.194425 144.9849 32.575685 142.04102 33.34375 C 135.41657 35.074462 132.54639 39.407938 133.43164 46.345703 C 134.20747 52.462872 139.54256 54.522189 144.82422 54.537109 C 147.56948 54.544609 155.70809 53.745322 157.25977 56.498047 L 157.25781 56.498047 C 158.33204 58.407798 158.2105 60.131216 156.89258 61.667969 C 152.77467 66.457265 139.60928 63.87733 134.73047 62.273438 C 134.60147 62.228678 134.5383 62.271938 134.54297 62.40625 L 134.58008 68.546875 C 134.58008 68.681154 134.64698 68.765968 134.78125 68.800781 C 143.06181 71.01639 161.21155 73.410019 165.06836 62.496094 C 165.77457 60.501797 165.86506 58.337456 165.33789 56 C 163.1745 46.451248 151.76844 48.181564 144.63672 47.890625 C 139.22078 47.666826 140.11534 41.041391 144.45703 39.4375 C 148.81365 37.836095 155.33417 38.206399 164.01758 40.548828 A 0.15665953 0.16411951 8 0 0 164.21875 40.392578 L 164.21094 34.431641 A 0.28347916 0.27601918 8.3 0 0 164.00977 34.164062 C 159.55617 32.868827 155.2904 32.214315 151.21289 32.203125 z M 58.599609 32.546875 C 55.325929 32.540675 52.043749 32.560709 48.753906 32.605469 C 48.52016 32.610469 48.402344 32.726306 48.402344 32.955078 L 48.402344 69.867188 C 48.402344 70.115852 48.526725 70.240234 48.775391 70.240234 L 55.863281 70.240234 C 56.111947 70.240234 56.236328 70.115852 56.236328 69.867188 L 56.236328 39.302734 C 56.236328 39.07399 56.351305 38.958125 56.580078 38.953125 C 61.481274 38.848685 67.717823 38.318041 69.888672 39.757812 C 72.342999 41.376625 71.491049 45.585238 69.648438 47.099609 C 66.977771 49.307759 64.226097 49.837283 60.951172 50.568359 C 60.707481 50.623069 60.573694 50.777611 60.548828 51.03125 C 60.436928 52.485943 60.287312 53.56704 61.242188 54.820312 C 65.081582 59.858274 68.917532 64.913553 72.751953 69.986328 C 72.876286 70.155421 73.043074 70.240234 73.251953 70.240234 L 82.332031 70.240234 A 0.23125931 0.23125931 0 0 0 82.509766 69.859375 L 70.267578 54.507812 C 70.063672 54.254175 70.105194 54.047818 70.388672 53.888672 C 76.595362 50.300429 81.167704 47.129244 78.847656 38.953125 C 77.557083 34.380168 72.805322 32.717178 68.396484 32.642578 C 65.138967 32.585388 61.873289 32.553085 58.599609 32.546875 z M 4.9707031 32.566406 C 4.7319844 32.566406 4.6132812 32.689901 4.6132812 32.933594 C 4.5685213 39.712213 4.5195503 46.490912 4.4648438 53.269531 C 4.4051638 61.303911 6.7987008 68.038601 15.392578 69.888672 C 23.337438 71.589543 35.028211 71.015237 38.683594 62.369141 C 39.419643 60.628482 39.793674 57.86104 39.808594 54.066406 C 39.838434 47.029174 39.838434 39.986631 39.808594 32.939453 C 39.803594 32.690787 39.678353 32.566406 39.429688 32.566406 L 32.566406 32.566406 C 32.312768 32.566406 32.185547 32.693627 32.185547 32.947266 C 32.175647 39.596579 32.169922 46.241493 32.169922 52.880859 C 32.169922 56.27763 31.872188 58.602195 31.275391 59.855469 C 28.977721 64.696985 21.809201 65.166716 17.482422 63.652344 C 14.294531 62.538323 12.669055 60.128942 12.609375 56.423828 C 12.475096 48.605787 12.393121 40.773662 12.363281 32.925781 C 12.363281 32.687062 12.244578 32.566406 12.005859 32.566406 L 4.9707031 32.566406 z M 86.322266 32.566406 A 0.24617927 0.24617927 0 0 0 86.076172 32.8125 L 86.076172 69.994141 A 0.24617927 0.24617927 0 0 0 86.322266 70.240234 L 93.476562 70.240234 A 0.24617927 0.24617927 0 0 0 93.722656 69.994141 L 93.722656 54.634766 A 0.24617927 0.24617927 0 0 1 93.96875 54.388672 L 111.75391 54.380859 A 0.24617927 0.24617927 0 0 0 112 54.134766 L 112 48.292969 A 0.24617927 0.24617927 0 0 0 111.75391 48.046875 L 93.96875 48.046875 A 0.24617927 0.24617927 0 0 1 93.722656 47.800781 L 93.722656 38.960938 A 0.24617927 0.24617927 0 0 1 93.96875 38.714844 L 112.68555 38.722656 A 0.24617927 0.24617927 0 0 0 112.93164 38.474609 L 112.92383 32.8125 A 0.24617927 0.24617927 0 0 0 112.67773 32.566406 L 86.322266 32.566406 z M 119.49609 32.566406 C 119.37211 32.566406 119.27344 32.667031 119.27344 32.791016 L 119.27344 70.015625 C 119.27344 70.13961 119.37214 70.240234 119.49609 70.240234 L 126.6875 70.240234 C 126.81148 70.240234 126.91211 70.13961 126.91211 70.015625 L 126.91211 32.791016 C 126.91211 32.667031 126.81148 32.566406 126.6875 32.566406 L 119.49609 32.566406 z M 167.83008 32.566406 A 0.24617927 0.24617927 0 0 0 167.58398 32.8125 L 167.57617 38.662109 A 0.24617927 0.24617927 0 0 0 167.82227 38.908203 L 178.89258 38.908203 A 0.24617927 0.24617927 0 0 1 179.13867 39.154297 L 179.13867 69.994141 A 0.24617927 0.24617927 0 0 0 179.38477 70.240234 L 186.72461 70.240234 A 0.24617927 0.24617927 0 0 0 186.9707 69.994141 L 186.9707 39.154297 A 0.24617927 0.24617927 0 0 1 187.2168 38.908203 L 198.28906 38.908203 A 0.24617927 0.24617927 0 0 0 198.53516 38.662109 L 198.52734 32.8125 A 0.24617927 0.24617927 0 0 0 198.28125 32.566406 L 167.83008 32.566406 z M 143.20508 79.171875 C 143.0439 79.171875 142.91406 79.301711 142.91406 79.462891 L 142.91406 99.753906 C 142.91406 99.915086 143.0439 100.04492 143.20508 100.04492 L 144.48828 100.04492 C 144.64946 100.04492 144.7793 99.915086 144.7793 99.753906 L 144.7793 79.462891 C 144.7793 79.301711 144.64946 79.171875 144.48828 79.171875 L 143.20508 79.171875 z M 193.17578 84.201172 C 190.91317 84.17051 188.43013 84.898011 186.76562 85.808594 L 186.76367 85.808594 C 186.46029 85.972714 186.30486 85.882221 186.29492 85.539062 L 186.27148 84.636719 C 186.26154 84.393026 186.13627 84.271484 185.89258 84.271484 L 185.14648 84.263672 C 184.90279 84.263672 184.7793 84.388053 184.7793 84.636719 L 184.77344 99.167969 C 184.77344 99.406688 184.89214 99.531069 185.13086 99.541016 L 186.24219 99.580078 A 0.38045887 0.37299889 1.1 0 0 186.63867 99.207031 L 186.63867 88.007812 C 186.63867 87.798933 186.72437 87.637824 186.89844 87.523438 C 189.70339 85.658445 196.65637 83.815988 196.70117 89.634766 C 196.72637 92.842553 196.72518 96.013297 196.69531 99.146484 C 196.69034 99.400123 196.81472 99.531069 197.06836 99.541016 L 198.17969 99.585938 A 0.37299889 0.37299889 0 0 0 198.56641 99.212891 C 198.56641 95.980237 198.57865 92.672869 198.60352 89.291016 C 198.62869 85.531191 196.08485 84.240594 193.17578 84.201172 z M 174.94336 84.568359 L 172.54102 84.587891 A 6.5573205 6.5573205 0 0 0 166.04102 91.203125 L 166.0625 93.560547 A 6.5573205 6.5573205 0 0 0 172.67773 100.06055 L 175.07812 100.03906 A 6.5573205 6.5573205 0 0 0 181.57812 93.423828 L 181.55859 91.066406 A 6.5573205 6.5573205 0 0 0 174.94336 84.568359 z M 149.45508 84.751953 A 0.28901837 0.28901837 0 0 0 149.23438 84.767578 L 148.16211 85.304688 A 0.25017314 0.25017314 0 0 0 148.05078 85.640625 L 155.3457 100.22852 L 155.24414 100.44531 C 155.23024 100.46951 154.61983 101.52712 153.82812 102.6543 C 153.42778 103.22429 152.98441 103.8026 152.58008 104.24023 C 152.30614 104.53673 151.82138 104.88412 151.52344 105.08203 C 151.3849 105.17403 151.34532 105.35413 151.44141 105.49219 L 152.07812 106.40625 C 152.16002 106.5239 152.33892 106.58552 152.4707 106.5293 C 153.02447 106.29305 153.42596 105.88286 153.85547 105.41797 C 154.3455 104.88759 154.82068 104.2608 155.24805 103.65234 C 156.10279 102.43542 156.76367 101.28516 156.76367 101.28516 L 156.7832 101.25195 L 163.97461 85.761719 A 0.28243241 0.28243241 0 0 0 163.83789 85.386719 L 162.7207 84.867188 A 0.22155699 0.22155699 0 0 0 162.42578 84.974609 L 156.2793 98.214844 L 149.62109 84.896484 A 0.28901837 0.28901837 0 0 0 149.45508 84.751953 z M 174.35547 86.019531 C 177.29788 85.988721 179.69184 88.332985 179.72266 91.275391 L 179.74414 93.257812 C 179.77494 96.20022 177.43069 98.594186 174.48828 98.625 L 173.26562 98.638672 C 170.32323 98.669482 167.92925 96.32522 167.89844 93.382812 L 167.87695 91.398438 C 167.84615 88.456031 170.19041 86.062064 173.13281 86.03125 L 174.35547 86.019531 z " />
</svg>
