<svg xmlns="http://www.w3.org/2000/svg" xmlns:xlink="http://www.w3.org/1999/xlink" width="756" zoomAndPan="magnify" viewBox="0 0 567 567.000005" height="756" preserveAspectRatio="xMidYMid meet" version="1.0"><defs><g/></defs><path stroke-linecap="round" transform="matrix(0.305014, 0, 0, 0.305014, 13.608906, -26.485303)" fill="none" stroke-linejoin="round" d="M 1002.721425 1002.72293 C 1002.721425 1006.821101 1002.529324 1010.919271 1002.119507 1015.004635 C 1001.722496 1019.089999 1001.120577 1023.149749 1000.31375 1027.171079 C 999.51973 1031.205216 998.5208 1035.175318 997.32977 1039.107001 C 996.138739 1043.038683 994.755606 1046.893525 993.180372 1050.684333 C 991.617944 1054.47514 989.863415 1058.189108 987.929591 1061.80062 C 985.995767 1065.42494 983.882647 1068.946805 981.60304 1072.35341 C 979.323433 1075.772821 976.877337 1079.064164 974.27756 1082.240246 C 971.664976 1085.403522 968.911518 1088.451536 966.017185 1091.345869 C 963.110045 1094.253009 960.074838 1097.006467 956.898756 1099.606244 C 953.722673 1102.218828 950.43133 1104.652117 947.024726 1106.931724 C 943.605315 1109.224138 940.096256 1111.32445 936.471937 1113.258275 C 932.847617 1115.192099 929.146457 1116.946628 925.355649 1118.521863 C 921.552034 1120.097097 917.697193 1121.467423 913.76551 1122.658454 C 909.833828 1123.849484 905.863725 1124.848413 901.842395 1125.655241 C 897.808259 1126.449261 893.748508 1127.05118 889.663144 1127.460997 C 885.577781 1127.858007 881.492417 1128.062916 877.38144 1128.062916 C 873.283269 1128.062916 869.185098 1127.858007 865.099735 1127.460997 C 861.014371 1127.05118 856.954621 1126.449261 852.933291 1125.655241 C 848.899154 1124.848413 844.929051 1123.849484 840.997369 1122.658454 C 837.065686 1121.467423 833.210845 1120.097097 829.420037 1118.521863 C 825.629229 1116.946628 821.915262 1115.192099 818.290942 1113.258275 C 814.67943 1111.32445 811.157564 1109.224138 807.75096 1106.931724 C 804.331549 1104.652117 801.040206 1102.218828 797.864124 1099.606244 C 794.688041 1097.006467 791.652834 1094.253009 788.745694 1091.345869 C 785.851361 1088.451536 783.097903 1085.403522 780.485319 1082.240246 C 777.885542 1079.064164 775.439446 1075.772821 773.159839 1072.35341 C 770.880232 1068.946805 768.779919 1065.42494 766.833288 1061.80062 C 764.899464 1058.189108 763.144935 1054.47514 761.582507 1050.684333 C 760.007273 1046.893525 758.62414 1043.038683 757.433109 1039.107001 C 756.242079 1035.175318 755.243149 1031.205216 754.449129 1027.171079 C 753.642302 1023.149749 753.040383 1019.089999 752.643373 1015.004635 C 752.246362 1010.919271 752.041454 1006.821101 752.041454 1002.72293 C 752.041454 998.611953 752.246362 994.513782 752.643373 990.428418 C 753.040383 986.343055 753.642302 982.296111 754.449129 978.261974 C 755.243149 974.240645 756.242079 970.257735 757.433109 966.338859 C 758.62414 962.407177 760.007273 958.552335 761.582507 954.748721 C 763.144935 950.957913 764.899464 947.256753 766.833288 943.632433 C 768.779919 940.008113 770.880232 936.499055 773.159839 933.079644 C 775.439446 929.67304 777.885542 926.381696 780.485319 923.205614 C 783.097903 920.029532 785.851361 916.994324 788.745694 914.087185 C 791.652834 911.192852 794.688041 908.439393 797.864124 905.82681 C 801.040206 903.227033 804.331549 900.780937 807.75096 898.50133 C 811.157564 896.221722 814.67943 894.108603 818.290942 892.174779 C 821.915262 890.240955 825.629229 888.486425 829.420037 886.923998 C 833.210845 885.348763 837.065686 883.965631 840.997369 882.7746 C 844.929051 881.583569 848.899154 880.58464 852.933291 879.79062 C 856.954621 878.983792 861.014371 878.381873 865.099735 877.984863 C 869.185098 877.575046 873.283269 877.382944 877.38144 877.382944 C 881.492417 877.382944 885.577781 877.575046 889.663144 877.984863 C 893.748508 878.381873 897.808259 878.983792 901.842395 879.79062 C 905.863725 880.58464 909.833828 881.583569 913.76551 882.7746 C 917.697193 883.965631 921.552034 885.348763 925.355649 886.923998 C 929.146457 888.486425 932.847617 890.240955 936.471937 892.174779 C 940.096256 894.108603 943.605315 896.221722 947.024726 898.50133 C 950.43133 900.780937 953.722673 903.227033 956.898756 905.82681 C 960.074838 908.439393 963.110045 911.192852 966.017185 914.087185 C 968.911518 916.994324 971.664976 920.029532 974.27756 923.205614 C 976.877337 926.381696 979.323433 929.67304 981.60304 933.079644 C 983.882647 936.499055 985.995767 940.008113 987.929591 943.632433 C 989.863415 947.256753 991.617944 950.957913 993.180372 954.748721 C 994.755606 958.552335 996.138739 962.407177 997.32977 966.338859 C 998.5208 970.257735 999.51973 974.240645 1000.31375 978.261974 C 1001.120577 982.296111 1001.722496 986.343055 1002.119507 990.428418 C 1002.529324 994.513782 1002.721425 998.611953 1002.721425 1002.72293 Z M 1002.721425 1002.72293 " stroke="#3b8574" stroke-width="19.049999" stroke-opacity="1" stroke-miterlimit="1.5"/><path stroke-linecap="round" transform="matrix(0.305014, 0, 0, 0.305014, 15.758647, -63.928805)" fill="none" stroke-linejoin="round" d="M 501.357208 752.037021 C 502.894022 752.101054 501.357208 501.357049 501.357208 501.357049 L 626.697194 376.017063 L 626.697194 626.697035 " stroke="#3b8574" stroke-width="19.049999" stroke-opacity="1" stroke-miterlimit="1.5"/><path stroke-linecap="round" transform="matrix(0.305014, 0, 0, 0.305014, 15.758647, -63.928805)" fill="none" stroke-linejoin="round" d="M 626.697194 501.357049 L 877.389972 250.677077 L 1504.089901 877.389813 L 1504.089901 1002.716992 L 1378.749915 1002.716992 L 877.389972 501.357049 L 376.017222 1002.716992 L 250.677236 1002.716992 " stroke="#3b8574" stroke-width="19.049999" stroke-opacity="1" stroke-miterlimit="1.5"/><path stroke-linecap="round" transform="matrix(0.305014, 0, 0, 0.305014, 15.758647, -63.928805)" fill="none" stroke-linejoin="round" d="M 626.697194 626.697035 L 877.389972 376.017063 L 1504.089901 1002.716992 " stroke="#3b8574" stroke-width="19.049999" stroke-opacity="1" stroke-miterlimit="1.5"/><path stroke-linecap="round" transform="matrix(0.305014, 0, 0, 0.305014, 15.758647, -63.928805)" fill="none" stroke-linejoin="round" d="M 501.357208 752.037021 L 250.677236 1002.716992 L 250.677236 885.829483 L 376.017222 752.037021 L 501.357208 626.697035 " stroke="#3b8574" stroke-width="19.049999" stroke-opacity="1" stroke-miterlimit="1.5"/><path stroke-linecap="round" transform="matrix(0.305014, 0, 0, 0.305014, 15.758647, -63.928805)" fill="none" stroke-linejoin="round" d="M 501.357208 501.357049 C 502.625079 501.766866 501.357208 376.017063 501.357208 376.017063 C 501.357208 376.017063 627.119817 250.292874 626.697194 250.677077 C 626.287377 251.074088 626.697194 376.017063 626.697194 376.017063 C 626.697194 376.017063 500.102143 500.960039 501.357208 501.357049 Z M 501.357208 501.357049 " stroke="#3b8574" stroke-width="19.049999" stroke-opacity="1" stroke-miterlimit="1.5"/><path stroke-linecap="round" transform="matrix(0.305014, 0, 0, 0.305014, 13.608906, -26.485303)" fill="none" stroke-linejoin="round" d="M 877.38144 752.042959 C 877.38144 752.042959 624.806064 750.518951 626.701468 1002.72293 C 626.701468 1002.72293 627.418648 1026.415479 636.024806 1063.158139 C 641.826279 1087.875231 654.095177 1120.686209 669.09192 1146.44065 C 690.197498 1182.683846 787.669924 1301.594826 877.38144 1378.755694 " stroke="#3b8574" stroke-width="19.049999" stroke-opacity="1" stroke-miterlimit="1.5"/><path stroke-linecap="round" transform="matrix(-0.304899, 0, 0, 0.305014, 548.738563, -26.485303)" fill="none" stroke-linejoin="round" d="M 877.377769 752.042959 C 877.377769 752.042959 624.809874 750.518951 626.705991 1002.72293 C 626.705991 1002.72293 627.410629 1026.415479 636.032837 1063.158139 C 641.82368 1087.875231 654.097193 1120.686209 669.099578 1146.44065 C 690.200284 1182.683846 787.670942 1301.594826 877.377769 1378.755694 " stroke="#3b8574" stroke-width="19.059999" stroke-opacity="1" stroke-miterlimit="1.5"/><path stroke-linecap="round" transform="matrix(0.305014, 0, 0, 0.305014, 15.758647, -63.928805)" fill="none" stroke-linejoin="round" d="M 877.389972 252.85423 L 877.389972 501.357049 " stroke="#3b8574" stroke-width="19.17" stroke-opacity="1" stroke-miterlimit="1.5"/><path stroke-linecap="round" transform="matrix(0.305014, 0, 0, 0.305014, 11.046791, -89.947731)" fill="none" stroke-linejoin="round" d="M 761.261073 1200.054729 C 761.261073 1200.054729 805.918326 1270.87624 885.832652 1273.46321 C 885.832652 1273.46321 960.777947 1280.545361 1009.635824 1199.427197 " stroke="#3b8574" stroke-width="19.17" stroke-opacity="1" stroke-miterlimit="1.5"/><path stroke-linecap="round" transform="matrix(0.305014, 0, 0, 0.305014, 11.046791, -89.947731)" fill="none" stroke-linejoin="round" d="M 637.726844 1236.694936 C 637.726844 1236.694936 568.903192 860.495683 886.191242 856.84575 C 886.191242 856.84575 1178.262737 845.050703 1133.464609 1238.462272 " stroke="#3b8574" stroke-width="19.17" stroke-opacity="1" stroke-miterlimit="1.5"/><path stroke-linecap="round" transform="matrix(0.305014, 0, 0, 0.305014, 15.758647, -63.928805)" fill="none" stroke-linejoin="round" d="M 266.493613 972.121587 C 267.671837 959.199543 269.567241 893.744075 274.625921 888.685396 C 324.674829 838.636488 373.340604 784.566249 423.927397 733.979456 C 433.173895 724.732959 480.405311 661.697973 482.697725 661.697973 C 486.14275 661.697973 480.674253 668.383114 480.674253 671.828138 C 480.674253 678.769415 482.147033 687.670129 479.995494 694.124748 C 477.254842 702.333895 483.67104 741.791594 479.316734 746.1459 C 430.830253 794.619574 381.101515 849.765582 330.028064 900.839033 C 317.14444 913.722657 299.343012 925.914714 289.494596 940.693742 C 288.867063 941.628637 285.486073 945.470672 284.090133 944.074733 C 275.66327 935.647869 296.026055 902.964959 300.969473 896.792089 C 334.113428 855.362146 371.278712 814.751837 411.082194 779.917387 C 425.284916 767.494808 438.988174 749.603732 454.317894 739.383919 C 459.978492 735.618725 462.591075 728.703062 467.82905 725.194003 C 470.480054 723.426667 474.591031 715.25594 474.591031 718.444829 C 474.591031 722.286863 466.740473 720.03287 463.782106 722.491772 C 456.021196 728.959197 447.940116 735.631531 440.806737 742.76491 C 409.378892 774.192755 378.975589 807.272676 348.943683 840.045234 C 336.341808 853.786912 326.019541 869.334347 313.814677 883.280933 C 312.918202 884.292669 303.031365 898.149608 305.707983 899.494321 C 310.17755 901.722701 341.784691 866.37598 347.586164 860.984324 C 378.591385 832.194676 406.036321 799.960003 434.057563 768.429703 C 439.026595 762.845945 457.698884 740.549336 457.698884 733.979456 " stroke="#3b8574" stroke-width="36.84" stroke-opacity="1" stroke-miterlimit="1.5"/><path stroke-linecap="round" transform="matrix(0.305014, 0, 0, 0.305014, 15.758647, -63.928805)" fill="none" stroke-linejoin="round" d="M 517.801117 375.069361 C 517.147971 392.665881 523.589783 414.475833 518.876887 433.327417 C 516.494825 442.881277 518.492684 453.06267 514.420127 461.194977 C 513.715753 462.61653 512.755245 465.664545 512.755245 465.664545 C 512.755245 465.664545 513.305936 463.705107 513.869435 462.872666 C 516.482019 458.95379 519.18425 454.817199 522.232264 451.167266 C 528.878985 443.18864 536.02517 435.491764 543.978182 428.85785 C 569.655782 407.457715 590.825394 382.010638 613.659888 359.176143 C 616.964038 355.871993 615.337577 317.733393 615.337577 309.549859 C 615.337577 303.479444 613.85199 294.104879 616.451767 288.918131 C 617.207367 287.419738 617.002459 283.910679 617.002459 283.910679 C 617.002459 283.910679 612.942709 290.19881 610.317318 292.8242 C 604.144449 298.99707 598.624725 306.104834 591.913971 311.778239 C 574.291837 326.698142 511.397726 373.763069 526.125526 403.21867 C 526.753059 404.460928 527.700761 403.551647 528.366713 403.21867 C 539.393353 397.698947 548.729498 386.236876 556.797772 377.015992 C 566.91513 365.451467 577.788089 354.898678 588.5714 344.115366 C 590.40277 342.283997 599.726108 336.123934 599.726108 334.638347 " stroke="#3b8574" stroke-width="36.84" stroke-opacity="1" stroke-miterlimit="1.5"/><path stroke-linecap="round" transform="matrix(0.305014, 0, 0, 0.305014, 15.758647, -63.928805)" fill="none" stroke-linejoin="round" d="M 654.116516 503.418941 C 652.297953 503.995246 651.145342 536.076238 649.262745 541.724029 C 645.369483 553.403815 646.89349 566.492348 643.15391 577.736703 C 641.412187 582.961871 637.711027 593.360978 637.711027 593.360978 C 637.711027 593.360978 639.414329 590.120862 640.438872 588.609662 C 645.612812 580.823138 650.825173 572.101719 657.420666 565.506225 C 674.735437 548.191455 689.847441 529.006894 707.021337 511.820191 C 756.109736 462.731791 814.918484 412.759724 859.229954 368.448254 C 868.783814 358.894394 863.340931 330.296848 866.709115 316.798498 C 868.476451 309.741961 869.424153 300.969314 869.424153 293.695062 C 869.424153 293.10595 871.076228 282.822103 870.781672 282.822103 C 868.617326 282.822103 824.523572 329.09301 819.144723 334.471859 C 795.298493 358.318089 772.207863 382.753431 748.476894 406.497207 C 726.999919 427.974182 699.529369 445.263339 681.202862 469.685874 C 672.89126 480.763742 641.412187 507.273783 646.547707 522.693149 C 651.401478 537.241655 695.495232 487.000645 705.663818 478.522555 C 742.675421 447.683821 775.307104 410.159947 813.70184 381.357492 C 825.753023 372.32871 834.192693 358.868781 846.320716 350.774894 C 852.301484 346.791984 856.886312 340.209298 861.266232 335.829378 C 861.855344 335.253073 862.636558 333.793099 862.636558 333.793099 C 862.636558 333.793099 854.82442 343.628709 850.40608 348.059856 C 842.376227 356.089709 832.553425 364.670253 826.611077 374.55709 C 807.669845 406.138617 771.631558 434.595289 743.034011 457.455397 C 731.917723 466.356111 720.763015 476.806446 711.78546 488.037995 C 710.248646 489.959012 699.145165 502.304751 700.233742 502.304751 " stroke="#3b8574" stroke-width="36.669998" stroke-opacity="1" stroke-miterlimit="1.5"/><path stroke-linecap="round" transform="matrix(0.305014, 0, 0, 0.305014, 15.758647, -63.928805)" fill="none" stroke-linejoin="round" d="M 892.988634 367.859142 C 892.514783 367.321257 895.934194 371.509075 897.150838 372.712913 C 901.338656 376.913538 905.02701 380.204881 908.484841 384.815323 C 918.333257 397.955082 931.49863 410.095913 943.280871 421.878153 C 977.756731 456.354013 1017.419338 489.216219 1046.887746 528.520236 C 1075.049862 566.056917 1114.315459 595.179542 1147.485027 628.34911 C 1210.046162 690.897438 1275.744959 752.075441 1338.831172 815.161654 C 1373.166158 849.49664 1407.168167 885.009849 1440.926847 918.781336 C 1452.568213 930.409895 1464.030284 941.871966 1474.967276 952.808959 C 1477.310918 955.1526 1486.813551 968.189905 1487.069686 967.933769 C 1487.236175 967.767281 1487.184947 965.154697 1487.069686 964.911369 C 1483.855184 958.469557 1479.833854 948.019222 1482.536085 939.950948 C 1483.893604 935.878391 1485.148669 919.127119 1482.536085 916.501729 C 1478.69405 912.685307 1483.304492 892.335329 1481.024885 887.763307 C 1476.183921 878.094186 1447.291818 853.99182 1437.904446 846.166876 C 1404.043312 817.940726 1368.824658 779.597218 1344.133181 742.560001 C 1336.33385 730.854601 1321.465175 722.914396 1311.603952 713.053173 C 1287.56562 689.014841 1260.978738 664.720374 1240.513499 637.429119 C 1219.920192 609.971376 1182.780521 595.832688 1164.121038 567.849867 C 1116.889622 497.002743 1032.006264 445.890871 981.099301 378.014921 C 963.246646 354.219918 934.213668 342.104702 918.320451 318.258471 C 912.813534 309.998096 902.529687 301.90421 899.417639 292.542451 C 898.726073 290.506173 890.606572 279.108136 889.287473 280.440041 C 883.665296 286.049412 889.325894 366.924247 899.417639 371.957313 C 908.408001 376.452494 907.498719 332.691716 912.275649 346.996893 C 913.095283 349.481409 913.876497 352.196447 915.29805 354.565701 C 915.65664 355.180427 916.437854 355.462176 916.80925 356.076902 C 918.486939 358.881587 920.638478 362.211351 922.098452 365.156911 C 935.942584 392.832369 963.938212 416.819474 985.632902 438.514164 C 987.681988 440.56325 1009.504746 461.54076 1010.593323 460.452184 C 1011.182435 459.863072 996.364987 441.293236 995.468512 440.025365 C 978.601979 416.422464 960.582835 393.920946 946.303272 368.934912 C 938.683236 355.603051 960.83897 385.289174 964.46329 389.361731 C 970.405637 396.046872 975.349056 403.628487 981.099301 410.531343 C 989.334063 420.41818 998.029868 429.997654 1006.046915 440.025365 C 1060.719072 508.362359 1129.542724 564.468876 1185.303457 631.371511 C 1205.461334 655.563524 1226.182709 679.063971 1248.082308 700.96357 C 1255.433401 708.314663 1262.618006 715.499268 1270.00752 722.888782 C 1272.235901 725.117163 1275.155847 727.217475 1276.820729 729.701991 C 1277.627556 730.918635 1280.59873 733.441572 1280.59873 731.968791 C 1280.59873 726.525909 1234.41747 685.326488 1229.166689 679.78115 C 1182.165795 630.167673 1137.95678 579.465619 1098.332593 523.973828 C 1092.646382 516.033622 1062.025363 475.986812 1062.025363 468.763786 C 1062.025363 467.303813 1064.689174 470.082885 1065.803364 471.043393 C 1069.927149 474.578066 1073.679536 478.983599 1077.150174 483.132997 C 1086.127729 493.916308 1094.157582 505.391186 1102.866195 516.417826 C 1128.620635 549.036702 1152.24915 585.010956 1183.02385 613.224299 C 1231.523137 657.676643 1274.208145 708.301856 1318.404353 756.929212 C 1341.200427 781.992086 1367.134163 804.147821 1391.018813 828.019664 C 1414.468033 851.468884 1437.673924 891.899898 1464.376067 909.701327 C 1467.078298 911.494276 1468.563885 912.173036 1471.189275 913.479328 C 1476.811453 916.29682 1459.112479 895.447377 1455.308864 890.798515 C 1441.63122 874.085663 1426.54483 859.140147 1413.712433 841.633275 C 1381.413726 797.577941 1344.363703 751.883339 1305.55915 713.053173 C 1295.697927 703.204757 1286.553884 693.2795 1277.576329 682.803551 C 1277.384227 682.573029 1272.581684 676.75875 1272.274321 676.75875 C 1271.723629 676.75875 1279.061916 688.054332 1283.621131 694.905961 C 1291.676597 707.008371 1300.295562 718.252727 1309.337151 729.701991 C 1340.995519 769.787222 1376.982579 807.067767 1411.445632 844.655676 C 1413.225775 846.602307 1469.754916 910.546574 1453.042064 893.820916 " stroke="#3b8574" stroke-width="36.669998" stroke-opacity="1" stroke-miterlimit="1.5"/><path stroke-linecap="round" transform="matrix(0.305014, 0, 0, 0.305014, 15.758647, -63.928805)" fill="none" stroke-linejoin="round" d="M 634.099514 996.095885 C 636.468769 991.331762 639.235034 980.996688 639.235034 980.996688 C 639.235034 980.996688 638.889251 982.62315 638.633115 983.41717 C 636.955427 988.411815 635.213704 993.444881 633.177426 998.541981 C 632.20411 1000.97527 630.155025 1008.416011 630.155025 1005.803427 C 630.155025 997.683926 654.052482 944.56139 658.586083 933.201774 C 669.22852 906.602085 692.088628 882.999184 710.018124 860.600121 C 715.819597 853.338675 727.460963 839.776291 735.426782 835.793382 C 737.091664 834.960941 739.665827 832.169062 739.665827 832.169062 C 739.665827 832.169062 737.053243 832.604493 736.028701 833.3729 C 730.867567 837.240548 726.295545 841.274685 720.90389 844.873391 C 707.72571 853.646037 700.169708 866.209492 689.450431 876.928769 C 688.374661 878.004539 676.169797 890.286244 677.348021 891.451661 C 677.488895 891.592536 677.783451 891.566922 677.949939 891.451661 C 684.353331 887.187002 690.769529 877.40262 695.495232 871.485886 C 705.369262 859.152954 717.100275 849.278924 728.165336 838.213864 C 761.501392 804.877807 801.59943 801.368749 845.539503 794.043269 C 900.903226 784.822385 988.565656 810.026134 1027.639151 849.099629 C 1035.003051 856.46353 1052.010459 885.893517 1055.46829 896.292625 C 1056.877037 900.53167 1061.961329 918.076963 1066.968782 918.076963 L 1066.968782 916.860319 C 1066.968782 910.367279 1063.843927 905.103692 1061.525899 899.315026 C 1061.436251 899.084504 1060.027505 894.474062 1060.309254 894.474062 C 1061.116082 894.474062 1062.43518 898.713107 1062.729736 899.315026 C 1066.482124 906.819801 1070.47784 916.988386 1072.411664 924.723683 C 1073.116038 927.502755 1095.143704 971.839838 1097.218403 974.93908 C 1101.764811 981.752288 1101.816038 989.577233 1105.081768 996.121499 C 1105.722107 997.38937 1105.683687 1000.347737 1105.683687 1000.347737 C 1105.683687 1000.347737 1105.222643 997.005167 1104.479849 995.506773 C 1100.663428 987.873931 1096.15544 981.047915 1091.77552 973.735242 C 1085.589844 963.438588 1082.58025 950.593385 1075.434065 941.065138 C 1070.823623 934.905076 1065.227059 929.372546 1060.92398 922.917927 C 1034.644461 883.498649 966.422728 867.52859 924.185957 856.962994 C 892.297068 848.997175 828.42964 846.141262 797.744588 856.361075 C 776.395681 863.481647 756.13535 877.095257 734.824863 884.190215 C 715.563461 890.606413 696.852751 908.369421 681.587066 921.099364 C 679.06413 923.199676 668.805896 938.042738 666.462255 938.042738 C 665.424906 938.042738 670.586039 932.215651 674.927539 927.144165 C 680.332001 920.843228 686.274348 913.901952 692.472831 908.395035 C 712.131243 890.913776 731.251771 872.766564 751.768237 856.361075 C 765.637983 845.257594 779.687024 835.95987 796.527944 830.350499 C 815.430756 824.049562 841.492559 827.328098 861.266232 827.328098 C 895.332275 827.328098 927.541334 823.153087 960.493187 829.74858 C 983.788726 834.397442 1004.638169 852.326939 1023.412912 864.839166 C 1025.833394 866.45282 1038.883506 879.003468 1035.515322 882.371652 C 1032.288013 885.598961 1017.701087 872.612883 1014.332903 871.485886 C 1003.229422 867.784726 991.626477 867.221227 979.844237 866.043003 C 927.810277 860.843449 865.77422 835.95987 817.710363 859.998202 C 805.671987 866.004583 758.6839 859.319442 743.290147 860.600121 C 731.802462 861.560629 720.122676 864.762325 708.80148 866.644922 C 707.597642 866.849831 705.17716 867.246841 705.17716 867.246841 C 705.17716 867.246841 707.110984 866.043003 708.199561 866.043003 " stroke="#3b8574" stroke-width="36.669998" stroke-opacity="1" stroke-miterlimit="1.5"/><path stroke-linecap="round" transform="matrix(0.305014, 0, 0, 0.305014, 15.758647, -63.928805)" fill="none" stroke-linejoin="round" d="M 766.073414 1162.776167 C 765.317813 1162.225475 762.666809 1157.025921 762.052084 1157.653454 C 761.437358 1158.255372 774.103267 1187.877462 783.221696 1193.947877 C 789.573861 1198.174115 795.247265 1205.371527 800.766989 1210.891251 C 808.630354 1218.754616 839.123304 1224.684156 850.380467 1228.436544 C 880.10501 1238.348994 919.934105 1227.847432 942.333169 1205.448368 C 948.224289 1199.557248 949.684262 1189.619184 955.037498 1184.265949 C 958.738658 1180.577595 966.896579 1178.720612 969.56039 1173.380183 C 971.724736 1169.064297 973.031028 1161.444261 975.617998 1158.857291 C 976.155883 1158.319406 973.914696 1160.560593 973.197516 1161.277773 C 970.841068 1163.634221 969.9574 1165.452784 967.139908 1167.335382 C 960.160211 1171.984244 951.912643 1176.505038 945.970295 1182.460192 C 934.508224 1193.909456 913.14651 1200.453723 898.175381 1205.448368 C 894.179665 1206.780273 889.22344 1205.384334 885.471052 1207.254124 C 882.474265 1208.765325 874.943876 1207.254124 871.550079 1207.254124 C 859.703805 1207.254124 847.793496 1209.226369 836.459493 1205.448368 C 827.558779 1202.477194 819.98997 1195.574338 811.050836 1193.345958 C 804.480956 1191.70669 800.024196 1184.432437 794.107462 1182.460192 C 791.558912 1181.614945 787.102151 1177.260638 787.460741 1177.619228 " stroke="#3b8574" stroke-width="36.669998" stroke-opacity="1" stroke-miterlimit="1.5"/><g fill="#118169" fill-opacity="1"><g transform="translate(154.838648, 447.431464)"><g><path d="M 14.921875 -18.84375 C 13.234375 -18.84375 11.945312 -18.238281 11.0625 -17.03125 C 10.1875 -15.832031 9.75 -14.097656 9.75 -11.828125 C 9.75 -9.554688 10.1875 -7.816406 11.0625 -6.609375 C 11.945312 -5.398438 13.234375 -4.796875 14.921875 -4.796875 C 16.566406 -4.796875 17.828125 -5.398438 18.703125 -6.609375 C 19.578125 -7.816406 20.015625 -9.554688 20.015625 -11.828125 C 20.015625 -14.097656 19.578125 -15.832031 18.703125 -17.03125 C 17.828125 -18.238281 16.566406 -18.84375 14.921875 -18.84375 Z M 14.921875 -24.265625 C 18.992188 -24.265625 22.175781 -23.164062 24.46875 -20.96875 C 26.757812 -18.769531 27.90625 -15.722656 27.90625 -11.828125 C 27.90625 -7.929688 26.757812 -4.882812 24.46875 -2.6875 C 22.175781 -0.488281 18.992188 0.609375 14.921875 0.609375 C 10.828125 0.609375 7.625 -0.488281 5.3125 -2.6875 C 3.007812 -4.882812 1.859375 -7.929688 1.859375 -11.828125 C 1.859375 -15.722656 3.007812 -18.769531 5.3125 -20.96875 C 7.625 -23.164062 10.828125 -24.265625 14.921875 -24.265625 Z M 14.921875 -24.265625 "/></g></g></g><g fill="#118169" fill-opacity="1"><g transform="translate(184.602438, 447.431464)"><g><path d="M 3.390625 -9.21875 L 3.390625 -23.6875 L 11 -23.6875 L 11 -21.328125 C 11 -20.046875 10.988281 -18.429688 10.96875 -16.484375 C 10.957031 -14.546875 10.953125 -13.253906 10.953125 -12.609375 C 10.953125 -10.703125 11 -9.328125 11.09375 -8.484375 C 11.195312 -7.648438 11.367188 -7.046875 11.609375 -6.671875 C 11.921875 -6.171875 12.328125 -5.785156 12.828125 -5.515625 C 13.328125 -5.253906 13.90625 -5.125 14.5625 -5.125 C 16.132812 -5.125 17.375 -5.726562 18.28125 -6.9375 C 19.1875 -8.15625 19.640625 -9.84375 19.640625 -12 L 19.640625 -23.6875 L 27.203125 -23.6875 L 27.203125 0 L 19.640625 0 L 19.640625 -3.421875 C 18.492188 -2.046875 17.28125 -1.03125 16 -0.375 C 14.726562 0.28125 13.320312 0.609375 11.78125 0.609375 C 9.050781 0.609375 6.96875 -0.226562 5.53125 -1.90625 C 4.101562 -3.582031 3.390625 -6.019531 3.390625 -9.21875 Z M 3.390625 -9.21875 "/></g></g></g><g fill="#118169" fill-opacity="1"><g transform="translate(215.445082, 447.431464)"><g><path d="M 2.34375 -15.546875 L 15.640625 -15.546875 L 15.640625 -9.390625 L 2.34375 -9.390625 Z M 2.34375 -15.546875 "/></g></g></g><g fill="#118169" fill-opacity="1"><g transform="translate(233.426047, 447.431464)"><g><path d="M 0.65625 -23.6875 L 8.234375 -23.6875 L 14.125 -7.3125 L 20.015625 -23.6875 L 27.609375 -23.6875 L 18.28125 0 L 9.96875 0 Z M 0.65625 -23.6875 "/></g></g></g><g fill="#118169" fill-opacity="1"><g transform="translate(261.666745, 447.431464)"><g><path d="M 3.640625 -23.6875 L 11.21875 -23.6875 L 11.21875 0 L 3.640625 0 Z M 3.640625 -32.921875 L 11.21875 -32.921875 L 11.21875 -26.734375 L 3.640625 -26.734375 Z M 3.640625 -32.921875 "/></g></g></g><g fill="#118169" fill-opacity="1"><g transform="translate(276.516906, 447.431464)"><g><path d="M 0.65625 -23.6875 L 8.234375 -23.6875 L 14.125 -7.3125 L 20.015625 -23.6875 L 27.609375 -23.6875 L 18.28125 0 L 9.96875 0 Z M 0.65625 -23.6875 "/></g></g></g><g fill="#118169" fill-opacity="1"><g transform="translate(304.757604, 447.431464)"><g><path d="M 21.234375 -17.25 C 20.578125 -17.550781 19.921875 -17.773438 19.265625 -17.921875 C 18.609375 -18.078125 17.945312 -18.15625 17.28125 -18.15625 C 15.332031 -18.15625 13.832031 -17.53125 12.78125 -16.28125 C 11.738281 -15.03125 11.21875 -13.242188 11.21875 -10.921875 L 11.21875 0 L 3.640625 0 L 3.640625 -23.6875 L 11.21875 -23.6875 L 11.21875 -19.796875 C 12.1875 -21.347656 13.300781 -22.476562 14.5625 -23.1875 C 15.820312 -23.90625 17.335938 -24.265625 19.109375 -24.265625 C 19.359375 -24.265625 19.628906 -24.253906 19.921875 -24.234375 C 20.222656 -24.210938 20.65625 -24.164062 21.21875 -24.09375 Z M 21.234375 -17.25 "/></g></g></g><g fill="#118169" fill-opacity="1"><g transform="translate(326.123221, 447.431464)"><g><path d="M 27.296875 -11.90625 L 27.296875 -9.75 L 9.578125 -9.75 C 9.765625 -7.976562 10.40625 -6.644531 11.5 -5.75 C 12.601562 -4.863281 14.144531 -4.421875 16.125 -4.421875 C 17.71875 -4.421875 19.347656 -4.65625 21.015625 -5.125 C 22.691406 -5.601562 24.410156 -6.320312 26.171875 -7.28125 L 26.171875 -1.4375 C 24.378906 -0.757812 22.585938 -0.25 20.796875 0.09375 C 19.003906 0.4375 17.210938 0.609375 15.421875 0.609375 C 11.128906 0.609375 7.796875 -0.476562 5.421875 -2.65625 C 3.046875 -4.832031 1.859375 -7.890625 1.859375 -11.828125 C 1.859375 -15.691406 3.023438 -18.726562 5.359375 -20.9375 C 7.691406 -23.15625 10.90625 -24.265625 15 -24.265625 C 18.71875 -24.265625 21.695312 -23.140625 23.9375 -20.890625 C 26.175781 -18.648438 27.296875 -15.65625 27.296875 -11.90625 Z M 19.5 -14.421875 C 19.5 -15.867188 19.078125 -17.03125 18.234375 -17.90625 C 17.398438 -18.789062 16.304688 -19.234375 14.953125 -19.234375 C 13.484375 -19.234375 12.289062 -18.816406 11.375 -17.984375 C 10.457031 -17.160156 9.890625 -15.972656 9.671875 -14.421875 Z M 19.5 -14.421875 "/></g></g></g><g fill="#118169" fill-opacity="1"><g transform="translate(355.50625, 447.431464)"><g><path d="M 4.421875 -8.1875 L 12.03125 -8.1875 L 12.03125 0 L 4.421875 0 Z M 4.421875 -8.1875 "/></g></g></g><g fill="#118169" fill-opacity="1"><g transform="translate(371.964132, 447.431464)"><g><path d="M 19.234375 -32.921875 L 19.234375 -27.953125 L 15.046875 -27.953125 C 13.972656 -27.953125 13.222656 -27.753906 12.796875 -27.359375 C 12.378906 -26.972656 12.171875 -26.300781 12.171875 -25.34375 L 12.171875 -23.6875 L 18.640625 -23.6875 L 18.640625 -18.28125 L 12.171875 -18.28125 L 12.171875 0 L 4.59375 0 L 4.59375 -18.28125 L 0.828125 -18.28125 L 0.828125 -23.6875 L 4.59375 -23.6875 L 4.59375 -25.34375 C 4.59375 -27.925781 5.3125 -29.832031 6.75 -31.0625 C 8.1875 -32.300781 10.414062 -32.921875 13.4375 -32.921875 Z M 19.234375 -32.921875 "/></g></g></g><g fill="#118169" fill-opacity="1"><g transform="translate(390.812431, 447.431464)"><g><path d="M 21.234375 -17.25 C 20.578125 -17.550781 19.921875 -17.773438 19.265625 -17.921875 C 18.609375 -18.078125 17.945312 -18.15625 17.28125 -18.15625 C 15.332031 -18.15625 13.832031 -17.53125 12.78125 -16.28125 C 11.738281 -15.03125 11.21875 -13.242188 11.21875 -10.921875 L 11.21875 0 L 3.640625 0 L 3.640625 -23.6875 L 11.21875 -23.6875 L 11.21875 -19.796875 C 12.1875 -21.347656 13.300781 -22.476562 14.5625 -23.1875 C 15.820312 -23.90625 17.335938 -24.265625 19.109375 -24.265625 C 19.359375 -24.265625 19.628906 -24.253906 19.921875 -24.234375 C 20.222656 -24.210938 20.65625 -24.164062 21.21875 -24.09375 Z M 21.234375 -17.25 "/></g></g></g><g fill="#118169" fill-opacity="1"><g transform="translate(19.335443, 506.840329)"><g><path d="M 6.375 -1.765625 L 9.546875 -1.765625 L 9.21875 0 L -0.515625 0 L -0.1875 -1.765625 L 2.984375 -1.765625 L 7.140625 -23.140625 L 3.96875 -23.140625 L 4.328125 -24.9375 L 14.0625 -24.9375 L 13.703125 -23.140625 L 10.53125 -23.140625 Z M 6.375 -1.765625 "/></g></g></g><g fill="#118169" fill-opacity="1"><g transform="translate(32.844277, 506.840329)"><g><path d="M 2.40625 0 L 5.515625 -15.96875 L 2.578125 -15.96875 L 2.90625 -17.75 L 8.921875 -17.75 L 8.3125 -14.59375 C 9.113281 -15.800781 10.023438 -16.707031 11.046875 -17.3125 C 12.078125 -17.925781 13.191406 -18.234375 14.390625 -18.234375 C 16.347656 -18.234375 17.6875 -17.671875 18.40625 -16.546875 C 18.820312 -15.867188 19.03125 -14.960938 19.03125 -13.828125 C 19.03125 -13.078125 18.9375 -12.234375 18.75 -11.296875 L 16.90625 -1.765625 L 19.640625 -1.765625 L 19.3125 0 L 13.484375 0 L 15.484375 -10.328125 C 15.703125 -11.472656 15.8125 -12.425781 15.8125 -13.1875 C 15.8125 -13.875 15.722656 -14.410156 15.546875 -14.796875 C 15.171875 -15.597656 14.304688 -16 12.953125 -16 C 11.535156 -16 10.351562 -15.476562 9.40625 -14.4375 C 8.457031 -13.394531 7.785156 -11.878906 7.390625 -9.890625 L 5.484375 0 Z M 2.40625 0 "/></g></g></g><g fill="#118169" fill-opacity="1"><g transform="translate(54.869184, 506.840329)"><g><path d="M 1.1875 -5.125 L 2.953125 -5.125 C 2.910156 -4.800781 2.890625 -4.492188 2.890625 -4.203125 C 2.890625 -2.179688 4.265625 -1.171875 7.015625 -1.171875 C 9.773438 -1.171875 11.351562 -2.179688 11.75 -4.203125 C 11.789062 -4.410156 11.8125 -4.691406 11.8125 -5.046875 C 11.8125 -5.390625 11.617188 -5.769531 11.234375 -6.1875 C 10.859375 -6.601562 9.875 -7.082031 8.28125 -7.625 L 6.203125 -8.390625 C 4.773438 -8.878906 3.828125 -9.4375 3.359375 -10.0625 C 2.898438 -10.6875 2.671875 -11.363281 2.671875 -12.09375 C 2.671875 -12.382812 2.695312 -12.695312 2.75 -13.03125 C 3.070312 -14.65625 3.914062 -15.925781 5.28125 -16.84375 C 6.65625 -17.769531 8.335938 -18.234375 10.328125 -18.234375 C 12.296875 -18.234375 14.316406 -17.753906 16.390625 -16.796875 L 15.625 -12.921875 L 13.859375 -12.921875 C 13.898438 -13.179688 13.921875 -13.421875 13.921875 -13.640625 C 13.921875 -14.453125 13.640625 -15.144531 13.078125 -15.71875 C 12.515625 -16.289062 11.582031 -16.578125 10.28125 -16.578125 C 7.664062 -16.578125 6.179688 -15.664062 5.828125 -13.84375 C 5.785156 -13.65625 5.765625 -13.394531 5.765625 -13.0625 C 5.765625 -12.71875 5.941406 -12.347656 6.296875 -11.953125 C 6.660156 -11.566406 7.550781 -11.140625 8.96875 -10.671875 L 11.25 -9.921875 C 12.832031 -9.398438 13.921875 -8.742188 14.515625 -7.953125 C 14.921875 -7.390625 15.125 -6.835938 15.125 -6.296875 C 15.125 -3.953125 14.191406 -2.175781 12.328125 -0.96875 C 10.859375 0 9 0.484375 6.75 0.484375 C 4.5 0.484375 2.378906 -0.00390625 0.390625 -0.984375 Z M 1.1875 -5.125 "/></g></g></g><g fill="#118169" fill-opacity="1"><g transform="translate(72.418978, 506.840329)"><g><path d="M 4.578125 -15.96875 L 1.875 -15.96875 L 2.21875 -17.75 L 4.921875 -17.75 L 6 -23.265625 L 9.078125 -23.265625 L 8.015625 -17.75 L 13.796875 -17.75 L 13.4375 -15.96875 L 7.671875 -15.96875 L 5.484375 -4.6875 C 5.316406 -3.8125 5.234375 -3.117188 5.234375 -2.609375 C 5.234375 -2.253906 5.269531 -1.984375 5.34375 -1.796875 C 5.550781 -1.378906 6.046875 -1.171875 6.828125 -1.171875 C 7.628906 -1.171875 8.257812 -1.40625 8.71875 -1.875 C 9.1875 -2.351562 9.53125 -3.117188 9.75 -4.171875 L 12.078125 -4.171875 C 11.671875 -2.554688 11 -1.375 10.0625 -0.625 C 9.132812 0.113281 7.863281 0.484375 6.25 0.484375 C 4.476562 0.484375 3.296875 0.0859375 2.703125 -0.703125 C 2.347656 -1.179688 2.171875 -1.863281 2.171875 -2.75 C 2.171875 -3.320312 2.242188 -3.96875 2.390625 -4.6875 Z M 4.578125 -15.96875 "/></g></g></g><g fill="#118169" fill-opacity="1"><g transform="translate(86.161587, 506.840329)"><g><path d="M 12.421875 -2.765625 C 10.941406 -0.597656 9.003906 0.484375 6.609375 0.484375 C 4.648438 0.484375 3.175781 -0.175781 2.1875 -1.5 C 1.5 -2.4375 1.15625 -3.570312 1.15625 -4.90625 C 1.15625 -5.476562 1.21875 -6.082031 1.34375 -6.71875 C 2.09375 -10.644531 3.835938 -13.625 6.578125 -15.65625 C 8.910156 -17.375 11.484375 -18.234375 14.296875 -18.234375 C 16.191406 -18.234375 17.460938 -18.070312 18.109375 -17.75 L 15 -1.765625 L 17.640625 -1.765625 L 17.296875 0 L 11.890625 0 Z M 4.390625 -5.015625 C 4.390625 -2.628906 5.539062 -1.4375 7.84375 -1.4375 C 9.25 -1.4375 10.425781 -1.992188 11.375 -3.109375 C 12.332031 -4.234375 13.019531 -5.863281 13.4375 -8 L 15 -16.046875 C 15 -16.367188 14.550781 -16.53125 13.65625 -16.53125 C 11.519531 -16.53125 9.625 -15.695312 7.96875 -14.03125 C 6.320312 -12.34375 5.203125 -9.976562 4.609375 -6.9375 C 4.460938 -6.21875 4.390625 -5.578125 4.390625 -5.015625 Z M 4.390625 -5.015625 "/></g></g></g><g fill="#118169" fill-opacity="1"><g transform="translate(106.550072, 506.840329)"><g><path d="M 4.828125 -1.765625 L 7.734375 -1.765625 L 7.390625 0 L 1.421875 0 L 6.125 -24.21875 L 3.171875 -24.21875 L 3.5 -25.984375 L 9.53125 -25.984375 Z M 4.828125 -1.765625 "/></g></g></g><g fill="#118169" fill-opacity="1"><g transform="translate(117.487386, 506.840329)"><g><path d="M 4.828125 -1.765625 L 7.734375 -1.765625 L 7.390625 0 L 1.421875 0 L 6.125 -24.21875 L 3.171875 -24.21875 L 3.5 -25.984375 L 9.53125 -25.984375 Z M 4.828125 -1.765625 "/></g></g></g><g fill="#118169" fill-opacity="1"><g transform="translate(128.4247, 506.840329)"><g><path d="M 5.015625 -6.8125 C 4.960938 -6.382812 4.9375 -5.984375 4.9375 -5.609375 C 4.9375 -4.566406 5.128906 -3.695312 5.515625 -3 C 6.171875 -1.78125 7.378906 -1.171875 9.140625 -1.171875 C 10.429688 -1.171875 11.394531 -1.363281 12.03125 -1.75 C 13.164062 -2.457031 13.863281 -3.257812 14.125 -4.15625 L 16.390625 -4.15625 C 15.941406 -2.738281 14.890625 -1.535156 13.234375 -0.546875 C 12.066406 0.140625 10.335938 0.484375 8.046875 0.484375 C 5.753906 0.484375 3.988281 -0.367188 2.75 -2.078125 C 1.882812 -3.265625 1.453125 -4.722656 1.453125 -6.453125 C 1.453125 -7.203125 1.535156 -8.007812 1.703125 -8.875 C 2.242188 -11.6875 3.457031 -13.945312 5.34375 -15.65625 C 7.226562 -17.375 9.503906 -18.234375 12.171875 -18.234375 C 16.523438 -18.234375 18.703125 -16.691406 18.703125 -13.609375 C 18.703125 -11.347656 17.5625 -9.664062 15.28125 -8.5625 C 12.957031 -7.4375 9.535156 -6.851562 5.015625 -6.8125 Z M 13.578125 -10.5625 C 14.828125 -11.289062 15.453125 -12.347656 15.453125 -13.734375 C 15.453125 -15.628906 14.1875 -16.578125 11.65625 -16.578125 C 10.164062 -16.578125 8.898438 -16.007812 7.859375 -14.875 C 6.828125 -13.738281 5.992188 -11.640625 5.359375 -8.578125 C 8.929688 -8.742188 11.671875 -9.40625 13.578125 -10.5625 Z M 13.578125 -10.5625 "/></g></g></g><g fill="#118169" fill-opacity="1"><g transform="translate(148.662896, 506.840329)"><g><path d="M 13.625 -16.28125 C 14.832031 -16.28125 16.019531 -16.769531 17.1875 -17.75 L 18.1875 -17.75 L 17.921875 -16.3125 L 5.78125 -3.65625 C 5.882812 -3.625 6.097656 -3.554688 6.421875 -3.453125 C 6.804688 -3.328125 7.1875 -3.144531 7.5625 -2.90625 L 8.375 -2.40625 C 9.425781 -1.769531 10.332031 -1.453125 11.09375 -1.453125 C 12.550781 -1.453125 14.132812 -2.285156 15.84375 -3.953125 L 15.453125 -1.9375 C 13.546875 -0.0625 11.867188 0.875 10.421875 0.875 C 9.535156 0.84375 8.472656 0.445312 7.234375 -0.3125 C 6.003906 -1.082031 5 -1.46875 4.21875 -1.46875 C 3.019531 -1.46875 1.835938 -0.976562 0.671875 0 L -0.328125 0 L -0.0625 -1.4375 L 12.09375 -14.078125 C 11.96875 -14.117188 11.742188 -14.191406 11.421875 -14.296875 C 11.046875 -14.421875 10.664062 -14.601562 10.28125 -14.84375 L 9.46875 -15.34375 C 8.414062 -15.976562 7.515625 -16.296875 6.765625 -16.296875 C 5.304688 -16.296875 3.71875 -15.460938 2 -13.796875 L 2.40625 -15.8125 C 4.3125 -17.6875 5.988281 -18.625 7.4375 -18.625 C 8.3125 -18.601562 9.363281 -18.207031 10.59375 -17.4375 C 11.832031 -16.664062 12.84375 -16.28125 13.625 -16.28125 Z M 13.625 -16.28125 "/></g></g></g><g fill="#118169" fill-opacity="1"><g transform="translate(166.680239, 506.840329)"><g><path d="M 1.75 -10.46875 L 10.296875 -10.46875 L 9.796875 -7.859375 L 1.25 -7.859375 Z M 1.75 -10.46875 "/></g></g></g><g fill="#118169" fill-opacity="1"><g transform="translate(178.235381, 506.840329)"><g><path d="M 8.984375 0 L 6.734375 0 L 3.3125 -15.96875 L 1.28125 -15.96875 L 1.625 -17.75 L 6.21875 -17.75 L 9.21875 -3.75 C 10.5 -4.863281 11.566406 -6.128906 12.421875 -7.546875 C 14.203125 -10.484375 15.410156 -13.289062 16.046875 -15.96875 L 14.015625 -15.96875 L 14.359375 -17.75 L 18.953125 -17.75 C 17.742188 -13.164062 16.367188 -9.585938 14.828125 -7.015625 C 13.492188 -4.785156 11.546875 -2.445312 8.984375 0 Z M 8.984375 0 "/></g></g></g><g fill="#118169" fill-opacity="1"><g transform="translate(197.555182, 506.840329)"><g><path d="M 8.78125 -1.171875 C 10.425781 -1.171875 11.796875 -1.820312 12.890625 -3.125 C 13.992188 -4.425781 14.789062 -6.347656 15.28125 -8.890625 C 15.5 -10.046875 15.609375 -11.070312 15.609375 -11.96875 C 15.609375 -13.039062 15.453125 -13.925781 15.140625 -14.625 C 14.554688 -15.925781 13.4375 -16.578125 11.78125 -16.578125 C 10.132812 -16.578125 8.765625 -15.925781 7.671875 -14.625 C 6.578125 -13.332031 5.785156 -11.421875 5.296875 -8.890625 C 5.066406 -7.722656 4.953125 -6.695312 4.953125 -5.8125 C 4.953125 -4.726562 5.113281 -3.832031 5.4375 -3.125 C 6.03125 -1.820312 7.144531 -1.171875 8.78125 -1.171875 Z M 8.46875 0.484375 C 5.882812 0.484375 3.972656 -0.367188 2.734375 -2.078125 C 1.878906 -3.265625 1.453125 -4.71875 1.453125 -6.4375 C 1.453125 -7.195312 1.535156 -8.015625 1.703125 -8.890625 C 2.242188 -11.710938 3.460938 -13.972656 5.359375 -15.671875 C 7.265625 -17.378906 9.515625 -18.234375 12.109375 -18.234375 C 14.703125 -18.234375 16.617188 -17.382812 17.859375 -15.6875 C 18.703125 -14.5 19.125 -13.050781 19.125 -11.34375 C 19.125 -10.570312 19.039062 -9.753906 18.875 -8.890625 C 18.320312 -6.054688 17.097656 -3.785156 15.203125 -2.078125 C 13.304688 -0.367188 11.0625 0.484375 8.46875 0.484375 Z M 8.46875 0.484375 "/></g></g></g><g fill="#118169" fill-opacity="1"><g transform="translate(218.144046, 506.840329)"><g><path d="M 16.546875 -17.75 L 19.625 -17.75 L 16.515625 -1.765625 L 19.421875 -1.765625 L 19.09375 0 L 13.109375 0 L 13.71875 -3.140625 C 12.914062 -1.960938 12.003906 -1.0625 10.984375 -0.4375 C 9.960938 0.175781 8.859375 0.484375 7.671875 0.484375 C 5.691406 0.484375 4.347656 -0.078125 3.640625 -1.203125 C 3.203125 -1.867188 2.984375 -2.773438 2.984375 -3.921875 C 2.984375 -4.671875 3.078125 -5.519531 3.265625 -6.46875 L 5.109375 -15.96875 L 2.34375 -15.96875 L 2.6875 -17.75 L 8.546875 -17.75 L 6.546875 -7.421875 C 6.328125 -6.265625 6.21875 -5.3125 6.21875 -4.5625 C 6.21875 -3.882812 6.304688 -3.351562 6.484375 -2.96875 C 6.847656 -2.164062 7.707031 -1.765625 9.0625 -1.765625 C 10.488281 -1.765625 11.675781 -2.285156 12.625 -3.328125 C 13.582031 -4.378906 14.25 -5.90625 14.625 -7.90625 Z M 16.546875 -17.75 "/></g></g></g><g fill="#118169" fill-opacity="1"><g transform="translate(240.168964, 506.840329)"><g><path d="M 1.1875 -5.125 L 2.953125 -5.125 C 2.910156 -4.800781 2.890625 -4.492188 2.890625 -4.203125 C 2.890625 -2.179688 4.265625 -1.171875 7.015625 -1.171875 C 9.773438 -1.171875 11.351562 -2.179688 11.75 -4.203125 C 11.789062 -4.410156 11.8125 -4.691406 11.8125 -5.046875 C 11.8125 -5.390625 11.617188 -5.769531 11.234375 -6.1875 C 10.859375 -6.601562 9.875 -7.082031 8.28125 -7.625 L 6.203125 -8.390625 C 4.773438 -8.878906 3.828125 -9.4375 3.359375 -10.0625 C 2.898438 -10.6875 2.671875 -11.363281 2.671875 -12.09375 C 2.671875 -12.382812 2.695312 -12.695312 2.75 -13.03125 C 3.070312 -14.65625 3.914062 -15.925781 5.28125 -16.84375 C 6.65625 -17.769531 8.335938 -18.234375 10.328125 -18.234375 C 12.296875 -18.234375 14.316406 -17.753906 16.390625 -16.796875 L 15.625 -12.921875 L 13.859375 -12.921875 C 13.898438 -13.179688 13.921875 -13.421875 13.921875 -13.640625 C 13.921875 -14.453125 13.640625 -15.144531 13.078125 -15.71875 C 12.515625 -16.289062 11.582031 -16.578125 10.28125 -16.578125 C 7.664062 -16.578125 6.179688 -15.664062 5.828125 -13.84375 C 5.785156 -13.65625 5.765625 -13.394531 5.765625 -13.0625 C 5.765625 -12.71875 5.941406 -12.347656 6.296875 -11.953125 C 6.660156 -11.566406 7.550781 -11.140625 8.96875 -10.671875 L 11.25 -9.921875 C 12.832031 -9.398438 13.921875 -8.742188 14.515625 -7.953125 C 14.921875 -7.390625 15.125 -6.835938 15.125 -6.296875 C 15.125 -3.953125 14.191406 -2.175781 12.328125 -0.96875 C 10.859375 0 9 0.484375 6.75 0.484375 C 4.5 0.484375 2.378906 -0.00390625 0.390625 -0.984375 Z M 1.1875 -5.125 "/></g></g></g><g fill="#118169" fill-opacity="1"><g transform="translate(257.718746, 506.840329)"><g/></g></g><g fill="#118169" fill-opacity="1"><g transform="translate(268.589257, 506.840329)"><g><path d="M 12.421875 -2.765625 C 10.941406 -0.597656 9.003906 0.484375 6.609375 0.484375 C 4.648438 0.484375 3.175781 -0.175781 2.1875 -1.5 C 1.5 -2.4375 1.15625 -3.570312 1.15625 -4.90625 C 1.15625 -5.476562 1.21875 -6.082031 1.34375 -6.71875 C 2.09375 -10.644531 3.835938 -13.625 6.578125 -15.65625 C 8.910156 -17.375 11.484375 -18.234375 14.296875 -18.234375 C 16.191406 -18.234375 17.460938 -18.070312 18.109375 -17.75 L 15 -1.765625 L 17.640625 -1.765625 L 17.296875 0 L 11.890625 0 Z M 4.390625 -5.015625 C 4.390625 -2.628906 5.539062 -1.4375 7.84375 -1.4375 C 9.25 -1.4375 10.425781 -1.992188 11.375 -3.109375 C 12.332031 -4.234375 13.019531 -5.863281 13.4375 -8 L 15 -16.046875 C 15 -16.367188 14.550781 -16.53125 13.65625 -16.53125 C 11.519531 -16.53125 9.625 -15.695312 7.96875 -14.03125 C 6.320312 -12.34375 5.203125 -9.976562 4.609375 -6.9375 C 4.460938 -6.21875 4.390625 -5.578125 4.390625 -5.015625 Z M 4.390625 -5.015625 "/></g></g></g><g fill="#118169" fill-opacity="1"><g transform="translate(288.977741, 506.840329)"><g><path d="M 16.546875 -17.75 L 19.625 -17.75 L 16.515625 -1.765625 L 19.421875 -1.765625 L 19.09375 0 L 13.109375 0 L 13.71875 -3.140625 C 12.914062 -1.960938 12.003906 -1.0625 10.984375 -0.4375 C 9.960938 0.175781 8.859375 0.484375 7.671875 0.484375 C 5.691406 0.484375 4.347656 -0.078125 3.640625 -1.203125 C 3.203125 -1.867188 2.984375 -2.773438 2.984375 -3.921875 C 2.984375 -4.671875 3.078125 -5.519531 3.265625 -6.46875 L 5.109375 -15.96875 L 2.34375 -15.96875 L 2.6875 -17.75 L 8.546875 -17.75 L 6.546875 -7.421875 C 6.328125 -6.265625 6.21875 -5.3125 6.21875 -4.5625 C 6.21875 -3.882812 6.304688 -3.351562 6.484375 -2.96875 C 6.847656 -2.164062 7.707031 -1.765625 9.0625 -1.765625 C 10.488281 -1.765625 11.675781 -2.285156 12.625 -3.328125 C 13.582031 -4.378906 14.25 -5.90625 14.625 -7.90625 Z M 16.546875 -17.75 "/></g></g></g><g fill="#118169" fill-opacity="1"><g transform="translate(311.00266, 506.840329)"><g/></g></g><g fill="#118169" fill-opacity="1"><g transform="translate(321.87317, 506.840329)"><g><path d="M 6.15625 -24.21875 L 3.203125 -24.21875 L 3.5625 -25.984375 L 9.59375 -25.984375 L 7.453125 -14.984375 C 8.265625 -16.097656 9.1875 -16.914062 10.21875 -17.4375 C 11.257812 -17.96875 12.460938 -18.234375 13.828125 -18.234375 C 16.015625 -18.234375 17.628906 -17.375 18.671875 -15.65625 C 19.359375 -14.507812 19.703125 -13.144531 19.703125 -11.5625 C 19.703125 -10.71875 19.609375 -9.828125 19.421875 -8.890625 C 18.878906 -6.097656 17.75 -3.835938 16.03125 -2.109375 C 14.3125 -0.378906 12.363281 0.484375 10.1875 0.484375 C 8.820312 0.484375 7.722656 0.21875 6.890625 -0.3125 C 6.054688 -0.84375 5.453125 -1.660156 5.078125 -2.765625 L 4.546875 0 L 1.46875 0 Z M 6.09375 -8 C 5.914062 -7.125 5.828125 -6.332031 5.828125 -5.625 C 5.828125 -4.613281 6.003906 -3.773438 6.359375 -3.109375 C 6.960938 -1.992188 8.046875 -1.4375 9.609375 -1.4375 C 11.171875 -1.4375 12.476562 -2.0625 13.53125 -3.3125 C 14.582031 -4.570312 15.347656 -6.429688 15.828125 -8.890625 C 16.054688 -10.015625 16.171875 -11.015625 16.171875 -11.890625 C 16.171875 -12.910156 16.015625 -13.765625 15.703125 -14.453125 C 15.140625 -15.691406 14.066406 -16.3125 12.484375 -16.3125 C 10.929688 -16.3125 9.632812 -15.75 8.59375 -14.625 C 7.5625 -13.5 6.84375 -11.875 6.4375 -9.75 Z M 6.09375 -8 "/></g></g></g><g fill="#118169" fill-opacity="1"><g transform="translate(343.764503, 506.840329)"><g><path d="M 8.78125 -1.171875 C 10.425781 -1.171875 11.796875 -1.820312 12.890625 -3.125 C 13.992188 -4.425781 14.789062 -6.347656 15.28125 -8.890625 C 15.5 -10.046875 15.609375 -11.070312 15.609375 -11.96875 C 15.609375 -13.039062 15.453125 -13.925781 15.140625 -14.625 C 14.554688 -15.925781 13.4375 -16.578125 11.78125 -16.578125 C 10.132812 -16.578125 8.765625 -15.925781 7.671875 -14.625 C 6.578125 -13.332031 5.785156 -11.421875 5.296875 -8.890625 C 5.066406 -7.722656 4.953125 -6.695312 4.953125 -5.8125 C 4.953125 -4.726562 5.113281 -3.832031 5.4375 -3.125 C 6.03125 -1.820312 7.144531 -1.171875 8.78125 -1.171875 Z M 8.46875 0.484375 C 5.882812 0.484375 3.972656 -0.367188 2.734375 -2.078125 C 1.878906 -3.265625 1.453125 -4.71875 1.453125 -6.4375 C 1.453125 -7.195312 1.535156 -8.015625 1.703125 -8.890625 C 2.242188 -11.710938 3.460938 -13.972656 5.359375 -15.671875 C 7.265625 -17.378906 9.515625 -18.234375 12.109375 -18.234375 C 14.703125 -18.234375 16.617188 -17.382812 17.859375 -15.6875 C 18.703125 -14.5 19.125 -13.050781 19.125 -11.34375 C 19.125 -10.570312 19.039062 -9.753906 18.875 -8.890625 C 18.320312 -6.054688 17.097656 -3.785156 15.203125 -2.078125 C 13.304688 -0.367188 11.0625 0.484375 8.46875 0.484375 Z M 8.46875 0.484375 "/></g></g></g><g fill="#118169" fill-opacity="1"><g transform="translate(364.353366, 506.840329)"><g><path d="M 2.40625 0 L 5.515625 -15.96875 L 2.578125 -15.96875 L 2.90625 -17.75 L 8.921875 -17.75 L 8.3125 -14.59375 C 9.113281 -15.800781 10.023438 -16.707031 11.046875 -17.3125 C 12.078125 -17.925781 13.191406 -18.234375 14.390625 -18.234375 C 16.347656 -18.234375 17.6875 -17.671875 18.40625 -16.546875 C 18.820312 -15.867188 19.03125 -14.960938 19.03125 -13.828125 C 19.03125 -13.078125 18.9375 -12.234375 18.75 -11.296875 L 16.90625 -1.765625 L 19.640625 -1.765625 L 19.3125 0 L 13.484375 0 L 15.484375 -10.328125 C 15.703125 -11.472656 15.8125 -12.425781 15.8125 -13.1875 C 15.8125 -13.875 15.722656 -14.410156 15.546875 -14.796875 C 15.171875 -15.597656 14.304688 -16 12.953125 -16 C 11.535156 -16 10.351562 -15.476562 9.40625 -14.4375 C 8.457031 -13.394531 7.785156 -11.878906 7.390625 -9.890625 L 5.484375 0 Z M 2.40625 0 "/></g></g></g><g fill="#118169" fill-opacity="1"><g transform="translate(386.378261, 506.840329)"><g/></g></g><g fill="#118169" fill-opacity="1"><g transform="translate(397.248771, 506.840329)"><g><path d="M 5.015625 -6.8125 C 4.960938 -6.382812 4.9375 -5.984375 4.9375 -5.609375 C 4.9375 -4.566406 5.128906 -3.695312 5.515625 -3 C 6.171875 -1.78125 7.378906 -1.171875 9.140625 -1.171875 C 10.429688 -1.171875 11.394531 -1.363281 12.03125 -1.75 C 13.164062 -2.457031 13.863281 -3.257812 14.125 -4.15625 L 16.390625 -4.15625 C 15.941406 -2.738281 14.890625 -1.535156 13.234375 -0.546875 C 12.066406 0.140625 10.335938 0.484375 8.046875 0.484375 C 5.753906 0.484375 3.988281 -0.367188 2.75 -2.078125 C 1.882812 -3.265625 1.453125 -4.722656 1.453125 -6.453125 C 1.453125 -7.203125 1.535156 -8.007812 1.703125 -8.875 C 2.242188 -11.6875 3.457031 -13.945312 5.34375 -15.65625 C 7.226562 -17.375 9.503906 -18.234375 12.171875 -18.234375 C 16.523438 -18.234375 18.703125 -16.691406 18.703125 -13.609375 C 18.703125 -11.347656 17.5625 -9.664062 15.28125 -8.5625 C 12.957031 -7.4375 9.535156 -6.851562 5.015625 -6.8125 Z M 13.578125 -10.5625 C 14.828125 -11.289062 15.453125 -12.347656 15.453125 -13.734375 C 15.453125 -15.628906 14.1875 -16.578125 11.65625 -16.578125 C 10.164062 -16.578125 8.898438 -16.007812 7.859375 -14.875 C 6.828125 -13.738281 5.992188 -11.640625 5.359375 -8.578125 C 8.929688 -8.742188 11.671875 -9.40625 13.578125 -10.5625 Z M 13.578125 -10.5625 "/></g></g></g><g fill="#118169" fill-opacity="1"><g transform="translate(417.486989, 506.840329)"><g><path d="M 2.40625 0 L 5.515625 -15.96875 L 2.578125 -15.96875 L 2.90625 -17.75 L 8.921875 -17.75 L 8.3125 -14.59375 C 9.113281 -15.800781 10.023438 -16.707031 11.046875 -17.3125 C 12.078125 -17.925781 13.191406 -18.234375 14.390625 -18.234375 C 16.347656 -18.234375 17.6875 -17.671875 18.40625 -16.546875 C 18.820312 -15.867188 19.03125 -14.960938 19.03125 -13.828125 C 19.03125 -13.078125 18.9375 -12.234375 18.75 -11.296875 L 16.90625 -1.765625 L 19.640625 -1.765625 L 19.3125 0 L 13.484375 0 L 15.484375 -10.328125 C 15.703125 -11.472656 15.8125 -12.425781 15.8125 -13.1875 C 15.8125 -13.875 15.722656 -14.410156 15.546875 -14.796875 C 15.171875 -15.597656 14.304688 -16 12.953125 -16 C 11.535156 -16 10.351562 -15.476562 9.40625 -14.4375 C 8.457031 -13.394531 7.785156 -11.878906 7.390625 -9.890625 L 5.484375 0 Z M 2.40625 0 "/></g></g></g><g fill="#118169" fill-opacity="1"><g transform="translate(439.511908, 506.840329)"><g><path d="M 20.53125 -25.984375 L 15.484375 0 L 12.40625 0 L 12.9375 -2.765625 C 12.113281 -1.660156 11.1875 -0.84375 10.15625 -0.3125 C 9.132812 0.21875 7.9375 0.484375 6.5625 0.484375 C 4.382812 0.484375 2.769531 -0.378906 1.71875 -2.109375 C 1.019531 -3.253906 0.671875 -4.628906 0.671875 -6.234375 C 0.671875 -7.054688 0.765625 -7.941406 0.953125 -8.890625 C 1.492188 -11.671875 2.625 -13.921875 4.34375 -15.640625 C 6.0625 -17.367188 8.015625 -18.234375 10.203125 -18.234375 C 11.578125 -18.234375 12.675781 -17.96875 13.5 -17.4375 C 14.320312 -16.914062 14.925781 -16.097656 15.3125 -14.984375 L 17.109375 -24.21875 L 14.203125 -24.21875 L 14.546875 -25.984375 Z M 13.96875 -8 L 14.296875 -9.75 C 14.460938 -10.625 14.546875 -11.410156 14.546875 -12.109375 C 14.546875 -13.117188 14.367188 -13.957031 14.015625 -14.625 C 13.421875 -15.75 12.34375 -16.3125 10.78125 -16.3125 C 9.207031 -16.3125 7.894531 -15.6875 6.84375 -14.4375 C 5.789062 -13.195312 5.023438 -11.347656 4.546875 -8.890625 C 4.316406 -7.765625 4.203125 -6.765625 4.203125 -5.890625 C 4.203125 -4.859375 4.359375 -4.003906 4.671875 -3.328125 C 5.234375 -2.066406 6.300781 -1.4375 7.875 -1.4375 C 9.4375 -1.4375 10.734375 -1.992188 11.765625 -3.109375 C 12.804688 -4.234375 13.539062 -5.863281 13.96875 -8 Z M 13.96875 -8 "/></g></g></g><g fill="#118169" fill-opacity="1"><g transform="translate(461.40324, 506.840329)"><g><path d="M 18.03125 -17.78125 L 17.171875 -13.34375 L 15.390625 -13.34375 C 15.429688 -13.5625 15.453125 -13.769531 15.453125 -13.96875 C 15.453125 -14.539062 15.316406 -14.988281 15.046875 -15.3125 C 14.703125 -15.75 14.113281 -15.96875 13.28125 -15.96875 C 11.757812 -15.96875 10.492188 -15.441406 9.484375 -14.390625 C 8.472656 -13.347656 7.773438 -11.847656 7.390625 -9.890625 L 5.484375 0 L 2.40625 0 L 5.515625 -16 L 2.578125 -16 L 2.90625 -17.75 L 8.921875 -17.75 L 8.3125 -14.59375 C 9.144531 -15.832031 10.09375 -16.75 11.15625 -17.34375 C 12.226562 -17.9375 13.441406 -18.234375 14.796875 -18.234375 C 15.296875 -18.234375 15.8125 -18.191406 16.34375 -18.109375 C 16.882812 -18.035156 17.445312 -17.925781 18.03125 -17.78125 Z M 18.03125 -17.78125 "/></g></g></g><g fill="#118169" fill-opacity="1"><g transform="translate(477.750753, 506.840329)"><g><path d="M 8.78125 -1.171875 C 10.425781 -1.171875 11.796875 -1.820312 12.890625 -3.125 C 13.992188 -4.425781 14.789062 -6.347656 15.28125 -8.890625 C 15.5 -10.046875 15.609375 -11.070312 15.609375 -11.96875 C 15.609375 -13.039062 15.453125 -13.925781 15.140625 -14.625 C 14.554688 -15.925781 13.4375 -16.578125 11.78125 -16.578125 C 10.132812 -16.578125 8.765625 -15.925781 7.671875 -14.625 C 6.578125 -13.332031 5.785156 -11.421875 5.296875 -8.890625 C 5.066406 -7.722656 4.953125 -6.695312 4.953125 -5.8125 C 4.953125 -4.726562 5.113281 -3.832031 5.4375 -3.125 C 6.03125 -1.820312 7.144531 -1.171875 8.78125 -1.171875 Z M 8.46875 0.484375 C 5.882812 0.484375 3.972656 -0.367188 2.734375 -2.078125 C 1.878906 -3.265625 1.453125 -4.71875 1.453125 -6.4375 C 1.453125 -7.195312 1.535156 -8.015625 1.703125 -8.890625 C 2.242188 -11.710938 3.460938 -13.972656 5.359375 -15.671875 C 7.265625 -17.378906 9.515625 -18.234375 12.109375 -18.234375 C 14.703125 -18.234375 16.617188 -17.382812 17.859375 -15.6875 C 18.703125 -14.5 19.125 -13.050781 19.125 -11.34375 C 19.125 -10.570312 19.039062 -9.753906 18.875 -8.890625 C 18.320312 -6.054688 17.097656 -3.785156 15.203125 -2.078125 C 13.304688 -0.367188 11.0625 0.484375 8.46875 0.484375 Z M 8.46875 0.484375 "/></g></g></g><g fill="#118169" fill-opacity="1"><g transform="translate(498.339594, 506.840329)"><g><path d="M 5.390625 -23.265625 C 5.492188 -23.773438 5.765625 -24.21875 6.203125 -24.59375 C 6.648438 -24.976562 7.140625 -25.171875 7.671875 -25.171875 C 8.179688 -25.171875 8.585938 -24.976562 8.890625 -24.59375 C 9.117188 -24.3125 9.234375 -23.988281 9.234375 -23.625 C 9.234375 -23.507812 9.21875 -23.390625 9.1875 -23.265625 C 9.082031 -22.742188 8.8125 -22.296875 8.375 -21.921875 C 7.9375 -21.554688 7.453125 -21.375 6.921875 -21.375 C 6.398438 -21.375 5.988281 -21.554688 5.6875 -21.921875 C 5.46875 -22.203125 5.359375 -22.519531 5.359375 -22.875 C 5.359375 -23 5.367188 -23.128906 5.390625 -23.265625 Z M 5.140625 -1.765625 L 8.046875 -1.765625 L 7.71875 0 L 1.734375 0 L 4.828125 -15.96875 L 1.890625 -15.96875 L 2.234375 -17.75 L 8.25 -17.75 Z M 5.140625 -1.765625 "/></g></g></g><g fill="#118169" fill-opacity="1"><g transform="translate(509.276919, 506.840329)"><g><path d="M 4.578125 -15.96875 L 1.875 -15.96875 L 2.21875 -17.75 L 4.921875 -17.75 L 6 -23.265625 L 9.078125 -23.265625 L 8.015625 -17.75 L 13.796875 -17.75 L 13.4375 -15.96875 L 7.671875 -15.96875 L 5.484375 -4.6875 C 5.316406 -3.8125 5.234375 -3.117188 5.234375 -2.609375 C 5.234375 -2.253906 5.269531 -1.984375 5.34375 -1.796875 C 5.550781 -1.378906 6.046875 -1.171875 6.828125 -1.171875 C 7.628906 -1.171875 8.257812 -1.40625 8.71875 -1.875 C 9.1875 -2.351562 9.53125 -3.117188 9.75 -4.171875 L 12.078125 -4.171875 C 11.671875 -2.554688 11 -1.375 10.0625 -0.625 C 9.132812 0.113281 7.863281 0.484375 6.25 0.484375 C 4.476562 0.484375 3.296875 0.0859375 2.703125 -0.703125 C 2.347656 -1.179688 2.171875 -1.863281 2.171875 -2.75 C 2.171875 -3.320312 2.242188 -3.96875 2.390625 -4.6875 Z M 4.578125 -15.96875 "/></g></g></g><g fill="#118169" fill-opacity="1"><g transform="translate(523.01954, 506.840329)"><g/></g></g><g fill="#118169" fill-opacity="1"><g transform="translate(533.89005, 506.840329)"><g><path d="M 2.9375 -0.15625 C 2.601562 -0.582031 2.5 -1.109375 2.625 -1.734375 C 2.75 -2.359375 3.0625 -2.882812 3.5625 -3.3125 C 4.070312 -3.75 4.644531 -3.96875 5.28125 -3.96875 C 5.894531 -3.96875 6.375 -3.75 6.71875 -3.3125 C 7.070312 -2.882812 7.1875 -2.359375 7.0625 -1.734375 C 6.9375 -1.117188 6.613281 -0.59375 6.09375 -0.15625 C 5.582031 0.269531 5.019531 0.484375 4.40625 0.484375 C 3.769531 0.484375 3.28125 0.269531 2.9375 -0.15625 Z M 7.203125 -24.9375 L 11.5 -24.9375 L 7.703125 -11.21875 L 6.875 -7.015625 L 4.828125 -7.015625 L 5.640625 -11.21875 Z M 7.203125 -24.9375 "/></g></g></g></svg>