<?xml version="1.0" encoding="utf-8"?>
<!-- Generator: Adobe Illustrator 15.1.0, SVG Export Plug-In  -->
<!DOCTYPE svg PUBLIC "-//W3C//DTD SVG 1.1//EN" "http://www.w3.org/Graphics/SVG/1.1/DTD/svg11.dtd" [
	<!ENTITY ns_flows "http://ns.adobe.com/Flows/1.0/">
]>
<svg version="1.1"
	 xmlns="http://www.w3.org/2000/svg" xmlns:xlink="http://www.w3.org/1999/xlink" xmlns:a="http://ns.adobe.com/AdobeSVGViewerExtensions/3.0/"
	 x="0px" y="0px" width="1981px" height="594px" viewBox="-0.534 -0.247 1981 594" enable-background="new -0.534 -0.247 1981 594"
	 xml:space="preserve">
<defs>
</defs>
<path id="path2-5_1_" marker-start="none" marker-end="none" fill="#162E4A" d="M48.971,195.546l0.147,0.157l-29.687-29.697
	c-4.071,30.277,0.372,61.493,13.321,89.764C33.738,236.926,39.392,216.356,48.971,195.546z M100.638,120.544l0.248,0.287
	L59.412,79.345c-17.329,19.329-29.228,41.818-35.683,65.48l33.981,33.981l-0.136-0.148
	C68.719,158.698,83.31,138.886,100.638,120.544z M137.929,363.41c-31.143-7.552-60.718-23.49-85.044-47.803
	C7.36,270.086-8.757,206.253,4.472,147.762c-0.1-1.726,0.308-3.444,1.223-4.986c7.752-30.329,23.49-59.001,47.202-82.701
	c68.393-68.38,178.1-70.457,248.988-6.234l-13.194,13.246c-19.713-12.812-51.448-11.813-86.479,2.691l41.882,41.905l-12.739,12.75
	l-46.498-46.51c-19.501,10.27-39.56,24.478-58.778,42.597l54.596,54.583l-12.75,12.729L113.34,133.27
	c-18.143,19.193-32.351,39.153-42.633,58.545l46.631,46.607l-12.75,12.723l-42.065-42.061
	C18.433,313.211,110.157,352.141,137.929,363.41z M113.647,108.09l-0.271-0.271L113.647,108.09z M171.699,64.778l0.159,0.136
	l-34.052-34.041C114.08,37.328,91.53,49.239,72.15,66.595l41.226,41.238C131.707,90.489,151.604,75.914,171.699,64.778z
	 M248.931,40.116c-28.288-13.046-59.569-17.564-89.918-13.514l29.758,29.746l-0.148-0.123
	C209.47,46.695,230.097,41.067,248.931,40.116z"/>
<path id="path6_1_" fill="#162E4A" d="M353.294,15.194h-80.021c16.947,9.136,32.403,20.675,45.879,34.169
	C323.718,44.793,353.294,15.194,353.294,15.194z"/>
<path id="path10-3_1_" fill="#162E4A" d="M8.016,360.488h80.047c-16.936-9.114-32.39-20.666-45.88-34.155
	C22.531,345.984,8.016,360.488,8.016,360.488z"/>
<path id="path12-1_1_" fill="#162E4A" d="M202.497,349.057l-0.085-0.085l-29.574-29.563c-18.331,8.391-36.501,13.75-53.41,15.584
	C128.611,340.173,159.764,354.344,202.497,349.057z"/>
<path id="path14-3-3_1_" fill="#162E4A" d="M289.171,309.089l-41.227-41.211c-18.318,17.262-38.179,31.831-58.199,42.961
	l33.784,33.763l0.172,0.158C247.353,338.318,269.841,326.423,289.171,309.089z"/>
<path id="path16-9_1_" fill="#162E4A" d="M337.631,230.697l-0.171-0.175l-33.625-33.648c-11.172,20.001-25.761,39.871-43.14,58.25
	l41.226,41.218C319.276,276.985,331.2,254.406,337.631,230.697z"/>
<path id="path18-4_1_" fill="#162E4A" d="M328.559,119.952c-0.962,18.774-6.605,39.302-16.145,60.064l29.375,29.376l0.1,0.108
	C345.938,179.262,341.481,148.158,328.559,119.952z"/>
<path id="path22-5_1_" fill="#162E4A" d="M93.579,316.41c18.304,3.132,41.191-0.393,65.689-10.558l-0.232-0.24l-41.697-41.689
	l-37.004,36.968C84.161,306.656,88.702,311.816,93.579,316.41z"/>
<path id="path24-6_1_" fill="#162E4A" d="M301.413,79.813l-44.605,44.621l41.794,41.77l0.259,0.259
	C313.489,131.345,314.412,99.612,301.413,79.813z"/>
<path id="path26-3_1_" fill="#162E4A" d="M290.665,183.768l-0.26-0.284l-46.324-46.323l-50.669,50.672l54.484,54.501l0.073,0.084
	C266.15,223.177,280.394,203.175,290.665,183.768z"/>
<path id="path28-5_1_" fill="#162E4A" d="M235.242,255.172l-0.06-0.096l-54.508-54.496l-50.597,50.579l46.251,46.256l0.271,0.267
	C196.064,287.438,216.073,273.254,235.242,255.172z"/>
<path id="path36_1_" fill="#162E4A" d="M639.708,333.432c-83.319,0-149.984-66.642-149.984-150.035
	c0-79.342,66.666-145.984,149.984-145.984c45.966,0,86.44,20.183,113.682,52.066h45.953C766.521,36.92,707.422,0.543,639.693,0.543
	c-103.536,0-188.417,83.848-188.417,182.853c0.012,103.106,84.898,186.906,188.432,186.906c68.209,0,127.814-36.353,160.672-90.874
	h-45.991C727.591,312.71,686.192,333.432,639.708,333.432z"/>
<path id="path38_1_" fill="#162E4A" d="M1087.943,116.706c0-67.135-46.499-112.112-115.163-112.112H854.578v360.657h36.844V228.88
	h67.199l107.595,136.371h49.021l-110.145-139.913C1056.11,213.206,1087.943,172.795,1087.943,116.706z M891.425,193.506V39.932
	h81.355c46.446,0,76.765,30.809,76.765,76.774c0,45.991-30.825,76.8-76.765,76.8H891.425z"/>
<rect id="rect40_1_" x="1545.059" y="4.594" fill="#162E4A" width="36.87" height="360.657"/>
<path id="path42_1_" fill="#162E4A" d="M1942.564,182.904v81.29c-26.76,41.441-73.213,68.704-126.271,68.704
	c-83.357,0-150.021-66.687-150.021-149.994c0-79.293,66.664-146.008,150.021-146.008c48.483,0,92.412,22.697,119.718,57.592h41.453
	C1945.131,38.918,1886.531,0,1816.293,0c-103.536,0-188.373,83.875-188.373,182.904c0,103.007,84.837,186.902,188.373,186.902
	c48.483,0,92.931-18.179,126.271-48.526v43.971h36.915V182.904H1942.564z"/>
<path id="path44_1_" fill="#162E4A" d="M1140.452,365.251h39.957l41.38-91.856c-11.418-3.508-22.845-7.726-34.288-12.723
	L1140.452,365.251z"/>
<path id="path48_1_" fill="#162E4A" d="M1342.544,4.594h-39.926l-96.691,215.108c0.832,0.295,1.653,0.663,2.487,0.978
	c2.932,1.315,5.86,2.45,8.739,3.56c0.924,0.363,1.799,0.767,2.715,1.099c3.772,1.437,7.485,2.753,11.202,3.977
	c0.87,0.261,1.727,0.489,2.621,0.791c2.221,0.749,4.418,1.467,6.626,2.089c0.531,0.145,1.11,0.314,1.667,0.501
	c1.285,0.381,2.547,0.658,3.777,1.039c2.318,0.615,4.689,1.296,6.935,1.839c1.335,0.296,2.633,0.604,3.953,0.913
	c2.234,0.453,4.406,0.923,6.58,1.369c1.279,0.26,2.491,0.521,3.742,0.737c2.33,0.47,4.599,0.833,6.869,1.213
	c0.988,0.151,2.039,0.32,3.064,0.471c3.212,0.514,6.416,0.912,9.526,1.25h0.022c3.114,0.338,6.174,0.591,9.21,0.784
	c1.003,0.073,1.927,0.073,2.886,0.151c2.064,0.084,4.068,0.211,6.035,0.224c1.129,0.047,2.197,0.061,3.297,0.061
	c0.978,0,1.954,0.072,2.956,0.072c0.629,0,1.207-0.072,1.847-0.072c2.017,0,4.05-0.061,6.012-0.098
	c1.196-0.065,2.385-0.102,3.555-0.138c2.125-0.127,4.184-0.284,6.248-0.394c0.966-0.125,1.912-0.198,2.849-0.252
	c5.865-0.604,11.407-1.352,16.617-2.258c0.778-0.18,1.5-0.344,2.297-0.495c1.789-0.301,3.575-0.664,5.205-1.043
	c0.917-0.127,1.78-0.355,2.606-0.585c1.546-0.337,3.023-0.701,4.453-1.074c0.858-0.218,1.715-0.429,2.471-0.664
	c1.441-0.32,2.793-0.724,4.086-1.123c0.712-0.241,1.52-0.459,2.172-0.64c1.394-0.446,2.668-0.87,3.91-1.297
	c0.592-0.188,1.215-0.356,1.792-0.628c1.456-0.47,2.825-0.989,4.173-1.43c0.271-0.127,0.603-0.278,0.893-0.325
	c1.576-0.629,3.102-1.256,4.515-1.812c0.229-0.084,0.435-0.223,0.652-0.338c1.135-0.405,2.221-0.936,3.199-1.353
	c0.386-0.2,0.747-0.362,1.086-0.495c0.771-0.386,1.497-0.706,2.16-1.062c0.345-0.121,0.676-0.363,0.989-0.483
	c0.581-0.229,1.147-0.568,1.631-0.851c0.253-0.102,0.513-0.284,0.771-0.356c0.435-0.259,0.828-0.483,1.195-0.677
	c0.176-0.102,0.363-0.229,0.495-0.265c0.315-0.241,0.604-0.356,0.79-0.471c0.091-0.072,0.189-0.145,0.249-0.145
	c0.157-0.121,0.295-0.157,0.295-0.157l64.653,143.401h39.921L1342.544,4.594z M1384.141,186.668
	c-0.162,0.126-0.199,0.126-0.331,0.174c-0.236,0.242-0.543,0.405-0.895,0.677c-0.18,0.108-0.314,0.175-0.513,0.313
	c-0.573,0.417-1.249,0.809-2.126,1.376c-0.148,0.036-0.294,0.198-0.426,0.265c-0.75,0.454-1.546,0.905-2.391,1.388
	c-0.339,0.211-0.676,0.435-1.045,0.646c-0.899,0.513-1.924,1.057-2.964,1.629c-0.294,0.212-0.555,0.32-0.837,0.465
	c-1.396,0.707-2.88,1.485-4.456,2.245c-0.403,0.253-0.863,0.507-1.321,0.67c-1.281,0.555-2.583,1.238-4.039,1.864
	c-0.523,0.26-1.086,0.484-1.713,0.774c-1.853,0.784-3.791,1.659-5.86,2.485c-0.151,0.038-0.29,0.097-0.435,0.121
	c-2.076,0.828-4.262,1.654-6.494,2.433c-0.737,0.296-1.455,0.555-2.197,0.755c-1.822,0.676-3.718,1.268-5.686,1.901
	c-0.707,0.247-1.437,0.404-2.148,0.651c-2.645,0.755-5.359,1.558-8.221,2.263c-0.566,0.194-1.212,0.29-1.757,0.441
	c-2.36,0.591-4.786,1.189-7.272,1.708c-0.972,0.205-1.906,0.362-2.91,0.591c-2.528,0.507-5.159,0.947-7.846,1.424
	c-0.694,0.066-1.353,0.217-2.04,0.291c-3.295,0.542-6.749,0.958-10.248,1.314c-0.935,0.139-1.942,0.187-2.861,0.303
	c-2.789,0.289-5.601,0.458-8.402,0.651c-1.141,0.061-2.323,0.097-3.422,0.18c-3.814,0.194-7.729,0.327-11.703,0.327
	c-0.169,0-0.344,0-0.507,0c-3.604,0-7.291-0.109-10.998-0.295c-1.255-0.09-2.563-0.151-3.801-0.211
	c-2.753-0.193-5.518-0.344-8.354-0.603c-0.06-0.048-0.176-0.048-0.271-0.048l75.143-166.81l61.654,137.38
	C1384.449,186.42,1384.268,186.553,1384.141,186.668L1384.141,186.668z"/>
<path fill="#162E4A" d="M25.089,556.513H0.625l44.543-126.53h28.297l44.607,126.53H93.607l-10.502-31.198H35.531L25.089,556.513z
	 M41.709,506.901h35.215L59.81,455.93h-0.987L41.709,506.901z"/>
<path fill="#162E4A" d="M194.25,516.6v-54.985h22.365v94.898H194.93v-16.868h-0.989c-2.14,5.316-5.653,9.662-10.533,13.037
	c-4.882,3.381-10.886,5.07-18.01,5.07c-9.31,0-16.909-3.104-22.796-9.301c-5.891-6.201-8.836-15.006-8.836-26.412v-60.425h22.365
	v56.966c0,6.011,1.647,10.79,4.943,14.335c3.295,3.541,7.619,5.31,12.973,5.31c3.296,0,6.489-0.803,9.576-2.406
	c3.089-1.606,5.633-4.009,7.632-7.202C193.252,525.43,194.25,521.422,194.25,516.6z"/>
<path fill="#162E4A" d="M324.365,461.614l-33.797,94.898h-24.713l-33.797-94.898h23.85l21.811,70.497h0.986l21.874-70.497H324.365z"
	/>
<path fill="#162E4A" d="M378.546,558.368c-9.513,0-17.721-1.999-24.62-5.996c-6.899-3.996-12.201-9.638-15.91-16.929
	c-3.706-7.286-5.56-15.898-5.56-25.82c0-9.767,1.854-18.344,5.56-25.735c3.709-7.395,8.93-13.159,15.663-17.299
	c6.735-4.141,14.633-6.21,23.692-6.21c7.786,0,14.975,1.677,21.562,5.033c6.591,3.362,11.873,8.569,15.85,15.633
	c3.974,7.067,5.96,16.156,5.96,27.281v6.854h-66.109c0.125,8.112,2.382,14.438,6.766,18.965c4.388,4.532,10.203,6.795,17.456,6.795
	c4.819,0,8.991-1.037,12.509-3.112c3.521-2.082,6.044-5.12,7.568-9.115l20.883,2.348c-1.976,8.239-6.579,14.85-13.806,19.827
	C398.78,555.872,389.627,558.368,378.546,558.368z M354.699,500.104h44.606c-0.042-6.464-2.048-11.799-6.023-16
	c-3.974-4.201-9.174-6.303-15.6-6.303c-6.671,0-12.089,2.204-16.25,6.609C357.273,488.816,355.029,494.051,354.699,500.104z"/>
<path fill="#162E4A" d="M439.65,556.513v-94.898h21.687v15.814h0.986c1.731-5.517,4.708-9.76,8.93-12.724
	c4.223-2.969,9.05-4.447,14.489-4.447c1.234,0,2.625,0.048,4.168,0.15c1.545,0.103,2.833,0.259,3.862,0.465v20.575
	c-0.947-0.332-2.441-0.627-4.478-0.899c-2.041-0.265-4.008-0.397-5.901-0.397c-6.137,0-11.234,1.924-15.291,5.775
	c-4.058,3.853-6.087,8.782-6.087,14.8v55.786H439.65z"/>
<path fill="#162E4A" d="M545.978,593.705c-12.071,0-21.553-2.317-28.452-6.946c-6.899-4.635-11.377-10.189-13.438-16.652
	l20.141-4.883c1.361,2.595,3.709,5.173,7.043,7.725c3.338,2.554,8.362,3.833,15.077,3.833c6.382,0,11.646-1.526,15.784-4.574
	c4.14-3.049,6.21-7.967,6.21-14.765v-17.979h-1.113c-1.152,2.305-2.83,4.672-5.034,7.104c-2.207,2.432-5.11,4.465-8.713,6.114
	c-3.603,1.646-8.124,2.474-13.562,2.474c-7.288,0-13.891-1.72-19.8-5.159c-5.912-3.44-10.608-8.596-14.087-15.476
	c-3.479-6.881-5.222-15.471-5.222-25.768c0-10.417,1.742-19.224,5.222-26.41c3.479-7.189,8.188-12.647,14.117-16.369
	c5.93-3.73,12.542-5.595,19.833-5.595c5.601,0,10.204,0.94,13.81,2.812c3.603,1.877,6.463,4.116,8.585,6.736
	c2.121,2.613,3.739,5.076,4.85,7.381h1.236v-15.693h22.058v96.445c0,7.948-1.938,14.569-5.809,19.863
	c-3.873,5.292-9.154,9.246-15.848,11.859C562.175,592.403,554.542,593.705,545.978,593.705z M546.162,537.61
	c7.125,0,12.625-2.566,16.496-7.696c3.872-5.123,5.809-12.223,5.809-21.282c0-8.979-1.916-16.204-5.745-21.685
	c-3.83-5.481-9.352-8.221-16.559-8.221c-7.454,0-13.076,2.837-16.866,8.498c-3.792,5.661-5.683,12.802-5.683,21.407
	c0,8.734,1.913,15.742,5.746,21.036C533.189,534.96,538.789,537.61,546.162,537.61z"/>
<path fill="#162E4A" d="M635.873,500.907v55.605h-22.364v-94.898h21.374v16.128h1.114c2.183-5.275,5.674-9.488,10.473-12.638
	c4.798-3.15,10.74-4.726,17.826-4.726c9.802,0,17.678,3.112,23.629,9.33c5.951,6.216,8.909,15.01,8.867,26.383v60.421h-22.364
	v-56.962c0-6.345-1.637-11.307-4.914-14.892c-3.274-3.585-7.795-5.373-13.559-5.373c-5.891,0-10.71,1.885-14.458,5.649
	C637.747,488.708,635.873,494.032,635.873,500.907z"/>
<path fill="#162E4A" d="M761.599,558.368c-9.513,0-17.721-1.999-24.62-5.996c-6.899-3.996-12.201-9.638-15.91-16.929
	c-3.705-7.286-5.559-15.898-5.559-25.82c0-9.767,1.854-18.344,5.559-25.735c3.708-7.395,8.93-13.159,15.664-17.299
	c6.735-4.141,14.632-6.21,23.692-6.21c7.787,0,14.975,1.677,21.563,5.033c6.591,3.362,11.872,8.569,15.849,15.633
	c3.974,7.067,5.96,16.156,5.96,27.281v6.854h-66.107c0.124,8.112,2.381,14.438,6.765,18.965c4.388,4.532,10.204,6.795,17.456,6.795
	c4.819,0,8.991-1.037,12.508-3.112c3.522-2.082,6.045-5.12,7.569-9.115l20.883,2.348c-1.977,8.239-6.579,14.85-13.805,19.827
	C781.833,555.872,772.679,558.368,761.599,558.368z M737.75,500.104h44.607c-0.042-6.464-2.049-11.799-6.024-16
	c-3.974-4.201-9.173-6.303-15.599-6.303c-6.672,0-12.089,2.204-16.25,6.609C740.326,488.816,738.081,494.051,737.75,500.104z"/>
<path fill="#162E4A" d="M880.223,494.607v18.413h-56.964v-18.413H880.223z"/>
<path fill="#162E4A" d="M904.746,556.513v-126.53h47.453c14.538,0,25.605,3.73,33.204,11.185c7.6,7.454,11.403,17.214,11.403,29.283
	c0,8.609-1.938,16.002-5.808,22.184c-3.875,6.175-9.519,10.749-16.93,13.712l27.371,50.167H975.86l-24.836-46.335h-23.355v46.335
	H904.746z M927.669,491.148h21.13c8.484,0,14.712-1.769,18.689-5.313c3.974-3.542,5.963-8.674,5.963-15.386
	c0-6.752-1.989-11.998-5.963-15.722c-3.977-3.729-10.248-5.597-18.813-5.597h-21.007V491.148z"/>
<path fill="#162E4A" d="M1039.314,500.907v55.605h-22.369v-126.53h21.873v47.76h1.111c2.185-5.396,5.613-9.639,10.284-12.729
	c4.677-3.091,10.659-4.635,17.95-4.635c9.844,0,17.751,3.089,23.727,9.27c5.969,6.174,8.956,14.993,8.956,26.443v60.421h-22.366
	v-56.962c0-6.387-1.638-11.361-4.908-14.921c-3.277-3.563-7.86-5.344-13.749-5.344c-5.976,0-10.883,1.885-14.733,5.649
	C1041.233,488.708,1039.314,494.032,1039.314,500.907z"/>
<path fill="#162E4A" d="M1164.976,558.368c-9.265,0-17.3-2.041-24.096-6.115c-6.796-4.081-12.058-9.796-15.783-17.148
	c-3.73-7.351-5.596-15.91-5.596-25.67c0-9.802,1.865-18.379,5.596-25.733c3.726-7.353,8.987-13.074,15.783-17.172
	c6.796-4.1,14.831-6.15,24.096-6.15c9.271,0,17.31,2.051,24.13,6.15c6.814,4.098,12.076,9.819,15.784,17.172
	c3.704,7.354,5.558,15.932,5.558,25.733c0,9.76-1.854,18.319-5.558,25.67c-3.708,7.353-8.97,13.067-15.784,17.148
	C1182.286,556.327,1174.248,558.368,1164.976,558.368z M1152.431,450.244l12.545-15.814l12.541,15.814h19.586v-0.863l-23.353-26.688
	h-17.484l-23.419,26.688v0.863H1152.431z M1165.102,540.452c5.064,0,9.276-1.381,12.633-4.139c3.356-2.76,5.872-6.503,7.539-11.216
	c1.665-4.719,2.504-9.959,2.504-15.724c0-5.811-0.839-11.069-2.504-15.789c-1.667-4.713-4.183-8.473-7.539-11.274
	c-3.356-2.801-7.568-4.2-12.633-4.2c-5.106,0-9.362,1.399-12.759,4.2c-3.398,2.802-5.94,6.562-7.63,11.274
	c-1.69,4.72-2.535,9.979-2.535,15.789c0,5.765,0.845,11.005,2.535,15.724c1.689,4.713,4.231,8.456,7.63,11.216
	C1155.74,539.071,1159.996,540.452,1165.102,540.452z"/>
<path fill="#162E4A" d="M1251.718,500.907v55.605h-22.367v-94.898h21.38v16.128h1.109c2.186-5.275,5.674-9.488,10.472-12.638
	c4.798-3.15,10.737-4.726,17.824-4.726c9.801,0,17.678,3.112,23.635,9.33c5.952,6.216,8.902,15.01,8.865,26.383v60.421h-22.366
	v-56.962c0-6.345-1.637-11.307-4.914-14.892c-3.271-3.585-7.791-5.373-13.562-5.373c-5.891,0-10.707,1.885-14.456,5.649
	C1253.591,488.708,1251.718,494.032,1251.718,500.907z"/>
<path fill="#162E4A" d="M1377.441,558.368c-9.516,0-17.727-1.999-24.618-5.996c-6.904-3.996-12.206-9.638-15.909-16.929
	c-3.713-7.286-5.565-15.898-5.565-25.82c0-9.767,1.853-18.344,5.565-25.735c3.703-7.395,8.927-13.159,15.662-17.299
	c6.729-4.141,14.629-6.21,23.689-6.21c7.786,0,14.975,1.677,21.564,5.033c6.587,3.362,11.873,8.569,15.844,15.633
	c3.978,7.067,5.964,16.156,5.964,27.281v6.854h-66.11c0.128,8.112,2.38,14.438,6.768,18.965c4.388,4.532,10.206,6.795,17.455,6.795
	c4.816,0,8.988-1.037,12.513-3.112c3.518-2.082,6.041-5.12,7.567-9.115l20.883,2.348c-1.978,8.239-6.583,14.85-13.809,19.827
	C1397.673,555.872,1388.518,558.368,1377.441,558.368z M1353.588,500.104h44.609c-0.042-6.464-2.046-11.799-6.022-16
	c-3.979-4.201-9.175-6.303-15.602-6.303c-6.67,0-12.091,2.204-16.248,6.609C1356.167,488.816,1353.921,494.051,1353.588,500.104z"/>
<path fill="#162E4A" d="M1496.066,494.607v18.413h-56.964v-18.413H1496.066z"/>
<path fill="#162E4A" d="M1536.844,556.513h-24.47l44.55-126.53h28.294l44.611,126.53h-24.471l-10.501-31.198h-47.573
	L1536.844,556.513z M1553.459,506.901h35.218l-17.11-50.972h-0.991L1553.459,506.901z"/>
<path fill="#162E4A" d="M1667.883,429.982v126.53h-22.368v-126.53H1667.883z"/>
<path fill="#162E4A" d="M1690.859,592.1V461.614h21.995v15.693h1.299c1.152-2.305,2.769-4.768,4.852-7.381
	c2.077-2.62,4.921-4.859,8.522-6.736c3.604-1.871,8.191-2.812,13.749-2.812c7.327,0,13.949,1.876,19.863,5.625
	c5.91,3.746,10.604,9.246,14.088,16.495c3.476,7.248,5.222,16.145,5.222,26.69c0,10.423-1.715,19.276-5.132,26.567
	c-3.416,7.285-8.075,12.85-13.961,16.676c-5.891,3.835-12.565,5.746-20.018,5.746c-5.438,0-9.947-0.904-13.533-2.716
	c-3.579-1.81-6.45-4.008-8.618-6.577c-2.16-2.578-3.838-5.017-5.034-7.322h-0.924V592.1H1690.859z M1712.794,509.062
	c0,9.187,1.936,16.61,5.807,22.277c3.868,5.661,9.367,8.494,16.495,8.494c7.375,0,12.977-2.904,16.803-8.713
	c3.833-5.806,5.746-13.156,5.746-22.059c0-8.854-1.89-16.122-5.681-21.808c-3.79-5.685-9.413-8.527-16.868-8.527
	c-7.208,0-12.724,2.752-16.555,8.251C1714.708,492.476,1712.794,499.838,1712.794,509.062z"/>
<path fill="#162E4A" d="M1841.552,558.368c-9.518,0-17.727-1.999-24.625-5.996c-6.898-3.996-12.197-9.638-15.904-16.929
	c-3.711-7.286-5.564-15.898-5.564-25.82c0-9.767,1.854-18.344,5.564-25.735c3.707-7.395,8.928-13.159,15.661-17.299
	c6.731-4.141,14.632-6.21,23.691-6.21c7.786,0,14.975,1.677,21.566,5.033c6.583,3.362,11.873,8.569,15.843,15.633
	c3.978,7.067,5.963,16.156,5.963,27.281v6.854h-66.108c0.127,8.112,2.378,14.438,6.766,18.965
	c4.388,4.532,10.208,6.795,17.458,6.795c4.812,0,8.984-1.037,12.51-3.112c3.519-2.082,6.042-5.12,7.569-9.115l20.884,2.348
	c-1.98,8.239-6.587,14.85-13.81,19.827C1861.785,555.872,1852.628,558.368,1841.552,558.368z M1817.699,500.104h44.61
	c-0.041-6.464-2.046-11.799-6.024-16c-3.978-4.201-9.174-6.303-15.602-6.303c-6.668,0-12.089,2.204-16.246,6.609
	C1820.277,488.816,1818.031,494.051,1817.699,500.104z"/>
<path fill="#162E4A" d="M1977.655,486.699l-20.387,2.221c-0.862-3.125-2.71-5.883-5.528-8.275
	c-2.825-2.389-6.809-3.584-11.957-3.584c-4.654,0-8.558,1.009-11.71,3.029c-3.15,2.017-4.702,4.629-4.664,7.847
	c-0.038,2.758,0.977,5.015,3.06,6.768c2.082,1.749,5.528,3.155,10.35,4.231l16.189,3.456c17.749,3.869,26.647,12.439,26.688,25.699
	c0,5.977-1.731,11.238-5.19,15.79c-3.457,4.551-8.238,8.101-14.334,10.653c-6.097,2.554-13.097,3.834-21.003,3.834
	c-11.662,0-21.013-2.452-28.055-7.354c-7.042-4.898-11.263-11.697-12.662-20.388l21.805-2.101
	c1.939,8.65,8.223,12.976,18.845,12.976c5.317,0,9.589-1.085,12.82-3.245c3.234-2.163,4.852-4.871,4.852-8.125
	c0-5.312-4.262-8.915-12.791-10.809l-16.187-3.398c-9.103-1.897-15.837-5.102-20.2-9.608c-4.371-4.51-6.532-10.225-6.489-17.148
	c0-5.849,1.605-10.925,4.818-15.227c3.217-4.306,7.706-7.643,13.47-10.009c5.765-2.372,12.458-3.554,20.08-3.554
	c11.119,0,19.881,2.377,26.287,7.138C1972.164,472.275,1976.129,478.666,1977.655,486.699z"/>
</svg>
