<?xml version="1.0" encoding="UTF-8" standalone="no"?>
<!-- Generator: Adobe Illustrator 16.0.0, SVG Export Plug-In . SVG Version: 6.00 Build 0)  -->

<svg
   xmlns:dc="http://purl.org/dc/elements/1.1/"
   xmlns:cc="http://creativecommons.org/ns#"
   xmlns:rdf="http://www.w3.org/1999/02/22-rdf-syntax-ns#"
   xmlns:svg="http://www.w3.org/2000/svg"
   xmlns="http://www.w3.org/2000/svg"
   xmlns:sodipodi="http://sodipodi.sourceforge.net/DTD/sodipodi-0.dtd"
   xmlns:inkscape="http://www.inkscape.org/namespaces/inkscape"
   version="1.1"
   id="Calque_1"
   x="0px"
   y="0px"
   width="220.01401"
   height="116.139"
   viewBox="0 0 220.01401 116.13901"
   enable-background="new 0 0 236.885 131.497"
   xml:space="preserve"
   inkscape:version="0.92.3 (2405546, 2018-03-11)"
   sodipodi:docname="Logo Jungle Bus.svg"
   inkscape:export-filename="/home/overflorian/Nextcloud/6. Communication/Logo/Logo Jungle Bus HD.png"
   inkscape:export-xdpi="471.23999"
   inkscape:export-ydpi="471.23999"><metadata
     id="metadata45"><rdf:RDF><cc:Work
         rdf:about=""><dc:format>image/svg+xml</dc:format><dc:type
           rdf:resource="http://purl.org/dc/dcmitype/StillImage" /><dc:title /></cc:Work></rdf:RDF></metadata><defs
     id="defs43" /><sodipodi:namedview
     pagecolor="#ffffff"
     bordercolor="#666666"
     borderopacity="1"
     objecttolerance="10"
     gridtolerance="10"
     guidetolerance="10"
     inkscape:pageopacity="0"
     inkscape:pageshadow="2"
     inkscape:window-width="1853"
     inkscape:window-height="1025"
     id="namedview41"
     showgrid="false"
     inkscape:zoom="2.6510755"
     inkscape:cx="38.162393"
     inkscape:cy="91.202157"
     inkscape:window-x="67"
     inkscape:window-y="27"
     inkscape:window-maximized="1"
     inkscape:current-layer="Calque_1"
     fit-margin-top="0"
     fit-margin-left="0"
     fit-margin-right="0"
     fit-margin-bottom="0" /><rect
     style="color:#000000;clip-rule:nonzero;display:inline;overflow:visible;visibility:visible;opacity:1;isolation:auto;mix-blend-mode:normal;color-interpolation:sRGB;color-interpolation-filters:linearRGB;solid-color:#000000;solid-opacity:1;fill:#ffffff;fill-opacity:1;fill-rule:nonzero;stroke:none;stroke-width:15.25900078;stroke-linecap:butt;stroke-linejoin:miter;stroke-miterlimit:4;stroke-dasharray:none;stroke-dashoffset:0;stroke-opacity:1;color-rendering:auto;image-rendering:auto;shape-rendering:auto;text-rendering:auto;enable-background:accumulate"
     id="rect4226"
     width="191.01439"
     height="89.37693"
     x="15.191792"
     y="11.802612"
     ry="0.65385431" /><g
     id="g3"
     transform="translate(-9.817,-8.298)"><polygon
       points="114.173,61.005 88.123,72.009 62.032,60.944 35.976,71.925 9.892,60.86 21.45,87.017 10.46,113.075 36.544,124.14 62.6,113.157 88.692,124.224 114.574,113.29 114.574,113.29 125.564,87.231 114.412,60.943 "
       id="polygon5"
       style="fill:#fbb81d" /><polygon
       points="192.306,19.376 218.081,8.487 229.513,34.647 218.667,61.003 192.864,71.713 181.331,45.454 "
       id="polygon7"
       style="fill:#fbb81d" /><g
       id="g9"><path
         d="M 218.667,61.003 192.864,71.713 181.331,45.454 192.306,19.376 192.391,19.339 167.344,8.717 166.357,8.298 165.371,8.714 140.301,19.28 114.439,8.306 114.444,8.298 114.432,8.303 114.42,8.298 114.407,8.314 88.123,19.421 63.019,8.776 62.032,8.356 61.045,8.772 35.976,19.339 10.928,8.712 l -1.111,0 11.065,26.09 -10.99,26.058 26.084,11.064 26.056,-10.98 26.091,11.064 26.05,-11.004 0.239,-0.062 11.152,26.288 -10.99,26.059 26.085,11.064 26.057,-10.982 26.09,11.066 26.05,-11.004 10.975,-26.078 -11.164,-26.352 z M 42.811,50.099 c -0.048,2.755 -0.936,4.915 -2.64,6.426 -1.679,1.537 -3.663,2.33 -5.893,2.355 l -0.005,0 -0.003,0 c -3.102,-0.074 -5.471,-1.278 -7.041,-3.578 l -0.151,-0.222 3.695,-2.678 0.162,0.222 c 0.338,0.464 0.785,0.85 1.328,1.148 0.55,0.358 1.185,0.535 1.905,0.535 l 0.092,0 c 0.935,0 1.845,-0.355 2.705,-1.056 0.421,-0.347 0.757,-0.815 0.999,-1.394 0.257,-0.566 0.385,-1.285 0.385,-2.146 l 0,-18.271 4.461,0 0,18.659 z M 69.422,38.751 c -0.048,2.872 -0.965,5.184 -2.726,6.875 -1.768,1.738 -4.032,2.632 -6.728,2.656 l -0.002,0 -0.002,0 C 57.315,48.258 55.068,47.364 53.287,45.628 51.47,43.942 50.534,41.632 50.51,38.764 l 0,-17.921 4.461,0 0,17.484 c 0.022,1.73 0.507,3.062 1.441,3.958 0.919,0.947 2.112,1.425 3.553,1.425 1.441,0 2.647,-0.479 3.584,-1.42 0.913,-0.896 1.387,-2.23 1.41,-3.966 l 0,-17.481 4.462,0 0,17.908 z m 28.075,19.91 -4.134,0 -11.322,-18.377 0,18.377 -4.462,0 0,-27.221 4.116,0 11.34,18.379 0,-18.379 4.462,0 0,27.221 z m 26.812,-20.117 c -0.049,2.732 -0.969,5.051 -2.733,6.895 -1.781,1.838 -4.05,2.795 -6.746,2.844 l -0.006,0 -0.005,0 c -2.076,-0.049 -3.838,-0.584 -5.236,-1.588 -1.409,-0.957 -2.452,-2.088 -3.095,-3.355 -0.194,-0.414 -0.367,-0.801 -0.522,-1.17 -0.153,-0.408 -0.277,-0.906 -0.372,-1.489 -0.179,-1.083 -0.27,-3.179 -0.27,-6.226 0,-3.098 0.091,-5.206 0.27,-6.266 0.194,-1.08 0.498,-1.967 0.903,-2.64 0.633,-1.249 1.675,-2.39 3.088,-3.376 1.396,-1.002 3.158,-1.524 5.236,-1.549 2.559,0.024 4.671,0.819 6.286,2.361 1.606,1.548 2.634,3.486 3.056,5.764 l 0.06,0.326 -4.686,0 -0.059,-0.197 c -0.305,-1.025 -0.863,-1.91 -1.659,-2.631 -0.812,-0.672 -1.828,-1.027 -3.012,-1.051 -0.862,0.023 -1.621,0.204 -2.242,0.536 -0.633,0.345 -1.152,0.781 -1.541,1.298 -0.487,0.549 -0.805,1.25 -0.96,2.102 -0.186,0.936 -0.279,2.725 -0.279,5.322 0,2.595 0.094,4.371 0.278,5.277 0.158,0.881 0.476,1.596 0.948,2.127 0.401,0.531 0.918,0.955 1.55,1.275 0.633,0.385 1.385,0.574 2.254,0.574 1.459,0 2.629,-0.498 3.578,-1.524 0.942,-0.977 1.43,-2.278 1.453,-3.872 l 0,-1.115 -5.271,0 0,-4.352 9.733,0 0,5.7 z m 7.735,-7.104 4.461,0 0,22.867 12.591,0 0,4.354 -17.052,0 0,-27.221 z m 19.964,73.827 c -1.402,1.446 -3.182,2.182 -5.282,2.182 l -11.162,0 0,-27.221 10.287,0 c 2.606,0.026 4.597,0.719 5.919,2.059 1.334,1.353 2.011,3.159 2.011,5.369 0.024,1.134 -0.243,2.238 -0.794,3.275 -0.291,0.511 -0.705,0.991 -1.236,1.436 -0.399,0.355 -0.879,0.69 -1.427,0.996 1.202,0.436 2.145,1.185 2.806,2.231 0.701,1.23 1.054,2.574 1.054,4.005 -0.026,2.373 -0.757,4.279 -2.176,5.668 z m 3.867,-84.424 17.053,0 0,4.354 -12.591,0 0,7.08 10.748,0 0,4.133 -10.748,0 0,7.301 12.591,0 0,4.354 -17.053,0 0,-27.222 z m 10.544,40.068 -0.399,0.167 0.337,-0.193 0.062,0.026 z m 14.703,29.567 c -0.048,2.871 -0.965,5.183 -2.725,6.874 -1.768,1.736 -4.032,2.631 -6.728,2.657 l -0.003,0 -0.003,0 c -2.652,-0.026 -4.898,-0.919 -6.677,-2.654 -1.817,-1.686 -2.754,-3.996 -2.777,-6.865 l 0,-17.92 4.462,0 0,17.484 c 0.021,1.729 0.507,3.061 1.441,3.957 0.919,0.947 2.112,1.424 3.554,1.424 1.442,0 2.647,-0.478 3.583,-1.419 0.913,-0.897 1.387,-2.231 1.41,-3.966 l 0,-17.48 4.462,0 0,17.908 z m 19.044,17.189 0,0 -0.003,0 c -3.876,0 -7.256,-1.248 -10.044,-3.71 l -0.202,-0.178 2.919,-3.456 0.211,0.179 c 1.996,1.695 4.406,2.568 7.166,2.593 3.201,-0.047 4.783,-1.174 4.829,-3.447 0.021,-1.848 -1.006,-2.933 -3.142,-3.312 -1.029,-0.144 -2.17,-0.31 -3.412,-0.491 -2.281,-0.389 -4.04,-1.275 -5.235,-2.636 -1.232,-1.401 -1.857,-3.125 -1.857,-5.125 0,-2.398 0.785,-4.362 2.333,-5.838 1.496,-1.459 3.638,-2.213 6.366,-2.236 3.262,0.073 6.132,1.018 8.539,2.809 l 0.209,0.154 -2.479,3.774 -0.231,-0.158 c -1.885,-1.284 -3.987,-1.959 -6.249,-2.007 -1.131,0 -2.088,0.296 -2.839,0.878 -0.777,0.598 -1.165,1.474 -1.188,2.678 0,0.699 0.26,1.32 0.795,1.896 0.537,0.589 1.422,1.004 2.634,1.235 0.709,0.121 1.683,0.262 2.889,0.417 2.485,0.351 4.352,1.29 5.55,2.793 1.18,1.473 1.778,3.207 1.778,5.152 -0.134,5.261 -3.274,7.962 -9.337,8.036 z"
         id="path11"
         inkscape:connector-curvature="0"
         style="fill:#0267b1" /><path
         d="m 148.354,90.414 c 0.65,-0.674 0.962,-1.489 0.962,-2.503 0,-1.003 -0.322,-1.862 -0.957,-2.554 -0.613,-0.635 -1.61,-0.971 -2.958,-0.995 l -5.375,0 0,7.117 5.38,0 c 1.34,0 2.331,-0.358 2.948,-1.065 z"
         id="path13"
         inkscape:connector-curvature="0"
         style="fill:#0267b1" /><path
         d="m 145.783,95.612 -5.758,0 0,7.482 5.763,0 c 1.363,-0.024 2.369,-0.405 2.985,-1.133 0.629,-0.728 0.947,-1.604 0.947,-2.609 0,-1.027 -0.318,-1.917 -0.946,-2.645 -0.615,-0.703 -1.622,-1.072 -2.991,-1.095 z"
         id="path15"
         inkscape:connector-curvature="0"
         style="fill:#0267b1" /></g><g
       id="g4173"><path
         id="path17"
         d="m 195.122,35.673 c -0.633,0 -1.176,-0.48 -1.241,-1.124 -0.07,-0.687 0.43,-1.3 1.116,-1.37 l 19.818,-2.016 c 0.676,-0.074 1.3,0.43 1.37,1.117 0.07,0.687 -0.43,1.301 -1.116,1.37 l -19.818,2.016 c -0.043,0.005 -0.086,0.007 -0.129,0.007 z"
         inkscape:connector-curvature="0"
         style="fill:#0267b1" /><path
         id="path19"
         d="m 214.986,41.673 -19.905,0 c -0.69,0 -1.25,-0.561 -1.25,-1.25 0,-0.691 0.56,-1.25 1.25,-1.25 l 19.905,0 c 0.69,0 1.25,0.559 1.25,1.25 0,0.689 -0.559,1.25 -1.25,1.25 z"
         inkscape:connector-curvature="0"
         style="fill:#0267b1" /><path
         id="path21"
         d="m 214.945,49.688 c -0.043,0 -0.085,-0.002 -0.129,-0.007 l -19.817,-2.016 c -0.687,-0.069 -1.187,-0.683 -1.116,-1.37 0.069,-0.688 0.676,-1.191 1.37,-1.117 l 19.817,2.016 c 0.687,0.07 1.187,0.684 1.116,1.37 -0.065,0.644 -0.608,1.124 -1.241,1.124 z"
         inkscape:connector-curvature="0"
         style="fill:#0267b1" /></g><g
       id="g4178"><path
         id="path23"
         d="m 28.114,100.657 c -0.627,0 -1.168,-0.472 -1.241,-1.109 -0.078,-0.687 0.416,-1.306 1.102,-1.383 l 17.839,-2.016 c 0.686,-0.064 1.305,0.417 1.382,1.102 0.078,0.687 -0.416,1.306 -1.102,1.383 l -17.839,2.016 c -0.047,0.004 -0.094,0.007 -0.141,0.007 z"
         inkscape:connector-curvature="0"
         style="fill:#0267b1" /><path
         id="path25"
         d="m 45.994,92.626 -17.919,0 c -0.69,0 -1.25,-0.56 -1.25,-1.25 0,-0.69 0.56,-1.25 1.25,-1.25 l 17.919,0 c 0.69,0 1.25,0.56 1.25,1.25 0,0.69 -0.56,1.25 -1.25,1.25 z"
         inkscape:connector-curvature="0"
         style="fill:#0267b1" /><path
         id="path27"
         d="m 45.955,86.642 c -0.047,0 -0.094,-0.003 -0.142,-0.008 L 27.974,84.618 c -0.686,-0.077 -1.18,-0.696 -1.102,-1.383 0.078,-0.686 0.699,-1.177 1.382,-1.102 l 17.839,2.016 c 0.686,0.077 1.18,0.696 1.102,1.383 -0.072,0.638 -0.613,1.11 -1.24,1.11 z"
         inkscape:connector-curvature="0"
         style="fill:#0267b1" /></g><g
       id="g4183"><g
         id="g29"><path
           id="path31"
           d="m 107.439,81.421 -0.576,-1.018 c -1.445,-2.191 -3.835,-3.348 -6.913,-3.348 l -38.693,0 c -2.941,0 -8.503,1.777 -8.503,8.508 l 0,12 0.057,0.16 c 0.206,0.588 0.811,1.215 1.89,1.215 L 61.7,98.94 c -0.119,0.492 -0.202,1.002 -0.202,1.545 0,2.875 1.818,5.211 4.062,5.211 2.243,0 4.06,-2.336 4.06,-5.211 0,-0.541 -0.083,-1.053 -0.202,-1.543 l 26.295,0.008 c -0.117,0.488 -0.199,0.996 -0.199,1.535 0,2.875 1.819,5.211 4.061,5.211 2.244,0 4.06,-2.336 4.06,-5.211 0,-0.539 -0.081,-1.045 -0.199,-1.533 l 7.279,0.002 c 1.679,0 1.834,-1.139 1.85,-1.43 l 0,-6.365 -5.126,-9.738 z m -44.064,5.908 -8.622,0 0,-1.766 c 0,-6.436 6.238,-6.508 6.503,-6.508 l 2.119,0 0,8.274 z m 9.736,0 -7.735,0 0,-8.273 7.735,0 0,8.273 z m 9.735,0 -7.735,0 0,-8.273 7.735,0 0,8.273 z m 9.734,0 -7.734,0 0,-8.273 7.734,0 0,8.273 z m 2,0 0,-8.273 5.371,0 c 2.408,0 4.172,0.822 5.217,2.406 l 1.426,2.693 1.117,3.174 -13.131,0 z m 15.32,7.149 c -0.72,0 -1.304,-0.875 -1.304,-1.953 0,-1.086 0.584,-1.961 1.304,-1.961 0.72,0 1.304,0.875 1.304,1.961 0.001,1.078 -0.583,1.953 -1.304,1.953 z"
           inkscape:connector-curvature="0"
           style="fill:#0267b1" /></g><path
         id="path33"
         d="m 109.9,94.478 c -0.72,0 -1.304,-0.875 -1.304,-1.953 0,-1.086 0.584,-1.961 1.304,-1.961 0.72,0 1.304,0.875 1.304,1.961 0.001,1.078 -0.583,1.953 -1.304,1.953 z"
         inkscape:connector-curvature="0"
         style="fill:#ffffff" /></g></g></svg>