<?xml version="1.0" encoding="UTF-8" standalone="no"?>
<svg
   xmlns:dc="http://purl.org/dc/elements/1.1/"
   xmlns:cc="http://creativecommons.org/ns#"
   xmlns:rdf="http://www.w3.org/1999/02/22-rdf-syntax-ns#"
   xmlns:svg="http://www.w3.org/2000/svg"
   xmlns="http://www.w3.org/2000/svg"
   xmlns:sodipodi="http://sodipodi.sourceforge.net/DTD/sodipodi-0.dtd"
   xmlns:inkscape="http://www.inkscape.org/namespaces/inkscape"
   viewBox="0 0 216.57 56.27"
   version="1.1"
   id="svg53"
   sodipodi:docname="logo_du_site_(pages_interieures).svg"
   inkscape:version="0.92.1 r15371">
  <metadata
     id="metadata57">
    <rdf:RDF>
      <cc:Work
         rdf:about="">
        <dc:format>image/svg+xml</dc:format>
        <dc:type
           rdf:resource="http://purl.org/dc/dcmitype/StillImage" />
        <dc:title>Fichier 1</dc:title>
      </cc:Work>
    </rdf:RDF>
  </metadata>
  <sodipodi:namedview
     pagecolor="#ffffff"
     bordercolor="#666666"
     borderopacity="1"
     objecttolerance="10"
     gridtolerance="10"
     guidetolerance="10"
     inkscape:pageopacity="0"
     inkscape:pageshadow="2"
     inkscape:window-width="1680"
     inkscape:window-height="1023"
     id="namedview55"
     showgrid="false"
     inkscape:zoom="4.3202867"
     inkscape:cx="157.70302"
     inkscape:cy="28.135"
     inkscape:window-x="0"
     inkscape:window-y="27"
     inkscape:window-maximized="1"
     inkscape:current-layer="svg53" />
  <defs
     id="defs7">
    <style
       id="style2">.cls-1{fill:none;}.cls-2{clip-path:url(#clip-path);}.cls-3{fill:#fff;}</style>
    <clipPath
       id="clip-path"
       transform="translate(-42.57 -102.12)">
      <rect
         class="cls-1"
         width="595.28"
         height="256.52"
         id="rect4" />
    </clipPath>
  </defs>
  <title
     id="title9">Fichier 1</title>
  <g
     id="Calque_2"
     data-name="Calque 2"
     fill="#ffffff">
    <g
       id="Calque_1-2"
       data-name="Calque 1">
      <g
         class="cls-2"
         clip-path="url(#clip-path)"
         id="g49">
        <path
           class="cls-3"
           d="M121.76,102.12a20.49,20.49,0,0,0-14.67,6.17,20.46,20.46,0,0,0-26.79-2.17l8.5,8.5a8.78,8.78,0,0,1,12.42,8V157.8h11.71V122.63h0a8.79,8.79,0,0,1,8.79-8.8H129l11.7-11.71Z"
           transform="translate(-42.57 -102.12)"
           id="path11"
           style="fill:#00a99b;fill-opacity:1" />
        <path
           class="cls-3"
           d="M71.89,122.63v14.66a8.79,8.79,0,1,1-17.58,0V113.8L42.57,125.57v11.72a20.53,20.53,0,0,0,41.06,0V122.63a8.79,8.79,0,0,1,5.16-8l-8.5-8.5a20.45,20.45,0,0,0-8.4,16.52"
           transform="translate(-42.57 -102.12)"
           id="path13"
           style="fill:#2f3e47;fill-opacity:1" />
        <path
           class="cls-3"
           d="M136.55,157.84a7.74,7.74,0,0,1-.17-1.65,5.2,5.2,0,0,1-4,2,6,6,0,0,1,0-11.95,5.5,5.5,0,0,1,3.84,1.68V141h1.92V155a14.87,14.87,0,0,0,.19,2.88Zm-7.72-5.66c0,2.61,1.68,4.32,3.74,4.32a4.93,4.93,0,0,0,3.65-1.75v-5.09a5.36,5.36,0,0,0-3.65-1.75c-2.06,0-3.74,1.68-3.74,4.27"
           transform="translate(-42.57 -102.12)"
           id="path15"
           style="fill:#2f3e47;fill-opacity:1" />
        <path
           class="cls-3"
           d="M152.77,156.06a8.06,8.06,0,0,1-5.49,2.11,5.56,5.56,0,0,1-5.78-5.85,5.89,5.89,0,0,1,5.95-6.09,5.4,5.4,0,0,1,5.66,5.66,4.64,4.64,0,0,1,0,.58h-9.67a3.88,3.88,0,0,0,4.05,4,5.69,5.69,0,0,0,4-1.65ZM143.56,151H151c0-2.11-1.94-3.12-3.65-3.12a3.85,3.85,0,0,0-3.79,3.12"
           transform="translate(-42.57 -102.12)"
           id="path17"
           style="fill:#2f3e47;fill-opacity:1" />
        <polygon
           class="cls-3"
           points="117.45 38.06 134.11 38.06 134.11 41.42 127.73 41.42 127.73 55.72 123.86 55.72 123.86 41.42 117.45 41.42 117.45 38.06"
           id="polygon19"
           style="fill:#2f3e47;fill-opacity:1" />
        <path
           class="cls-3"
           d="M187.85,139.64c5.6,0,10.09,4.19,10.09,9.33s-4.49,9.41-10.09,9.41-10-4.17-10-9.41,4.38-9.33,10-9.33m0,15.42a6,6,0,0,0,0-12.06,6,6,0,0,0,0,12.06"
           transform="translate(-42.57 -102.12)"
           id="path21"
           style="fill:#2f3e47;fill-opacity:1" />
        <path
           class="cls-3"
           d="M217.49,140.18v11.31c0,4.41-3.41,6.9-8.09,6.9s-8-2.49-8-6.9V140.18h3.89v11.31c0,2.33,1.87,3.57,4.14,3.57s4.19-1.24,4.19-3.57V140.18Z"
           transform="translate(-42.57 -102.12)"
           id="path23"
           style="fill:#2f3e47;fill-opacity:1" />
        <path
           class="cls-3"
           d="M222.46,157.84V140.18h9.79a6.89,6.89,0,0,1,5.3,1.92,5.28,5.28,0,0,1,1.46,3.65,5.41,5.41,0,0,1-3.57,5l4.14,7.11h-4.44l-3.57-6.49h-5.25v6.49Zm3.87-14.39v4.62h6.33a2.36,2.36,0,0,0,2.46-2.33,2.14,2.14,0,0,0-.62-1.54,2.64,2.64,0,0,0-2.11-.76Z"
           transform="translate(-42.57 -102.12)"
           id="path25"
           style="fill:#2f3e47;fill-opacity:1" />
        <path
           class="cls-3"
           d="M255.78,144.72a10.7,10.7,0,0,0-6.19-1.89c-1.76,0-3.33.65-3.33,2.16s2.33,1.68,4.62,1.87c3.22.22,8.25.59,8.25,5.46,0,4.35-3.62,6.06-8,6.06a14.83,14.83,0,0,1-9.71-3.49l2.19-2.65a12,12,0,0,0,7.57,3c2.24,0,4-.87,4-2.52s-1.81-2.08-4.46-2.3c-3.87-.24-8.41-.68-8.41-5.17,0-4.27,4-5.6,7.3-5.6A15.63,15.63,0,0,1,258,142Z"
           transform="translate(-42.57 -102.12)"
           id="path27"
           style="fill:#2f3e47;fill-opacity:1" />
        <path
           class="cls-3"
           d="M137.62,122.27v8.93a15.84,15.84,0,0,0,.21,3.07H136a9,9,0,0,1-.18-1.84,5.68,5.68,0,0,1-4.4,2.2c-2.63,0-4.66-1.77-4.66-4.22v-8.13h2.07v8.13a2.63,2.63,0,0,0,2.89,2.43,5.29,5.29,0,0,0,3.89-2v-8.54Z"
           transform="translate(-42.57 -102.12)"
           id="path29"
           style="fill:#00a99b;fill-opacity:1" />
        <path
           class="cls-3"
           d="M142.17,134.27v-9a14.16,14.16,0,0,0-.33-3h1.87a7.31,7.31,0,0,1,.28,1.84,5.74,5.74,0,0,1,4.43-2.23,4.32,4.32,0,0,1,4.63,4.25v8.13h-2v-8.13a2.64,2.64,0,0,0-2.89-2.46,5.26,5.26,0,0,0-3.89,2v8.54Z"
           transform="translate(-42.57 -102.12)"
           id="path31"
           style="fill:#00a99b;fill-opacity:1" />
        <path
           class="cls-3"
           d="M158.4,116.64a1.29,1.29,0,0,1,1.36,1.23,1.28,1.28,0,0,1-1.36,1.23,1.25,1.25,0,0,1-1.33-1.23,1.27,1.27,0,0,1,1.33-1.23m-1,5.63h2v12h-2Z"
           transform="translate(-42.57 -102.12)"
           id="path33"
           style="fill:#00a99b;fill-opacity:1" />
        <polygon
           class="cls-3"
           points="132.1 20.15 126.83 32.15 125.04 32.15 119.79 20.15 122.09 20.15 125.91 29.36 126.06 29.36 130 20.15 132.1 20.15"
           id="polygon35"
           style="fill:#00a99b;fill-opacity:1" />
        <path
           class="cls-3"
           d="M188.51,132.37a8.6,8.6,0,0,1-5.86,2.25,5.93,5.93,0,0,1-6.17-6.24,6.28,6.28,0,0,1,6.35-6.5,5.76,5.76,0,0,1,6,6,5.29,5.29,0,0,1,0,.61H178.53a4.14,4.14,0,0,0,4.32,4.27,6.06,6.06,0,0,0,4.3-1.76Zm-9.82-5.45h7.93c-.05-2.25-2.07-3.32-3.89-3.32a4.1,4.1,0,0,0-4,3.32"
           transform="translate(-42.57 -102.12)"
           id="path37"
           style="fill:#00a99b;fill-opacity:1" />
        <path
           class="cls-3"
           d="M192.4,134.27v-9a12.63,12.63,0,0,0-.36-3h1.89a8.84,8.84,0,0,1,.28,2.07c.82-1.23,1.89-2.46,3.66-2.46a2.48,2.48,0,0,1,1.82.61l-.67,1.87a3,3,0,0,0-1.61-.49c-1.3,0-2.25,1.18-3,2.2v8.19Z"
           transform="translate(-42.57 -102.12)"
           id="path39"
           style="fill:#00a99b;fill-opacity:1" />
        <path
           class="cls-3"
           d="M211.05,124.88a9.42,9.42,0,0,0-4.53-1.33c-1.41,0-2.89.51-2.89,1.77,0,1.46,2,1.59,3.4,1.64,2.1.1,5.65.28,5.65,3.63,0,2.79-2.51,4.07-5.63,4.07a10,10,0,0,1-5.89-1.87l.79-1.54A8.91,8.91,0,0,0,207,133c2,0,3.61-.74,3.61-2.17,0-1.66-2.15-1.82-3.61-1.89-2.48-.15-5.42-.36-5.42-3.35,0-2.81,2.61-3.71,4.88-3.71a11,11,0,0,1,5.35,1.48Z"
           transform="translate(-42.57 -102.12)"
           id="path41"
           style="fill:#00a99b;fill-opacity:1" />
        <path
           class="cls-3"
           d="M217.09,116.64a1.29,1.29,0,0,1,1.36,1.23,1.28,1.28,0,0,1-1.36,1.23,1.25,1.25,0,0,1-1.33-1.23,1.27,1.27,0,0,1,1.33-1.23m-1,5.63h2v12h-2Z"
           transform="translate(-42.57 -102.12)"
           id="path43"
           style="fill:#00a99b;fill-opacity:1" />
        <path
           class="cls-3"
           d="M221,122.27h2.35v-3.63h2v3.63H229v1.58h-3.61v7.44a1.5,1.5,0,0,0,1.66,1.61,5.46,5.46,0,0,0,2-.38l.25,1.59a5.81,5.81,0,0,1-2.63.59,3.14,3.14,0,0,1-3.33-3.4v-7.44H221Z"
           transform="translate(-42.57 -102.12)"
           id="path45"
           style="fill:#00a99b;fill-opacity:1" />
        <path
           class="cls-3"
           d="M243.44,132.37a8.6,8.6,0,0,1-5.86,2.25,5.93,5.93,0,0,1-6.17-6.24,6.28,6.28,0,0,1,6.34-6.5,5.76,5.76,0,0,1,6,6,5.09,5.09,0,0,1,0,.61H233.47a4.14,4.14,0,0,0,4.32,4.27,6.06,6.06,0,0,0,4.3-1.76Zm-9.82-5.45h7.93c-.05-2.25-2.07-3.32-3.89-3.32a4.1,4.1,0,0,0-4,3.32m7.11-10.36-2.66,3.73-1.84,0,2.17-3.73Z"
           transform="translate(-42.57 -102.12)"
           id="path47"
           style="fill:#00a99b;fill-opacity:1" />
      </g>
    </g>
  </g>
</svg>
