<?xml version="1.0" encoding="UTF-8" standalone="no"?>
<!-- Created with Inkscape (http://www.inkscape.org/) -->

<svg
   version="1.1"
   id="svg1"
   width="300.608"
   height="256.04395"
   viewBox="0 0 300.608 256.04395"
   xmlns="http://www.w3.org/2000/svg"
   xmlns:svg="http://www.w3.org/2000/svg">
  <defs
     id="defs1">
    <linearGradient
       x1="0"
       y1="0"
       x2="1"
       y2="0"
       gradientUnits="userSpaceOnUse"
       gradientTransform="matrix(0,95.208728,-95.208728,0,554.68042,302.57743)"
       spreadMethod="pad"
       id="linearGradient5">
      <stop
         style="stop-opacity:1;stop-color:#009ee2"
         offset="0"
         id="stop2" />
      <stop
         style="stop-opacity:1;stop-color:#009ee2"
         offset="0.194072"
         id="stop3" />
      <stop
         style="stop-opacity:1;stop-color:#2b3043"
         offset="0.892836"
         id="stop4" />
      <stop
         style="stop-opacity:1;stop-color:#2b3043"
         offset="1"
         id="stop5" />
    </linearGradient>
    <linearGradient
       x1="0"
       y1="0"
       x2="1"
       y2="0"
       gradientUnits="userSpaceOnUse"
       gradientTransform="matrix(0,95.208728,-95.208728,0,425.6475,302.57743)"
       spreadMethod="pad"
       id="linearGradient9">
      <stop
         style="stop-opacity:1;stop-color:#648498"
         offset="0"
         id="stop6" />
      <stop
         style="stop-opacity:1;stop-color:#648498"
         offset="0.194072"
         id="stop7" />
      <stop
         style="stop-opacity:1;stop-color:#2b3043"
         offset="0.892836"
         id="stop8" />
      <stop
         style="stop-opacity:1;stop-color:#2b3043"
         offset="1"
         id="stop9" />
    </linearGradient>
    <linearGradient
       x1="0"
       y1="0"
       x2="1"
       y2="0"
       gradientUnits="userSpaceOnUse"
       gradientTransform="matrix(0,95.208728,-95.208728,0,473.61805,302.57743)"
       spreadMethod="pad"
       id="linearGradient13">
      <stop
         style="stop-opacity:1;stop-color:#648498"
         offset="0"
         id="stop10" />
      <stop
         style="stop-opacity:1;stop-color:#648498"
         offset="0.194072"
         id="stop11" />
      <stop
         style="stop-opacity:1;stop-color:#2b3043"
         offset="0.892836"
         id="stop12" />
      <stop
         style="stop-opacity:1;stop-color:#2b3043"
         offset="1"
         id="stop13" />
    </linearGradient>
    <linearGradient
       x1="0"
       y1="0"
       x2="1"
       y2="0"
       gradientUnits="userSpaceOnUse"
       gradientTransform="matrix(0,95.208728,-95.208728,0,512.46558,302.57743)"
       spreadMethod="pad"
       id="linearGradient17">
      <stop
         style="stop-opacity:1;stop-color:#648498"
         offset="0"
         id="stop14" />
      <stop
         style="stop-opacity:1;stop-color:#648498"
         offset="0.194072"
         id="stop15" />
      <stop
         style="stop-opacity:1;stop-color:#2b3043"
         offset="0.892836"
         id="stop16" />
      <stop
         style="stop-opacity:1;stop-color:#2b3043"
         offset="1"
         id="stop17" />
    </linearGradient>
    <linearGradient
       x1="0"
       y1="0"
       x2="1"
       y2="0"
       gradientUnits="userSpaceOnUse"
       gradientTransform="matrix(0,95.208728,-95.208728,0,549.56153,302.57743)"
       spreadMethod="pad"
       id="linearGradient21">
      <stop
         style="stop-opacity:1;stop-color:#648498"
         offset="0"
         id="stop18" />
      <stop
         style="stop-opacity:1;stop-color:#648498"
         offset="0.194072"
         id="stop19" />
      <stop
         style="stop-opacity:1;stop-color:#2b3043"
         offset="0.892836"
         id="stop20" />
      <stop
         style="stop-opacity:1;stop-color:#2b3043"
         offset="1"
         id="stop21" />
    </linearGradient>
    <linearGradient
       x1="0"
       y1="0"
       x2="1"
       y2="0"
       gradientUnits="userSpaceOnUse"
       gradientTransform="matrix(0,95.208728,-95.208728,0,585.58721,302.57743)"
       spreadMethod="pad"
       id="linearGradient25">
      <stop
         style="stop-opacity:1;stop-color:#648498"
         offset="0"
         id="stop22" />
      <stop
         style="stop-opacity:1;stop-color:#648498"
         offset="0.194072"
         id="stop23" />
      <stop
         style="stop-opacity:1;stop-color:#2b3043"
         offset="0.892836"
         id="stop24" />
      <stop
         style="stop-opacity:1;stop-color:#2b3043"
         offset="1"
         id="stop25" />
    </linearGradient>
    <linearGradient
       x1="0"
       y1="0"
       x2="1"
       y2="0"
       gradientUnits="userSpaceOnUse"
       gradientTransform="matrix(0,95.208728,-95.208728,0,631.70683,302.57743)"
       spreadMethod="pad"
       id="linearGradient29">
      <stop
         style="stop-opacity:1;stop-color:#648498"
         offset="0"
         id="stop26" />
      <stop
         style="stop-opacity:1;stop-color:#648498"
         offset="0.194072"
         id="stop27" />
      <stop
         style="stop-opacity:1;stop-color:#2b3043"
         offset="0.892836"
         id="stop28" />
      <stop
         style="stop-opacity:1;stop-color:#2b3043"
         offset="1"
         id="stop29" />
    </linearGradient>
    <linearGradient
       x1="0"
       y1="0"
       x2="1"
       y2="0"
       gradientUnits="userSpaceOnUse"
       gradientTransform="matrix(0,95.208728,-95.208728,0,684.3407,302.57743)"
       spreadMethod="pad"
       id="linearGradient33">
      <stop
         style="stop-opacity:1;stop-color:#648498"
         offset="0"
         id="stop30" />
      <stop
         style="stop-opacity:1;stop-color:#648498"
         offset="0.194072"
         id="stop31" />
      <stop
         style="stop-opacity:1;stop-color:#2b3043"
         offset="0.892836"
         id="stop32" />
      <stop
         style="stop-opacity:1;stop-color:#2b3043"
         offset="1"
         id="stop33" />
    </linearGradient>
    <linearGradient
       x1="0"
       y1="0"
       x2="1"
       y2="0"
       gradientUnits="userSpaceOnUse"
       gradientTransform="matrix(0,95.208728,-95.208728,0,504.02609,302.57743)"
       spreadMethod="pad"
       id="linearGradient37">
      <stop
         style="stop-opacity:1;stop-color:#648498"
         offset="0"
         id="stop34" />
      <stop
         style="stop-opacity:1;stop-color:#648498"
         offset="0.194072"
         id="stop35" />
      <stop
         style="stop-opacity:1;stop-color:#2b3043"
         offset="0.892836"
         id="stop36" />
      <stop
         style="stop-opacity:1;stop-color:#2b3043"
         offset="1"
         id="stop37" />
    </linearGradient>
    <linearGradient
       x1="0"
       y1="0"
       x2="1"
       y2="0"
       gradientUnits="userSpaceOnUse"
       gradientTransform="matrix(0,95.208728,-95.208728,0,535.8099,302.57743)"
       spreadMethod="pad"
       id="linearGradient41">
      <stop
         style="stop-opacity:1;stop-color:#648498"
         offset="0"
         id="stop38" />
      <stop
         style="stop-opacity:1;stop-color:#648498"
         offset="0.194072"
         id="stop39" />
      <stop
         style="stop-opacity:1;stop-color:#2b3043"
         offset="0.892836"
         id="stop40" />
      <stop
         style="stop-opacity:1;stop-color:#2b3043"
         offset="1"
         id="stop41" />
    </linearGradient>
    <linearGradient
       x1="0"
       y1="0"
       x2="1"
       y2="0"
       gradientUnits="userSpaceOnUse"
       gradientTransform="matrix(0,95.208728,-95.208728,0,570.22351,302.57743)"
       spreadMethod="pad"
       id="linearGradient45">
      <stop
         style="stop-opacity:1;stop-color:#648498"
         offset="0"
         id="stop42" />
      <stop
         style="stop-opacity:1;stop-color:#648498"
         offset="0.194072"
         id="stop43" />
      <stop
         style="stop-opacity:1;stop-color:#2b3043"
         offset="0.892836"
         id="stop44" />
      <stop
         style="stop-opacity:1;stop-color:#2b3043"
         offset="1"
         id="stop45" />
    </linearGradient>
    <linearGradient
       x1="0"
       y1="0"
       x2="1"
       y2="0"
       gradientUnits="userSpaceOnUse"
       gradientTransform="matrix(0,95.208728,-95.208728,0,603.70259,302.57743)"
       spreadMethod="pad"
       id="linearGradient49">
      <stop
         style="stop-opacity:1;stop-color:#648498"
         offset="0"
         id="stop46" />
      <stop
         style="stop-opacity:1;stop-color:#648498"
         offset="0.194072"
         id="stop47" />
      <stop
         style="stop-opacity:1;stop-color:#2b3043"
         offset="0.892836"
         id="stop48" />
      <stop
         style="stop-opacity:1;stop-color:#2b3043"
         offset="1"
         id="stop49" />
    </linearGradient>
  </defs>
  <g
     id="layer-MC0"
     style="display:inline"
     transform="translate(-403.14869,-299.19476)">
    <path
       id="path5"
       d="m 501.61269,332.09341 c -2.02933,4.49733 1.22933,9.59333 6.164,9.59333 v 0 h 0.0613 c 2.71067,0 5.136,-1.62533 6.22534,-4.10667 v 0 c 6.73733,-15.34933 22.07866,-26.09866 39.88799,-26.09866 v 0 c 17.45067,0 33.128,10.33333 40.016,26.34933 v 0 c 1.45867,3.38933 0.34934,7.44 -2.804,9.35467 v 0 c -3.92933,2.38666 -8.89066,0.67733 -10.61333,-3.392 v 0 c -4.83733,-11.44 -16.41733,-18.556 -28.98533,-17.536 v 0 c -14.64933,1.18933 -26.168,13.464 -26.47333,28.15866 v 0 c -0.336,16.19467 12.74,29.476 28.85999,29.476 v 0 c 11.372,0 21.72134,-6.70933 26.36534,-17.09333 v 0 c 1.804,-4.03334 6.8,-5.64134 10.67866,-3.17467 v 0 c 3.10934,1.976 4.14267,6.04533 2.61867,9.39867 v 0 c -7.05467,15.52933 -22.596,25.54933 -39.66267,25.54933 v 0 c -16.38133,0 -30.67199,-9.09467 -38.10399,-22.49733 v 0 c -1.21867,-2.19734 -3.45867,-3.708 -5.97067,-3.73867 v 0 c -5.22933,-0.064 -8.56,5.556 -5.99867,10.092 v 0 c 1.22534,2.172 2.59334,4.252 4.08934,6.23067 v 0 l 38.47333,54.10533 c 3.94933,5.556 12.256,5.368 15.952,-0.35733 v 0 l 34.7,-53.748 c 7.196,-9.52 11.41466,-21.416 11.26266,-34.30667 v 0 c -0.348,-29.51333 -23.96266,-53.88533 -53.45333,-55.108 v 0 c -0.79467,-0.032 -1.58667,-0.0493 -2.37333,-0.0493 v 0 c -22.66133,0 -42.16533,13.50133 -50.916,32.89867"
       style="fill:url(#linearGradient5);stroke:none;stroke-width:1.33333" />
    <path
       id="path9"
       d="m 415.82202,471.36674 c -4.07599,2.28533 -7.20799,5.308 -9.39466,9.064 v 0 c -2.18533,3.75866 -3.27867,8.056 -3.27867,12.88933 v 0 c 0,7.47333 2.4,13.59866 7.20267,18.37866 v 0 c 4.8,4.78 10.97066,7.16934 18.508,7.16934 v 0 c 4.088,0 7.72533,-0.676 10.912,-2.028 v 0 c 2.072,-0.87867 4.228,-2.21067 6.46666,-3.99734 v 0 c 2.07467,-1.65466 2.28267,-4.74 0.44667,-6.656 v 0 c -1.62,-1.68933 -4.26133,-1.84666 -6.08933,-0.384 v 0 c -1.492,1.196 -2.90667,2.09467 -4.24,2.696 v 0 c -2.21867,1.00134 -4.66667,1.50134 -7.344,1.50134 v 0 c -3.14134,0 -5.99467,-0.71334 -8.564,-2.144 v 0 c -2.56934,-1.43067 -4.556,-3.39867 -5.96134,-5.90667 v 0 c -1.40533,-2.508 -2.10666,-5.37867 -2.10666,-8.612 v 0 c 0,-4.64133 1.58533,-8.54666 4.75866,-11.71333 v 0 c 3.172,-3.168 7.07467,-4.752 11.70667,-4.752 v 0 c 4.33467,0 8.32667,1.44667 11.97467,4.33867 v 0 c 1.756,1.392 4.272,1.26533 5.892,-0.28 v 0 l 0.028,-0.0267 c 1.952,-1.86133 1.86933,-5.036 -0.224,-6.73733 v 0 c -1.81467,-1.476 -3.80534,-2.70667 -5.97067,-3.69334 v 0 c -3.70267,-1.69066 -7.55333,-2.53466 -11.55333,-2.53466 v 0 c -4.70267,0 -9.092,1.14266 -13.16934,3.428"
       style="fill:url(#linearGradient9);stroke:none;stroke-width:1.33333" />
    <path
       id="path13"
       d="m 461.45536,469.15874 c -1.39867,0 -2.53067,1.132 -2.53067,2.53066 v 0 43.428 c 0,1.39733 1.132,2.53067 2.53067,2.53067 v 0 h 4.168 c 1.39866,0 2.532,-1.13334 2.532,-2.53067 v 0 -18.00533 h 0.844 l 10.19066,19.192 c 0.43867,0.82666 1.29867,1.344 2.23467,1.344 v 0 h 4.35333 c 1.90934,0 3.13067,-2.03467 2.23334,-3.72 v 0 l -8.22,-15.42667 c -0.668,-1.252 -0.16134,-2.78667 1.09466,-3.44533 v 0 c 1.91334,-1.004 3.42134,-2.28 4.52534,-3.828 v 0 c 1.52666,-2.144 2.29066,-4.808 2.29066,-7.99333 v 0 c 0,-3.03334 -0.692,-5.66 -2.07466,-7.88 v 0 c -1.38267,-2.21867 -3.21067,-3.80667 -5.48267,-4.76267 v 0 c -2.27067,-0.956 -6.08533,-1.43333 -11.44,-1.43333 v 0 z m 6.7,16.42266 v -4.89333 c 0,-1.39733 1.132,-2.53067 2.53066,-2.53067 v 0 c 2.45334,0 4.14,0.172 5.06,0.51334 v 0 c 0.91867,0.34266 1.65334,0.904 2.20134,1.68666 v 0 c 0.548,0.78267 0.82133,1.704 0.82133,2.76134 v 0 c 0,1.78666 -0.55333,3.06533 -1.66,3.83733 v 0 c -1.10533,0.772 -3.12667,1.156 -6.06133,1.156 v 0 h -0.36134 c -1.39866,0 -2.53066,-1.132 -2.53066,-2.53067"
       style="fill:url(#linearGradient13);stroke:none;stroke-width:1.33333" />
    <path
       id="path17"
       d="m 503.61536,469.15874 c -2.42267,0 -4.384,1.96266 -4.384,4.38533 v 0 39.72 c 0,2.42133 1.96133,4.384 4.384,4.384 v 0 h 17.7 c 2.42266,0 4.38533,-1.96267 4.38533,-4.384 v 0 -0.29734 c 0,-2.42133 -1.96267,-4.384 -4.38533,-4.384 v 0 h -8.536 c -2.42134,0 -4.38534,-1.96266 -4.38534,-4.384 v 0 -3.988 c 0,-2.42133 1.964,-4.384 4.38534,-4.384 v 0 h 8.536 c 2.42266,0 4.38533,-1.964 4.38533,-4.38533 v 0 -0.0973 c 0,-2.42133 -1.96267,-4.38533 -4.38533,-4.38533 v 0 h -8.536 c -2.42134,0 -4.38534,-1.96267 -4.38534,-4.384 v 0 c 0,-2.42134 1.964,-4.384 4.38534,-4.384 v 0 h 8.536 c 2.42266,0 4.38533,-1.96267 4.38533,-4.384 v 0 -0.26267 c 0,-2.42267 -1.96267,-4.38533 -4.38533,-4.38533 v 0 z"
       style="fill:url(#linearGradient17);stroke:none;stroke-width:1.33333" />
    <path
       id="path21"
       d="m 539.61269,471.54807 c -2.564,2.40667 -3.84533,5.292 -3.84533,8.65333 v 0 c 0,2.33067 0.77066,4.664 2.312,7.00534 v 0 c 1.54,2.34 4.95333,5.66399 10.23599,9.97066 v 0 c 2.77334,2.264 4.568,3.94533 5.38267,5.044 v 0 c 0.81467,1.09867 1.22133,2.19733 1.22133,3.296 v 0 c 0,1.20933 -0.53866,2.27467 -1.61733,3.19733 v 0 c -1.07867,0.924 -2.41067,1.384 -3.99467,1.384 v 0 c -2.18533,0 -4.18666,-1.108 -6.00799,-3.32533 v 0 c -1.36667,-1.664 -3.74534,-2.07867 -5.588,-0.96533 v 0 l -0.484,0.29066 c -2.22934,1.34534 -2.76,4.32667 -1.176,6.392 v 0 c 1.22133,1.59467 2.564,2.87334 4.02533,3.83867 v 0 c 2.56267,1.69333 5.572,2.53867 9.02533,2.53867 v 0 c 4.42133,0 8.008,-1.29734 10.75733,-3.88934 v 0 c 2.74934,-2.592 4.12534,-5.88 4.12534,-9.856 v 0 c 0,-2.044 -0.39067,-3.92933 -1.17334,-5.65466 v 0 c -0.78133,-1.724 -2.10666,-3.532 -3.97733,-5.42134 v 0 c -0.74933,-0.76933 -2.88533,-2.62533 -6.40667,-5.57199 v 0 c -3.76533,-3.18534 -6.02,-5.26134 -6.76933,-6.23067 v 0 c -0.54933,-0.724 -0.82533,-1.49333 -0.82533,-2.30533 v 0 c 0,-0.81467 0.38533,-1.54534 1.15466,-2.19334 v 0 c 0.772,-0.648 1.76267,-0.972 2.97334,-0.972 v 0 c 1.59866,0 3.18,0.69067 4.74266,2.07067 v 0 c 1.67334,1.47867 4.15334,1.55867 5.828,0.0813 v 0 l 0.19334,-0.172 c 1.94666,-1.71866 1.95866,-4.76266 0.02,-6.48933 v 0 c -1.29734,-1.15333 -2.54,-2.03467 -3.72934,-2.644 v 0 c -2.18933,-1.12133 -4.49466,-1.68133 -6.91466,-1.68133 v 0 c -3.76133,0 -6.92533,1.20266 -9.488,3.60933"
       style="fill:url(#linearGradient21);stroke:none;stroke-width:1.33333" />
    <path
       id="path25"
       d="m 575.63935,471.54807 c -2.56533,2.40667 -3.84533,5.292 -3.84533,8.65333 v 0 c 0,2.33067 0.76933,4.664 2.31067,7.00534 v 0 c 1.54133,2.34 4.95333,5.66399 10.236,9.97066 v 0 c 2.77333,2.264 4.568,3.94533 5.384,5.044 v 0 c 0.81333,1.09867 1.22,2.19733 1.22,3.296 v 0 c 0,1.20933 -0.53867,2.27467 -1.61734,3.19733 v 0 c -1.07733,0.924 -2.40933,1.384 -3.99333,1.384 v 0 c -2.18533,0 -4.188,-1.108 -6.00933,-3.32533 v 0 c -1.36534,-1.664 -3.74534,-2.07867 -5.588,-0.96533 v 0 l -0.484,0.29066 c -2.228,1.34534 -2.76,4.32667 -1.176,6.392 v 0 c 1.22266,1.59467 2.564,2.87334 4.02533,3.83867 v 0 c 2.56267,1.69333 5.572,2.53867 9.02667,2.53867 v 0 c 4.42,0 8.00666,-1.29734 10.756,-3.88934 v 0 c 2.75066,-2.592 4.12666,-5.88 4.12666,-9.856 v 0 c 0,-2.044 -0.392,-3.92933 -1.17333,-5.65466 v 0 c -0.78267,-1.724 -2.108,-3.532 -3.97867,-5.42134 v 0 c -0.74933,-0.76933 -2.884,-2.62533 -6.40533,-5.57199 v 0 c -3.76533,-3.18534 -6.02133,-5.26134 -6.76933,-6.23067 v 0 c -0.55067,-0.724 -0.82667,-1.49333 -0.82667,-2.30533 v 0 c 0,-0.81467 0.38533,-1.54534 1.156,-2.19334 v 0 c 0.77067,-0.648 1.76133,-0.972 2.972,-0.972 v 0 c 1.59867,0 3.18133,0.69067 4.74267,2.07067 v 0 c 1.67466,1.47867 4.15333,1.55867 5.828,0.0813 v 0 l 0.19466,-0.172 c 1.94534,-1.71866 1.95867,-4.76266 0.0187,-6.48933 v 0 c -1.296,-1.15333 -2.53867,-2.03467 -3.728,-2.644 v 0 c -2.19067,-1.12133 -4.49467,-1.68133 -6.91467,-1.68133 v 0 c -3.764,0 -6.92666,1.20266 -9.488,3.60933"
       style="fill:url(#linearGradient25);stroke:none;stroke-width:1.33333" />
    <path
       id="path29"
       d="m 629.04335,468.06807 c -2.44666,0.22533 -4.85066,0.856 -7.09866,1.85067 v 0 c -5.29334,2.34 -9.32,5.9 -12.07467,10.67866 v 0 c -2.24267,3.88934 -3.364,8.15334 -3.364,12.78933 v 0 c 0,6.92267 2.408,12.9 7.224,17.932 v 0 c 4.816,5.03334 10.86267,7.54934 18.14133,7.54934 v 0 c 6.948,0 12.85867,-2.44934 17.72934,-7.35067 v 0 c 4.87066,-4.90133 7.30666,-10.88933 7.30666,-17.96533 v 0 c 0,-7.14267 -2.468,-13.196 -7.40533,-18.16267 v 0 c -4.936,-4.96666 -10.836,-7.45066 -17.69733,-7.45066 v 0 c -0.904,0 -1.824,0.0427 -2.76134,0.12933 m -6.648,38.208 c -3.85066,-3.12 -5.77466,-7.36267 -5.77466,-12.724 v 0 c 0,-4.81333 1.528,-8.77867 4.58666,-11.9 v 0 c 3.05734,-3.12 6.83067,-4.68133 11.31867,-4.68133 v 0 c 4.444,0 8.216,1.6 11.31867,4.796 v 0 c 3.1,3.19866 4.652,7.104 4.652,11.71999 v 0 c 0,4.636 -1.54134,8.536 -4.62,11.70134 v 0 c -3.08,3.164 -6.80934,4.74666 -11.18667,4.74666 v 0 c -3.87067,0 -7.30267,-1.22 -10.29467,-3.65866"
       style="fill:url(#linearGradient29);stroke:none;stroke-width:1.33333" />
    <path
       id="path33"
       d="m 694.64335,469.15874 c -0.064,0 -0.11733,0.052 -0.11733,0.116 v 0 31.39999 c 0,0.11467 -0.15067,0.16 -0.21467,0.0627 v 0 l -20.49866,-31.52666 c -0.0213,-0.032 -0.0573,-0.052 -0.0973,-0.052 v 0 h -8.67466 c -0.0627,0 -0.116,0.052 -0.116,0.116 v 0 48.25733 c 0,0.064 0.0533,0.116 0.116,0.116 v 0 h 8.99733 c 0.064,0 0.11733,-0.052 0.11733,-0.116 v 0 -31.3 c 0,-0.116 0.15067,-0.16133 0.21467,-0.0653 v 0 l 20.47333,31.42799 c 0.02,0.0347 0.0573,0.0533 0.0973,0.0533 v 0 h 8.69867 c 0.064,0 0.11733,-0.052 0.11733,-0.116 v 0 -48.25733 c 0,-0.064 -0.0533,-0.116 -0.11733,-0.116 v 0 z"
       style="fill:url(#linearGradient33);stroke:none;stroke-width:1.33333" />
    <path
       id="path37"
       d="m 498.01669,532.51473 c -0.064,0 -0.116,0.0533 -0.116,0.11734 v 0 3.92533 c 0,0.0653 0.052,0.11733 0.116,0.11733 v 0 h 3.7 c 0.064,0 0.116,0.052 0.116,0.11734 v 0 17.77466 c 0,0.0627 0.0533,0.116 0.11733,0.116 v 0 h 4.04667 c 0.064,0 0.116,-0.0533 0.116,-0.116 v 0 -17.77466 c 0,-0.0653 0.0533,-0.11734 0.11733,-0.11734 v 0 h 3.80534 c 0.064,0 0.116,-0.052 0.116,-0.11733 v 0 -3.92533 c 0,-0.064 -0.052,-0.11734 -0.116,-0.11734 v 0 z"
       style="fill:url(#linearGradient37);stroke:none;stroke-width:1.33333" />
    <path
       id="path41"
       d="m 530.03002,533.5334 c -1.78133,1.03867 -3.18266,2.44267 -4.20266,4.21067 v 0 c -1.02534,1.77866 -1.53734,3.728 -1.53734,5.848 v 0 c 0,3.164 1.1,5.89733 3.30134,8.19733 v 0 c 2.20133,2.3 4.96666,3.44933 8.29333,3.44933 v 0 c 3.17733,0 5.87867,-1.11866 8.10533,-3.36 v 0 c 2.22667,-2.24 3.34133,-4.97733 3.34133,-8.212 v 0 c 0,-3.264 -1.12933,-6.032 -3.38666,-8.30266 v 0 c -2.108,-2.12 -4.6,-3.25067 -7.476,-3.392 v 0 c -0.188,-0.008 -0.376,-0.0133 -0.564,-0.0133 v 0 c -2.05467,0 -4.096,0.53867 -5.87467,1.57467 m 1.14934,15.95067 c -1.76,-1.42667 -2.64,-3.36534 -2.64,-5.81734 v 0 c 0,-2.2 0.69866,-4.01333 2.09733,-5.44 v 0 c 1.592,-1.624 3.60933,-2.32533 6.05067,-2.09866 v 0 c 1.276,0.11866 2.504,0.61733 3.49866,1.424 v 0 c 1.94934,1.58266 2.924,3.61066 2.924,6.084 v 0 c 0,2.12133 -0.70266,3.904 -2.11066,5.35066 v 0 c -1.408,1.44667 -3.11334,2.17067 -5.11467,2.17067 v 0 c -1.76933,0 -3.33733,-0.55867 -4.70533,-1.67333"
       style="fill:url(#linearGradient41);stroke:none;stroke-width:1.33333" />
    <path
       id="path45"
       d="m 563.75535,532.51473 c -0.0653,0 -0.116,0.0533 -0.116,0.11734 v 0 21.93466 c 0,0.0627 0.0507,0.116 0.116,0.116 v 0 h 3.98534 c 0.064,0 0.11733,-0.0533 0.11733,-0.116 v 0 -9.156 c 0,-0.064 0.0547,-0.116 0.12,-0.116 v 0 c 2.084,-0.004 3.52667,-0.12 4.32533,-0.34666 v 0 c 1.38667,-0.40134 2.484,-1.11467 3.292,-2.14134 v 0 c 0.80934,-1.02266 1.21334,-2.30933 1.21334,-3.856 v 0 c 0,-1.396 -0.308,-2.59466 -0.92667,-3.59466 v 0 c -0.61733,-0.99867 -1.46133,-1.72267 -2.532,-2.16934 v 0 c -1.07067,-0.448 -2.81467,-0.672 -5.236,-0.672 v 0 z m 4.10267,8.54934 v -4.31734 c 0,-0.0653 0.052,-0.11733 0.116,-0.11733 v 0 h 1.07467 c 1.30533,0 2.19866,0.14667 2.68133,0.43867 v 0 c 0.664,0.39333 0.99467,1.01866 0.99467,1.87466 v 0 c 0,0.49334 -0.11867,0.91467 -0.35334,1.26267 v 0 c -0.236,0.34667 -0.56,0.59733 -0.972,0.74933 v 0 c -0.41333,0.14934 -1.14666,0.22534 -2.20133,0.22534 v 0 h -1.224 c -0.064,0 -0.116,-0.052 -0.116,-0.116"
       style="fill:url(#linearGradient45);stroke:none;stroke-width:1.33333" />
    <path
       id="path49"
       d="m 597.92335,533.5334 c -1.78133,1.03867 -3.18266,2.44267 -4.20266,4.21067 v 0 c -1.02667,1.77866 -1.53867,3.728 -1.53867,5.848 v 0 c 0,3.164 1.10133,5.89733 3.30267,8.19733 v 0 c 2.20133,2.3 4.96666,3.44933 8.29333,3.44933 v 0 c 3.17733,0 5.87867,-1.11866 8.104,-3.36 v 0 c 2.228,-2.24 3.34133,-4.97733 3.34133,-8.212 v 0 c 0,-3.264 -1.12933,-6.032 -3.38533,-8.30266 v 0 c -2.108,-2.12 -4.60133,-3.25067 -7.47733,-3.392 v 0 c -0.188,-0.008 -0.376,-0.0133 -0.564,-0.0133 v 0 c -2.05334,0 -4.096,0.53867 -5.87334,1.57467 m 1.148,15.95067 c -1.76,-1.42667 -2.63866,-3.36534 -2.63866,-5.81734 v 0 c 0,-2.2 0.69866,-4.01333 2.096,-5.44 v 0 c 1.592,-1.624 3.60933,-2.32533 6.05333,-2.09866 v 0 c 1.27333,0.11866 2.50133,0.61733 3.496,1.424 v 0 c 1.95067,1.58266 2.92533,3.61066 2.92533,6.084 v 0 c 0,2.12133 -0.704,3.904 -2.112,5.35066 v 0 c -1.408,1.44667 -3.112,2.17067 -5.11333,2.17067 v 0 c -1.76933,0 -3.33867,-0.55867 -4.70667,-1.67333"
       style="fill:url(#linearGradient49);stroke:none;stroke-width:1.33333" />
  </g>
</svg>
