<?xml version="1.0" encoding="UTF-8"?>
<svg id="Calque_1" data-name="Calque 1" xmlns="http://www.w3.org/2000/svg" viewBox="0 0 496.92 90.4">
  <defs>
    <style>
      .cls-1, .cls-2, .cls-3, .cls-4 {
        stroke-width: 0px;
      }

      .cls-1, .cls-3 {
        fill: #fb7120;
      }

      .cls-2, .cls-4 {
        fill: #333;
      }

      .cls-3, .cls-4 {
        fill-rule: evenodd;
      }
    </style>
  </defs>
  <path class="cls-2" d="M136.97,34.72c2.25,0,4.48.31,6.66.94,2.19.63,4.11,1.49,5.76,2.57l-3.03,6.23c-1.65-.97-3.42-1.75-5.3-2.36-1.88-.61-3.47-.91-4.75-.91-1.05,0-1.9.19-2.52.58-.63.39-.94.96-.94,1.7,0,.99.49,1.76,1.46,2.28.97.53,2.51,1.09,4.6,1.69,2.2.63,4,1.26,5.4,1.89s2.62,1.57,3.64,2.83,1.54,2.94,1.54,5.03-.56,3.78-1.67,5.24c-1.11,1.46-2.62,2.55-4.52,3.28-1.9.73-4.04,1.1-6.41,1.1-2.61,0-5.18-.45-7.73-1.35-2.55-.9-4.76-2.13-6.65-3.68l3.1-6.17c1.6,1.38,3.47,2.51,5.63,3.39,2.16.88,4.07,1.33,5.74,1.33,1.29,0,2.29-.23,3.02-.69.72-.46,1.09-1.14,1.09-2.05,0-1.02-.5-1.8-1.51-2.34-1.01-.53-2.58-1.09-4.7-1.66-2.15-.6-3.93-1.2-5.32-1.8-1.4-.6-2.6-1.51-3.6-2.75-1-1.23-1.5-2.85-1.5-4.85s.52-3.59,1.55-5.01c1.03-1.42,2.5-2.52,4.4-3.3s4.1-1.17,6.59-1.17Z"/>
  <path class="cls-2" d="M182.15,53.34c0,2.75-.58,5.15-1.76,7.19-1.17,2.04-2.84,3.61-4.99,4.72-2.16,1.1-4.69,1.66-7.61,1.66s-5.5-.55-7.68-1.66c-2.18-1.11-3.86-2.68-5.05-4.72-1.19-2.04-1.78-4.44-1.78-7.19v-18.27h7.99v18.27c0,2.09.61,3.76,1.82,5.01,1.21,1.24,2.8,1.87,4.74,1.87s3.45-.61,4.61-1.84c1.16-1.23,1.73-2.91,1.73-5.03v-18.27h7.97v18.27h0Z"/>
  <rect class="cls-2" x="187.88" y="35.07" width="8.01" height="31.48"/>
  <path class="cls-2" d="M211.22,66.55l-12.23-31.48h8.54l8.06,23.16,8.03-23.16h8.23l-12.36,31.48h-8.28Z"/>
  <rect class="cls-2" x="234.93" y="35.07" width="8.01" height="31.48"/>
  <path class="cls-2" d="M270.48,35.07c3.26,0,6.16.66,8.69,1.99,2.53,1.32,4.5,3.18,5.92,5.55,1.41,2.38,2.12,5.11,2.12,8.2s-.72,5.78-2.16,8.17c-1.44,2.39-3.45,4.24-6.03,5.58s-5.53,2-8.87,2h-13.22v-31.48h13.55,0ZM264.95,60.16h5.71c1.62,0,3.07-.39,4.35-1.16,1.27-.77,2.27-1.87,2.99-3.28.72-1.41,1.08-3.03,1.08-4.86s-.37-3.45-1.12-4.87c-.75-1.42-1.79-2.53-3.13-3.33-1.34-.8-2.84-1.2-4.51-1.2h-5.36v18.71Z"/>
  <path class="cls-2" d="M299.42,41.37v6.26h15.02v6.3h-15.02v6.32h17.13v6.3h-25.14v-31.48h24.65v6.3s-16.64,0-16.64,0Z"/>
  <path class="cls-2" d="M337.42,41.37v7.29h14.12v6.3h-14.12v11.59h-8.01v-31.48h23.34v6.3h-15.32,0Z"/>
  <path class="cls-2" d="M377.9,59.86v6.7h-21.36v-31.48h8.01v24.79s13.35,0,13.35,0Z"/>
  <path class="cls-1" d="M396.63,34.8c3.21,0,6.11.7,8.71,2.1,2.6,1.4,4.64,3.31,6.12,5.73,1.48,2.42,2.22,5.13,2.22,8.13s-.74,5.77-2.22,8.23c-1.48,2.46-3.52,4.39-6.12,5.8-2.6,1.4-5.5,2.11-8.71,2.11s-6.06-.7-8.65-2.11c-2.59-1.4-4.63-3.34-6.12-5.8-1.49-2.46-2.23-5.2-2.23-8.23s.74-5.76,2.23-8.18c1.49-2.42,3.52-4.32,6.09-5.71,2.58-1.38,5.47-2.08,8.67-2.08ZM396.72,41.5c-1.58,0-3.06.41-4.42,1.22-1.37.81-2.45,1.93-3.26,3.35-.8,1.42-1.21,3-1.21,4.74s.4,3.33,1.21,4.77c.81,1.44,1.89,2.57,3.26,3.39,1.37.82,2.84,1.23,4.42,1.23s3.06-.41,4.39-1.23c1.33-.82,2.39-1.95,3.17-3.39.78-1.44,1.17-3.03,1.17-4.77s-.39-3.32-1.17-4.74c-.78-1.42-1.84-2.54-3.17-3.35-1.33-.81-2.8-1.22-4.39-1.22Z"/>
  <path class="cls-2" d="M431.43,41.5v25.05h-8.01v-25.05h-9.4v-6.48h26.89v6.48h-9.48Z"/>
  <path class="cls-2" d="M458.9,41.5v25.05h-8.01v-25.05h-9.4v-6.48h26.89v6.48h-9.48Z"/>
  <path class="cls-2" d="M479.8,41.37v6.26h15.02v6.3h-15.02v6.32h17.13v6.3h-25.14v-31.48h24.66v6.3s-16.64,0-16.64,0Z"/>
  <path class="cls-4" d="M0,43.24c25.88.17,46.85,21.24,46.85,47.17h-23.25c0-13.09-10.54-23.75-23.6-23.92,0,0,0-23.25,0-23.25ZM0,2.08c48.6.17,88,39.68,88,88.32h-38.59c0-27.34-22.11-49.55-49.4-49.73V2.08ZM26.32,0h42.82c11.74,0,21.26,9.52,21.26,21.26v43.62C81.65,33.75,57.29,9.13,26.32,0Z"/>
  <path class="cls-3" d="M0,70.14c11.03.17,19.94,9.18,19.94,20.26h0c-11.01,0-19.94-8.93-19.94-19.94,0-.21,0-.32,0-.32Z"/>
</svg>