<?xml version="1.0" encoding="utf-8"?>
<!-- Generator: Adobe Illustrator 28.1.0, SVG Export Plug-In . SVG Version: 6.00 Build 0)  -->
<svg version="1.1" id="Calque_1" xmlns="http://www.w3.org/2000/svg" xmlns:xlink="http://www.w3.org/1999/xlink" x="0px" y="0px"
	 viewBox="0 0 1500 1500" style="enable-background:new 0 0 1500 1500;" xml:space="preserve">
<style type="text/css">
	.st0{fill:#C99D66;}
	.st1{fill:#656564;}
	.st2{fill:none;stroke:#D1A2CA;stroke-miterlimit:10;}
</style>
<g>
	<path class="st0" d="M699.68,714.53c-98.84-82.45-180.09-220.27-171.47-352.68c4.63-59.72,28.84-110.84,76.67-148.4
		c70.72-57.19,165.96-69.66,247.21-27.24c26.82,14.01,50.53,32.24,70.59,54.69c15.17,17.36,27.41,37.78,35.33,59.46
		c35.9,99.72-0.26,209.61-53.68,294.96c-28.72,45.02-63.37,85.61-104.64,119.2c8.38-25.05,16.85-49.29,24.41-73.46
		c24.72-79.67,52.62-188.43,30.49-269.66c-2.54-8.75-6.32-18.19-10.73-25.94c-0.8-1.14-2.17-3.48-2.91-4.65
		c-0.95-1.13-2.16-2.98-3.04-4.2c-6.26-7.9-14.09-14.33-22.4-20.1C766.69,282.07,713.54,288.56,669.3,327
		c-22.71,21.11-29.5,57.28-31.63,87.77c-1.53,21.99-0.4,44.37,1.86,66.53C648.3,561.21,673.69,637.9,699.68,714.53L699.68,714.53z"
		/>
	<path class="st1" d="M492.5,498.37c-73.66,80.81-182.64,222.46-85.86,321.93c77.52,77.34,239.97,107.86,347.47,108.38
		c94.86-1.16,213.19-21.43,294.92-70.63c157.18-95.05,53.57-266.14-36.17-371.17c101.91,50.51,202.81,152.26,203.64,272.82
		c1.02,135.59-117.31,222.12-233.96,262.5c-148.8,52.23-308,52.39-456.63-0.31c-76.6-27.51-151.32-68.75-200.52-136.01
		c-35.22-48.17-50.42-109.47-37.14-168.16C310.19,617.38,402.76,538.83,492.5,498.37L492.5,498.37z"/>
	<path class="st2" d="M750,682.07"/>
	<path class="st2" d="M750,682.07"/>
	<path class="st2" d="M750,615.96"/>
	<path class="st2" d="M750,615.96"/>
	<circle class="st0" cx="750" cy="433.56" r="68.74"/>
	<g>
		<g>
			<path class="st1" d="M315.42,1335.44v-26.23h6.7v26.23H315.42z"/>
			<path class="st1" d="M343.19,1335.44l-10.07-16.02l0.18,16.02h-6.42v-26.23h5.78l10.21,16.59l-0.29-16.59H349v26.23H343.19z"/>
			<path class="st1" d="M353.8,1335.44v-26.23h14.32v5.88h-7.9v4.47h7.62v5.89h-7.62v10H353.8z"/>
			<path class="st1" d="M370.61,1322.93c0-8.12,5.85-14.22,13.83-14.22c7.66,0,13.86,5.92,13.86,13.44
				c0,7.76-6.03,13.79-13.54,13.79C377.46,1335.94,370.61,1330.69,370.61,1322.93z M391.6,1322.36c0-4.11-2.94-7.76-7.16-7.76
				c-4.19,0-7.13,3.51-7.13,7.66c0,4.32,2.94,7.8,7.23,7.8C388.69,1330.05,391.6,1326.54,391.6,1322.36z"/>
			<path class="st1" d="M439.69,1322.01c0,7.05-5.18,13.97-14,13.97c-7.76,0-13.93-6.06-13.93-13.76c0-7.94,6.42-13.51,14.04-13.51
				c5.92,0,11.63,4.01,13.12,9.29h-7.51c-1.24-2.16-3.26-3.4-5.78-3.4c-4.22,0-7.16,3.4-7.16,7.62c0,4.36,2.77,7.87,7.2,7.87
				c3.12,0,5.46-1.52,6.28-4.22h-7.83v-5.35h15.6V1322.01z"/>
			<path class="st1" d="M443.19,1335.44v-26.23h14.57v5.88h-8.15v4.08h7.9v5.88h-7.9v4.5h8.15v5.89H443.19z M447.37,1307.93
				l-1.67-3.47l8.51-4.57l1.88,4.18L447.37,1307.93z"/>
			<path class="st1" d="M474.46,1335.44l-6.06-8.47h-0.07v8.47h-6.42v-26.23h8.58c2.73,0,4.82,0.35,6.2,0.96
				c2.84,1.28,4.82,4.36,4.82,8.08c0,4.15-2.48,7.55-6.52,8.26l7.12,8.93H474.46z M470.81,1322.4c2.66,0,4.29-1.24,4.29-3.76
				c0-2.27-1.7-3.55-4.22-3.55h-2.55v7.3H470.81z"/>
			<path class="st1" d="M501.99,1335.44l-1.28-3.79h-9.11l-1.38,3.79h-7.2l10.53-26.23h5.28l10.42,26.23H501.99z M496.24,1317.4
				l-0.1-0.04l-2.7,8.97h5.5L496.24,1317.4z"/>
			<path class="st1" d="M528.27,1335.44l-10.07-16.02l0.18,16.02h-6.42v-26.23h5.78l10.21,16.59l-0.29-16.59h6.42v26.23H528.27z"/>
			<path class="st1" d="M557.89,1319.17c-1.13-2.87-3.62-4.57-6.35-4.57c-4.18,0-7.02,3.58-7.02,7.66c0,4.25,2.91,7.8,7.05,7.8
				c2.66,0,4.93-1.49,6.31-4.43h7.02c-1.63,6.31-7.05,10.32-13.26,10.32c-3.65,0-7.09-1.28-9.79-3.94
				c-2.83-2.77-4.04-6.1-4.04-10.07c0-6.95,5.99-13.22,13.51-13.22c3.61,0,6.52,0.99,9.14,3.23c2.48,2.13,3.97,4.54,4.43,7.23
				H557.89z"/>
			<path class="st1" d="M568.39,1335.44v-26.23h14.57v5.88h-8.15v4.08h7.9v5.88h-7.9v4.5h8.15v5.89H568.39z"/>
			<path class="st0" d="M602.3,1338.99v-29.78h6.49v29.78H602.3z"/>
			<path class="st1" d="M628.73,1335.44v-26.23h6.7v26.23H628.73z"/>
			<path class="st1" d="M656.49,1335.44l-10.07-16.02l0.18,16.02h-6.42v-26.23h5.78l10.21,16.59l-0.29-16.59h6.42v26.23H656.49z"/>
			<path class="st1" d="M667.11,1335.44v-26.23h14.32v5.88h-7.9v4.47h7.62v5.89h-7.62v10H667.11z"/>
			<path class="st1" d="M683.92,1322.93c0-8.12,5.85-14.22,13.83-14.22c7.66,0,13.86,5.92,13.86,13.44
				c0,7.76-6.03,13.79-13.54,13.79C690.76,1335.94,683.92,1330.69,683.92,1322.93z M704.91,1322.36c0-4.11-2.94-7.76-7.16-7.76
				c-4.19,0-7.13,3.51-7.13,7.66c0,4.32,2.94,7.8,7.23,7.8C702,1330.05,704.91,1326.54,704.91,1322.36z"/>
			<path class="st1" d="M727.79,1335.44l-6.06-8.47h-0.07v8.47h-6.42v-26.23h8.58c2.73,0,4.82,0.35,6.2,0.96
				c2.84,1.28,4.82,4.36,4.82,8.08c0,4.15-2.48,7.55-6.52,8.26l7.12,8.93H727.79z M724.14,1322.4c2.66,0,4.29-1.24,4.29-3.76
				c0-2.27-1.7-3.55-4.22-3.55h-2.55v7.3H724.14z"/>
			<path class="st1" d="M759.92,1335.44l0.21-19.64l-0.07-0.07l-5.6,19.71h-4.43l-5.67-19.89l0.21,19.89h-6.17v-26.23h8.61
				l5.21,17.26h0.07l5.14-17.26h8.65v26.23H759.92z"/>
			<path class="st1" d="M787.77,1335.44l-1.28-3.79h-9.11l-1.38,3.79h-7.2l10.53-26.23h5.28l10.42,26.23H787.77z M782.02,1317.4
				l-0.1-0.04l-2.7,8.97h5.5L782.02,1317.4z"/>
			<path class="st1" d="M800.01,1335.44v-20.35h-5.18v-5.88h17.02v5.88h-5.14v20.35H800.01z"/>
			<path class="st1" d="M814.56,1335.44v-26.23h6.7v26.23H814.56z"/>
			<path class="st1" d="M824.88,1322.93c0-8.12,5.85-14.22,13.83-14.22c7.66,0,13.86,5.92,13.86,13.44
				c0,7.76-6.03,13.79-13.54,13.79C831.72,1335.94,824.88,1330.69,824.88,1322.93z M845.87,1322.36c0-4.11-2.94-7.76-7.16-7.76
				c-4.19,0-7.13,3.51-7.13,7.66c0,4.32,2.94,7.8,7.23,7.8C842.96,1330.05,845.87,1326.54,845.87,1322.36z"/>
			<path class="st1" d="M872.51,1335.44l-10.07-16.02l0.18,16.02h-6.42v-26.23h5.78l10.21,16.59l-0.29-16.59h6.42v26.23H872.51z"/>
			<path class="st1" d="M920.88,1322.01c0,7.05-5.18,13.97-14,13.97c-7.76,0-13.93-6.06-13.93-13.76c0-7.94,6.42-13.51,14.04-13.51
				c5.92,0,11.63,4.01,13.12,9.29h-7.51c-1.24-2.16-3.26-3.4-5.78-3.4c-4.22,0-7.16,3.4-7.16,7.62c0,4.36,2.77,7.87,7.2,7.87
				c3.12,0,5.46-1.52,6.28-4.22h-7.83v-5.35h15.6V1322.01z"/>
			<path class="st1" d="M924.37,1335.44v-26.23h14.57v5.88h-8.15v4.08h7.9v5.88h-7.9v4.5h8.15v5.89H924.37z M928.56,1307.93
				l-1.67-3.47l8.51-4.57l1.88,4.18L928.56,1307.93z"/>
			<path class="st1" d="M941.97,1322.93c0-8.12,5.85-14.22,13.83-14.22c7.66,0,13.86,5.92,13.86,13.44
				c0,7.76-6.03,13.79-13.54,13.79C948.81,1335.94,941.97,1330.69,941.97,1322.93z M962.95,1322.36c0-4.11-2.94-7.76-7.16-7.76
				c-4.19,0-7.13,3.51-7.13,7.66c0,4.32,2.94,7.8,7.23,7.8C960.05,1330.05,962.95,1326.54,962.95,1322.36z"/>
			<path class="st1" d="M1000.09,1322.01c0,7.05-5.18,13.97-14,13.97c-7.76,0-13.93-6.06-13.93-13.76c0-7.94,6.42-13.51,14.04-13.51
				c5.92,0,11.63,4.01,13.12,9.29h-7.51c-1.24-2.16-3.26-3.4-5.78-3.4c-4.22,0-7.16,3.4-7.16,7.62c0,4.36,2.77,7.87,7.2,7.87
				c3.12,0,5.46-1.52,6.28-4.22h-7.83v-5.35h15.6V1322.01z"/>
			<path class="st1" d="M1016.13,1335.44l-6.06-8.47H1010v8.47h-6.42v-26.23h8.58c2.73,0,4.82,0.35,6.2,0.96
				c2.84,1.28,4.82,4.36,4.82,8.08c0,4.15-2.48,7.55-6.52,8.26l7.12,8.93H1016.13z M1012.48,1322.4c2.66,0,4.29-1.24,4.29-3.76
				c0-2.27-1.7-3.55-4.22-3.55H1010v7.3H1012.48z"/>
			<path class="st1" d="M1043.65,1335.44l-1.28-3.79h-9.11l-1.38,3.79h-7.2l10.53-26.23h5.28l10.42,26.23H1043.65z M1037.91,1317.4
				l-0.1-0.04l-2.7,8.97h5.5L1037.91,1317.4z"/>
			<path class="st1" d="M1053.63,1335.44v-26.23h8.86c2.8-0.04,4.89,0.35,6.28,0.99c2.83,1.31,4.61,4.32,4.61,7.87
				c0,4.86-2.69,9.15-10.21,9.15h-3.12v8.22H1053.63z M1062.92,1321.33c2.69,0,4.04-0.92,4.04-3.16c0-2.13-1.31-3.08-4.29-3.08
				h-2.62v6.24H1062.92z"/>
			<path class="st1" d="M1091.46,1335.44v-10.49h-8.58v10.49h-6.7v-26.23h6.7v9.85h8.58v-9.85h6.7v26.23H1091.46z"/>
			<path class="st1" d="M1102.93,1335.44v-26.23h6.7v26.23H1102.93z"/>
			<path class="st1" d="M1142.32,1335.9c-0.85,0.07-1.13,0.07-1.63,0.07c-2.66,0-5.03-0.78-6.21-2.06
				c-2.41,1.45-4.68,2.06-7.37,2.06c-7.38,0-13.86-5.99-13.86-13.22c0-7.76,5.96-14.04,13.79-14.04c7.98,0,14,6.35,14,13.44
				c0,3.01-0.64,5.39-2.16,7.55c0.68,0.6,1.7,0.92,2.73,0.92c0.18,0,0.46,0,0.71-0.04V1335.9z M1119.99,1321.23
				c1.28-0.53,2.34-0.89,3.72-0.89c3.4,0,6.88,2.02,9.75,5.53c0.68-1.17,0.89-2.48,0.89-3.86c0-4.11-2.98-7.41-7.3-7.41
				c-3.58,0-6.24,2.48-7.05,6.59V1321.23z M1122.97,1325.23c-0.82,0-1.45,0.14-2.3,0.43c1.24,2.73,3.79,4.43,6.38,4.43
				c1.03,0,2.13-0.18,3.01-0.64C1127.65,1326.37,1125.66,1325.23,1122.97,1325.23z"/>
			<path class="st1" d="M1158.47,1309.21h6.7v16.06c0,2.73-0.42,4.79-1.31,6.2c-1.74,2.8-4.68,4.47-8.65,4.47
				c-2.2,0-4.08-0.43-5.6-1.31c-3.09-1.81-4.58-4.25-4.58-9.32v-16.09h6.7v15.99c0,3.26,1.03,4.86,3.4,4.86
				c2.27,0,3.33-1.13,3.33-4.82V1309.21z"/>
			<path class="st1" d="M1169.86,1335.44v-26.23h14.57v5.88h-8.15v4.08h7.9v5.88h-7.9v4.5h8.15v5.89H1169.86z"/>
		</g>
		<g>
			<path class="st1" d="M400.01,1276.74l-5.69-16.92h-40.64l-6.17,16.92h-32.1l46.96-117.01h23.56l46.49,117.01H400.01z
				 M374.4,1196.26l-0.47-0.16l-12.02,40h24.51L374.4,1196.26z"/>
			<path class="st1" d="M556.08,1216.81c0,31.46-23.08,62.3-62.46,62.3c-34.63,0-62.14-27.04-62.14-61.35
				c0-35.42,28.62-60.24,62.61-60.24c26.41,0,51.86,17.87,58.5,41.43h-33.52c-5.53-9.64-14.55-15.18-25.77-15.18
				c-18.82,0-31.94,15.18-31.94,33.99c0,19.45,12.33,35.1,32.1,35.1c13.91,0,24.35-6.8,27.99-18.82h-34.94v-23.88h69.57V1216.81z"/>
			<path class="st1" d="M639.09,1276.74l-5.69-16.92h-40.64l-6.17,16.92h-32.1l46.96-117.01h23.56l46.49,117.01H639.09z
				 M613.47,1196.26l-0.47-0.16l-12.02,40h24.51L613.47,1196.26z"/>
			<path class="st1" d="M739.49,1276.74l-27.04-37.79h-0.32v37.79h-28.62v-117.01h38.26c12.17,0,21.5,1.58,27.67,4.27
				c12.65,5.69,21.5,19.45,21.5,36.05c0,18.5-11.07,33.68-29.09,36.84l31.78,39.85H739.49z M723.21,1218.55
				c11.86,0,19.13-5.53,19.13-16.76c0-10.12-7.59-15.81-18.82-15.81h-11.38v32.57H723.21z"/>
			<path class="st1" d="M786.77,1276.74v-117.01h29.88v117.01H786.77z"/>
			<path class="st1" d="M922.59,1204.16c-5.06-12.81-16.13-20.4-28.3-20.4c-18.66,0-31.31,15.97-31.31,34.15
				c0,18.97,12.97,34.79,31.46,34.79c11.86,0,21.98-6.64,28.14-19.76h31.31c-7.27,28.14-31.46,46.01-59.14,46.01
				c-16.29,0-31.62-5.69-43.64-17.55c-12.65-12.33-18.03-27.2-18.03-44.9c0-30.99,26.72-58.98,60.24-58.98
				c16.13,0,29.09,4.43,40.79,14.39c11.07,9.49,17.71,20.24,19.76,32.26H922.59z"/>
			<path class="st0" d="M1013.82,1276.74v-117.01h29.88v117.01H1013.82z"/>
			<path class="st0" d="M1184.43,1216.81c0,31.46-23.08,62.3-62.46,62.3c-34.63,0-62.14-27.04-62.14-61.35
				c0-35.42,28.62-60.24,62.61-60.24c26.41,0,51.86,17.87,58.5,41.43h-33.52c-5.53-9.64-14.55-15.18-25.77-15.18
				c-18.82,0-31.94,15.18-31.94,33.99c0,19.45,12.33,35.1,32.1,35.1c13.91,0,24.35-6.8,27.99-18.82h-34.94v-23.88h69.57V1216.81z"/>
		</g>
	</g>
</g>
</svg>
