<?xml version="1.0" encoding="UTF-8"?>
<svg id="Calque_1" data-name="Calque 1" xmlns="http://www.w3.org/2000/svg" viewBox="0 0 1200 800">
  <defs>
    <style>
      .cls-1 {
        fill: #001a29;
      }

      .cls-1, .cls-2, .cls-3 {
        stroke-width: 0px;
      }

      .cls-2 {
        fill: #878787;
      }

      .cls-3 {
        fill: #4e8ecb;
      }
    </style>
  </defs>
  <path class="cls-3" d="m100,584.61c25.22,7.26,294.81,61.7,405.18,58.07,110.36-3.63,219.15-15.72,250.67-100.41,4.73,29.04-18,144.01-245.94,130.66-206.53-12.1-409.91-88.32-409.91-88.32Z"/>
  <rect class="cls-3" x="745.68" y="359.61" width="19.77" height="20.72"/>
  <path class="cls-2" d="m1046.87,506.52v-73.51c0-4.4-1.07-8.49-3.19-12.32-2.11-3.81-5.04-7.2-8.79-10.13-3.76-2.92-8.09-5.2-13.07-6.84-4.98-1.62-10.3-2.44-15.99-2.44-6.2,0-12.03.97-17.49,2.92-5.43,1.96-10.05,4.64-13.79,8.06-3.76-3.42-8.32-6.1-13.68-8.06-5.38-1.95-11.16-2.92-17.36-2.92-5.69,0-11.03.82-16.01,2.44-4.96,1.64-9.31,3.91-13.06,6.84-3.74,2.93-6.68,6.31-8.79,10.13-2.11,3.83-3.17,7.92-3.17,12.32v73.94c0,.1-.03.18-.03.27,0,.1.03.18.03.27v.09c.19,5.27,4.51,9.5,9.84,9.5s9.63-4.23,9.82-9.5h.06v-74.57c0-5.85,2.08-10.87,6.25-15.01,4.16-4.15,9.17-6.23,15.06-6.23s10.89,2.09,15.05,6.23c4.18,4.14,6.25,9.15,6.25,15.01v74.57h.05c.2,5.27,4.5,9.5,9.83,9.5s9.64-4.23,9.83-9.5v-.09c.01-.09.02-.17.02-.27,0-.09,0-.17-.02-.27v-73.94c0-5.85,2.09-10.87,6.23-15.01,4.17-4.15,9.19-6.23,15.08-6.23s10.89,2.09,15.05,6.23c4.18,4.14,6.26,9.15,6.26,15.01v74.57h.09c.2,5.27,4.5,9.5,9.82,9.5s9.87-4.41,9.87-9.86c0-.23-.05-.47-.06-.69Zm-169.94-95.74c-.19-5.27-4.51-9.5-9.84-9.5s-9.62,4.23-9.82,9.5h-.05v74.58c0,5.86-2.08,10.87-6.25,15-4.15,4.16-9.16,6.24-15.05,6.24s-10.89-2.08-15.06-6.24c-4.18-4.13-6.26-9.14-6.26-15v-74.58h-.09c-.2-5.27-4.5-9.5-9.82-9.5s-9.88,4.42-9.88,9.86c0,.24.06.47.07.69v73.52c0,4.39,1.07,8.49,3.19,12.31,2.11,3.82,5.05,7.2,8.79,10.13,3.75,2.93,8.09,5.21,13.07,6.84,4.98,1.62,10.29,2.43,15.97,2.43h.03s0,0,0,0c5.69,0,11.01-.81,15.98-2.43,4.97-1.63,9.31-3.91,13.06-6.84,3.75-2.93,6.68-6.31,8.79-10.13,2.11-3.82,3.18-7.92,3.18-12.31v-73.94c0-.1.03-.19.03-.27,0-.1-.03-.18-.03-.27v-.09Zm-131.24,104.2h19.76v-113.93h-19.76v113.93Z"/>
  <g>
    <rect class="cls-1" x="647.59" y="126" width="19.7" height="390.97"/>
    <rect class="cls-1" x="696.64" y="233.87" width="19.69" height="283.11"/>
    <path class="cls-1" d="m608.16,475.29c-5.57,0-10.07,4.5-10.07,10.07,0,.21.03.42.06.64-.15,5.59-2.11,10.41-6.02,14.41-4.06,4.17-9,6.25-14.85,6.25-2.93,0-5.65-.53-8.17-1.59-2.51-1.06-4.75-2.56-6.7-4.51-1.96-1.96-3.49-4.22-4.62-6.84-1.14-2.59-1.71-5.35-1.71-8.28v-21.23h21.21c5.52,0,10.78-.83,15.73-2.44,4.96-1.62,9.3-3.85,13.04-6.71,3.74-2.85,6.71-6.23,8.91-10.13,2.2-3.89,3.29-8.04,3.29-12.43s-1.06-8.51-3.17-12.33c-2.12-3.81-5.04-7.2-8.79-10.13-3.74-2.94-8.09-5.2-13.05-6.84-4.97-1.62-10.28-2.42-15.97-2.42s-11.06.84-16.1,2.54c-5.05,1.72-9.44,3.99-13.17,6.83-3.75,2.85-6.68,6.2-8.79,10.01-2.12,3.82-3.18,7.94-3.18,12.33v52.94c0,4.39,1.1,8.5,3.3,12.31,2.2,3.83,5.16,7.2,8.9,10.13,3.74,2.93,8.09,5.2,13.05,6.82,4.97,1.64,10.29,2.44,15.98,2.44s11.01-.81,15.97-2.44c4.96-1.63,9.31-3.92,13.05-6.85,3.74-2.94,6.67-6.32,8.79-10.16,2.11-3.82,3.17-7.95,3.17-12.35,0-5.58-4.5-10.07-10.09-10.07Zm-52.08-42.79c0-2.93.52-5.66,1.57-8.18,1.06-2.53,2.56-4.77,4.5-6.71,1.95-1.96,4.23-3.5,6.83-4.64,2.59-1.13,5.35-1.71,8.28-1.71,5.85,0,10.79,2.08,14.85,6.22,4.07,4.15,6.08,9.14,6.08,15.01,0,2.93-.56,5.68-1.7,8.29-1.11,2.6-2.62,4.84-4.5,6.71-1.87,1.86-4.07,3.38-6.58,4.5-2.51,1.15-5.23,1.72-8.15,1.72h-21.19v-21.22Z"/>
    <path class="cls-1" d="m510.33,432.26c-.12-4.12-1.18-7.98-3.24-11.58-2.2-3.83-5.17-7.2-8.9-10.13-3.75-2.94-8.09-5.2-13.06-6.82-4.97-1.64-10.3-2.46-15.98-2.46s-11,.82-15.97,2.46c-4.96,1.62-9.3,3.9-13.05,6.84-3.75,2.94-6.67,6.31-8.79,10.15-1.98,3.58-2.75,7.44-2.85,11.53h-.15v52.95c0,4.4.93,8.51,2.81,12.32,1.87,3.83,4.43,7.19,7.7,10.12,3.25,2.94,7.09,5.2,11.49,6.83,4.4,1.63,9.05,2.45,13.93,2.45,4.25,0,7.95-.51,11.14-1.59,3.16-1.05,5.9-2.24,8.19-3.52,2.59-1.47,4.8-3.11,6.58-4.89h.49v41.73c0,6.01-2.09,11.05-6.25,15.12-4.17,4.07-9.18,6.1-15.07,6.1-2.93,0-5.67-.52-8.21-1.58-2.53-1.06-4.77-2.55-6.74-4.5-1.95-1.95-3.49-4.22-4.65-6.8-1.13-2.6-1.71-5.35-1.71-8.28h-.02c-.12-5.31-4.44-9.6-9.8-9.6s-9.68,4.28-9.8,9.6h-.11c0,4.4,1.05,8.55,3.17,12.46,2.13,3.9,5.05,7.26,8.8,10.12,3.74,2.84,8.1,5.12,13.05,6.84,4.98,1.7,10.29,2.54,16,2.54s11.03-.84,15.99-2.54c4.97-1.72,9.31-4,13.07-6.85,3.74-2.85,6.68-6.23,8.78-10.13,2.13-3.91,3.18-8.04,3.18-12.46v-116.44h-.06Zm-19.65,52.95c0,2.94-.55,5.65-1.6,8.16-1.06,2.53-2.56,4.76-4.52,6.72-1.96,1.94-4.25,3.49-6.86,4.62-2.61,1.15-5.38,1.72-8.33,1.72s-5.71-.56-8.33-1.72c-2.61-1.13-4.86-2.68-6.74-4.62-1.87-1.96-3.37-4.19-4.53-6.72-1.13-2.51-1.71-5.23-1.71-8.16v-52.38c.12-5.69,2.28-10.76,6.25-14.81,4.06-4.17,9.01-6.25,14.85-6.25,2.93,0,5.65.54,8.16,1.59,2.51,1.06,4.75,2.55,6.71,4.51,1.95,1.96,3.48,4.21,4.62,6.82,1.08,2.49,1.96,5.11,2,7.9h.03v52.6Z"/>
    <path class="cls-1" d="m399.22,419.96c-2.2-3.83-5.16-7.2-8.9-10.12-3.74-2.94-8.09-5.22-13.05-6.83-4.97-1.63-10.29-2.45-15.99-2.45s-11,.82-15.97,2.45c-4.96,1.63-9.3,3.91-13.05,6.85-3.74,2.94-6.66,6.31-8.79,10.15-1.91,3.45-2.89,7.16-3.09,11.06-.02.3-.09.58-.09.89,0,.08.02.14.02.21s-.01.13-.01.19h.03c.22,5.35,4.59,9.63,10,9.63s9.77-4.29,9.99-9.63h.01c0-5.88,2.01-10.9,6.09-15.07,4.07-4.16,9.01-6.24,14.85-6.24,2.93,0,5.66.54,8.17,1.6,2.52,1.05,4.75,2.54,6.7,4.51,1.96,1.95,3.49,4.22,4.62,6.83,1.14,2.6,1.71,5.37,1.71,8.3v21.22h-21.21c-5.52,0-10.77.81-15.74,2.44-4.95,1.62-9.29,3.85-13.04,6.72-3.73,2.82-6.7,6.2-8.9,10.12-2.19,3.88-3.28,8.04-3.28,12.44s1.06,8.5,3.17,12.33c2.12,3.81,5.05,7.19,8.79,10.13,3.75,2.94,8.08,5.19,13.05,6.83,4.97,1.61,10.29,2.43,15.97,2.43s11.06-.84,16.11-2.56c5.05-1.71,9.44-3.97,13.17-6.82,3.75-2.86,6.68-6.19,8.78-10,2.13-3.83,3.19-7.94,3.19-12.33v-52.94c0-4.4-1.1-8.51-3.3-12.33Zm-16.74,65.26c0,2.92-.52,5.65-1.58,8.17-1.06,2.53-2.56,4.76-4.5,6.71-1.95,1.96-4.23,3.51-6.83,4.64-2.59,1.13-5.36,1.72-8.29,1.72-5.83,0-10.78-2.1-14.85-6.23-4.07-4.15-6.09-9.15-6.09-15.01,0-2.92.56-5.69,1.71-8.3,1.13-2.6,2.63-4.84,4.49-6.72,1.88-1.86,4.08-3.38,6.59-4.5,2.52-1.14,5.23-1.72,8.14-1.72h21.2v21.23Z"/>
    <path class="cls-1" d="m297.47,433.01c0-4.4-1.07-8.49-3.18-12.32-2.11-3.81-5.04-7.2-8.79-10.13-3.76-2.92-8.09-5.2-13.07-6.84-4.98-1.62-10.3-2.44-16-2.44-6.2,0-12.02.97-17.47,2.92-5.44,1.96-10.05,4.64-13.8,8.06-3.75-3.42-8.31-6.1-13.68-8.06-5.37-1.95-11.15-2.92-17.35-2.92-5.69,0-11.02.82-16,2.44-4.97,1.64-9.31,3.91-13.07,6.84-3.74,2.93-6.68,6.31-8.78,10.13-2.12,3.83-3.18,7.92-3.18,12.32v73.94c0,.1-.03.18-.03.27,0,.1.02.18.03.27v.09c.2,5.27,4.5,9.5,9.84,9.5s9.63-4.23,9.82-9.5h.05v-74.57c0-5.85,2.08-10.87,6.24-15.01,4.16-4.15,9.18-6.23,15.06-6.23s10.9,2.09,15.06,6.23c4.18,4.14,6.24,9.15,6.24,15.01v74.57h.07c.19,5.27,4.5,9.5,9.82,9.5s9.64-4.23,9.83-9.5h0v-.09c0-.09.02-.17.02-.27,0-.09-.02-.17-.02-.27v-73.94c0-5.85,2.09-10.87,6.23-15.01,4.17-4.15,9.19-6.23,15.07-6.23s10.9,2.09,15.06,6.23c4.18,4.14,6.26,9.15,6.26,15.01v74.57h.09c.19,5.27,4.51,9.5,9.83,9.5s9.88-4.41,9.88-9.86c0-.23-.07-.47-.07-.69v-73.51Z"/>
  </g>
  <g>
    <path class="cls-1" d="m872.6,611.15h-4.57c-3.57,0-6.61-4.17-6.61-8.93v-18.52h9.66s0,0,.01,0c.8,0,1.44-.65,1.44-1.45s-.65-1.45-1.45-1.45h-9.66v-12.83c0-2.16-1.75-3.9-3.9-3.9s-3.9,1.75-3.9,3.9v34.26c0,6.08,6.55,11.84,14.35,11.84h4.64c.8,0,1.46-.65,1.46-1.46s-.65-1.46-1.46-1.46Z"/>
    <path class="cls-1" d="m958.43,580.81c-7.87,0-14.22,4.1-14.22,9.19v14.88c0,5.09,6.35,9.19,14.22,9.19,2.25,0,4.36-.33,6.28-.93l.07,11.77c0,3.5-2.78,6.28-6.41,6.28s-6.19-2.37-6.28-6.03h0c0-2.16-1.75-3.9-3.9-3.9s-3.9,1.75-3.9,3.9c0,.28.03.56.09.83.78,4.6,6.84,8.11,14.06,8.11,7.8,0,14.15-4.1,14.15-9.19v-34.91c0-5.09-6.35-9.19-14.15-9.19Zm6.28,24.07c0,3.5-2.78,6.28-6.35,6.28s-6.35-2.45-6.35-6.28v-14.88c0-3.83,2.78-6.28,6.35-6.28s6.35,2.78,6.35,6.28v14.88Z"/>
    <path class="cls-1" d="m890.12,580.79c-5.98,0-11.07,2.37-13.18,5.74-.04.06-.07.12-.11.18-.05.09-.12.18-.16.28-.01.02-.02.05-.03.08-.25.51-.4,1.08-.4,1.69,0,2.16,1.75,3.9,3.9,3.9s3.82-1.68,3.89-3.78c0,0,.01-.02.01-.03,0-.84.24-1.78.63-2.39,1.11-1.74,3.08-2.75,5.38-2.75,3.57,0,6.35,2.78,6.35,6.28v5.75h-6.35c-7.74,0-14.15,4.03-14.15,9.13v.26c0,5.09,6.42,8.93,14.22,8.93s14.15-4.1,14.15-9.19v-14.88c0-5.09-6.35-9.19-14.15-9.19Zm6.28,24.08c0,3.5-2.78,6.28-6.35,6.28s-6.35-2.45-6.35-6.28c0-3.51,2.84-6.22,6.42-6.22h6.28v6.22Z"/>
    <path class="cls-1" d="m809.05,580.79c-5.98,0-11.07,2.37-13.18,5.74-.04.06-.07.12-.11.18-.05.09-.12.18-.16.28-.01.02-.02.05-.03.08-.25.51-.4,1.08-.4,1.69,0,2.16,1.75,3.9,3.9,3.9s3.82-1.68,3.89-3.78c0,0,.01-.02.01-.03,0-.84.24-1.78.63-2.39,1.11-1.74,3.08-2.75,5.38-2.75,3.57,0,6.35,2.78,6.35,6.28v5.75h-6.35c-7.74,0-14.15,4.03-14.15,9.13v.26c0,5.09,6.42,8.93,14.22,8.93s14.15-4.1,14.15-9.19v-14.88c0-5.09-6.35-9.19-14.15-9.19Zm6.28,24.08c0,3.5-2.78,6.28-6.35,6.28s-6.35-2.45-6.35-6.28c0-3.51,2.84-6.22,6.42-6.22h6.28v6.22Z"/>
    <path class="cls-1" d="m1017.12,580.73c-7.8,0-14.15,4.1-14.15,9.19v15.01c0,5.09,6.28,9.19,14.09,9.19s14.22-4.1,14.22-9.19v-15.01c0-5.09-6.28-9.19-14.16-9.19Zm6.35,24.21c0,3.84-2.78,6.28-6.35,6.28s-6.35-2.78-6.35-6.28v-15.01c0-3.51,2.84-6.28,6.42-6.28s6.28,2.45,6.28,6.28v15.01Z"/>
    <path class="cls-1" d="m1085.78,580.79c-7.81,0-14.15,4.1-14.15,9.19v40.15c0,2.17,1.76,3.94,3.94,3.94s3.94-1.76,3.94-3.94v-17c1.92.6,4.03.93,6.28.93,7.87,0,14.22-4.1,14.22-9.19v-14.88c0-5.09-6.35-9.19-14.22-9.19Zm6.42,15.81v8.27c0,3.84-2.78,6.28-6.35,6.28s-6.35-2.78-6.35-6.28v-14.88c0-3.51,2.78-6.28,6.35-6.28s6.35,2.38,6.35,6.15v6.75Z"/>
    <path class="cls-1" d="m914.19,559.43c-2.16,0-3.9,1.75-3.9,3.9v46.82c0,2.16,1.75,3.9,3.9,3.9s3.9-1.75,3.9-3.9v-46.82c0-2.16-1.75-3.9-3.9-3.9Z"/>
    <path class="cls-1" d="m1061.72,580.79c-2.16,0-3.92,1.75-3.92,3.92v20.16c0,3.5-2.84,6.28-6.42,6.28s-6.28-2.45-6.28-6.28v-20.17c0-2.16-1.75-3.9-3.9-3.9s-3.9,1.75-3.9,3.9v20.17c0,5.09,6.28,9.19,14.15,9.19s14.16-4.1,14.16-9.19v-19.87c0-.1.03-.19.03-.29,0-2.16-1.75-3.92-3.92-3.92Z"/>
    <path class="cls-1" d="m997.35,580.79h-4.64c-7.8,0-14.15,4.1-14.15,9.19v20.17c0,2.16,1.75,3.9,3.9,3.9s3.9-1.75,3.9-3.9v-20.23c0-3.51,2.78-6.22,6.35-6.22h4.64s0,0,0,0c.8,0,1.44-.65,1.44-1.45s-.65-1.45-1.45-1.45Z"/>
    <path class="cls-1" d="m847.99,580.79h-4.64c-7.8,0-14.15,4.1-14.15,9.19v20.17c0,2.16,1.75,3.9,3.9,3.9s3.9-1.75,3.9-3.9v-20.23c0-3.51,2.78-6.22,6.35-6.22h4.64s0,0,0,0c.8,0,1.45-.65,1.45-1.45s-.65-1.45-1.45-1.45Z"/>
  </g>
</svg>