<?xml version="1.0" encoding="UTF-8"?>
<svg id="Calque_1" data-name="Calque 1" xmlns="http://www.w3.org/2000/svg" viewBox="0 0 897.07 1080">
  <defs>
    <style>
      .cls-1 {
        fill: #1d1d1b;
        stroke-width: 0px;
      }
    </style>
  </defs>
  <path class="cls-1" d="m828.8,570.54c-18.57,15.84-39.24,29.46-62.15,40.74-39.05,19.22-81.21,31.01-126.85,31.01l-.51.1h-157.32l-.04.07H30.6v53.17h424.13l184.9.32c54.65,0,105.1-11.71,151.36-35.14,28.78-14.58,54.64-32.3,77.61-53.16l-39.79-37.12Z"/>
  <path class="cls-1" d="m745.03,568.48c11.89-5.83,23.03-12.43,33.47-19.75,5.11-3.59,10.01-7.4,14.77-11.35l-39.51-36.87c-9.79,7.5-20.44,14.14-31.97,19.88-25.08,12.29-52.48,18.23-82.05,18.23-25.52,0-49.66-4.71-72.45-14.12-22.78-9.42-42.69-22.32-59.69-38.74-17.01-16.4-30.38-35.52-40.1-57.42-9.72-21.86-14.58-45.24-14.58-70.16s4.86-48.44,14.58-70.62c9.71-22.16,23.08-41.45,40.1-57.88,17.01-16.4,36.91-29.3,59.69-38.74,22.78-9.42,46.93-14.12,72.45-14.12,29.76,0,57.1,6.24,82.02,18.68,11.4,5.71,22.01,12.36,31.87,19.92l39.75-38.29c-13.45-10.59-30.94-22.03-47.02-29.92-32.8-16.1-68.34-24.15-106.62-24.15-33.43,0-64.71,6.24-93.87,18.68-29.17,12.46-54.68,29.32-76.56,50.58-21.87,21.28-39.04,46.16-51.48,74.72-12.46,28.57-18.69,58.95-18.69,91.14s6.23,62.58,18.69,91.14c12.44,28.56,29.62,53.47,51.48,74.72,5.41,5.26,11.05,10.24,16.9,14.94l-70.51.1c-18.23-21.12-33.19-44.78-44.82-71.08-15.19-34.33-22.78-70.93-22.78-109.82s7.6-75.48,22.78-109.82c15.18-34.32,36-64.38,62.43-90.22,26.42-25.8,57.41-46.16,92.95-61.05,35.54-14.89,73.37-22.32,113.46-22.32,46.16,0,89,9.72,128.5,29.15,20.33,10.02,38.94,21.84,55.89,35.39l5.13,4.07,39.54-37.81c-19.48-18.13-52.01-38.12-75.96-49.94-46.79-23.08-97.83-34.64-153.1-34.64-47.39,0-92.05,8.8-133.96,26.43-41.92,17.63-78.54,41.78-109.82,72.44-31.29,30.7-56.05,66.53-74.27,107.54-18.23,41.01-27.34,84.61-27.34,130.78s9.11,89.76,27.34,130.78c7.86,17.69,17.01,34.39,27.3,50.21h-161.62V21.48h-53.15v517.69h-50.46V21.48H30.6v570.83l609.02.05c37.84,0,72.98-7.97,105.41-23.88Z"/>
  <polygon class="cls-1" points="95.11 918.26 54 918.26 54 853.98 30.47 853.98 30.47 938.87 95.11 938.87 95.11 918.26"/>
  <path class="cls-1" d="m137.92,923.71h32.74l6.19,15.16h25.22l-36.14-85.5h-22.68l-36.14,85.5h24.74l6.06-15.16Zm16.49-42.45l9.46,24.13h-19.04l9.58-24.13Z"/>
  <polygon class="cls-1" points="252.4 938.87 252.4 874.6 277.87 874.6 277.87 853.98 203.4 853.98 203.4 874.6 228.87 874.6 228.87 938.87 252.4 938.87"/>
  <rect class="cls-1" x="297.38" y="853.98" width="23.65" height="84.89"/>
  <polygon class="cls-1" points="389.55 938.87 389.55 874.6 415.02 874.6 415.02 853.98 340.56 853.98 340.56 874.6 366.02 874.6 366.02 938.87 389.55 938.87"/>
  <path class="cls-1" d="m512.03,853.98h-23.89v47.78c0,11.89-6.19,17.46-15.64,17.46s-15.64-5.82-15.64-18.07v-47.17h-23.89v47.66c0,26.56,15.16,38.81,39.29,38.81s39.78-12.01,39.78-39.41v-47.05Z"/>
  <path class="cls-1" d="m615.35,895.94c0-24.5-17.58-41.96-47.9-41.96h-32.74v84.89h32.26c30.56,0,48.39-18.19,48.39-42.69v-.24Zm-24.13.61c0,13.7-9.34,21.47-23.41,21.47h-9.58v-43.17h9.58c14.07,0,23.41,7.88,23.41,21.47v.24Z"/>
  <polygon class="cls-1" points="704.49 873.99 704.49 853.98 636.21 853.98 636.21 938.87 705.09 938.87 705.09 918.86 659.49 918.86 659.49 905.4 700.24 905.4 700.24 886.85 659.49 886.85 659.49 873.99 704.49 873.99"/>
  <path class="cls-1" d="m72.07,1036.26c-11.89,0-20.25-9.94-20.25-22.68v-.24c0-12.37,8.37-22.43,20.25-22.43,8.13,0,13.7,3.88,18.55,9.94l17.71-13.7c-7.52-10.43-18.68-17.71-36.02-17.71-25.71,0-44.75,19.4-44.75,44.14v.24c0,25.35,19.53,43.9,43.78,43.9,18.8,0,29.59-8.13,37.6-19.16l-17.71-12.61c-5.09,6.18-10.31,10.31-19.16,10.31Z"/>
  <path class="cls-1" d="m156.35,970.53l-36.14,85.5h24.74l6.06-15.16h32.74l6.19,15.16h25.22l-36.14-85.5h-22.68Zm1.58,52.03l9.58-24.13,9.46,24.13h-19.04Z"/>
  <path class="cls-1" d="m307.45,1000.36v-.24c0-8.37-2.55-14.92-7.52-19.77-5.7-5.82-14.68-9.22-27.65-9.22h-40.14v84.89h23.53v-25.71h10.31l17.1,25.71h27.17l-20.25-29.59c10.55-4.48,17.46-13.1,17.46-26.07Zm-23.65,1.45c0,6.19-4.61,10.07-12.61,10.07h-15.52v-20.38h15.4c7.88,0,12.73,3.4,12.73,10.07v.24Z"/>
  <polygon class="cls-1" points="323.34 991.75 348.8 991.75 348.8 1056.03 372.33 1056.03 372.33 991.75 397.8 991.75 397.8 971.14 323.34 971.14 323.34 991.75"/>
  <path class="cls-1" d="m435.27,970.53l-36.14,85.5h24.74l6.06-15.16h32.75l6.18,15.16h25.22l-36.14-85.5h-22.68Zm1.58,52.03l9.58-24.13,9.46,24.13h-19.04Z"/>
  <path class="cls-1" d="m546.72,1023.65h16.74v10.31c-3.52,2.3-7.88,3.52-13.58,3.52-13.46,0-23.04-9.82-23.04-23.53v-.24c0-12.98,9.46-23.28,21.71-23.28,8.37,0,14.43,2.91,20.5,8l13.83-16.62c-8.98-7.76-19.53-12.37-34.44-12.37-26.32,0-45.72,19.4-45.72,44.14v.24c0,25.71,19.77,43.9,46.2,43.9,15.4,0,27.89-5.7,36.87-13.1v-38.2h-39.05v17.22Z"/>
  <polygon class="cls-1" points="630.87 1022.56 671.62 1022.56 671.62 1004 630.87 1004 630.87 991.15 675.87 991.15 675.87 971.14 656.16 971.14 645.81 961.8 613.51 962.21 623.64 971.14 607.59 971.14 607.59 1056.03 676.47 1056.03 676.47 1036.02 630.87 1036.02 630.87 1022.56"/>
  <polygon class="cls-1" points="754.21 1016.01 719.28 971.14 697.33 971.14 697.33 1056.03 720.61 1056.03 720.61 1009.46 756.87 1056.03 777.49 1056.03 777.49 971.14 754.21 971.14 754.21 1016.01"/>
  <polygon class="cls-1" points="824.54 1036.02 824.54 1022.56 865.29 1022.56 865.29 1004 824.54 1004 824.54 991.15 869.53 991.15 869.53 971.14 801.25 971.14 801.25 1056.03 870.14 1056.03 870.14 1036.02 824.54 1036.02"/>
  <rect class="cls-1" x="30.73" y="748.86" width="54.4" height="53.27"/>
</svg>