<?xml version="1.0" encoding="UTF-8" standalone="no"?>
<!-- Created with Inkscape (http://www.inkscape.org/) -->

<svg
   xmlns:dc="http://purl.org/dc/elements/1.1/"
   xmlns:cc="http://creativecommons.org/ns#"
   xmlns:rdf="http://www.w3.org/1999/02/22-rdf-syntax-ns#"
   xmlns:svg="http://www.w3.org/2000/svg"
   xmlns="http://www.w3.org/2000/svg"
   xmlns:sodipodi="http://sodipodi.sourceforge.net/DTD/sodipodi-0.dtd"
   xmlns:inkscape="http://www.inkscape.org/namespaces/inkscape"
   width="101.74579mm"
   height="59.520702mm"
   viewBox="0 0 101.74579 59.520702"
   version="1.1"
   id="svg8"
   inkscape:version="0.92.3 (2405546, 2018-03-11)"
   sodipodi:docname="dessin.svg">
  <defs
     id="defs2" />
  <sodipodi:namedview
     id="base"
     pagecolor="#ffffff"
     bordercolor="#666666"
     borderopacity="1.0"
     inkscape:pageopacity="0.0"
     inkscape:pageshadow="2"
     inkscape:zoom="0.98994949"
     inkscape:cx="72.895631"
     inkscape:cy="-6.6980125"
     inkscape:document-units="mm"
     inkscape:current-layer="layer1-4"
     showgrid="false"
     inkscape:pagecheckerboard="true"
     inkscape:window-width="1920"
     inkscape:window-height="1017"
     inkscape:window-x="-8"
     inkscape:window-y="-8"
     inkscape:window-maximized="1"
     fit-margin-top="0"
     fit-margin-left="0"
     fit-margin-right="0"
     fit-margin-bottom="0" />
  <metadata
     id="metadata5">
    <rdf:RDF>
      <cc:Work
         rdf:about="">
        <dc:format>image/svg+xml</dc:format>
        <dc:type
           rdf:resource="http://purl.org/dc/dcmitype/StillImage" />
        <dc:title></dc:title>
      </cc:Work>
    </rdf:RDF>
  </metadata>
  <g
     inkscape:label="Calque 1"
     inkscape:groupmode="layer"
     id="layer1"
     transform="translate(-72.838928,-104.9028)">
    <g
       id="layer1-4"
       transform="translate(-8.5614556,4.5396728)">
      <path
         inkscape:connector-curvature="0"
         id="path3745"
         d="m 125.32808,159.85546 c -0.0209,-0.0187 -0.49523,-0.0594 -1.05403,-0.0906 -11.3625,-0.63359 -26.571088,-3.76059 -40.235267,-8.27267 -1.407225,-0.46468 -2.581048,-0.88122 -2.608497,-0.92563 -0.06758,-0.10935 -0.244428,-0.14007 2.451673,0.42597 9.345293,1.96204 21.369621,3.94666 29.220441,4.82283 6.95376,0.77607 10.40026,0.85411 16.8981,0.38263 11.64326,-0.84483 18.10956,-3.69795 20.90941,-9.22585 0.28303,-0.5588 0.54413,-1.04696 0.58023,-1.08479 0.1286,-0.1348 0.17175,0.48072 0.0871,1.24235 -0.51125,4.59988 -3.97661,8.49685 -9.48279,10.6639 -2.51872,0.99128 -6.01925,1.72688 -9.48073,1.99227 -0.97039,0.0744 -7.21334,0.13399 -7.28564,0.0695 z m -5.68537,-10.05464 c -0.67524,-0.0896 -1.56256,-0.40965 -2.1103,-0.76113 -1.47313,-0.94531 -2.10701,-2.75736 -1.24593,-3.56172 0.69406,-0.64836 1.76682,-0.22042 1.88962,0.75378 0.12897,1.02318 0.48281,1.60153 1.22468,2.00172 0.59475,0.32082 1.39057,0.34345 1.98353,0.0564 0.47921,-0.23198 1.00585,-0.81401 1.13917,-1.259 0.0942,-0.31444 0.15312,-5.01169 0.0629,-5.01169 -0.0202,0 -0.22022,0.11394 -0.4445,0.25321 -1.30731,0.81172 -2.84369,0.86891 -4.26272,0.15866 -1.0501,-0.52559 -1.72861,-1.39454 -1.94354,-2.48902 -0.0689,-0.35093 -0.0894,-1.47464 -0.0671,-3.68018 0.0278,-2.75101 0.0516,-3.22519 0.17787,-3.55079 0.37352,-0.96284 1.39996,-1.84093 2.6397,-2.2582 0.57517,-0.19359 0.8242,-0.22854 1.651,-0.23166 1.08882,-0.004 1.74228,0.13462 2.54669,0.54069 0.7238,0.36537 1.46143,1.08999 1.79099,1.75939 l 0.27666,0.56197 v 6.94623 6.94622 l -0.27666,0.56201 c -0.78237,1.58926 -2.90756,2.54505 -5.03201,2.26311 z m 1.74449,-8.41537 c 0.43452,-0.21022 0.87858,-0.66211 1.07444,-1.09337 0.14529,-0.31992 0.15769,-0.61027 0.15769,-3.69157 0,-3.74194 0.008,-3.68357 -0.62357,-4.38297 -0.4464,-0.49412 -1.04554,-0.7273 -1.74087,-0.67755 -0.64005,0.0458 -0.93756,0.17928 -1.37273,0.61591 -0.63034,0.63247 -0.61662,0.54132 -0.64374,4.27528 -0.0272,3.74371 -0.0231,3.77611 0.56543,4.42896 0.46242,0.513 1.02692,0.74981 1.70253,0.71421 0.31,-0.0163 0.69466,-0.0988 0.88082,-0.1889 z m -34.840807,1.37288 c -0.605941,-0.4048 -0.590239,-0.25827 -0.564626,-5.26882 l 0.02294,-4.48733 0.24285,-0.49501 c 0.27607,-0.56272 0.941565,-1.26932 1.508296,-1.60144 0.211267,-0.12381 0.684737,-0.32765 1.052155,-0.45298 0.568785,-0.19402 0.812686,-0.22842 1.641699,-0.23155 1.318638,-0.005 2.067225,0.21232 3.224565,0.93601 0.21113,0.13201 0.23709,0.12565 0.73069,-0.17901 0.8562,-0.52848 1.67911,-0.74904 2.81808,-0.75531 1.62377,-0.009 2.791928,0.44028 3.717338,1.42954 0.87959,0.94029 0.84983,0.73334 0.85689,5.95832 0.005,3.91801 -0.0108,4.51801 -0.12684,4.7425 -0.28909,0.55903 -1.05311,0.75996 -1.56872,0.41255 -0.607034,-0.40901 -0.592294,-0.28103 -0.593364,-5.14929 l -9.5e-4,-4.36033 -0.197564,-0.42333 c -0.24075,-0.51591 -0.74149,-0.98324 -1.26964,-1.18494 -0.8248,-0.315 -1.94759,-0.0131 -2.46266,0.66222 -0.52566,0.68917 -0.50959,0.53196 -0.55582,5.43729 -0.0472,5.00833 -0.0243,4.8264 -0.63887,5.08317 -0.40878,0.17079 -0.73218,0.14881 -1.06311,-0.0723 -0.59699,-0.39882 -0.58365,-0.28147 -0.58472,-5.14182 l -9.5e-4,-4.36033 -0.19756,-0.42333 c -0.24075,-0.51591 -0.74149,-0.98324 -1.269645,-1.18494 -0.824797,-0.315 -1.947589,-0.0131 -2.462656,0.66222 -0.525656,0.68917 -0.509586,0.53196 -0.555822,5.43729 -0.04721,5.00833 -0.02434,4.8264 -0.638866,5.08317 -0.408777,0.17079 -0.732184,0.14881 -1.063113,-0.0723 z m 21.386987,0.13736 c -1.18929,-0.19105 -2.08709,-0.61855 -2.7962,-1.33146 -0.75159,-0.75562 -0.92923,-1.17064 -0.92873,-2.16972 3.4e-4,-0.71537 0.0264,-0.85383 0.2358,-1.25187 0.49973,-0.95009 1.36744,-1.63668 2.55116,-2.01864 0.60072,-0.19383 0.87977,-0.22722 2.29264,-0.27426 l 1.60866,-0.0536 -0.004,-1.31957 c -0.004,-1.26335 -0.0143,-1.33985 -0.23731,-1.7956 -0.76492,-1.56344 -2.95524,-1.67395 -3.82319,-0.19289 -0.12181,0.20785 -0.26566,0.65264 -0.32915,1.01776 -0.0879,0.50523 -0.16587,0.70396 -0.35299,0.89928 -0.47596,0.4968 -1.25741,0.48984 -1.68219,-0.015 -0.27535,-0.32723 -0.33543,-0.57159 -0.2778,-1.1299 0.1279,-1.23927 1.24175,-2.38822 2.80574,-2.89418 0.86481,-0.27976 2.2338,-0.31892 3.09086,-0.0884 1.25606,0.33782 2.35271,1.1415 2.85163,2.08982 l 0.24482,0.46534 v 3.683 3.683 l -0.20102,0.40471 c -0.65273,1.31414 -2.24201,2.22526 -4.01179,2.29992 -0.43039,0.0182 -0.89682,0.0146 -1.03652,-0.008 z m 1.85729,-1.58855 c 0.43265,-0.25355 0.82775,-0.74001 0.99153,-1.22081 0.0653,-0.19157 0.10754,-0.79806 0.1102,-1.58082 l 0.004,-1.27 -1.25247,-0.0234 c -0.69451,-0.013 -1.40014,0.0163 -1.58394,0.0658 -0.85969,0.23149 -1.54086,1.15842 -1.54086,2.09681 0,0.90876 0.44844,1.63828 1.2446,2.02473 0.58591,0.28439 1.45112,0.245 2.02662,-0.0923 z m 20.97863,1.47246 c -1.38264,-0.36225 -2.59341,-1.30869 -2.97338,-2.32425 -0.16973,-0.45365 -0.17753,-0.62797 -0.17747,-3.96385 l 7e-5,-3.48932 0.25369,-0.53627 c 0.6654,-1.40653 2.32714,-2.30006 4.27752,-2.30006 1.00042,0 1.62284,0.14026 2.48032,0.55895 0.75696,0.3696 1.42711,1.01512 1.76207,1.69729 0.21319,0.43418 0.24326,0.58963 0.24326,1.25742 0,0.70497 -0.0214,0.80144 -0.28575,1.2889 -0.54389,1.00288 -1.54601,1.72272 -2.86947,2.06121 -0.50756,0.12981 -0.93342,0.16356 -2.06371,0.16356 h -1.42417 l -0.0546,0.21759 c -0.1012,0.40318 0.0152,2.51146 0.1569,2.84223 0.18829,0.43947 0.69061,0.96461 1.12286,1.17386 0.44343,0.21466 1.30869,0.24324 1.75233,0.0579 0.68037,-0.28428 1.33447,-1.16743 1.33646,-1.80447 0.002,-0.50471 0.11196,-0.81456 0.38879,-1.0914 0.53964,-0.53963 1.35703,-0.44287 1.7993,0.21299 0.17315,0.25676 0.19472,0.37081 0.16157,0.85409 -0.15372,2.24116 -3.16204,3.83749 -5.88658,3.12366 z m 2.32022,-7.13322 c 0.98909,-0.50855 1.43819,-1.5921 1.12596,-2.71656 -0.10989,-0.39577 -0.67045,-1.02401 -1.11692,-1.25178 -1.03998,-0.53057 -2.34668,-0.0856 -2.89762,0.98671 -0.24241,0.4718 -0.25516,0.55023 -0.28443,1.75051 -0.0233,0.95662 -0.004,1.28892 0.0818,1.39205 0.0966,0.11635 0.29199,0.13028 1.38509,0.0987 1.16942,-0.0338 1.30784,-0.0548 1.70614,-0.25964 z m 6.69505,7.2501 c -0.0324,-0.0324 -0.0589,-9.6156 -0.0589,-21.29608 v -21.23722 h 1.14316 1.14317 l -0.0213,21.2725 -0.0213,21.2725 -1.06298,0.0236 c -0.58464,0.013 -1.08947,-0.003 -1.12183,-0.0353 z m 5.334,0 c -0.0324,-0.0324 -0.0589,-6.98263 -0.0589,-15.44502 0,-13.95206 0.0125,-15.39095 0.13392,-15.43755 0.19726,-0.0757 1.92267,-0.0601 2.04647,0.0185 0.0845,0.0536 0.10171,3.20405 0.0847,15.47154 l -0.0214,15.40419 -1.06298,0.0236 c -0.58464,0.013 -1.08947,-0.003 -1.12183,-0.0353 z m 13.85128,-0.15283 c -1.33086,-0.30309 -2.60242,-1.27462 -2.97471,-2.27281 -0.17884,-0.47952 -0.18276,-0.58694 -0.18276,-5.01775 v -4.52773 l 0.27522,-0.30031 c 0.47885,-0.52252 1.26993,-0.4697 1.65015,0.11017 0.13602,0.20744 0.15265,0.6176 0.1913,4.71841 0.0473,5.0158 0.0252,4.8322 0.6603,5.49617 0.9415,0.98433 2.44745,0.97203 3.34843,-0.0273 0.62833,-0.69696 0.6008,-0.46247 0.64794,-5.51966 0.0409,-4.39023 0.048,-4.54831 0.21146,-4.72884 0.39538,-0.43662 0.91729,-0.53474 1.37144,-0.25783 0.56567,0.34491 0.54046,0.0913 0.51473,5.17795 l -0.0233,4.60478 -0.19726,0.40053 c -0.43754,0.8884 -1.35758,1.63809 -2.46974,2.01244 -0.71199,0.23965 -2.25442,0.30691 -3.0232,0.13183 z m 9.15462,0.0402 c -0.0969,-0.0392 -0.27913,-0.19359 -0.4049,-0.34306 l -0.22867,-0.27175 0.0239,-4.62575 0.0239,-4.62575 0.28067,-0.51735 c 0.33643,-0.62015 0.73014,-1.01819 1.41266,-1.42823 0.83342,-0.50068 1.52954,-0.67463 2.70933,-0.67702 1.20582,-0.002 1.86658,0.16949 2.78673,0.72513 0.57003,0.34422 0.59115,0.34981 0.80433,0.21293 0.46854,-0.30081 1.18142,-0.63609 1.6627,-0.78198 0.70009,-0.21222 2.33906,-0.21222 3.03915,0 1.20862,0.36638 2.24195,1.15532 2.67609,2.04319 l 0.207,0.42333 0.0233,4.57042 c 0.0168,3.28404 -0.004,4.63619 -0.0735,4.80409 -0.25748,0.62162 -1.20414,0.75553 -1.71699,0.24287 l -0.26487,-0.26477 -0.0423,-4.5493 c -0.0466,-5.01261 -0.026,-4.82229 -0.59369,-5.46887 -1.11706,-1.27226 -3.12415,-0.97972 -3.81834,0.55654 l -0.2023,0.44769 -0.0423,4.5151 -0.0423,4.51511 -0.32702,0.29959 c -0.30275,0.27736 -0.35829,0.29658 -0.7487,0.25907 -0.32931,-0.0316 -0.48023,-0.0991 -0.68898,-0.30773 l -0.2673,-0.2672 -0.0423,-4.5493 c -0.0466,-5.01261 -0.026,-4.82229 -0.5937,-5.46887 -1.11705,-1.27226 -3.12414,-0.97972 -3.81833,0.55654 l -0.20231,0.44769 -0.0423,4.5151 -0.0423,4.51511 -0.31626,0.28973 c -0.32823,0.30069 -0.72144,0.37297 -1.12999,0.2077 z m -17.67936,-0.3059 c -0.0783,-0.20409 -0.0587,-12.00009 0.0201,-12.12438 0.0513,-0.0808 0.32769,-0.1025 1.0782,-0.0847 l 1.00927,0.024 0.0217,6.1595 0.0217,6.1595 h -1.04983 c -0.8792,0 -1.05818,-0.0218 -1.10122,-0.13393 z m 0.0816,-14.56179 c -0.1038,-0.1038 -0.13304,-0.32557 -0.13304,-1.00907 0,-0.48182 0.0231,-0.9363 0.0514,-1.00995 0.043,-0.11216 0.22197,-0.13393 1.10066,-0.13393 h 1.04928 v 1.09161 c 0,0.9173 -0.0214,1.09981 -0.13393,1.143 -0.0736,0.0283 -0.50908,0.0514 -0.96761,0.0514 -0.64502,0 -0.86381,-0.0301 -0.96675,-0.13305 z"
         style="fill:#8d8e8b;stroke-width:0.08466667" />
      <path
         inkscape:connector-curvature="0"
         id="path3743"
         d="m 125.40882,159.85168 c -0.0188,-0.0164 -0.51035,-0.0551 -1.09244,-0.0861 -9.81494,-0.52165 -23.0934,-3.05443 -35.560007,-6.78282 -2.742738,-0.82027 -7.260644,-2.31031 -7.326087,-2.4162 -0.06758,-0.10935 -0.244428,-0.14007 2.451673,0.42597 9.370303,1.96729 21.348611,3.94431 29.220441,4.82283 6.95376,0.77607 10.40026,0.85411 16.8981,0.38263 11.76971,-0.85401 18.27054,-3.77156 21.0231,-9.4351 0.44755,-0.92086 0.55077,-1.05948 0.56602,-0.76018 0.13325,2.61372 -1.05723,5.46939 -3.21982,7.72355 -3.30988,3.45002 -8.35698,5.41822 -15.45443,6.0267 -1.1181,0.0959 -7.41509,0.17864 -7.50655,0.0987 z m -5.97375,-10.21474 c -0.98064,-0.17683 -2.08988,-0.76262 -2.64546,-1.39707 -0.61593,-0.70337 -0.91665,-1.7809 -0.65243,-2.33772 0.45479,-0.95839 1.91387,-0.64166 1.91387,0.41546 0,0.47611 0.25058,1.09251 0.61021,1.50108 0.90464,1.02772 2.41383,1.09155 3.39746,0.14369 0.68623,-0.66127 0.68811,-0.6706 0.71707,-3.55137 0.0219,-2.17882 0.008,-2.56116 -0.0956,-2.56116 -0.0667,0 -0.34501,0.13473 -0.61841,0.29941 -2.25941,1.36089 -5.23905,0.3899 -5.91252,-1.92675 -0.12097,-0.41612 -0.13587,-0.92104 -0.11357,-3.84963 l 0.0257,-3.3707 0.23269,-0.4738 c 0.30502,-0.6211 1.09091,-1.36613 1.78238,-1.6897 1.45367,-0.68026 3.34284,-0.65334 4.8006,0.0684 0.58555,0.28991 1.42568,1.11732 1.69748,1.67178 l 0.20752,0.42333 v 7.02733 7.02734 l -0.28067,0.51735 c -0.68485,1.2624 -2.08592,2.03423 -3.82566,2.10753 -0.44239,0.0186 -1.00068,-0.002 -1.24065,-0.0448 z m 2.06187,-8.17641 c 0.56662,-0.28978 1.0645,-0.8852 1.20424,-1.44015 0.0569,-0.22581 0.0912,-1.52394 0.0912,-3.44764 0,-3.64966 -0.009,-3.70413 -0.75975,-4.47367 -0.38057,-0.39023 -0.56143,-0.5067 -0.96889,-0.62396 -0.63415,-0.18249 -1.18317,-0.12395 -1.75467,0.1871 -0.52561,0.28607 -0.86951,0.68965 -1.09041,1.27965 -0.15605,0.4168 -0.16761,0.66568 -0.16761,3.60885 0,2.6306 0.0219,3.22336 0.13047,3.53166 0.50599,1.43678 1.99253,2.05471 3.31542,1.37816 z m -34.835532,1.23354 c -0.104481,-0.042 -0.26681,-0.20151 -0.360732,-0.35446 -0.166412,-0.271 -0.170204,-0.3936 -0.148701,-4.80776 l 0.02206,-4.52967 0.23344,-0.47534 c 1.078669,-2.19646 4.674813,-2.89559 6.996717,-1.36024 l 0.45682,0.30207 0.30518,-0.18907 c 1.16314,-0.72064 2.1486,-0.98375 3.43784,-0.91791 1.79317,0.0916 3.221308,0.92792 3.840898,2.24933 l 0.22311,0.47583 0.0264,4.36033 c 0.0184,3.03588 -0.002,4.458 -0.0681,4.68188 -0.16614,0.56493 -0.86888,0.82046 -1.4417,0.52424 -0.469694,-0.24288 -0.460644,-0.15357 -0.506314,-4.99445 -0.041,-4.3487 -0.0479,-4.49934 -0.22205,-4.8759 -0.827084,-1.78817 -3.238184,-1.88804 -4.244714,-0.17583 l -0.23224,0.39506 -0.0423,4.572 c -0.0458,4.94915 -0.029,4.7836 -0.5141,5.07014 -0.44076,0.26036 -1.1312,0.10456 -1.36722,-0.30852 -0.0827,-0.14476 -0.11836,-1.25116 -0.15068,-4.67695 -0.041,-4.3487 -0.0479,-4.49934 -0.22205,-4.8759 -0.827079,-1.78817 -3.238177,-1.88804 -4.244708,-0.17583 l -0.232237,0.39506 -0.04233,4.572 c -0.04582,4.94915 -0.02904,4.7836 -0.514104,5.07014 -0.251886,0.14879 -0.687325,0.17072 -0.988194,0.0497 z m 20.932452,10e-4 c -0.99263,-0.19736 -1.99325,-0.74071 -2.54758,-1.38336 -1.28709,-1.49216 -0.87263,-3.51487 0.93977,-4.58639 0.93079,-0.5503 1.40604,-0.65236 3.302,-0.70914 l 1.69333,-0.0507 0.0234,-1.3473 c 0.0267,-1.53688 -0.056,-1.92675 -0.52502,-2.47465 -0.84123,-0.98279 -2.3065,-1.1284 -3.24774,-0.32274 -0.49873,0.4269 -0.76123,0.91489 -0.85739,1.59389 -0.095,0.67084 -0.24738,0.94006 -0.63729,1.126 -0.54425,0.25953 -1.23733,-0.0489 -1.39528,-0.621 -0.10293,-0.37278 0.007,-1.01306 0.26524,-1.54958 0.58394,-1.21161 2.33196,-2.11668 4.08809,-2.11668 1.75366,0 3.46763,0.89532 4.08661,2.13472 0.33365,0.66805 0.37251,1.17705 0.34351,4.49827 l -0.0275,3.14306 -0.23043,0.49183 c -0.46442,0.99122 -1.67803,1.85767 -2.9869,2.13247 -0.63176,0.13264 -1.72794,0.15244 -2.28686,0.0413 z m 2.13044,-1.21136 c 0.44412,-0.22506 0.85249,-0.62911 1.10724,-1.09555 0.12349,-0.22611 0.15457,-0.53622 0.17773,-1.77354 l 0.0281,-1.49951 -0.21327,-0.0535 c -0.11729,-0.0294 -0.77758,-0.0396 -1.4673,-0.0227 -1.16526,0.0287 -1.28485,0.047 -1.68906,0.25849 -0.87768,0.45924 -1.35871,1.32404 -1.28023,2.30165 0.0527,0.65616 0.28732,1.11859 0.79384,1.56445 0.71855,0.63249 1.68623,0.75433 2.54298,0.32019 z m 21.02675,1.16342 c -1.23128,-0.32484 -2.25898,-1.09738 -2.72846,-2.05102 l -0.27721,-0.56309 v -3.51544 -3.51545 l 0.24117,-0.49113 c 0.46001,-0.93683 1.53099,-1.73307 2.77503,-2.06315 0.85006,-0.22554 2.23331,-0.18993 3.05812,0.0787 1.14037,0.37145 2.05704,1.1224 2.48058,2.0321 0.27334,0.58712 0.28529,1.45846 0.0294,2.14247 -0.24046,0.64269 -1.02198,1.43753 -1.7686,1.79873 -0.89944,0.43514 -1.3991,0.52378 -2.95996,0.52506 -0.7702,6.8e-4 -1.4861,0.0241 -1.59087,0.0522 -0.18792,0.0504 -0.19049,0.0701 -0.18968,1.45935 7.7e-4,1.30464 0.0156,1.43944 0.20131,1.83162 0.74352,1.57002 2.67349,1.87879 3.83503,0.61354 0.37127,-0.40442 0.6195,-1.03285 0.6195,-1.56834 0,-0.78006 0.82253,-1.27061 1.52307,-0.90835 0.38076,0.1969 0.50893,0.44619 0.50893,0.98981 0,1.41493 -1.22563,2.70393 -3.00229,3.15751 -0.6381,0.16291 -2.12856,0.16011 -2.75504,-0.005 z m 2.33156,-6.83962 c 1.79045,-0.83374 1.83628,-3.38986 0.0762,-4.25097 -1.10619,-0.54121 -2.42294,-0.12556 -3.06562,0.96768 -0.223,0.37934 -0.23217,0.44355 -0.25955,1.81622 -0.0156,0.78263 -0.007,1.47796 0.0185,1.54516 0.0382,0.0996 0.30171,0.12204 1.42538,0.12137 1.26764,-7.6e-4 1.41279,-0.0168 1.80505,-0.19946 z m 6.81244,-14.10145 c 0,-11.5913 -0.0231,-21.13535 -0.0514,-21.20901 -0.0452,-0.11779 0.0783,-0.13392 1.02506,-0.13392 0.94679,0 1.07026,0.0161 1.02505,0.13392 -0.0283,0.0737 -0.0514,9.61771 -0.0514,21.20901 v 21.07507 h -0.97366 -0.97367 z m 5.28845,20.96924 c -0.0221,-0.0582 -0.0305,-6.94479 -0.0185,-15.3035 l 0.0217,-15.19767 0.99483,-0.0238 0.99483,-0.0239 v 15.32736 15.32735 h -0.97632 c -0.70316,0 -0.98758,-0.0296 -1.01656,-0.10583 z m 5.35294,-14.74954 c -0.0903,-0.0903 -0.12682,-0.35883 -0.13622,-1.00081 -0.007,-0.48259 0.0117,-0.94143 0.0417,-1.01963 0.047,-0.12256 0.19943,-0.14219 1.10383,-0.14219 h 1.04928 v 1.09161 c 0,0.9173 -0.0214,1.09981 -0.13393,1.143 -0.0736,0.0283 -0.50908,0.0514 -0.96761,0.0514 -0.61728,0 -0.86572,-0.032 -0.95707,-0.12337 z"
         style="fill:#508ec6;stroke-width:0.08466667" />
      <path
         inkscape:connector-curvature="0"
         id="path3741"
         d="m 119.43507,149.63694 c -0.98064,-0.17683 -2.08988,-0.76262 -2.64546,-1.39707 -0.61593,-0.70337 -0.91665,-1.7809 -0.65243,-2.33772 0.45479,-0.95839 1.91387,-0.64166 1.91387,0.41546 0,0.47611 0.25058,1.09251 0.61021,1.50108 0.90464,1.02772 2.41383,1.09155 3.39746,0.14369 0.68623,-0.66127 0.68811,-0.6706 0.71707,-3.55137 0.0219,-2.17882 0.008,-2.56116 -0.0956,-2.56116 -0.0667,0 -0.34501,0.13473 -0.61841,0.29941 -2.25941,1.36089 -5.23905,0.3899 -5.91252,-1.92675 -0.12097,-0.41612 -0.13587,-0.92104 -0.11357,-3.84963 l 0.0257,-3.3707 0.23269,-0.4738 c 0.30502,-0.6211 1.09091,-1.36613 1.78238,-1.6897 1.45367,-0.68026 3.34284,-0.65334 4.8006,0.0684 0.58555,0.28991 1.42568,1.11732 1.69748,1.67178 l 0.20752,0.42333 v 7.02733 7.02734 l -0.28067,0.51735 c -0.68485,1.2624 -2.08592,2.03423 -3.82566,2.10753 -0.44239,0.0186 -1.00068,-0.002 -1.24065,-0.0448 z m 2.06187,-8.17641 c 0.56662,-0.28978 1.0645,-0.8852 1.20424,-1.44015 0.0569,-0.22581 0.0912,-1.52394 0.0912,-3.44764 0,-3.64966 -0.009,-3.70413 -0.75975,-4.47367 -0.38057,-0.39023 -0.56143,-0.5067 -0.96889,-0.62396 -0.63415,-0.18249 -1.18317,-0.12395 -1.75467,0.1871 -0.52561,0.28607 -0.86951,0.68965 -1.09041,1.27965 -0.15605,0.4168 -0.16761,0.66568 -0.16761,3.60885 0,2.6306 0.0219,3.22336 0.13047,3.53166 0.50599,1.43678 1.99253,2.05471 3.31542,1.37816 z m -34.835532,1.23354 c -0.104481,-0.042 -0.26681,-0.20151 -0.360732,-0.35446 -0.166412,-0.271 -0.170204,-0.3936 -0.148701,-4.80776 l 0.02206,-4.52967 0.23344,-0.47534 c 1.078669,-2.19646 4.674813,-2.89559 6.996717,-1.36024 l 0.45682,0.30207 0.30518,-0.18907 c 1.16314,-0.72064 2.1486,-0.98375 3.43784,-0.91791 1.79317,0.0916 3.221308,0.92792 3.840898,2.24933 l 0.22311,0.47583 0.0264,4.36033 c 0.0184,3.03588 -0.002,4.458 -0.0681,4.68188 -0.16614,0.56493 -0.86888,0.82046 -1.4417,0.52424 -0.469694,-0.24288 -0.460644,-0.15357 -0.506314,-4.99445 -0.041,-4.3487 -0.0479,-4.49934 -0.22205,-4.8759 -0.827084,-1.78817 -3.238184,-1.88804 -4.244714,-0.17583 l -0.23224,0.39506 -0.0423,4.572 c -0.0458,4.94915 -0.029,4.7836 -0.5141,5.07014 -0.44076,0.26036 -1.1312,0.10456 -1.36722,-0.30852 -0.0827,-0.14476 -0.11836,-1.25116 -0.15068,-4.67695 -0.041,-4.3487 -0.0479,-4.49934 -0.22205,-4.8759 -0.827079,-1.78817 -3.238177,-1.88804 -4.244708,-0.17583 l -0.232237,0.39506 -0.04233,4.572 c -0.04582,4.94915 -0.02904,4.7836 -0.514104,5.07014 -0.251886,0.14879 -0.687325,0.17072 -0.988194,0.0497 z m 20.932452,10e-4 c -0.99263,-0.19736 -1.99325,-0.74071 -2.54758,-1.38336 -1.28709,-1.49216 -0.87263,-3.51487 0.93977,-4.58639 0.93079,-0.5503 1.40604,-0.65236 3.302,-0.70914 l 1.69333,-0.0507 0.0234,-1.3473 c 0.0267,-1.53688 -0.056,-1.92675 -0.52502,-2.47465 -0.84123,-0.98279 -2.3065,-1.1284 -3.24774,-0.32274 -0.49873,0.4269 -0.76123,0.91489 -0.85739,1.59389 -0.095,0.67084 -0.24738,0.94006 -0.63729,1.126 -0.54425,0.25953 -1.23733,-0.0489 -1.39528,-0.621 -0.10293,-0.37278 0.007,-1.01306 0.26524,-1.54958 0.58394,-1.21161 2.33196,-2.11668 4.08809,-2.11668 1.75366,0 3.46763,0.89532 4.08661,2.13472 0.33365,0.66805 0.37251,1.17705 0.34351,4.49827 l -0.0275,3.14306 -0.23043,0.49183 c -0.46442,0.99122 -1.67803,1.85767 -2.9869,2.13247 -0.63176,0.13264 -1.72794,0.15244 -2.28686,0.0413 z m 2.13044,-1.21136 c 0.44412,-0.22506 0.85249,-0.62911 1.10724,-1.09555 0.12349,-0.22611 0.15457,-0.53622 0.17773,-1.77354 l 0.0281,-1.49951 -0.21327,-0.0535 c -0.11729,-0.0294 -0.77758,-0.0396 -1.4673,-0.0227 -1.16526,0.0287 -1.28485,0.047 -1.68906,0.25849 -0.87768,0.45924 -1.35871,1.32404 -1.28023,2.30165 0.0527,0.65616 0.28732,1.11859 0.79384,1.56445 0.71855,0.63249 1.68623,0.75433 2.54298,0.32019 z m 21.02675,1.16342 c -1.23128,-0.32484 -2.25898,-1.09738 -2.72846,-2.05102 l -0.27721,-0.56309 v -3.51544 -3.51545 l 0.24117,-0.49113 c 0.46001,-0.93683 1.53099,-1.73307 2.77503,-2.06315 0.85006,-0.22554 2.23331,-0.18993 3.05812,0.0787 1.14037,0.37145 2.05704,1.1224 2.48058,2.0321 0.27334,0.58712 0.28529,1.45846 0.0294,2.14247 -0.24046,0.64269 -1.02198,1.43753 -1.7686,1.79873 -0.89944,0.43514 -1.3991,0.52378 -2.95996,0.52506 -0.7702,6.8e-4 -1.4861,0.0241 -1.59087,0.0522 -0.18792,0.0504 -0.19049,0.0701 -0.18968,1.45935 7.7e-4,1.30464 0.0156,1.43944 0.20131,1.83162 0.74352,1.57002 2.67349,1.87879 3.83503,0.61354 0.37127,-0.40442 0.6195,-1.03285 0.6195,-1.56834 0,-0.78006 0.82253,-1.27061 1.52307,-0.90835 0.38076,0.1969 0.50893,0.44619 0.50893,0.98981 0,1.41493 -1.22563,2.70393 -3.00229,3.15751 -0.6381,0.16291 -2.12856,0.16011 -2.75504,-0.005 z m 2.33156,-6.83962 c 1.79045,-0.83374 1.83628,-3.38986 0.0762,-4.25097 -1.10619,-0.54121 -2.42294,-0.12556 -3.06562,0.96768 -0.223,0.37934 -0.23217,0.44355 -0.25955,1.81622 -0.0156,0.78263 -0.007,1.47796 0.0185,1.54516 0.0382,0.0996 0.30171,0.12204 1.42538,0.12137 1.26764,-7.6e-4 1.41279,-0.0168 1.80505,-0.19946 z m 6.81244,-14.10145 c 0,-11.5913 -0.0231,-21.13535 -0.0514,-21.20901 -0.0452,-0.11779 0.0783,-0.13392 1.02506,-0.13392 0.94679,0 1.07026,0.0161 1.02505,0.13392 -0.0283,0.0737 -0.0514,9.61771 -0.0514,21.20901 v 21.07507 h -0.97366 -0.97367 z m 5.28845,20.96924 c -0.0221,-0.0582 -0.0305,-6.94479 -0.0185,-15.3035 l 0.0217,-15.19767 0.99483,-0.0238 0.99483,-0.0239 v 15.32736 15.32735 h -0.97632 c -0.70316,0 -0.98758,-0.0296 -1.01656,-0.10583 z"
         style="fill:#1b1a20;stroke-width:0.08466667" />
    </g>
  </g>
</svg>
