<?xml version="1.0" encoding="UTF-8"?><svg id="Layer_1" xmlns="http://www.w3.org/2000/svg" viewBox="0 0 578 178"><path d="M39,91.67v-.15c0-10.76,8.35-20.1,19.8-20.1s19.64,9.18,19.64,19.95v.15c0,10.76-8.35,20.1-19.8,20.1s-19.64-9.18-19.64-19.95Zm35.45,0v-.15c0-9.26-6.92-16.63-15.81-16.63s-15.66,7.45-15.66,16.48v.15c0,9.26,6.92,16.63,15.81,16.63s15.66-7.45,15.66-16.48Z"/><path d="M89.8,72.33h3.69v8.58c3.31-5.04,8.2-9.48,15.81-9.48,9.26,0,18.67,7.45,18.67,19.95v.15c0,12.49-9.41,20.1-18.67,20.1-7.68,0-12.64-4.37-15.81-9.18v20.32h-3.69v-50.43Zm34.17,19.34v-.15c0-10.09-7-16.56-15.05-16.56s-15.66,6.7-15.66,16.48v.15c0,9.86,7.68,16.48,15.66,16.48s15.05-6.1,15.05-16.41Z"/><path d="M136.83,91.6v-.15c0-11.14,7.83-20.02,18.21-20.02s17.61,8.73,17.61,20.1c0,.68,0,.9-.08,1.51h-31.84c.68,9.56,7.53,15.13,15.05,15.13,5.95,0,10.01-2.63,13.17-6.02l2.56,2.26c-3.91,4.21-8.51,7.23-15.88,7.23-10.09,0-18.82-8.05-18.82-20.02Zm31.84-1.88c-.53-7.75-4.97-14.9-13.77-14.9-7.6,0-13.47,6.4-14.15,14.9h27.92Z"/><path d="M183.41,72.33h3.69v7.15c2.56-4.52,6.85-8.05,13.85-8.05,9.71,0,15.35,6.62,15.35,15.81v23.48h-3.69v-22.81c0-7.9-4.44-13.1-12.19-13.1s-13.32,5.72-13.32,13.7v22.2h-3.69v-38.39Z"/><path d="M228.37,91.37v-.15c0-12.72,9.26-20.25,18.59-20.25,7.23,0,11.89,3.91,14.9,8.28v-23.48h5.8v54.94h-5.8v-7.83c-3.16,4.67-7.75,8.66-14.9,8.66-9.33,0-18.59-7.38-18.59-20.17Zm33.72-.08v-.15c0-8.96-6.85-14.98-14.07-14.98s-13.7,5.57-13.7,14.98v.15c0,9.18,6.32,15.05,13.7,15.05s14.07-6.1,14.07-15.05Z"/><path d="M277.66,99.42v-.15c0-8.35,6.77-12.72,16.63-12.72,4.97,0,8.43,.68,11.89,1.66v-1.2c0-6.92-4.21-10.54-11.52-10.54-4.59,0-8.2,1.13-11.82,2.78l-1.73-4.74c4.29-1.96,8.43-3.31,14.15-3.31s9.78,1.51,12.57,4.29c2.71,2.71,4.06,6.47,4.06,11.44v23.78h-5.72v-5.8c-2.71,3.46-7.15,6.62-14,6.62-7.3,0-14.53-4.14-14.53-12.12Zm28.6-3.01v-3.61c-2.86-.83-6.62-1.66-11.37-1.66-7.23,0-11.37,3.16-11.37,7.83v.15c0,4.89,4.52,7.75,9.79,7.75,7.15,0,12.95-4.29,12.95-10.46Z"/><path d="M325.82,100.4v-23.48h-5.42v-5.12h5.42v-11.74h5.8v11.74h12.34v5.12h-12.34v22.73c0,4.74,2.63,6.47,6.55,6.47,1.96,0,3.61-.38,5.64-1.35v4.97c-2.03,1.05-4.21,1.66-7,1.66-6.25,0-10.99-3.09-10.99-10.99Z"/><path d="M351.26,99.42v-.15c0-8.35,6.77-12.72,16.63-12.72,4.97,0,8.43,.68,11.89,1.66v-1.2c0-6.92-4.21-10.54-11.52-10.54-4.59,0-8.2,1.13-11.82,2.78l-1.73-4.74c4.29-1.96,8.43-3.31,14.15-3.31s9.78,1.51,12.57,4.29c2.71,2.71,4.06,6.47,4.06,11.44v23.78h-5.72v-5.8c-2.71,3.46-7.15,6.62-14,6.62-7.3,0-14.53-4.14-14.53-12.12Zm28.6-3.01v-3.61c-2.86-.83-6.62-1.66-11.37-1.66-7.23,0-11.37,3.16-11.37,7.83v.15c0,4.89,4.52,7.75,9.78,7.75,7.15,0,12.95-4.29,12.95-10.46Z"/><path d="M396.38,105.37l4.89-7.53c4.37,3.16,8.96,4.82,12.72,4.82,3.31,0,4.82-1.2,4.82-3.01v-.15c0-2.48-3.91-3.31-8.35-4.67-5.64-1.66-12.04-4.29-12.04-12.12v-.15c0-8.2,6.62-12.8,14.75-12.8,5.12,0,10.69,1.73,15.05,4.67l-4.37,7.9c-3.99-2.33-7.98-3.76-10.91-3.76s-4.21,1.2-4.21,2.78v.15c0,2.26,3.84,3.31,8.2,4.82,5.65,1.88,12.19,4.59,12.19,11.97v.15c0,8.96-6.7,13.02-15.43,13.02-5.64,0-11.97-1.88-17.31-6.1Z"/><path d="M433.84,90.77v-.15c0-11.59,9.33-21,21.9-21s21.75,9.26,21.75,20.85v.15c0,11.59-9.33,21-21.9,21s-21.75-9.26-21.75-20.85Zm32.36,0v-.15c0-5.95-4.29-11.14-10.61-11.14s-10.46,5.04-10.46,10.99v.15c0,5.95,4.29,11.14,10.61,11.14s10.46-5.04,10.46-10.99Z"/><path d="M486.19,80.16h-4.74v-9.41h4.74v-2.56c0-4.44,1.13-7.68,3.24-9.78,2.11-2.11,5.19-3.16,9.26-3.16,3.61,0,6.02,.45,8.13,1.13v9.48c-1.66-.6-3.24-.98-5.19-.98-2.63,0-4.14,1.35-4.14,4.37v1.58h9.26v9.33h-9.11v30.56h-11.44v-30.56Z"/><path d="M518.08,99.27v-19.12h-4.82v-9.78h4.82v-10.31h11.44v10.31h9.48v9.78h-9.48v17.24c0,2.63,1.13,3.91,3.69,3.91,2.11,0,3.99-.53,5.64-1.43v9.18c-2.41,1.43-5.19,2.33-9.03,2.33-7,0-11.74-2.78-11.74-12.12Z"/></svg>