<svg width="201" height="155" viewBox="0 0 201 155" fill="none" xmlns="http://www.w3.org/2000/svg">
<circle cx="49.5275" cy="58.1741" r="27.551" fill="#3DD693"/>
<circle cx="139.542" cy="58.1739" r="27.551" fill="#6FA5FF"/>
<path fill-rule="evenodd" clip-rule="evenodd" d="M81.4908 15.3935C82.5666 10.992 81.6173 7.13933 78.9354 3.89861C75.4396 -0.325768 69.6279 -0.652444 64.7181 0.824037C62.3369 1.3843 60.7541 2.96705 61.5126 5.31528C62.3764 7.9895 64.9637 7.03949 66.0829 6.62857C66.2227 6.57723 66.3396 6.53431 66.4274 6.50792C67.1259 6.29787 68.0734 6.07068 69.1043 5.97698C71.2412 5.78277 73.1266 6.18887 74.3628 7.68264C75.8769 9.51226 76.4035 11.5112 75.6513 14.2702C74.9023 17.0172 72.8634 20.5411 68.9515 25.0773C65.4189 23.6234 61.5491 22.8215 57.4921 22.8215C40.852 22.8215 27.3625 36.311 27.3625 52.951C27.3625 69.5911 40.852 83.0806 57.4921 83.0806C74.1321 83.0806 87.6216 69.5911 87.6216 52.951C87.6216 42.6012 82.403 33.4703 74.4537 28.0459C83.7245 19.1803 98.8372 12.1415 115.201 10.6073C118.311 10.3157 120.436 10.5834 121.777 11.0491C123.085 11.5033 123.469 12.0665 123.591 12.3586C123.723 12.6758 123.804 13.2908 123.355 14.2994C122.904 15.3136 121.983 16.5422 120.485 17.7752C113.166 23.8029 108.087 29.7841 106.019 39.7376C105.075 44.2801 105.556 48.3296 107.206 51.7372C108.847 55.1259 111.54 57.6689 114.679 59.4016C115.819 60.0313 117.029 60.56 118.285 60.988C121.802 73.7263 133.474 83.0805 147.331 83.0805C163.971 83.0805 177.461 69.5911 177.461 52.951C177.461 36.311 163.971 22.8215 147.331 22.8215C130.691 22.8215 117.202 36.311 117.202 52.951C117.202 53.3087 117.208 53.6649 117.22 54.0195C115.13 52.7955 113.519 51.1549 112.548 49.1507C111.537 47.0622 111.118 44.3679 111.83 40.9451C113.52 32.8125 117.509 27.9152 124.259 22.3569C126.279 20.6934 127.865 18.7645 128.779 16.7111C129.694 14.6521 129.995 12.2894 129.067 10.0697C128.129 7.82496 126.172 6.29213 123.724 5.44214C121.309 4.60368 118.261 4.35908 114.647 4.69789C102.527 5.83427 90.9232 9.78176 81.4908 15.3935ZM125.009 62.2997C128.711 62.5341 132.493 62.0208 135.921 60.7651C140.529 59.0776 144.203 57.5842 146.921 56.4163L145.685 61.3578C145.288 62.9479 146.255 64.5591 147.845 64.9566C149.435 65.3541 151.046 64.3874 151.443 62.7973L154.176 51.8666C154.493 50.5994 153.944 49.2741 152.824 48.602L143.715 43.1366C142.309 42.2934 140.487 42.7491 139.643 44.1545C138.8 45.56 139.256 47.3829 140.661 48.2261L144.953 50.8012C142.301 51.9489 138.601 53.4627 133.88 55.1919C130.554 56.4101 126.807 56.7082 123.346 56.1476C123.208 55.1016 123.137 54.0346 123.137 52.951C123.137 39.5889 133.969 28.7568 147.331 28.7568C160.693 28.7568 171.525 39.5889 171.525 52.951C171.525 66.3131 160.693 77.1452 147.331 77.1452C137.283 77.1452 128.666 71.02 125.009 62.2997ZM64.8789 29.9053C60.9382 35.0772 58.4875 40.1715 56.9816 44.2206C55.9585 46.9716 55.0443 49.8729 54.6706 52.7988C54.4638 54.4518 55.6073 55.9101 57.25 56.1137C59.1802 56.353 60.3584 55.1979 60.629 53.099C60.7555 52.1176 61.3083 49.614 62.5447 46.2895C63.9865 42.4126 66.4045 37.4508 70.398 32.4829C77.1813 36.769 81.6862 44.3339 81.6862 52.951C81.6862 66.3131 70.8541 77.1452 57.4921 77.1452C44.13 77.1452 33.2979 66.3131 33.2979 52.951C33.2979 39.589 44.13 28.7569 57.4921 28.7569C60.0682 28.7569 62.5503 29.1595 64.8789 29.9053Z" fill="#005A44"/>
<path fill-rule="evenodd" clip-rule="evenodd" d="M159.73 99.4915H166.262V142.245H159.73V99.4915ZM186.569 142.973C183.801 142.973 181.337 142.32 179.177 141.014C177.016 139.671 175.312 137.843 174.063 135.53C172.814 133.217 172.189 130.586 172.189 127.639C172.189 124.654 172.814 122.024 174.063 119.748C175.312 117.435 177.016 115.626 179.177 114.32C181.337 113.014 183.801 112.361 186.569 112.361C189.371 112.361 191.852 113.014 194.013 114.32C196.207 115.626 197.911 117.417 199.127 119.692C200.376 121.968 201 124.617 201 127.639C201 130.586 200.376 133.217 199.127 135.53C197.911 137.843 196.207 139.671 194.013 141.014C191.852 142.32 189.371 142.973 186.569 142.973ZM186.569 136.985C188.122 136.985 189.506 136.612 190.721 135.865C191.937 135.119 192.882 134.037 193.557 132.62C194.266 131.202 194.62 129.542 194.62 127.639C194.62 125.699 194.266 124.039 193.557 122.658C192.882 121.241 191.937 120.159 190.721 119.413C189.506 118.666 188.139 118.293 186.62 118.293C185.067 118.293 183.683 118.666 182.468 119.413C181.287 120.159 180.341 121.241 179.632 122.658C178.924 124.039 178.569 125.699 178.569 127.639C178.569 129.542 178.924 131.202 179.632 132.62C180.341 134.037 181.287 135.119 182.468 135.865C183.683 136.612 185.05 136.985 186.569 136.985ZM134.188 141.014C136.533 142.32 138.438 142.973 141.552 142.973C144.001 142.973 145.346 142.562 147.236 141.742C149.161 140.883 150.753 139.671 152.013 138.104L148.496 133.795C147.516 134.914 146.396 135.735 145.136 136.257L145.051 136.293C143.849 136.791 143.248 137.041 141.709 137.041C139.89 137.041 139.105 136.668 137.705 135.921C136.305 135.175 135.221 134.112 134.451 132.732C133.966 131.862 133.633 130.91 133.454 129.878H153.797C153.832 129.542 153.85 129.187 153.85 128.814C153.885 128.441 153.902 128.105 153.902 127.807C153.902 124.673 153.29 121.949 152.065 119.636C149.826 115.407 145.672 112.361 140.555 112.361C135.438 112.361 131.071 115.449 128.729 119.748C127.504 122.024 126.892 124.654 126.892 127.639C126.892 130.586 127.522 133.217 128.782 135.53C130.077 137.843 131.879 139.671 134.188 141.014ZM133.395 125.233C133.539 124.112 133.838 123.104 134.293 122.211C135.491 119.911 137.687 117.958 140.555 117.958C143.423 117.958 145.579 119.944 146.764 122.155C147.259 123.078 147.57 124.104 147.697 125.233H133.395ZM94.42 112.795H101.343L110.436 134.84L118.834 112.795H125.588L113.147 142.252H106.802L94.42 112.795ZM70.9104 141.014C73.0708 142.32 75.535 142.973 78.303 142.973C81.1048 142.973 83.5858 142.32 85.7462 141.014C87.9404 139.671 89.6451 137.843 90.8603 135.53C92.1092 133.217 92.7337 130.586 92.7337 127.639C92.7337 124.617 92.1092 121.968 90.8603 119.692C89.6451 117.417 87.9404 115.626 85.7462 114.32C83.5858 113.014 81.1048 112.361 78.303 112.361C75.535 112.361 73.0708 113.014 70.9104 114.32C68.75 115.626 67.0454 117.435 65.7964 119.748C64.5474 122.024 63.9229 124.654 63.9229 127.639C63.9229 130.586 64.5474 133.217 65.7964 135.53C67.0454 137.843 68.75 139.671 70.9104 141.014ZM82.455 135.865C81.2398 136.612 79.8558 136.985 78.303 136.985C76.784 136.985 75.4169 136.612 74.2016 135.865C73.0202 135.119 72.075 134.037 71.3661 132.62C70.6573 131.202 70.3028 129.542 70.3028 127.639C70.3028 125.699 70.6573 124.039 71.3661 122.658C72.075 121.241 73.0202 120.159 74.2016 119.413C75.4169 118.666 76.8009 118.293 78.3536 118.293C79.8727 118.293 81.2398 118.666 82.455 119.413C83.6702 120.159 84.6154 121.241 85.2905 122.658C85.9994 124.039 86.3538 125.699 86.3538 127.639C86.3538 129.542 85.9994 131.202 85.2905 132.62C84.6154 134.037 83.6702 135.119 82.455 135.865ZM47.099 142.973C43.9846 142.973 42.0798 142.32 39.7353 141.014C37.4257 139.671 35.6236 137.843 34.3288 135.53C33.0691 133.217 32.4392 130.586 32.4392 127.639C32.4392 124.654 33.0516 122.024 34.2763 119.748C36.6178 115.449 40.9849 112.361 46.1017 112.361C51.2186 112.361 55.3727 115.407 57.6122 119.636C58.8369 121.949 59.4493 124.673 59.4493 127.807C59.4493 128.105 59.4318 128.441 59.3968 128.814C59.3968 129.187 59.3793 129.542 59.3443 129.878H39.0009C39.1803 130.91 39.5126 131.862 39.9978 132.732C40.7676 134.112 41.8524 135.175 43.2521 135.921C44.6519 136.668 45.4369 137.041 47.2565 137.041C48.7952 137.041 49.3961 136.791 50.598 136.293L50.6835 136.257C51.9433 135.735 53.063 134.914 54.0429 133.795L57.5597 138.104C56.2999 139.671 54.7077 140.883 52.7831 141.742C50.8935 142.562 49.5486 142.973 47.099 142.973ZM39.8403 122.211C39.3852 123.104 39.0859 124.112 38.9423 125.233H53.2442C53.1168 124.104 52.8056 123.078 52.3107 122.155C51.1257 119.944 48.9697 117.958 46.1017 117.958C43.2337 117.958 41.0384 119.911 39.8403 122.211ZM19.9095 141.523C20.1493 141.407 20.3803 141.29 20.6024 141.17V142.787C20.6024 143.803 20.4144 144.74 20.0405 145.599L20.0393 145.602C19.6771 146.472 18.9478 147.193 17.821 147.756L17.8185 147.757C16.7433 148.313 15.0851 148.603 12.819 148.603C11.6362 148.603 10.4728 148.488 9.32864 148.259L9.32331 148.258C8.21071 148.066 7.1959 147.837 6.27844 147.569C5.35535 147.3 4.58892 147.051 3.97799 146.821L3.70383 146.719V152.713L3.84258 152.76C4.89492 153.11 6.21512 153.44 7.80098 153.75C9.39941 154.1 11.2076 154.275 13.2241 154.275C15.7462 154.275 17.8913 153.984 19.6542 153.396C21.4124 152.81 22.8304 151.986 23.8989 150.918C24.9996 149.856 25.7886 148.635 26.2625 147.254C26.7729 145.918 27.0269 144.467 27.0269 142.903V119.87C27.0269 118.09 26.4918 116.629 25.4088 115.505C24.3398 114.358 22.9387 113.512 21.2141 112.963C19.4936 112.416 17.5819 112.143 15.4811 112.143C13.4979 112.143 11.5721 112.377 9.70409 112.843C7.86228 113.275 6.19594 114.079 4.70695 115.254L4.7049 115.256C3.24552 116.439 2.08914 118.09 1.23032 120.198L1.22914 120.201C0.40661 122.316 3.33568e-05 125.025 3.33568e-05 128.319C3.33568e-05 131.426 0.485321 134.079 1.46444 136.272L1.4657 136.275C2.48485 138.47 3.97761 140.161 5.94358 141.34L5.94771 141.343C7.95153 142.482 10.3789 143.067 13.2213 143.105H13.2241C14.3606 143.105 15.4963 142.949 16.6307 142.636C17.7991 142.363 18.8912 141.993 19.9066 141.524L19.9095 141.523ZM9.75859 119.105C10.9833 118.177 12.7467 117.7 15.076 117.7C16.0661 117.7 16.9968 117.795 17.8686 117.984C18.7285 118.171 19.3844 118.504 19.8517 118.971L19.8572 118.977L19.8631 118.982C20.3421 119.392 20.6024 120.058 20.6024 121.027V136.132C19.6823 136.671 18.6729 137.088 17.5732 137.381C16.431 137.648 15.3093 137.781 14.2079 137.781C11.5968 137.781 9.69832 136.895 8.47107 135.147C7.22854 133.377 6.59815 131.049 6.59815 128.145C6.59815 126.193 6.82779 124.418 7.2848 122.819C7.7368 121.237 8.56194 120.003 9.75781 119.106L9.75859 119.105Z" fill="#005A44"/>
</svg>
