<?xml version="1.0" encoding="UTF-8"?> <svg xmlns="http://www.w3.org/2000/svg" width="199.15" height="70.03" viewBox="0 0 199.15 70.03"><path d="M11.97 34.12H0v-8.25h33.65v8.25h-11.9v35.11h-9.78V34.12Zm55.32 13.23c0-8.64-3.72-13.83-9.64-13.83s-9.64 5.19-9.64 13.83 3.79 14.23 9.64 14.23 9.64-5.52 9.64-14.23m-29.32 0c0-14.16 8.05-22.28 19.68-22.28s19.68 8.18 19.68 22.28-7.98 22.67-19.68 22.67-19.68-8.51-19.68-22.67m47.01-21.47h9.77v24.27c0 8.51 2.66 11.44 7.51 11.44s7.71-2.92 7.71-11.44V25.88h9.44v23.27c0 14.56-5.92 20.88-17.15 20.88s-17.29-6.32-17.29-20.88V25.88Zm53.86 19.94h4.99c5.12 0 7.91-2.2 7.91-6.45s-2.79-5.72-7.91-5.72h-4.99v12.17Zm13.63 23.41-8.31-15.62h-5.32v15.62H129V25.88h15.63c9.18 0 16.76 3.19 16.76 13.5 0 6.38-3.12 10.44-7.71 12.5l9.77 17.35h-10.97Zm19.95-12.17c3.06 2.66 7.05 4.52 10.64 4.52 4.05 0 6.05-1.6 6.05-4.19 0-2.73-2.46-3.59-6.25-5.19l-5.58-2.39c-4.52-1.8-8.78-5.52-8.78-11.84 0-7.18 6.45-12.9 15.42-12.9a20.07 20.07 0 0 1 13.96 5.72l-4.92 6.18c-2.86-2.2-5.59-3.46-9.04-3.46s-5.52 1.46-5.52 3.92c0 2.66 2.86 3.59 6.65 5.12l5.52 2.26c5.25 2.13 8.58 5.65 8.58 11.77 0 7.18-5.98 13.43-16.29 13.43a24.054 24.054 0 0 1-16.09-6.25l5.65-6.71ZM0 6.53h1.24l1.5 5c.32 1.1.55 1.98.89 3.06h.06c.34-1.09.58-1.96.89-3.06l1.48-5h1.2l-2.94 9.26H2.95L0 6.53Zm11.27 0h1.19v9.26h-1.19zm6.45 0h1.18v8.26h4.04v1h-5.22V6.53Zm9.61 0h1.18v8.26h4.04v1h-5.22V6.53Zm9.61 0h5.34v.99h-4.15v2.91h3.5v1h-3.5v3.36h4.29v1h-5.48V6.53Zm18.04 8.3c2.16 0 3.25-1.37 3.25-3.71s-1.09-3.63-3.25-3.63h-1.06v7.34h1.06Zm-2.23-8.3h2.32c2.85 0 4.38 1.65 4.38 4.59s-1.52 4.67-4.32 4.67h-2.37V6.53Zm11.45 0h5.34v.99h-4.15v2.91h3.5v1h-3.5v3.36h4.29v1H64.2V6.53Zm55.25 9.27h-7.29c3.15-6.77 4.47-9.82 5.28-15.79h9.25c-1.2 6.37-1.94 8.69-7.24 15.79M77.71 0h9.25c.81 5.97 2.12 9.02 5.27 15.79h-7.28c-5.3-7.1-6.03-9.42-7.24-15.79m27.63 15.79h-6.4A78.337 78.337 0 0 1 96.88.01c0-.02 10.63-.02 10.63 0-.17 5.32-.89 10.61-2.16 15.78"></path></svg> 